<svg width="512" height="512" viewBox="0 0 512 512" fill="none" xmlns="http://www.w3.org/2000/svg">
<g clip-path="url(#clip0_4_1360)">
<mask id="mask0_4_1360" style="mask-type:luminance" maskUnits="userSpaceOnUse" x="0" y="0" width="512" height="512">
<path d="M512 0H0V512H512V0Z" fill="white"/>
</mask>
<g mask="url(#mask0_4_1360)">
<path d="M242.396 426.533C278.396 415.945 296.432 395.639 326.396 379.944C341.22 372.179 370.867 380.651 377.926 389.827C388.711 403.848 389.677 391.353 382.161 385.591C360.985 369.356 318.632 357.356 289.691 370.062C272.924 377.423 254.396 418.768 242.396 426.533Z" fill="url(#paint0_linear_4_1360)"/>
<path d="M242.396 426.533C278.396 415.945 296.432 395.639 326.396 379.944C341.22 372.179 370.867 380.651 377.926 389.827C388.711 403.848 389.677 391.353 382.161 385.591C360.985 369.356 318.632 357.356 289.691 370.062C272.924 377.423 254.396 418.768 242.396 426.533Z" fill="url(#paint1_linear_4_1360)"/>
<path d="M242.396 426.533C278.396 415.945 296.432 395.639 326.396 379.944C341.22 372.179 370.867 380.651 377.926 389.827C388.711 403.848 389.677 391.353 382.161 385.591C360.985 369.356 318.632 357.356 289.691 370.062C272.924 377.423 254.396 418.768 242.396 426.533Z" stroke="#116D1D" stroke-width="8" stroke-linecap="round" stroke-linejoin="round"/>
<path d="M242.396 426.533C278.396 415.945 296.432 395.639 326.396 379.944C341.22 372.179 370.867 380.651 377.926 389.827C380.172 392.746 381.992 394.516 383.398 395.437" stroke="#29821C" stroke-width="8" stroke-linecap="round" stroke-linejoin="round"/>
<path d="M242.396 426.533C260.072 421.334 273.418 413.792 285.971 405.604" stroke="#4CAF25" stroke-width="8" stroke-linecap="round" stroke-linejoin="round"/>
<path d="M90.6328 436.415C106.515 438.533 159.103 407.473 208.515 385.591C255.993 364.565 296.751 355.238 355.692 379.238C370.285 385.18 368.204 374.317 357.456 369.356C329.927 356.65 257.221 339.003 208.515 351.709C147.859 367.532 118.868 402.533 90.6328 436.415Z" fill="url(#paint2_linear_4_1360)"/>
<path d="M212.985 350.15C211.467 353.185 202.161 362.297 207.808 363.709C210.585 364.403 219.103 354.297 223.338 348.65C220.044 349.591 214.397 349.679 212.985 350.15Z" fill="#1E7C16"/>
<path d="M200.514 354.767C190.867 361.826 167.338 396.179 161.691 407.473C153.926 413.826 106.868 435.708 92.75 437.12C94.162 427.944 133.691 391.238 140.75 384.885C133.691 394.297 117.22 412.885 114.632 423.003C124.193 414.739 144.572 383.749 152.985 378.297C147.283 383.187 136.749 407.238 136.514 415.944C152.749 388.415 161.221 377.121 164.75 375.709C167.574 373.591 150.632 396.885 147.808 410.297C153.69 411.709 163.338 384.414 193.456 355.238C197.112 351.696 204.542 351.82 200.514 354.767Z" fill="url(#paint3_linear_4_1360)"/>
<path d="M90.6328 436.415C106.515 438.533 159.103 407.473 208.515 385.591C255.993 364.565 296.751 355.238 355.692 379.238C370.285 385.18 368.204 374.317 357.456 369.356C329.927 356.65 257.221 339.003 208.515 351.709C147.859 367.532 118.868 402.533 90.6328 436.415Z" stroke="#005401" stroke-width="8" stroke-linejoin="round"/>
<path d="M207.084 352.087C147.401 368.085 118.645 402.801 90.6328 436.415C101.6 437.877 130.067 423.521 162.906 407.29" stroke="#06650A" stroke-width="8" stroke-linecap="round" stroke-linejoin="round"/>
<path d="M163.338 430.768C173.22 430.768 200.804 432.605 238.632 412.415C276.985 391.944 320.75 365.827 367.338 388.415C389.523 399.172 376.055 380.903 365.927 375.709C338.398 361.591 286.162 358.768 248.28 367.474C228.047 372.124 197.22 393.356 163.338 430.768Z" fill="url(#paint4_linear_4_1360)"/>
<g opacity="0.8">
<path d="M162.633 431.474C186.828 403.721 227.074 374.348 228.28 376.415C225.457 384.886 220.516 395.945 224.751 396.651C228.986 397.357 241.692 370.063 251.574 367.945C255.44 367.117 278.249 361.475 274.163 366.063C269.721 371.051 246.152 396.623 260.751 367.945C247.339 368.651 230.963 400.477 224.751 418.768C219.104 422.297 228.987 402.533 226.163 401.827C223.339 401.121 211.34 414.533 208.516 423.004C203.545 425.8 198.285 427.097 190.869 428.651C187.677 429.32 211.34 406.063 202.869 405.357C200.282 405.141 175.736 432.357 173.222 432.365C169.499 432.377 165.911 432.098 162.633 431.474Z" fill="url(#paint5_linear_4_1360)"/>
</g>
<g opacity="0.3">
<path d="M248.279 406.062C255.261 397.528 293.456 371.944 321.691 372.65C357.423 373.543 362.396 382.062 370.867 387.003C351.808 383.474 310.397 367.944 248.279 406.062Z" fill="#89C7A2"/>
</g>
<path d="M163.338 430.768C173.22 430.768 200.804 432.605 238.632 412.415C276.985 391.944 320.75 365.827 367.338 388.415C389.523 399.172 376.054 380.903 365.926 375.709C338.397 361.591 286.161 358.768 248.279 367.474C228.046 372.124 197.22 393.356 163.338 430.768Z" stroke="#126535" stroke-width="8" stroke-linecap="round" stroke-linejoin="round"/>
<path d="M365.926 375.709C338.397 361.591 286.161 358.768 248.279 367.474C228.046 372.124 197.22 393.356 163.338 430.768C173.22 430.768 200.804 432.605 238.632 412.415C253.383 404.542 268.934 395.833 285.138 389.382" stroke="#247C50" stroke-width="8" stroke-linecap="round" stroke-linejoin="round"/>
<path d="M249.47 367.205C249.072 367.293 248.674 367.383 248.279 367.474C228.046 372.124 197.22 393.356 163.338 430.768C172.749 430.768 198.215 432.434 233.294 415.154" stroke="#1F9B57" stroke-width="8" stroke-linecap="round" stroke-linejoin="round"/>
<path d="M275.22 129.357C261.455 142.063 240.279 153.709 242.397 196.062C244.145 231.024 250.211 274.046 309.103 329.474C327.103 346.415 332.788 335.159 319.691 322.062C287.926 290.297 284.75 257.474 292.162 196.062C296.61 159.21 280.514 144.181 275.22 129.357Z" fill="url(#paint6_linear_4_1360)"/>
<path d="M274.19 128.302C263.618 136.811 242.081 148.744 242.52 197.095C242.934 242.753 257.418 278.041 309.104 329.474C257.69 275.293 254.302 226.362 253.205 196.612C252.492 177.277 258.059 155.793 271.422 146.194C281.559 155.866 284.074 171.006 291.538 196.505C295.506 172.91 284.584 147.876 274.19 128.302Z" fill="url(#paint7_linear_4_1360)"/>
<path d="M267.56 224.704C263.054 247.761 281.737 254.159 297.581 290.061C293.692 279.523 287.876 255.977 289.63 234.679C283.005 172.871 270.919 200.834 279.441 226.666C286.417 247.812 278.689 248.653 267.56 224.704Z" fill="url(#paint8_linear_4_1360)"/>
<path d="M275.22 129.357C261.455 142.063 240.279 153.709 242.397 196.062C244.145 231.024 250.211 274.046 309.103 329.474C327.103 346.415 332.788 335.159 319.691 322.062C287.926 290.297 284.75 257.474 292.162 196.062C296.61 159.21 280.514 144.181 275.22 129.357Z" stroke="#7EAE1B" stroke-width="8" stroke-linecap="round" stroke-linejoin="round"/>
<path d="M44.5156 247.003C52.2806 249.827 120.987 264.886 140.046 262.768C159.105 260.65 193.692 255.709 208.516 259.944C223.34 264.179 298.869 323.474 310.163 333.356C321.457 343.238 324.281 327.709 315.81 319.238C307.339 310.767 213.458 238.767 201.458 235.238C189.458 231.709 106.634 212.179 80.7516 219.238C65.1926 223.481 52.5156 238.062 44.5156 247.003Z" fill="#1E8C07"/>
<path d="M216.281 253.591C206.163 251.473 195.575 248.886 194.244 258.301C199.869 258.4 204.81 258.885 208.516 259.944C223.34 264.179 298.869 323.474 310.163 333.356C321.457 343.238 324.281 327.709 315.81 319.238C307.339 310.767 213.458 238.767 201.458 235.238C205.929 247.003 209.693 248.885 216.281 253.591Z" fill="#2C6C11"/>
<path d="M44.5156 247.003C52.2806 249.827 120.986 264.886 140.045 262.768C159.104 260.65 160.516 222.533 146.398 221.827C115.5 238 95.0006 227.501 66.6336 241.592C77.9276 236.651 85.6916 222.533 80.7506 219.239C65.1916 223.482 52.5156 238.062 44.5156 247.003Z" fill="url(#paint9_linear_4_1360)"/>
<path d="M44.5156 247.003C52.2806 249.827 120.987 264.886 140.046 262.768C159.105 260.65 193.692 255.709 208.516 259.944C223.34 264.179 298.869 323.474 310.163 333.356C321.457 343.238 324.281 327.709 315.81 319.238C307.339 310.767 213.458 238.767 201.458 235.238C189.458 231.709 106.634 212.179 80.7516 219.238C65.1926 223.481 52.5156 238.062 44.5156 247.003Z" stroke="#215E0B" stroke-width="8" stroke-linecap="round" stroke-linejoin="round"/>
<path d="M195.947 258.343C200.866 258.505 205.189 258.993 208.516 259.944C223.34 264.179 298.869 323.474 310.163 333.356C321.457 343.238 324.281 327.709 315.81 319.238C307.693 311.121 221.154 244.673 203.379 236.029" stroke="#19400C" stroke-width="8" stroke-linecap="round" stroke-linejoin="round"/>
<path d="M186.634 211.239C226.163 232.415 326.398 338.297 362.398 369.356C372.253 377.858 378.153 375.464 366.634 365.121C332.046 334.062 231.811 246.533 204.987 202.062C184.116 167.461 168.686 201.624 186.634 211.239Z" fill="#144F07"/>
<path d="M186.634 211.239C226.163 232.415 326.398 338.297 362.398 369.356C372.253 377.858 378.153 375.464 366.634 365.121C332.046 334.062 231.811 246.533 204.987 202.062C184.116 167.461 168.686 201.624 186.634 211.239Z" stroke="#153419" stroke-width="8" stroke-linecap="round" stroke-linejoin="round"/>
<path d="M408.987 116.65C413.222 130.768 418.164 158.298 416.046 174.533C413.928 190.768 336.987 320.65 377.222 368.65C417.457 416.65 374.099 386.099 364.517 370.768C311.576 286.062 345.458 252.18 360.987 205.592C380.258 147.78 400.516 131.474 408.987 116.65Z" fill="url(#paint10_linear_4_1360)"/>
<g opacity="0.8">
<path d="M408.984 116.65C413.219 130.768 418.161 158.297 416.043 174.532C415.338 179.94 406.33 197.957 396.117 221.358C372.984 214.767 355.338 283.944 353.22 274.062C349.759 257.912 368.493 228.285 380.749 211.944C389.22 200.65 401.22 182.297 394.161 187.238C378.644 198.1 358.867 243.003 359.573 229.591C360.899 204.401 400.514 184.415 406.161 157.591C408.506 146.453 387.102 185.12 360.984 205.591C380.255 147.779 400.513 131.474 408.984 116.65Z" fill="url(#paint11_linear_4_1360)"/>
</g>
<path d="M399.036 214.739C378.229 261.526 349.094 335.096 377.221 368.651C417.456 416.651 374.097 386.099 364.515 370.768C311.574 286.062 345.456 252.18 360.985 205.592C351.103 259.945 379.338 259.239 399.036 214.739Z" fill="url(#paint12_linear_4_1360)"/>
<path d="M408.987 116.65C413.222 130.768 418.164 158.298 416.046 174.533C413.928 190.768 336.987 320.65 377.222 368.65C417.457 416.65 374.099 386.099 364.517 370.768C311.576 286.062 345.458 252.18 360.987 205.592C380.258 147.78 400.516 131.474 408.987 116.65Z" stroke="#35560A" stroke-width="8" stroke-linecap="round" stroke-linejoin="round"/>
<path d="M355.422 220.379C357.403 215.545 359.302 210.643 360.986 205.592C380.257 147.78 400.515 131.474 408.986 116.65C413.221 130.768 418.163 158.298 416.045 174.533C415.047 182.183 397.434 215.07 383.297 252.732" stroke="#4A8703" stroke-width="8" stroke-linecap="round" stroke-linejoin="round"/>
<path d="M437.222 178.768C430.869 195.709 425.928 211.945 418.163 231.004C410.076 250.854 358.416 321.968 374.399 365.121C381.458 384.18 372.423 384.399 365.222 370.768C345.457 333.356 358.869 269.828 371.575 243.004C384.281 216.18 421.693 185.121 437.222 178.768Z" fill="url(#paint13_linear_4_1360)"/>
<path d="M437.222 178.768C430.869 195.709 427.719 210.144 420.987 229.592C414.634 247.945 383.575 272.65 366.634 315.003C365.31 318.314 359.918 313.961 369.457 298.062C377.928 283.944 391.977 260.871 387.81 262.062C379.895 264.323 371.575 291.71 370.869 283.239C368.862 259.157 411.104 238.768 413.928 216.886C415.102 207.785 404.045 204.886 394.869 214.062C407.575 199.944 418.163 184.415 437.222 178.768Z" fill="url(#paint14_linear_4_1360)"/>
<path d="M408.28 202.062C389.221 227.474 367.339 263.474 359.574 285.356C360.986 266.297 371.574 223.944 408.28 202.062Z" fill="#84E72D"/>
<path d="M437.222 178.768C430.869 195.709 425.928 211.944 418.163 231.003C410.076 250.853 358.416 321.968 374.399 365.121C381.458 384.18 372.423 384.399 365.222 370.768C345.457 333.356 358.869 269.827 371.575 243.003C384.281 216.179 421.693 185.121 437.222 178.768Z" stroke="#2B7201" stroke-width="8" stroke-linecap="round" stroke-linejoin="round"/>
<path d="M394.703 211.66C409.942 195.854 427.698 182.664 437.222 178.768C430.869 195.709 425.928 211.944 418.163 231.003C414.614 239.713 402.676 258.295 391.744 280.053" stroke="#56A008" stroke-width="8" stroke-linecap="round" stroke-linejoin="round"/>
<path d="M298.163 206.297C320.751 250.768 326.398 271.944 339.81 304.415C349.272 327.324 362.249 353.788 381.104 376.415C409.339 410.297 446.751 425.474 454.516 430.415C458.751 429.709 461.222 428.651 464.398 426.18C431.927 412.062 400.682 391.564 386.045 372.18C359.927 337.592 330.634 267.709 322.163 199.944C318.219 168.393 286.032 182.415 298.163 206.297Z" fill="url(#paint15_linear_4_1360)"/>
<path d="M298.163 206.297C320.751 250.768 326.398 271.944 339.81 304.415C349.272 327.324 362.249 353.788 381.104 376.415C409.339 410.297 446.751 425.474 454.516 430.415C458.751 429.709 461.222 428.651 464.398 426.18C431.927 412.062 400.682 391.564 386.045 372.18C359.927 337.592 330.634 267.709 322.163 199.944C318.219 168.393 286.032 182.415 298.163 206.297Z" stroke="#4F9920" stroke-width="8" stroke-linecap="round" stroke-linejoin="round"/>
<path d="M298.163 206.298C315.829 241.078 323.132 261.61 331.892 284.439C320.751 245.828 317.221 224.651 326.321 224.667C324.599 216.449 323.193 208.186 322.163 199.945C318.219 168.394 286.032 182.416 298.163 206.298Z" fill="#0F6802"/>
<path d="M311.26 233.483C323.728 261.007 329.455 279.345 339.81 304.415C349.272 327.324 362.249 353.788 381.104 376.415C382.04 377.538 382.986 378.641 383.94 379.723" stroke="#157005" stroke-width="8" stroke-linecap="round" stroke-linejoin="round"/>
<path d="M464.398 426.18C431.927 412.062 400.682 391.564 386.045 372.18" stroke="#91CE25" stroke-width="8" stroke-linecap="round" stroke-linejoin="round"/>
<path d="M326.295 225.513C324.62 217.006 323.227 208.458 322.163 199.944C318.219 168.393 286.032 182.415 298.163 206.297C310.223 230.041 317.454 247.144 323.616 262.871" stroke="#123D01" stroke-width="8" stroke-linecap="round" stroke-linejoin="round"/>
<path d="M417.103 467.827C419.397 465.945 422.397 463.239 423.456 461.827C419.221 451.474 394.031 406.886 376.162 390.179C332.749 349.591 284.33 337.386 272.367 334.032C245.499 326.499 212.985 319.238 203.573 307.944C194.161 296.65 178.397 335.473 194.397 335.473C210.397 335.473 248.999 337 270.955 343.209C298.142 350.897 335.808 359.355 371.574 393.473C394.212 415.069 409.574 446.651 417.103 467.827Z" stroke="#3F9921" stroke-width="8" stroke-linecap="round" stroke-linejoin="round"/>
<path d="M423.456 461.827C419.221 451.474 394.031 406.887 376.162 390.179C332.75 349.591 284.331 337.386 272.368 334.032C269.658 333.272 266.891 332.515 264.096 331.757" stroke="#C2E14B" stroke-width="8" stroke-linecap="round" stroke-linejoin="round"/>
<path d="M374.18 388.35C331.287 349.222 284.148 337.335 272.367 334.032C252.346 328.419 229.189 322.956 214.793 315.863" stroke="#ABCB00" stroke-width="8" stroke-linecap="round" stroke-linejoin="round"/>
<path d="M271.52 333.753C260.225 328.577 214.386 316.682 204.974 305.388C195.562 294.094 177.937 336.493 193.937 336.493C209.937 336.493 255.5 338.5 282.247 346.966C309.183 355.492 282.814 338.929 271.52 333.753Z" fill="url(#paint16_linear_4_1360)"/>
<path d="M271.52 333.753C260.225 328.577 214.386 316.682 204.974 305.388C195.562 294.094 177.937 336.493 193.937 336.493C209.937 336.493 255.5 338.5 282.247 346.966C309.183 355.492 282.814 338.929 271.52 333.753Z" stroke="#1B470B" stroke-width="8" stroke-linecap="round" stroke-linejoin="round"/>
<path d="M449.927 447.709C437.927 440.65 393.457 397.591 383.575 385.591C373.693 373.591 355.339 352.414 338.398 324.179C323.574 299.473 300.225 338.213 320.045 348.885C338.398 358.767 369.804 380.291 380.045 390.532C395.574 406.061 432.281 444.179 441.457 459.003C443.575 456.179 447.103 451.944 449.927 447.709Z" fill="#9EBF00"/>
<path d="M354.967 350.543C349.615 342.407 344.008 333.525 338.4 324.179C323.576 299.473 300.227 338.213 320.047 348.885C330.702 354.622 345.758 364.284 358.516 373.383C346.871 358.768 348.283 351.003 354.967 350.543Z" fill="url(#paint17_linear_4_1360)"/>
<path d="M449.927 447.709C437.927 440.65 393.457 397.591 383.575 385.591C373.693 373.591 355.339 352.414 338.398 324.179C323.574 299.473 300.225 338.213 320.045 348.885C338.398 358.767 369.804 380.291 380.045 390.532C395.574 406.061 432.281 444.179 441.457 459.003C443.575 456.179 447.103 451.944 449.927 447.709Z" stroke="#4A9636" stroke-width="8" stroke-linecap="round" stroke-linejoin="round"/>
<path d="M327.953 316.113C315.405 315.125 304.575 340.555 320.045 348.885C338.398 358.767 369.804 380.291 380.045 390.532C388.951 399.438 404.824 415.775 418.474 430.886" stroke="#157005" stroke-width="8" stroke-linecap="round" stroke-linejoin="round"/>
<path d="M352.986 346.533C348.161 339.687 343.222 332.219 338.398 324.179C323.574 299.473 300.225 338.213 320.045 348.885C328.556 353.468 339.875 360.555 350.588 367.859" stroke="#0D5900" stroke-width="8" stroke-linecap="round" stroke-linejoin="round"/>
<path d="M449.927 447.709C437.927 440.65 393.457 397.591 383.575 385.591C378.824 379.822 372.115 371.932 364.547 362.156" stroke="#D5F201" stroke-width="8" stroke-linecap="round" stroke-linejoin="round"/>
<path d="M367.986 391.474C371.515 394.474 372.927 395.532 375.045 398.003C379.28 393.591 389.691 382.533 393.456 379.239C391.691 377.121 388.692 374.18 387.28 371.827C383.751 375.533 371.28 388.65 367.986 391.474Z" fill="#EDD75C"/>
<path d="M367.986 391.474C371.515 394.474 372.927 395.532 375.045 398.003C379.28 393.591 389.691 382.533 393.456 379.239C391.691 377.121 388.692 374.18 387.28 371.827C383.751 375.533 371.28 388.65 367.986 391.474Z" stroke="#EDD75C" stroke-width="8" stroke-linecap="round" stroke-linejoin="round"/>
<path d="M378.085 395.384L380.898 392.333L374.659 385.38L371.912 388.277L378.085 395.384Z" fill="#EDEB5B"/>
<path d="M378.085 395.384L380.898 392.333L374.659 385.38L371.912 388.277L378.085 395.384Z" stroke="#EDEC5C" stroke-width="8" stroke-linecap="round" stroke-linejoin="round"/>
<path d="M60.9852 155.474C76.9992 149 175.249 136.75 163.191 200.209C146.749 250 129.749 188.5 65.9262 168.886C55.3112 167.174 49.8022 159.995 60.9852 155.474Z" fill="url(#paint18_linear_4_1360)"/>
<path d="M60.9859 155.474C72.2799 156.18 81.4569 165.356 81.2029 174.338C75.6239 171.565 70.2999 170.188 65.9269 168.886C58.3339 166.625 47.6579 161.747 60.9859 155.474Z" fill="#F955AF"/>
<path d="M60.9852 155.474C76.9992 149 175.249 136.75 163.191 200.209C146.749 250 129.749 188.5 65.9262 168.886C55.3112 167.174 49.8022 159.995 60.9852 155.474Z" stroke="#8C0036" stroke-width="8" stroke-linecap="round" stroke-linejoin="round"/>
<path d="M64.715 168.663C54.909 166.621 50.236 159.82 60.985 155.474C61.856 155.122 62.97 154.753 64.297 154.379" stroke="#C1006A" stroke-width="8" stroke-linecap="round" stroke-linejoin="round"/>
<path d="M136.517 94.7687C150.635 120.181 178.701 118.98 200.752 136.416C231.105 160.416 212.625 212.057 195.105 209.827C156.281 204.886 97.6932 111.004 136.517 94.7687Z" fill="#A00837"/>
<path d="M136.517 94.7687C150.635 120.181 178.701 118.98 200.752 136.416C231.105 160.416 212.625 212.057 195.105 209.827C156.281 204.886 97.6932 111.004 136.517 94.7687Z" stroke="#6D0000" stroke-width="8" stroke-linecap="round" stroke-linejoin="round"/>
<path d="M117.862 137.022C107.827 114.085 109.414 78.6317 131.274 79.8457C143.98 80.5517 143.534 98.8177 144.686 117.257C146.804 151.139 175.744 185.728 158.803 183.61C141.862 181.492 122.803 148.316 117.862 137.022Z" fill="url(#paint19_linear_4_1360)"/>
<path d="M117.862 137.022C107.827 114.085 109.414 78.6317 131.274 79.8457C143.98 80.5517 143.534 98.8177 144.686 117.257C146.804 151.139 175.744 185.728 158.803 183.61C141.862 181.492 122.803 148.316 117.862 137.022Z" stroke="#A8045A" stroke-width="8" stroke-linecap="round" stroke-linejoin="round"/>
<path d="M146.398 142.768C138.633 128.65 141.457 111.709 129.457 106.768C122.159 103.763 108.986 104.65 96.9863 104.65C84.9863 104.65 68.7513 119.474 79.3393 132.886C89.9273 146.298 108.28 156.885 116.045 171.003C123.81 185.121 146 231 176.721 210.797C196.123 198.038 151.304 151.688 146.398 142.768Z" fill="url(#paint20_linear_4_1360)"/>
<path d="M146.398 142.768C138.633 128.65 141.457 111.709 129.457 106.768C122.159 103.763 108.986 104.65 96.9863 104.65C84.9863 104.65 68.7513 119.474 79.3393 132.886C89.9273 146.298 108.28 156.885 116.045 171.003C123.81 185.121 146 231 176.721 210.797C196.123 198.038 151.304 151.688 146.398 142.768Z" stroke="#560027" stroke-width="8" stroke-linecap="round" stroke-linejoin="round"/>
<g opacity="0.5">
<path d="M107.573 104.543C89.2212 102.533 70.7502 114.5 80.8392 129.635C85.5792 136.746 92.6022 139.914 100.66 147.416C85.3092 118.989 91.3392 111.003 107.573 104.543Z" fill="#FF7DCA"/>
</g>
<path d="M146.398 142.768C134.5 123.25 149.25 98.2505 100.174 105.504C146.5 106 123.76 153.656 146.398 142.768Z" fill="url(#paint21_linear_4_1360)"/>
<path d="M156.974 156.683C151.914 150.261 147.716 145.164 146.398 142.768C138.633 128.65 141.457 111.709 129.457 106.768C122.159 103.763 108.986 104.65 96.9863 104.65C84.9863 104.65 68.7513 119.474 79.3393 132.886C80.0743 133.816 80.8463 134.733 81.6493 135.639" stroke="#C1006A" stroke-width="8" stroke-linecap="round" stroke-linejoin="round"/>
<path d="M108.985 139.945C116.694 142.258 136.865 149.049 160.514 144.18C184.514 139.239 171.5 200 130.162 162.533C122.317 155.422 108.279 156.18 104.75 151.945C101.221 147.71 101.926 137.827 108.985 139.945Z" fill="url(#paint22_linear_4_1360)"/>
<path d="M108.985 139.945C116.694 142.258 136.865 149.049 160.514 144.18C184.514 139.239 171.5 200 130.162 162.533C122.317 155.422 108.279 156.18 104.75 151.945C101.221 147.71 101.926 137.827 108.985 139.945Z" stroke="#AD0067" stroke-width="8" stroke-linecap="round" stroke-linejoin="round"/>
<path d="M152.262 145.447C154.954 145.171 157.709 144.757 160.514 144.18C184.514 139.239 171.5 199.999 130.162 162.533C122.317 155.422 108.279 156.18 104.75 151.945C103.347 150.261 102.613 147.685 102.682 145.325" stroke="#8C005A" stroke-width="8" stroke-linecap="round" stroke-linejoin="round"/>
<path d="M168.282 119.003C163.231 127.842 138.635 135.357 132.988 157.239C127.341 179.121 130.164 214.062 152.752 225.356C175.34 236.65 195.502 215 201.017 202.974C216.693 168.791 177.694 102.532 168.282 119.003Z" fill="url(#paint23_linear_4_1360)"/>
<path d="M132.988 157.239C127.546 181.658 130.164 214.062 152.752 225.356C175.34 236.65 190.179 220.621 200.767 202.974C230.033 156.739 135.437 197.328 132.988 157.239Z" fill="url(#paint24_linear_4_1360)"/>
<path d="M168.282 119.003C163.231 127.842 138.635 135.357 132.988 157.239C127.341 179.121 130.164 214.062 152.752 225.356C175.34 236.65 195.502 215 201.017 202.974C216.693 168.791 177.694 102.532 168.282 119.003Z" stroke="#7C163B" stroke-width="8" stroke-linecap="round" stroke-linejoin="round"/>
<path d="M151.338 235.239C170.397 239.474 181.926 231.003 189.926 222.062C183.102 222.533 175.573 222.768 149.22 212.65C126.156 203.795 117.455 179.474 65.9258 168.886C118.867 187.239 112.358 226.577 151.338 235.239Z" fill="url(#paint25_linear_4_1360)"/>
<path d="M151.338 235.239C170.397 239.474 181.926 231.003 189.926 222.062C183.102 222.533 175.573 222.768 149.22 212.65C126.156 203.795 117.455 179.474 65.9258 168.886C118.867 187.239 112.358 226.577 151.338 235.239Z" stroke="#8C0036" stroke-width="8" stroke-linecap="round" stroke-linejoin="round"/>
<path d="M151.338 235.239C170.397 239.474 181.926 231.003 189.926 222.062C183.102 222.533 175.573 222.768 149.22 212.65C144.829 210.964 140.959 208.718 137.215 206.113" stroke="#750332" stroke-width="8" stroke-linecap="round" stroke-linejoin="round"/>
<path d="M145.057 221.915C164.248 229.25 177.498 227 181.175 223.062C175.498 221.5 166.248 220.001 149.219 212.651C126.536 202.861 112.277 189.239 97.6895 182.651C110.247 194.751 131.851 216.868 145.057 221.915Z" fill="#F06AAF"/>
<path d="M177.669 221.469C171.594 220.39 162.969 217.929 149.22 212.65C126.156 203.795 117.455 179.474 65.9258 168.886" stroke="#C1006A" stroke-width="8" stroke-linecap="round" stroke-linejoin="round"/>
<path d="M171.105 104.651C188.046 124.416 224.751 124.416 226.869 165.357C227.985 186.924 211.489 213.203 191.575 221.827C179.575 221.121 151.105 204.886 161.693 156.18C167.541 129.279 177.458 121.592 171.105 104.651Z" fill="url(#paint26_linear_4_1360)"/>
<path d="M204.692 132.062C217.221 139.81 225.742 143.565 226.869 165.356C227.985 186.923 211.489 213.202 191.575 221.826C187.647 221.595 182.978 219.206 177.502 216.07C196.104 198.694 176.457 180.767 178.575 163.12C180.215 149.453 199.533 160.66 203.986 154.65C208.439 148.64 189.744 132.97 204.692 132.062Z" fill="url(#paint27_linear_4_1360)"/>
<g opacity="0.5">
<path d="M171.103 104.651C188.044 124.416 224.75 124.416 226.868 165.357C227.984 186.924 211.488 212.497 191.574 221.121C207.809 203.474 225.426 181.18 212.766 157.062C193.651 120.646 160.515 144.18 171.103 104.651Z" fill="url(#paint28_linear_4_1360)"/>
</g>
<path d="M171.105 104.651C188.046 124.416 224.752 124.416 226.87 165.357C227.986 186.924 211.489 213.203 191.575 221.827C179.575 221.121 151.105 204.886 161.693 156.18C167.541 129.279 177.458 121.592 171.105 104.651Z" stroke="#C1006A" stroke-width="8" stroke-linecap="round" stroke-linejoin="round"/>
<path d="M222.552 146.593C224.931 151.721 226.482 157.851 226.87 165.357C227.986 186.924 211.489 213.203 191.575 221.827C179.575 221.121 151.105 204.886 161.693 156.18C167.541 129.279 177.458 121.592 171.105 104.651" stroke="#8C0036" stroke-width="8" stroke-linecap="round" stroke-linejoin="round"/>
<path d="M155.574 97.5912C161.927 91.2382 180.75 92.7682 182.868 108.65C184.986 124.532 167.104 136.886 160.751 158.062C167.158 118.021 165.243 101.356 155.574 97.5912Z" fill="#E7256D"/>
<path d="M155.574 97.5912C161.927 91.2382 180.75 92.7682 182.868 108.65C184.986 124.532 167.104 136.886 160.751 158.062C167.158 118.021 165.243 101.356 155.574 97.5912Z" stroke="#C30055" stroke-width="8" stroke-linecap="round" stroke-linejoin="round"/>
<path d="M162.831 152.295C162.053 154.146 161.351 156.065 160.752 158.062C167.07 118.579 165.296 101.825 155.975 97.7562" stroke="#8C0036" stroke-width="8" stroke-linecap="round" stroke-linejoin="round"/>
<path d="M86.3987 247.238C63.1048 245.826 50.1229 278.617 63.8108 299.473C75.7877 317.722 94.1626 329.12 120.28 330.532C146.398 331.944 170.629 286.205 155.575 268.414C140.046 250.061 119.895 249.268 86.3987 247.238Z" fill="#D4B72C"/>
<g opacity="0.5">
<path d="M65.8536 257.061C57.1887 268.111 55.1037 286.206 63.8106 299.472C95.5015 342.998 121.556 293.41 101.987 290.076C83.3105 286.894 67.2686 275.015 65.8536 257.061Z" fill="#B57206"/>
</g>
<path d="M86.3987 247.238C63.1048 245.826 50.1229 278.617 63.8108 299.473C75.7877 317.722 94.1626 329.12 120.28 330.532C146.398 331.944 170.629 286.205 155.575 268.414C140.046 250.061 119.895 249.268 86.3987 247.238Z" stroke="#A36100" stroke-width="8" stroke-linecap="round" stroke-linejoin="round"/>
<path d="M107.574 214.063C111.103 221.828 125.072 261.59 168.447 255.596C178.841 254.16 119.574 295.945 108.28 281.827C96.9859 267.709 94.1619 237.357 107.574 214.063Z" fill="url(#paint29_linear_4_1360)"/>
<path d="M107.574 214.063C111.103 221.828 125.072 261.59 168.447 255.596C178.841 254.16 119.574 295.945 108.28 281.827C96.9859 267.709 94.1619 237.357 107.574 214.063Z" stroke="#70330A" stroke-width="8" stroke-linecap="round" stroke-linejoin="round"/>
<path d="M108.28 267.002C95.9047 263.794 68.7509 269.12 69.4569 291.708C70.1629 314.296 108.986 313.59 118.868 304.414C128.75 295.238 127.339 271.943 108.28 267.002Z" fill="url(#paint30_linear_4_1360)"/>
<path d="M108.28 267.002C95.9047 263.794 68.7509 269.12 69.4569 291.708C70.1629 314.296 108.986 313.59 118.868 304.414C128.75 295.238 127.339 271.943 108.28 267.002Z" stroke="#A36100" stroke-width="8" stroke-linecap="round" stroke-linejoin="round"/>
<path d="M89.2225 223.239C94.8695 235.945 118.869 269.827 161.928 259.945C204.987 250.063 200.045 309.356 164.751 312.18C129.457 315.004 70.1636 288.886 89.2225 223.239Z" fill="url(#paint31_linear_4_1360)"/>
<path d="M89.2225 223.239C94.8695 235.945 118.869 269.827 161.928 259.945C204.987 250.063 200.045 309.356 164.751 312.18C129.457 315.004 70.1636 288.886 89.2225 223.239Z" stroke="#823C0C" stroke-width="8" stroke-linecap="round" stroke-linejoin="round"/>
<path d="M162.962 312.297C127.655 314.112 70.9876 288.022 88.9775 224.097" stroke="#A36100" stroke-width="8" stroke-linecap="round" stroke-linejoin="round"/>
<path d="M208.751 310.532C214.851 287.003 215.81 253.591 184.751 247.004C159.077 241.558 142.517 252.789 122.861 239.759C135.81 262.142 198.869 258.297 208.751 310.532Z" fill="#824606"/>
<path d="M208.751 310.532C214.851 287.003 215.81 253.591 184.751 247.004C159.077 241.558 142.517 252.789 122.861 239.759C135.81 262.142 198.869 258.297 208.751 310.532Z" stroke="#5B2104" stroke-width="8" stroke-linecap="round" stroke-linejoin="round"/>
<path d="M208.751 310.532C214.851 287.003 215.81 253.591 184.751 247.004C159.077 241.558 142.517 252.789 122.861 239.759C123.006 240.01 123.157 240.257 123.315 240.501" stroke="#662F0A" stroke-width="8" stroke-linecap="round" stroke-linejoin="round"/>
<path d="M207.104 320.65C197.271 396.856 130.869 376.415 104.045 352.415C91.2022 340.924 77.2223 348.885 62.3984 351.003C35.8075 354.802 37.7675 324.964 53.2215 310.062C72.9863 291.003 155.388 258.898 176.751 262.063C195.81 264.887 212.751 276.885 207.104 320.65Z" fill="url(#paint32_linear_4_1360)"/>
<path d="M207.104 320.65C197.271 396.856 130.869 376.415 104.045 352.415C91.2022 340.924 77.2223 348.885 62.3984 351.003C35.8075 354.802 37.7675 324.964 53.2215 310.062C72.9863 291.003 155.388 258.898 176.751 262.063C195.81 264.887 212.751 276.885 207.104 320.65Z" fill="url(#paint33_linear_4_1360)"/>
<path d="M207.104 320.65C197.271 396.856 130.869 376.415 104.045 352.415C91.2022 340.924 77.2223 348.885 62.3984 351.003C35.8075 354.802 37.7675 324.964 53.2215 310.062C72.9863 291.003 155.388 258.898 176.751 262.063C195.81 264.887 212.751 276.885 207.104 320.65Z" fill="url(#paint34_radial_4_1360)"/>
<path d="M156.988 339.514C141.518 344.434 112.078 314.514 84.278 320.654C51.6182 327.854 41.2183 346.064 62.3981 351.004C35.8083 354.804 37.7683 324.964 53.2182 310.064C67.5281 296.274 113.378 284.195 146.398 275.145C173.998 277.525 200.747 325.594 156.988 339.514Z" fill="url(#paint35_linear_4_1360)"/>
<path d="M141.598 267.81C109.126 277.625 66.7501 296.5 53.2441 310.414C54.5001 318.25 101.112 323.42 117.488 310.422C140.609 292.07 122.398 281.826 141.598 267.81Z" fill="url(#paint36_linear_4_1360)"/>
<g opacity="0.7">
<path d="M207.103 320.65C197.27 396.856 130.868 376.415 104.045 352.415C91.2017 340.924 77.2218 348.885 62.3978 351.003C35.807 354.802 37.768 324.964 53.2219 310.062C46.1629 328.415 48.9129 346.443 63.1038 341.121C76.4098 336.131 93.5667 328.313 113.222 346.768C135.081 367.294 189.456 379.944 207.103 320.65Z" fill="url(#paint37_linear_4_1360)"/>
</g>
<path d="M207.104 320.65C197.271 396.856 130.869 376.415 104.045 352.415C91.2022 340.924 77.2223 348.885 62.3984 351.003C35.8075 354.802 37.7675 324.964 53.2215 310.062C72.9863 291.003 155.388 258.898 176.751 262.063C195.81 264.887 212.751 276.885 207.104 320.65Z" stroke="#70340B" stroke-width="8" stroke-linecap="round" stroke-linejoin="round"/>
<path d="M139.845 371.604C125.914 367.785 112.848 360.291 104.045 352.415C91.2022 340.924 77.2223 348.885 62.3984 351.003C35.8075 354.802 37.7675 324.964 53.2215 310.062C70.4474 293.451 135.252 266.931 165.759 262.487" stroke="#AD6B00" stroke-width="8" stroke-linecap="round" stroke-linejoin="round"/>
<path d="M176.752 262.064C154.266 257.064 74.3995 291.357 58.2266 305.893C88.5794 291.775 94.9484 302.274 118.164 295.239C141.458 288.18 153.458 264.888 176.752 262.064Z" fill="#FFD503"/>
<path d="M176.752 262.064C154.266 257.064 74.3995 291.357 58.2266 305.893C88.5794 291.775 94.9484 302.274 118.164 295.239C141.458 288.18 153.458 264.888 176.752 262.064Z" stroke="#D18205" stroke-width="8" stroke-linecap="round" stroke-linejoin="round"/>
<path d="M59.6246 304.713C59.1166 305.119 58.6496 305.513 58.2266 305.893C88.5794 291.775 94.9484 302.274 118.164 295.239C141.458 288.18 153.458 264.888 176.752 262.064" stroke="#AD6B00" stroke-width="8" stroke-linecap="round" stroke-linejoin="round"/>
<path d="M231.103 267.003C222.957 248.816 213.592 200.329 245.926 195.71C265.691 192.886 268.514 212.651 280.514 222.533C292.514 232.415 341.723 254.457 345.456 283.944C352.515 339.709 261.456 334.768 231.103 267.003Z" fill="url(#paint38_radial_4_1360)"/>
<g opacity="0.7">
<path d="M261.721 199.775C268.846 205.656 272.769 216.154 280.516 222.534C292.516 232.416 341.724 254.458 345.457 283.945C268.005 300.07 228.28 212.652 261.721 199.775Z" fill="url(#paint39_linear_4_1360)"/>
</g>
<path d="M231.103 267.004C224.674 252.652 217.487 219.428 230.634 203.787C228.985 237.357 237.457 260.651 252.298 297.338C243.898 289.227 236.53 279.12 231.103 267.004Z" fill="#C3529C"/>
<path d="M231.103 267.003C222.957 248.816 213.592 200.329 245.926 195.71C265.691 192.886 268.514 212.651 280.514 222.533C292.514 232.415 341.723 254.457 345.456 283.944C352.515 339.709 261.456 334.768 231.103 267.003Z" stroke="#720F3C" stroke-width="8" stroke-linecap="round" stroke-linejoin="round"/>
<path d="M240.985 263.474C225.208 263.023 200.332 277.703 197.928 294.532C196.516 304.414 209.222 292.414 225.457 294.532C241.691 296.65 251.574 327.708 269.221 324.179C286.868 320.65 290.397 264.886 240.985 263.474Z" fill="#AA0B48"/>
<path d="M240.985 263.474C225.208 263.023 200.332 277.703 197.928 294.532C196.516 304.414 209.222 292.414 225.457 294.532C241.691 296.65 251.574 327.708 269.221 324.179C286.868 320.65 290.397 264.886 240.985 263.474Z" stroke="#770C30" stroke-width="8" stroke-linecap="round" stroke-linejoin="round"/>
<path d="M240.75 255.532C228.515 241.885 209.22 254.061 212.044 267.237C214.136 276.998 220.044 274.767 229.456 273.826C242.021 272.57 244.803 260.053 240.75 255.532Z" fill="#C93683"/>
<path d="M240.75 255.532C228.515 241.885 209.22 254.061 212.044 267.237C214.136 276.998 220.044 274.767 229.456 273.826C242.021 272.57 244.803 260.053 240.75 255.532Z" stroke="#8E1440" stroke-width="8" stroke-linecap="round" stroke-linejoin="round"/>
<path d="M308.045 242.532C292.751 239.003 268.302 249.348 254.869 240.885C247.689 236.362 246.033 222.297 247.751 215.238" stroke="#891939" stroke-width="8" stroke-linecap="round" stroke-linejoin="round"/>
<path d="M245.927 235.238C253.668 236.167 253.691 243.708 264.985 243.708C276.279 243.708 301.691 237.355 321.456 245.826C341.221 254.297 358.868 278.297 352.515 305.826C348.045 325.195 327.103 345.355 303.103 340.414C263.158 332.19 249.775 285.304 241.691 279.708C232.515 273.355 224.751 276.179 219.104 274.061C228.279 267.708 228.28 233.12 245.927 235.238Z" fill="url(#paint40_linear_4_1360)"/>
<g opacity="0.6">
<path d="M342.344 325.343C333.012 336.232 318.703 343.626 303.103 340.414C263.158 332.19 250.999 285.999 241.441 278.723C233.618 272.768 215.999 280.749 224.544 264.635C249.956 232.87 289.691 327.708 342.344 325.343Z" fill="url(#paint41_linear_4_1360)"/>
</g>
<path d="M246.03 235.046C251.669 236.109 253.692 243.708 264.986 243.708C276.28 243.708 301.691 237.354 321.456 245.825C341.221 254.296 358.868 278.296 352.515 305.825C348.28 278.296 338.044 260.296 316.162 253.943C288.709 245.973 265.339 255.354 256.515 251.119C246.126 246.132 245.927 233.825 228.986 254.649C231.104 244.767 236.5 233.249 246.03 235.046Z" fill="#FF7DB2"/>
<path d="M245.926 235.237C253.667 236.166 253.691 243.708 264.985 243.708C276.279 243.708 301.69 237.354 321.455 245.825C341.22 254.296 358.867 278.296 352.514 305.825C348.044 325.194 327.103 345.355 303.103 340.414C263.158 332.19 249.775 285.304 241.691 279.708C232.515 273.355 224.751 276.179 219.104 274.061C228.279 267.708 228.279 233.119 245.926 235.237Z" stroke="#C30055" stroke-width="8" stroke-linecap="round" stroke-linejoin="round"/>
<path d="M266.306 316.802C253.214 301.057 246.511 283.044 241.691 279.708C232.515 273.355 224.751 276.179 219.104 274.061C219.206 273.99 219.307 273.916 219.407 273.839" stroke="#9B0453" stroke-width="8" stroke-linecap="round" stroke-linejoin="round"/>
<path d="M323.358 273.087C299.884 266.076 259.828 258.969 202.652 315.44C213.24 310.499 227.143 308.418 232.299 317.558C247.828 345.087 298.652 390.97 341.005 335.911C346.71 328.494 347.36 319.633 346.766 312.668C345.532 298.212 340.285 278.142 323.358 273.087Z" fill="url(#paint42_linear_4_1360)"/>
<path d="M323.358 273.087C299.884 266.076 259.828 258.969 202.652 315.44C213.24 310.499 227.143 308.418 232.299 317.558C247.828 345.087 298.652 390.97 341.005 335.911C346.71 328.494 347.36 319.633 346.766 312.668C345.532 298.212 340.285 278.142 323.358 273.087Z" fill="url(#paint43_linear_4_1360)"/>
<path d="M202.164 315.709C212.752 310.768 226.655 308.687 231.811 317.827C247.34 345.356 298.163 391.239 340.516 336.18C285.457 360.886 298.87 278.297 252.992 278.307C237.836 285.484 220.869 297.235 202.164 315.709Z" fill="url(#paint44_linear_4_1360)"/>
<path d="M202.164 315.709C212.752 310.768 226.655 308.687 231.811 317.827C247.34 345.356 298.163 391.239 340.516 336.18C285.457 360.886 298.87 278.297 252.992 278.307C237.836 285.484 220.869 297.235 202.164 315.709Z" fill="url(#paint45_linear_4_1360)"/>
<path d="M202.164 315.709C212.752 310.768 226.655 308.687 231.811 317.827C247.34 345.356 298.163 391.239 340.516 336.18C285.457 360.886 298.87 278.297 252.992 278.307C237.836 285.484 220.869 297.235 202.164 315.709Z" fill="url(#paint46_linear_4_1360)"/>
<g opacity="0.6">
<path d="M202.162 315.709C211 311.5 227.465 314.653 238.224 311.9C272.403 303.153 289.896 282.432 252.99 278.307C237.834 285.484 220.867 297.235 202.162 315.709Z" fill="url(#paint47_linear_4_1360)"/>
</g>
<g opacity="0.4">
<path d="M202.164 315.709C212.752 310.768 226.655 308.686 231.811 317.826C247.34 345.355 301.163 393.42 340.516 336.179C308.045 367.944 273.878 349.288 259.222 334.473C237.575 312.591 232.458 290.264 202.164 315.709Z" fill="#FF4DAF"/>
</g>
<path d="M208.245 309.88C206.24 311.744 204.213 313.686 202.164 315.71C212.752 310.769 226.655 308.687 231.811 317.827C247.34 345.356 298.164 391.239 340.517 336.18C345.795 329.319 347.057 323.192 348.311 316.887" stroke="#8C024D" stroke-width="8" stroke-linecap="round" stroke-linejoin="round"/>
<path d="M322.868 273.357C303.543 267.274 272.734 261.597 230.314 291.752" stroke="#ED3A90" stroke-width="8" stroke-linecap="round" stroke-linejoin="round"/>
<path d="M258.067 276.065C241.727 282.856 223.13 295.022 202.266 315.609" stroke="#9B0453" stroke-width="8" stroke-linecap="round" stroke-linejoin="round"/>
<path d="M294.633 110.297C302.39 79.5348 330.633 63.7088 341.221 60.1798C351.809 56.6508 370.162 61.5908 358.868 79.2378C347.574 96.8848 341 111 348.721 128.915C355.706 145.121 274.162 191.473 294.633 110.297Z" fill="url(#paint48_linear_4_1360)"/>
<path d="M294.633 110.297C302.39 79.5348 330.633 63.7088 341.221 60.1798C351.809 56.6508 370.162 61.5908 358.868 79.2378C347.574 96.8848 341 111 348.721 128.915C355.706 145.121 274.162 191.473 294.633 110.297Z" stroke="#DA8D01" stroke-width="8" stroke-linecap="round" stroke-linejoin="round"/>
<path d="M342.632 53.121C336.279 63.003 321.456 87.0029 320.75 112.415C295 97.9999 311.999 60.5 342.632 53.121Z" fill="#C96700"/>
<path d="M342.632 53.121C336.279 63.003 321.456 87.0029 320.75 112.415C295 97.9999 311.999 60.5 342.632 53.121Z" stroke="#C96700" stroke-width="8" stroke-linecap="round" stroke-linejoin="round"/>
<path d="M272.281 124.18C259.575 66.7684 284.045 39.4744 310.398 43.7094C322.951 45.7274 319.59 56.9344 322.163 70.5334C325.457 87.9453 330.633 103.945 340.045 119.474C349.428 134.956 275.911 140.58 272.281 124.18Z" fill="url(#paint49_linear_4_1360)"/>
<path d="M272.281 124.18C271.81 89.3563 288.964 56.2074 307.976 50.9664C320.233 47.5874 319.59 56.9344 322.163 70.5333C325.457 87.9453 330.634 103.945 340.046 119.474C349.429 134.956 275.911 140.58 272.281 124.18Z" fill="url(#paint50_linear_4_1360)"/>
<path d="M272.281 124.18C259.575 66.7684 284.045 39.4744 310.398 43.7094C322.951 45.7274 319.59 56.9344 322.163 70.5334C325.457 87.9453 330.633 103.945 340.045 119.474C349.428 134.956 275.911 140.58 272.281 124.18Z" stroke="#CE8002" stroke-width="8" stroke-linecap="round" stroke-linejoin="round"/>
<path d="M285.81 81.71C279.104 60.886 246.633 53.121 243.104 72.886C240.741 86.116 255.457 89.475 267.104 105.357C278.751 121.239 300.035 125.883 285.81 81.71Z" fill="url(#paint51_linear_4_1360)"/>
<path d="M285.81 81.71C279.104 60.886 246.633 53.121 243.104 72.886C240.741 86.116 255.457 89.475 267.104 105.357C278.751 121.239 300.035 125.883 285.81 81.71Z" stroke="#DB8C02" stroke-width="8" stroke-linecap="round" stroke-linejoin="round"/>
<path d="M317.927 94.7684C314.564 83.6904 299.221 73.2395 286.162 79.2394C272.978 85.2974 267.809 103.238 275.574 117.356C291.706 146.688 329.927 134.297 317.927 94.7684Z" fill="url(#paint52_linear_4_1360)"/>
<path d="M317.927 94.7684C314.564 83.6904 299.221 73.2384 286.162 79.2384C272.978 85.2964 267.809 103.238 275.574 117.356C274.867 99.3274 280.716 90.1024 288.915 87.9534C301.468 84.6644 310.618 94.7684 317.927 94.7684Z" fill="#F7DF00"/>
<path d="M317.927 94.7684C314.564 83.6904 299.221 73.2395 286.162 79.2394C272.978 85.2974 267.809 103.238 275.574 117.356C291.706 146.688 329.927 134.297 317.927 94.7684Z" stroke="#CE8002" stroke-width="8" stroke-linecap="round" stroke-linejoin="round"/>
<path d="M343.339 53.827C332.045 61.592 299.575 88.415 292.516 119.474C285.457 150.533 311.486 209.683 352.516 177.356C375.81 159.003 339.251 119.751 336.281 92.651C334.65 77.766 334.868 66.533 343.339 53.827Z" fill="url(#paint53_linear_4_1360)"/>
<path d="M338.751 60.533C291.751 96.7499 281.751 122.251 300.586 166.089C290.045 107.121 330.28 73.239 338.751 60.533Z" fill="#FFFA40"/>
<g opacity="0.9">
<path d="M329.931 186.73C336.769 186.603 344.345 183.794 352.516 177.356C372.884 161.308 339.905 115.689 333.306 92.2649C332.358 88.8999 317.656 131.281 329.931 186.73Z" fill="url(#paint54_linear_4_1360)"/>
</g>
<path d="M343.339 53.827C332.045 61.592 299.575 88.415 292.516 119.474C285.457 150.533 311.486 209.683 352.516 177.356C375.81 159.003 339.251 119.751 336.281 92.651C334.65 77.766 334.868 66.533 343.339 53.827Z" stroke="#DA8D01" stroke-width="8" stroke-linecap="round" stroke-linejoin="round"/>
<path d="M351.887 177.845C352.096 177.685 352.306 177.522 352.516 177.356C375.609 159.161 339.877 120.427 336.365 93.355" stroke="#993710" stroke-width="8" stroke-linecap="round" stroke-linejoin="round"/>
<path d="M353.726 167.089C348.114 140.86 338.431 102.366 358.869 79.2388C347.575 96.8858 342.634 110.297 353.222 124.415C363.81 138.533 383.487 165.357 355.252 187.239" fill="#FFEE17"/>
<path d="M353.726 167.089C348.114 140.86 338.431 102.366 358.869 79.2388C347.575 96.8858 342.634 110.297 353.222 124.415C363.81 138.533 383.487 165.357 355.252 187.239" stroke="#DB8C02" stroke-width="8" stroke-linecap="round" stroke-linejoin="round"/>
<path d="M368.143 170.712C366.116 176.344 362.087 181.936 355.243 187.238M353.72 167.088C348.113 140.858 338.437 102.362 358.879 79.2389" stroke="#C96700" stroke-width="8" stroke-linecap="round" stroke-linejoin="round"/>
<path d="M243.104 119.473C243.684 126.437 231.259 184.135 260.751 200.65C296.044 220.415 335.031 206.972 354.796 183.678C355.826 179.954 355.802 171.894 353.792 167.986C342.999 146.999 291.058 107.744 257.927 95.4733C238.246 88.1843 224.751 90.5323 222.633 98.2973C220.515 106.062 242.398 111.002 243.104 119.473Z" fill="url(#paint55_linear_4_1360)"/>
<path d="M243.104 119.473C243.684 126.437 231.259 184.135 260.751 200.65C296.044 220.415 335.031 206.972 354.796 183.678C355.826 179.954 355.802 171.894 353.792 167.986C342.999 146.999 291.058 107.744 257.927 95.4733C238.246 88.1843 224.751 90.5323 222.633 98.2973C220.515 106.062 242.398 111.002 243.104 119.473Z" fill="url(#paint56_linear_4_1360)"/>
<path d="M354.796 184.429C323.026 197.129 277.687 192.185 274.867 146.295C291.107 168.885 324.817 159.315 352.797 168.885C358 169.251 358.75 174.751 354.796 184.429Z" fill="url(#paint57_linear_4_1360)"/>
<path d="M255.105 159.003C254.524 126.469 262.869 115.944 247.34 105.356C239.217 99.8173 240.281 96.1803 257.928 95.4743C226.163 87.0033 223.603 93.9533 222.884 98.4153C221.501 107 243.752 112.5 243.105 119.415C238.118 172.754 240.776 186.787 259.982 200.434C293.501 224.25 343.116 201.566 356.296 186.033C309.002 219.209 255.811 198.532 255.105 159.003Z" fill="#FFBC00"/>
<path d="M257.928 95.4743C238.248 88.1853 224.753 90.5323 222.635 98.2973C220.517 106.062 242.4 111.003 243.106 119.474C243.686 126.438 231.261 184.135 260.752 200.65C296.046 220.415 336.281 209.827 356.046 186.533" stroke="#C96700" stroke-width="8" stroke-linecap="round" stroke-linejoin="round"/>
<path d="M353.726 167.088C334.86 140.346 287.794 106.536 257.928 95.4743C284.752 105.356 284.751 131.473 299.575 144.179C309.814 152.955 333.085 143.416 353.726 167.088Z" fill="#FFF801"/>
<path d="M353.726 167.088C334.86 140.346 287.794 106.536 257.928 95.4743C284.752 105.356 284.751 131.473 299.575 144.179C309.814 152.955 333.085 143.416 353.726 167.088Z" stroke="#DB8C02" stroke-width="8" stroke-linecap="round" stroke-linejoin="round"/>
<path d="M260.154 96.3283C259.402 96.0303 258.66 95.7453 257.928 95.4743C284.752 105.356 284.751 131.473 299.575 144.179C309.814 152.955 333.085 143.416 353.726 167.088" stroke="#C96700" stroke-width="8" stroke-linecap="round" stroke-linejoin="round"/>
</g>
</g>
<defs>
<linearGradient id="paint0_linear_4_1360" x1="267.926" y1="397.944" x2="299.088" y2="391.128" gradientUnits="userSpaceOnUse">
<stop offset="0.16" stop-color="#73BD3F"/>
<stop offset="0.4" stop-color="#4D9C2A"/>
<stop offset="0.63" stop-color="#277B14"/>
<stop offset="0.81" stop-color="#138F0A"/>
<stop offset="1" stop-color="#00A201"/>
</linearGradient>
<linearGradient id="paint1_linear_4_1360" x1="308.926" y1="386.944" x2="304.691" y2="367.18" gradientUnits="userSpaceOnUse">
<stop stop-color="#126916" stop-opacity="0"/>
<stop offset="0.5" stop-color="#156C1D" stop-opacity="0.5"/>
<stop offset="1" stop-color="#186E23"/>
</linearGradient>
<linearGradient id="paint2_linear_4_1360" x1="229.927" y1="401.944" x2="244.75" y2="347.591" gradientUnits="userSpaceOnUse">
<stop stop-color="#219013"/>
<stop offset="0.5" stop-color="#11750E"/>
<stop offset="1" stop-color="#005A08"/>
</linearGradient>
<linearGradient id="paint3_linear_4_1360" x1="91.926" y1="394.944" x2="200.855" y2="394.944" gradientUnits="userSpaceOnUse">
<stop offset="0.01" stop-color="#79BC43"/>
<stop offset="0.5" stop-color="#53A12C"/>
<stop offset="1" stop-color="#2C8614"/>
</linearGradient>
<linearGradient id="paint4_linear_4_1360" x1="214.927" y1="423.945" x2="322.927" y2="376.651" gradientUnits="userSpaceOnUse">
<stop offset="0.02" stop-color="#71BF73"/>
<stop offset="0.27" stop-color="#60A875"/>
<stop offset="0.51" stop-color="#509176"/>
<stop offset="0.59" stop-color="#2C864B"/>
<stop offset="0.67" stop-color="#087A21"/>
<stop offset="0.72" stop-color="#066B1D"/>
<stop offset="0.76" stop-color="#045C18"/>
<stop offset="0.84" stop-color="#166630"/>
<stop offset="0.91" stop-color="#287049"/>
</linearGradient>
<linearGradient id="paint5_linear_4_1360" x1="203.927" y1="406.945" x2="250.516" y2="388.592" gradientUnits="userSpaceOnUse">
<stop stop-color="#89C7A2"/>
<stop offset="0.5" stop-color="#89C7A2" stop-opacity="0.75"/>
<stop offset="1" stop-color="#89C7A2" stop-opacity="0.5"/>
</linearGradient>
<linearGradient id="paint6_linear_4_1360" x1="243.926" y1="207.945" x2="301.103" y2="236.533" gradientUnits="userSpaceOnUse">
<stop offset="0.01" stop-color="#E4FF4A"/>
<stop offset="0.5" stop-color="#9CF734"/>
<stop offset="1" stop-color="#54EF1D"/>
</linearGradient>
<linearGradient id="paint7_linear_4_1360" x1="259.989" y1="101.001" x2="296.794" y2="341.913" gradientUnits="userSpaceOnUse">
<stop stop-color="white" stop-opacity="0.98"/>
<stop offset="0.5" stop-color="#DFFF80" stop-opacity="0.64"/>
<stop offset="1" stop-color="#C0FF00" stop-opacity="0.3"/>
</linearGradient>
<linearGradient id="paint8_linear_4_1360" x1="259.988" y1="101.001" x2="296.793" y2="341.913" gradientUnits="userSpaceOnUse">
<stop stop-color="white" stop-opacity="0.98"/>
<stop offset="0.5" stop-color="#DFFF80" stop-opacity="0.64"/>
<stop offset="1" stop-color="#C0FF00" stop-opacity="0.3"/>
</linearGradient>
<linearGradient id="paint9_linear_4_1360" x1="98.9276" y1="241.945" x2="145.516" y2="241.945" gradientUnits="userSpaceOnUse">
<stop stop-color="#739929"/>
<stop offset="0.5" stop-color="#489318" stop-opacity="0.5"/>
<stop offset="1" stop-color="#1E8C07" stop-opacity="0"/>
</linearGradient>
<linearGradient id="paint10_linear_4_1360" x1="407.928" y1="173.944" x2="371.928" y2="307.356" gradientUnits="userSpaceOnUse">
<stop stop-color="#5AC013"/>
<stop offset="0.5" stop-color="#49A90F"/>
<stop offset="1" stop-color="#39920A"/>
</linearGradient>
<linearGradient id="paint11_linear_4_1360" x1="398.926" y1="148.944" x2="376.835" y2="230.81" gradientUnits="userSpaceOnUse">
<stop stop-color="#8EBD1E"/>
<stop offset="0.23" stop-color="#9BD028"/>
<stop offset="0.46" stop-color="#A8E232"/>
<stop offset="0.73" stop-color="#9ED130"/>
<stop offset="1" stop-color="#94BF2F"/>
</linearGradient>
<linearGradient id="paint12_linear_4_1360" x1="387.927" y1="248.945" x2="364.774" y2="334.744" gradientUnits="userSpaceOnUse">
<stop stop-color="#6D6700" stop-opacity="0.3"/>
<stop offset="0.5" stop-color="#536406" stop-opacity="0.65"/>
<stop offset="1" stop-color="#38610C"/>
</linearGradient>
<linearGradient id="paint13_linear_4_1360" x1="423.928" y1="208.945" x2="357.575" y2="341.651" gradientUnits="userSpaceOnUse">
<stop stop-color="#6DDE1A"/>
<stop offset="0.5" stop-color="#37B00E"/>
<stop offset="0.99" stop-color="#008302"/>
</linearGradient>
<linearGradient id="paint14_linear_4_1360" x1="386.928" y1="269.945" x2="420.832" y2="191.964" gradientUnits="userSpaceOnUse">
<stop stop-color="#8EDB2E" stop-opacity="0.5"/>
<stop offset="0.5" stop-color="#AFE032" stop-opacity="0.75"/>
<stop offset="0.99" stop-color="#D1E536"/>
</linearGradient>
<linearGradient id="paint15_linear_4_1360" x1="347.423" y1="241.263" x2="415.141" y2="366.625" gradientUnits="userSpaceOnUse">
<stop stop-color="#1E9F14"/>
<stop offset="0.5" stop-color="#78C225"/>
<stop offset="0.99" stop-color="#D1E536"/>
</linearGradient>
<linearGradient id="paint16_linear_4_1360" x1="222.926" y1="318.945" x2="219.397" y2="337.297" gradientUnits="userSpaceOnUse">
<stop stop-color="#475D00"/>
<stop offset="0.5" stop-color="#4A6C13"/>
<stop offset="1" stop-color="#4E7B26"/>
</linearGradient>
<linearGradient id="paint17_linear_4_1360" x1="314.929" y1="323.944" x2="361.314" y2="370.617" gradientUnits="userSpaceOnUse">
<stop stop-color="#23803B"/>
<stop offset="0.5" stop-color="#34951F" stop-opacity="0.75"/>
<stop offset="1" stop-color="#45AA02" stop-opacity="0.5"/>
</linearGradient>
<linearGradient id="paint18_linear_4_1360" x1="82.9272" y1="158.944" x2="108.994" y2="170.975" gradientUnits="userSpaceOnUse">
<stop stop-color="#AA114F"/>
<stop offset="0.5" stop-color="#8E0939"/>
<stop offset="1" stop-color="#710124"/>
</linearGradient>
<linearGradient id="paint19_linear_4_1360" x1="118.627" y1="101.846" x2="138.392" y2="127.963" gradientUnits="userSpaceOnUse">
<stop stop-color="#F546A1"/>
<stop offset="0.5" stop-color="#D22367"/>
<stop offset="1" stop-color="#AE002C"/>
</linearGradient>
<linearGradient id="paint20_linear_4_1360" x1="128.927" y1="149.944" x2="98.5743" y2="113.944" gradientUnits="userSpaceOnUse">
<stop offset="0.12" stop-color="#56041C"/>
<stop offset="0.59" stop-color="#9B205B"/>
<stop offset="1" stop-color="#E03B9A"/>
</linearGradient>
<linearGradient id="paint21_linear_4_1360" x1="117.927" y1="110.945" x2="135.142" y2="148.245" gradientUnits="userSpaceOnUse">
<stop stop-color="#FD68BB"/>
<stop offset="0.5" stop-color="#FD68BB" stop-opacity="0.5"/>
<stop offset="1" stop-color="#FD68BB" stop-opacity="0"/>
</linearGradient>
<linearGradient id="paint22_linear_4_1360" x1="107.926" y1="156.945" x2="142.514" y2="163.297" gradientUnits="userSpaceOnUse">
<stop stop-color="#CF50A0"/>
<stop offset="0.5" stop-color="#B73B7F"/>
<stop offset="1" stop-color="#9E275E"/>
</linearGradient>
<linearGradient id="paint23_linear_4_1360" x1="200.929" y1="133.669" x2="168.837" y2="178.798" gradientUnits="userSpaceOnUse">
<stop stop-color="#AA1649"/>
<stop offset="0.5" stop-color="#B93677"/>
<stop offset="1" stop-color="#C855A4"/>
</linearGradient>
<linearGradient id="paint24_linear_4_1360" x1="170.929" y1="181.945" x2="161.277" y2="210.333" gradientUnits="userSpaceOnUse">
<stop stop-color="#AA1649" stop-opacity="0"/>
<stop offset="0.3" stop-color="#8E103B" stop-opacity="0.5"/>
<stop offset="1" stop-color="#720A2D"/>
</linearGradient>
<linearGradient id="paint25_linear_4_1360" x1="130.926" y1="205.945" x2="138.074" y2="224.529" gradientUnits="userSpaceOnUse">
<stop stop-color="#CE65AD"/>
<stop offset="0.5" stop-color="#C3509C"/>
<stop offset="1" stop-color="#B73B8B"/>
</linearGradient>
<linearGradient id="paint26_linear_4_1360" x1="190.928" y1="134.945" x2="193.927" y2="213.657" gradientUnits="userSpaceOnUse">
<stop stop-color="#FF6BB0"/>
<stop offset="0.23" stop-color="#FF5498"/>
<stop offset="0.46" stop-color="#FF3E81"/>
<stop offset="0.73" stop-color="#DD367C"/>
<stop offset="1" stop-color="#BA2D78"/>
</linearGradient>
<linearGradient id="paint27_linear_4_1360" x1="220.928" y1="187.944" x2="172.808" y2="167.894" gradientUnits="userSpaceOnUse">
<stop offset="0.11" stop-color="#8E002C"/>
<stop offset="0.58" stop-color="#9F1340" stop-opacity="0.6"/>
<stop offset="1" stop-color="#AF2754" stop-opacity="0.2"/>
</linearGradient>
<linearGradient id="paint28_linear_4_1360" x1="213.927" y1="201.945" x2="181.807" y2="118.919" gradientUnits="userSpaceOnUse">
<stop stop-color="#FF0063" stop-opacity="0"/>
<stop offset="0.44" stop-color="#FF378E" stop-opacity="0.4"/>
<stop offset="0.84" stop-color="#FF6DB8" stop-opacity="0.8"/>
</linearGradient>
<linearGradient id="paint29_linear_4_1360" x1="126.927" y1="258.944" x2="104.269" y2="238.395" gradientUnits="userSpaceOnUse">
<stop offset="0.01" stop-color="#904A00"/>
<stop offset="0.64" stop-color="#9C6100"/>
<stop offset="1" stop-color="#A87800"/>
</linearGradient>
<linearGradient id="paint30_linear_4_1360" x1="76.1718" y1="289.28" x2="122.172" y2="290.28" gradientUnits="userSpaceOnUse">
<stop stop-color="#C47F05"/>
<stop offset="0.5" stop-color="#B97203"/>
<stop offset="1" stop-color="#AD6600"/>
</linearGradient>
<linearGradient id="paint31_linear_4_1360" x1="133.928" y1="266.945" x2="110.634" y2="293.415" gradientUnits="userSpaceOnUse">
<stop stop-color="#AA6100"/>
<stop offset="0.5" stop-color="#B97C13"/>
<stop offset="1" stop-color="#C99727"/>
</linearGradient>
<linearGradient id="paint32_linear_4_1360" x1="40.7685" y1="318.139" x2="207.367" y2="318.139" gradientUnits="userSpaceOnUse">
<stop offset="0.46" stop-color="#EBBA00"/>
<stop offset="0.66" stop-color="#C38C05"/>
<stop offset="0.86" stop-color="#9B5E09"/>
</linearGradient>
<linearGradient id="paint33_linear_4_1360" x1="107.768" y1="300.139" x2="185.154" y2="355.828" gradientUnits="userSpaceOnUse">
<stop stop-color="#E5CB00"/>
<stop offset="0.44" stop-color="#C09405" stop-opacity="0.5"/>
<stop offset="0.64" stop-color="#9B5E09" stop-opacity="0"/>
</linearGradient>
<radialGradient id="paint34_radial_4_1360" cx="0" cy="0" r="1" gradientUnits="userSpaceOnUse" gradientTransform="translate(202.768 313.877) scale(71.0336 71.0336)">
<stop stop-color="#70340B"/>
<stop offset="0.61" stop-color="#86490A" stop-opacity="0.5"/>
<stop offset="1" stop-color="#9B5E09" stop-opacity="0"/>
</radialGradient>
<linearGradient id="paint35_linear_4_1360" x1="86.928" y1="310.944" x2="179.127" y2="329.672" gradientUnits="userSpaceOnUse">
<stop stop-color="#FED204"/>
<stop offset="0.62" stop-color="#FED61B" stop-opacity="0.5"/>
<stop offset="1" stop-color="#FFDB32" stop-opacity="0"/>
</linearGradient>
<linearGradient id="paint36_linear_4_1360" x1="101.928" y1="318.944" x2="98.6689" y2="301.024" gradientUnits="userSpaceOnUse">
<stop stop-color="#D8B732" stop-opacity="0"/>
<stop offset="0.32" stop-color="#C6A01E" stop-opacity="0.5"/>
<stop offset="0.91" stop-color="#B48A09"/>
</linearGradient>
<linearGradient id="paint37_linear_4_1360" x1="48.9279" y1="316.944" x2="134.427" y2="337.528" gradientUnits="userSpaceOnUse">
<stop stop-color="#FFFF29"/>
<stop offset="0.5" stop-color="#FFF720" stop-opacity="0.5"/>
<stop offset="1" stop-color="#FFEE17" stop-opacity="0"/>
</linearGradient>
<radialGradient id="paint38_radial_4_1360" cx="0" cy="0" r="1" gradientUnits="userSpaceOnUse" gradientTransform="translate(248.926 214.945) scale(42.7356 42.7356)">
<stop stop-color="#C84475"/>
<stop offset="0.5" stop-color="#B23A6F"/>
<stop offset="1" stop-color="#9C3069"/>
</radialGradient>
<linearGradient id="paint39_linear_4_1360" x1="278.927" y1="245.946" x2="256.326" y2="249.63" gradientUnits="userSpaceOnUse">
<stop offset="0.16" stop-color="#75032A"/>
<stop offset="0.54" stop-color="#6D0222" stop-opacity="0.5"/>
<stop offset="1" stop-color="#66001A" stop-opacity="0"/>
</linearGradient>
<linearGradient id="paint40_linear_4_1360" x1="257.927" y1="275.944" x2="315.103" y2="294.297" gradientUnits="userSpaceOnUse">
<stop stop-color="#FB65AD"/>
<stop offset="0.5" stop-color="#F96AB2"/>
<stop offset="1" stop-color="#F86EB7"/>
</linearGradient>
<linearGradient id="paint41_linear_4_1360" x1="262.927" y1="266.943" x2="250.81" y2="247.254" gradientUnits="userSpaceOnUse">
<stop stop-color="#8C024D"/>
<stop offset="0.65" stop-color="#8C024D" stop-opacity="0.5"/>
<stop offset="1" stop-color="#8C024D" stop-opacity="0"/>
</linearGradient>
<linearGradient id="paint42_linear_4_1360" x1="313.926" y1="351.944" x2="263.399" y2="292.876" gradientUnits="userSpaceOnUse">
<stop stop-color="#F2508D"/>
<stop offset="0.5" stop-color="#F95B9D"/>
<stop offset="1" stop-color="#FF65AD"/>
</linearGradient>
<linearGradient id="paint43_linear_4_1360" x1="272.926" y1="331.944" x2="276.456" y2="303.003" gradientUnits="userSpaceOnUse">
<stop stop-color="#D14B89"/>
<stop offset="0.5" stop-color="#E8589B" stop-opacity="0.5"/>
<stop offset="1" stop-color="#FF65AD" stop-opacity="0"/>
</linearGradient>
<linearGradient id="paint44_linear_4_1360" x1="300.928" y1="361.944" x2="250.811" y2="303.356" gradientUnits="userSpaceOnUse">
<stop stop-color="#A94087"/>
<stop offset="0.5" stop-color="#C14DA0" stop-opacity="0.75"/>
<stop offset="1" stop-color="#D859BA" stop-opacity="0.5"/>
</linearGradient>
<linearGradient id="paint45_linear_4_1360" x1="253.928" y1="343.944" x2="275.811" y2="322.768" gradientUnits="userSpaceOnUse">
<stop stop-color="#CA3299"/>
<stop offset="0.5" stop-color="#CA3299" stop-opacity="0.5"/>
<stop offset="1" stop-color="#CA3299" stop-opacity="0"/>
</linearGradient>
<linearGradient id="paint46_linear_4_1360" x1="282.928" y1="348.944" x2="267.35" y2="319.345" gradientUnits="userSpaceOnUse">
<stop stop-color="#9D346F"/>
<stop offset="0.5" stop-color="#B43384" stop-opacity="0.5"/>
<stop offset="1" stop-color="#CA3299" stop-opacity="0"/>
</linearGradient>
<linearGradient id="paint47_linear_4_1360" x1="219.927" y1="298.944" x2="269.193" y2="294.05" gradientUnits="userSpaceOnUse">
<stop stop-color="#8C024D"/>
<stop offset="0.65" stop-color="#8C024D" stop-opacity="0.5"/>
<stop offset="1" stop-color="#8C024D" stop-opacity="0"/>
</linearGradient>
<linearGradient id="paint48_linear_4_1360" x1="368.927" y1="81.9438" x2="352.692" y2="106.65" gradientUnits="userSpaceOnUse">
<stop stop-color="#FBDE00"/>
<stop offset="0.5" stop-color="#EBC007"/>
<stop offset="1" stop-color="#DBA10E"/>
</linearGradient>
<linearGradient id="paint49_linear_4_1360" x1="307.928" y1="91.9443" x2="323.81" y2="53.8274" gradientUnits="userSpaceOnUse">
<stop stop-color="#E5BD00"/>
<stop offset="0.5" stop-color="#F1D201"/>
<stop offset="1" stop-color="#FDE602"/>
</linearGradient>
<linearGradient id="paint50_linear_4_1360" x1="314.928" y1="77.9453" x2="319.807" y2="57.3824" gradientUnits="userSpaceOnUse">
<stop offset="0.01" stop-color="#C87400"/>
<stop offset="0.5" stop-color="#E19B00"/>
<stop offset="1" stop-color="#FBC200"/>
</linearGradient>
<linearGradient id="paint51_linear_4_1360" x1="268.928" y1="85.945" x2="255.836" y2="73.109" gradientUnits="userSpaceOnUse">
<stop offset="0.01" stop-color="#EAC400"/>
<stop offset="0.45" stop-color="#F5DF20"/>
<stop offset="1" stop-color="#FFFB41"/>
</linearGradient>
<linearGradient id="paint52_linear_4_1360" x1="294.927" y1="109.944" x2="300.407" y2="87.6824" gradientUnits="userSpaceOnUse">
<stop offset="0.01" stop-color="#C87400"/>
<stop offset="0.5" stop-color="#E19B00"/>
<stop offset="1" stop-color="#FBC200"/>
</linearGradient>
<linearGradient id="paint53_linear_4_1360" x1="366.928" y1="69.945" x2="318.222" y2="153.945" gradientUnits="userSpaceOnUse">
<stop stop-color="#EFA40F"/>
<stop offset="0.18" stop-color="#F5C807"/>
<stop offset="0.35" stop-color="#FAEC00"/>
<stop offset="0.68" stop-color="#F3D900"/>
<stop offset="1" stop-color="#ECC600"/>
</linearGradient>
<linearGradient id="paint54_linear_4_1360" x1="348.927" y1="139.945" x2="317.366" y2="139.512" gradientUnits="userSpaceOnUse">
<stop stop-color="#A12800"/>
<stop offset="0.77" stop-color="#A23A00" stop-opacity="0.5"/>
<stop offset="1" stop-color="#A34D00" stop-opacity="0"/>
</linearGradient>
<linearGradient id="paint55_linear_4_1360" x1="221.927" y1="150.944" x2="354.874" y2="150.944" gradientUnits="userSpaceOnUse">
<stop stop-color="#D8B732"/>
<stop offset="0.35" stop-color="#E5AD1E"/>
<stop offset="1" stop-color="#F2A409"/>
</linearGradient>
<linearGradient id="paint56_linear_4_1360" x1="276.927" y1="154.944" x2="297.421" y2="129.179" gradientUnits="userSpaceOnUse">
<stop stop-color="#D8B732" stop-opacity="0"/>
<stop offset="0.32" stop-color="#D29E1E" stop-opacity="0.5"/>
<stop offset="0.91" stop-color="#CB8509"/>
</linearGradient>
<linearGradient id="paint57_linear_4_1360" x1="330.927" y1="179.945" x2="289.301" y2="142.482" gradientUnits="userSpaceOnUse">
<stop offset="0.05" stop-color="#FED204"/>
<stop offset="0.31" stop-color="#FEE102" stop-opacity="0.66"/>
<stop offset="0.51" stop-color="#FFF000" stop-opacity="0.32"/>
<stop offset="0.77" stop-color="#FFE519" stop-opacity="0.16"/>
<stop offset="1" stop-color="#FFDB32" stop-opacity="0"/>
</linearGradient>
<clipPath id="clip0_4_1360">
<rect width="512" height="512" fill="white"/>
</clipPath>
</defs>
</svg>
