<svg width="512" height="512" viewBox="0 0 512 512" fill="none" xmlns="http://www.w3.org/2000/svg">
<g clip-path="url(#clip0_4_1709)">
<path d="M256.305 146.948C113.003 146.339 67.9023 200.203 67.9023 249.238C67.9023 250.972 79.3033 333.404 84.4563 383.134C89.4853 431.728 167.559 467.829 254.805 467.829C342.051 467.829 424.124 430.728 429.153 382.134C434.306 332.404 439.708 249.973 439.708 248.238C439.708 199.203 386.001 147.5 256.305 146.948Z" fill="url(#paint0_linear_4_1709)"/>
<mask id="mask0_4_1709" style="mask-type:luminance" maskUnits="userSpaceOnUse" x="70" y="145" width="372" height="197">
<path d="M255.815 145.055C358.316 145.055 441.407 189.045 441.407 243.31C441.407 297.575 358.316 341.565 255.815 341.565C153.315 341.565 70.2227 297.575 70.2227 243.31C70.2227 189.045 153.315 145.055 255.815 145.055Z" fill="url(#paint1_radial_4_1709)"/>
</mask>
<g mask="url(#mask0_4_1709)">
<path d="M255.815 145.055C358.316 145.055 441.407 189.045 441.407 243.31C441.407 297.575 358.316 341.565 255.815 341.565C153.315 341.565 70.2227 297.575 70.2227 243.31C70.2227 189.045 153.315 145.055 255.815 145.055Z" fill="url(#paint2_radial_4_1709)"/>
</g>
<path d="M253.382 147.398C347.058 147.398 423.117 180.998 423.117 222.381C423.117 263.764 347.058 297.364 253.382 297.364C159.705 297.364 83.6465 263.764 83.6465 222.381C83.6465 180.998 159.705 147.398 253.382 147.398Z" fill="url(#paint3_radial_4_1709)"/>
<path d="M253.305 144.948C133.504 145.764 67.0006 187.5 67.4436 250.238C67.4556 251.972 75.8036 335.404 81.6226 385.134C87.3016 433.728 156.275 467.829 254.805 467.829C353.335 467.829 422.308 433.728 427.987 385.134C433.806 335.404 442.165 251.972 442.165 250.238C442.165 201.203 392.501 144 253.305 144.948Z" stroke="#908D88" stroke-width="8" stroke-miterlimit="10"/>
<mask id="mask1_4_1709" style="mask-type:luminance" maskUnits="userSpaceOnUse" x="39" y="-6" width="513" height="513">
<path d="M39 -5.45447H551.003V506.544H39V-5.45447Z" fill="white"/>
</mask>
<g mask="url(#mask1_4_1709)">
<g opacity="0.3">
<path d="M320.482 180.663C320.476 186.879 309.836 191.91 296.716 191.897C283.597 191.884 272.967 186.835 272.973 180.618C272.978 174.401 283.618 169.371 296.738 169.383C309.857 169.396 320.487 174.446 320.482 180.663Z" fill="#929EB0"/>
</g>
<path d="M296.332 134.476C290.019 134.476 277.27 152.238 277.266 166.689C277.263 175.535 282.557 184.496 295.498 185.021C309.014 185.569 314.957 177.047 315.459 168.266C316.295 153.631 303.499 134.476 296.332 134.476Z" fill="#B1002F"/>
<g opacity="0.3">
<path d="M291.674 157.95C291.674 159.509 290.772 160.768 289.664 160.768C288.555 160.768 287.655 159.509 287.655 157.95C287.655 156.399 288.555 155.132 289.664 155.132C290.772 155.132 291.674 156.399 291.674 157.95ZM296.726 163.011C296.726 164.562 295.825 165.829 294.716 165.829C293.608 165.829 292.708 164.562 292.708 163.011C292.708 161.452 293.608 160.193 294.716 160.193C295.825 160.193 296.726 161.452 296.726 163.011ZM286.604 152.881C286.604 154.432 285.696 155.699 284.595 155.699C283.487 155.699 282.586 154.432 282.586 152.881C282.586 151.33 283.487 150.063 284.595 150.063C285.696 150.063 286.604 151.33 286.604 152.881ZM290.123 167.338C290.123 168.889 289.215 170.156 288.114 170.156C287.005 170.156 286.104 168.889 286.104 167.338C286.104 165.779 287.005 164.52 288.114 164.52C289.215 164.52 290.123 165.779 290.123 167.338ZM285.046 162.268C285.046 163.819 284.144 165.079 283.036 165.079C281.935 165.079 281.027 163.819 281.027 162.268C281.027 160.71 281.935 159.451 283.036 159.451C284.144 159.451 285.046 160.71 285.046 162.268ZM301.854 168.13C301.854 169.689 300.953 170.948 299.844 170.948C298.735 170.948 297.835 169.689 297.835 168.13C297.835 166.579 298.735 165.312 299.844 165.312C300.953 165.312 301.854 166.579 301.854 168.13ZM306.906 173.191C306.906 174.742 306.005 176.008 304.897 176.008C303.796 176.008 302.887 174.742 302.887 173.191C302.887 171.64 303.796 170.373 304.897 170.373C306.005 170.373 306.906 171.64 306.906 173.191ZM295.242 172.457C295.242 174.016 294.341 175.275 293.232 175.275C292.124 175.275 291.223 174.016 291.223 172.457C291.223 170.906 292.124 169.639 293.232 169.639C294.341 169.639 295.242 170.906 295.242 172.457ZM300.419 177.634C300.419 179.185 299.511 180.452 298.41 180.452C297.302 180.452 296.4 179.185 296.4 177.634C296.4 176.075 297.302 174.816 298.41 174.816C299.511 174.816 300.419 176.075 300.419 177.634ZM283.386 171.498C283.386 173.057 282.486 174.316 281.377 174.316C280.268 174.316 279.368 173.057 279.368 171.498C279.368 169.947 280.268 168.68 281.377 168.68C282.486 168.68 283.386 169.947 283.386 171.498ZM278.318 166.429C278.318 167.98 277.416 169.247 276.308 169.247C275.199 169.247 274.299 167.98 274.299 166.429C274.299 164.878 275.199 163.611 276.308 163.611C277.416 163.611 278.318 164.878 278.318 166.429ZM288.514 176.625C288.514 178.176 287.613 179.443 286.504 179.443C285.396 179.443 284.496 178.176 284.496 176.625C284.496 175.074 285.396 173.808 286.504 173.808C287.613 173.808 288.514 175.074 288.514 176.625ZM293.682 181.795C293.682 183.353 292.782 184.612 291.674 184.612C290.565 184.612 289.664 183.353 289.664 181.795C289.664 180.243 290.565 178.977 291.674 178.977C292.782 178.977 293.682 180.243 293.682 181.795ZM293.158 148.346C293.158 149.897 292.257 151.164 291.148 151.164C290.039 151.164 289.139 149.897 289.139 148.346C289.139 146.795 290.039 145.527 291.148 145.527C292.257 145.527 293.158 146.795 293.158 148.346ZM298.276 153.473C298.276 155.024 297.376 156.291 296.268 156.291C295.167 156.291 294.258 155.024 294.258 153.473C294.258 151.914 295.167 150.655 296.268 150.655C297.376 150.655 298.276 151.914 298.276 153.473ZM303.338 158.525C303.338 160.076 302.437 161.343 301.328 161.343C300.219 161.343 299.319 160.076 299.319 158.525C299.319 156.974 300.219 155.707 301.328 155.707C302.437 155.707 303.338 156.974 303.338 158.525ZM308.465 163.653C308.465 165.204 307.556 166.471 306.455 166.471C305.347 166.471 304.447 165.204 304.447 163.653C304.447 162.102 305.347 160.835 306.455 160.835C307.556 160.835 308.465 162.102 308.465 163.653ZM313.534 168.722C313.534 170.273 312.633 171.54 311.525 171.54C310.416 171.54 309.516 170.273 309.516 168.722C309.516 167.171 310.416 165.904 311.525 165.904C312.633 165.904 313.534 167.171 313.534 168.722ZM299.21 143.71C299.21 145.261 298.31 146.528 297.209 146.528C296.101 146.528 295.2 145.261 295.2 143.71C295.2 142.159 296.101 140.892 297.209 140.892C298.31 140.892 299.21 142.159 299.21 143.71ZM304.338 148.838C304.338 150.389 303.438 151.656 302.329 151.656C301.22 151.656 300.319 150.389 300.319 148.838C300.319 147.279 301.22 146.019 302.329 146.019C303.438 146.019 304.338 147.279 304.338 148.838ZM309.398 153.89C309.398 155.448 308.498 156.707 307.39 156.707C306.281 156.707 305.381 155.448 305.381 153.89C305.381 152.339 306.281 151.072 307.39 151.072C308.498 151.072 309.398 152.339 309.398 153.89ZM314.543 159.042C314.543 160.593 313.642 161.86 312.534 161.86C311.425 161.86 310.525 160.593 310.525 159.042C310.525 157.483 311.425 156.224 312.534 156.224C313.642 156.224 314.543 157.483 314.543 159.042Z" fill="#DF0045"/>
</g>
<g opacity="0.4">
<path d="M315.459 168.265C314.958 177.044 309.013 185.573 295.499 185.024C282.559 184.498 277.266 175.535 277.266 166.69C277.266 163.972 281.313 157.635 281.313 157.635C279.337 162.729 282.613 173.317 296.368 173.292C310.41 173.266 313.35 163.399 311.979 158.464C314.77 160.163 315.631 165.23 315.459 168.265Z" fill="#690027"/>
</g>
<g opacity="0.24">
<path d="M315.459 168.263C315.45 168.346 315.45 168.43 315.442 168.513C314.5 156.858 302.995 142.343 296.333 142.343C290.288 142.343 278.325 156.683 277.333 168.339C277.282 167.789 277.266 167.238 277.266 166.688C277.274 152.24 290.021 134.472 296.333 134.472C303.503 134.472 316.292 153.631 315.459 168.263Z" fill="#F1F1F1"/>
</g>
<path d="M296.332 134.476C290.019 134.476 276.436 152.238 276.432 166.689C276.429 175.535 282.557 184.496 295.498 185.021C309.014 185.569 315.792 177.047 316.293 168.266C317.129 153.631 303.5 134.476 296.332 134.476Z" stroke="#720027" stroke-width="7.76" stroke-miterlimit="10"/>
</g>
<mask id="mask2_4_1709" style="mask-type:luminance" maskUnits="userSpaceOnUse" x="-45" y="-6" width="513" height="512">
<path d="M-45 -5.99963H467.003V505.999H-45V-5.99963Z" fill="white"/>
</mask>
<g mask="url(#mask2_4_1709)">
<g opacity="0.3">
<path d="M236.236 179.937C236.23 186.09 225.7 191.068 212.716 191.056C199.732 191.043 189.211 186.046 189.217 179.893C189.223 173.74 199.753 168.762 212.737 168.774C225.721 168.787 236.242 173.785 236.236 179.937Z" fill="#929EB0"/>
</g>
<path d="M212.335 134.227C206.087 134.227 193.47 151.805 193.465 166.107C193.462 174.863 198.702 183.731 211.509 184.25C224.886 184.793 230.768 176.359 231.264 167.668C232.092 153.184 219.428 134.227 212.335 134.227Z" fill="#B1002F"/>
<g opacity="0.3">
<path d="M207.725 157.459C207.725 159.002 206.833 160.248 205.736 160.248C204.638 160.248 203.748 159.002 203.748 157.459C203.748 155.924 204.638 154.67 205.736 154.67C206.833 154.67 207.725 155.924 207.725 157.459ZM212.726 162.467C212.726 164.002 211.834 165.257 210.736 165.257C209.639 165.257 208.748 164.002 208.748 162.467C208.748 160.924 209.639 159.678 210.736 159.678C211.834 159.678 212.726 160.924 212.726 162.467ZM202.708 152.442C202.708 153.977 201.809 155.231 200.72 155.231C199.622 155.231 198.731 153.977 198.731 152.442C198.731 150.907 199.622 149.653 200.72 149.653C201.809 149.653 202.708 150.907 202.708 152.442ZM206.19 166.75C206.19 168.285 205.291 169.538 204.202 169.538C203.104 169.538 202.213 168.285 202.213 166.75C202.213 165.207 203.104 163.961 204.202 163.961C205.291 163.961 206.19 165.207 206.19 166.75ZM201.165 161.733C201.165 163.268 200.273 164.514 199.176 164.514C198.086 164.514 197.188 163.268 197.188 161.733C197.188 160.19 198.086 158.944 199.176 158.944C200.273 158.944 201.165 160.19 201.165 161.733ZM217.8 167.534C217.8 169.077 216.908 170.323 215.811 170.323C214.714 170.323 213.823 169.077 213.823 167.534C213.823 165.999 214.714 164.745 215.811 164.745C216.908 164.745 217.8 165.999 217.8 167.534ZM222.8 172.542C222.8 174.077 221.909 175.331 220.812 175.331C219.722 175.331 218.823 174.077 218.823 172.542C218.823 171.007 219.722 169.754 220.812 169.754C221.909 169.754 222.8 171.007 222.8 172.542ZM211.257 171.817C211.257 173.359 210.365 174.605 209.268 174.605C208.17 174.605 207.279 173.359 207.279 171.817C207.279 170.282 208.17 169.027 209.268 169.027C210.365 169.027 211.257 170.282 211.257 171.817ZM216.38 176.94C216.38 178.475 215.482 179.729 214.392 179.729C213.295 179.729 212.403 178.475 212.403 176.94C212.403 175.397 213.295 174.151 214.392 174.151C215.482 174.151 216.38 175.397 216.38 176.94ZM199.523 170.867C199.523 172.41 198.632 173.656 197.534 173.656C196.437 173.656 195.546 172.41 195.546 170.867C195.546 169.332 196.437 168.078 197.534 168.078C198.632 168.078 199.523 169.332 199.523 170.867ZM194.507 165.85C194.507 167.385 193.615 168.639 192.517 168.639C191.42 168.639 190.529 167.385 190.529 165.85C190.529 164.315 191.42 163.061 192.517 163.061C193.615 163.061 194.507 164.315 194.507 165.85ZM204.598 175.942C204.598 177.477 203.706 178.73 202.609 178.73C201.512 178.73 200.621 177.477 200.621 175.942C200.621 174.407 201.512 173.153 202.609 173.153C203.706 173.153 204.598 174.407 204.598 175.942ZM209.713 181.058C209.713 182.6 208.822 183.846 207.725 183.846C206.628 183.846 205.736 182.6 205.736 181.058C205.736 179.522 206.628 178.269 207.725 178.269C208.822 178.269 209.713 179.522 209.713 181.058ZM209.194 147.954C209.194 149.489 208.302 150.743 207.205 150.743C206.107 150.743 205.216 149.489 205.216 147.954C205.216 146.419 206.107 145.164 207.205 145.164C208.302 145.164 209.194 146.419 209.194 147.954ZM214.26 153.027C214.26 154.563 213.369 155.817 212.271 155.817C211.182 155.817 210.282 154.563 210.282 153.027C210.282 151.485 211.182 150.239 212.271 150.239C213.369 150.239 214.26 151.485 214.26 153.027ZM219.269 158.028C219.269 159.563 218.377 160.817 217.28 160.817C216.183 160.817 215.292 159.563 215.292 158.028C215.292 156.493 216.183 155.239 217.28 155.239C218.377 155.239 219.269 156.493 219.269 158.028ZM224.344 163.103C224.344 164.638 223.444 165.891 222.354 165.891C221.257 165.891 220.366 164.638 220.366 163.103C220.366 161.568 221.257 160.314 222.354 160.314C223.444 160.314 224.344 161.568 224.344 163.103ZM229.36 168.12C229.36 169.655 228.469 170.908 227.371 170.908C226.274 170.908 225.383 169.655 225.383 168.12C225.383 166.585 226.274 165.331 227.371 165.331C228.469 165.331 229.36 166.585 229.36 168.12ZM215.184 143.366C215.184 144.901 214.293 146.155 213.204 146.155C212.106 146.155 211.215 144.901 211.215 143.366C211.215 141.831 212.106 140.576 213.204 140.576C214.293 140.576 215.184 141.831 215.184 143.366ZM220.259 148.441C220.259 149.976 219.368 151.229 218.271 151.229C217.173 151.229 216.281 149.976 216.281 148.441C216.281 146.898 217.173 145.651 218.271 145.651C219.368 145.651 220.259 146.898 220.259 148.441ZM225.267 153.44C225.267 154.983 224.376 156.229 223.279 156.229C222.182 156.229 221.291 154.983 221.291 153.44C221.291 151.905 222.182 150.652 223.279 150.652C224.376 150.652 225.267 151.905 225.267 153.44ZM230.359 158.54C230.359 160.075 229.467 161.329 228.37 161.329C227.273 161.329 226.382 160.075 226.382 158.54C226.382 156.997 227.273 155.751 228.37 155.751C229.467 155.751 230.359 156.997 230.359 158.54Z" fill="#DF0045"/>
</g>
<g opacity="0.4">
<path d="M231.264 167.667C230.769 176.356 224.885 184.797 211.51 184.253C198.704 183.733 193.465 174.863 193.465 166.108C193.465 163.419 197.471 157.147 197.471 157.147C195.514 162.189 198.757 172.667 212.37 172.642C226.267 172.617 229.177 162.852 227.821 157.968C230.582 159.649 231.435 164.664 231.264 167.667Z" fill="#690027"/>
</g>
<g opacity="0.24">
<path d="M231.264 167.666C231.255 167.748 231.255 167.831 231.248 167.913C230.316 156.378 218.929 142.012 212.336 142.012C206.353 142.012 194.513 156.205 193.531 167.74C193.481 167.196 193.465 166.651 193.465 166.107C193.473 151.807 206.089 134.223 212.336 134.223C219.432 134.223 232.089 153.184 231.264 167.666Z" fill="#F1F1F1"/>
</g>
<path d="M212.336 134.227C206.088 134.227 192.645 151.805 192.641 166.107C192.638 174.863 198.703 183.731 211.51 184.25C224.887 184.793 231.595 176.359 232.091 167.668C232.919 153.184 219.43 134.227 212.336 134.227Z" stroke="#720027" stroke-width="7.68" stroke-miterlimit="10"/>
</g>
<mask id="mask3_4_1709" style="mask-type:luminance" maskUnits="userSpaceOnUse" x="-1" y="-12" width="513" height="513">
<path d="M-1 -11.9546H511.003V500.044H-1V-11.9546Z" fill="white"/>
</mask>
<g mask="url(#mask3_4_1709)">
<g opacity="0.3">
<path d="M163.518 202.44C163.512 208.529 153.092 213.455 140.243 213.443C127.393 213.431 116.982 208.486 116.988 202.397C116.994 196.309 127.414 191.382 140.263 191.394C153.113 191.406 163.524 196.352 163.518 202.44Z" fill="#929EB0"/>
</g>
<path d="M139.867 157.205C133.685 157.205 121.198 174.601 121.193 188.755C121.191 197.419 126.376 206.195 139.05 206.709C152.289 207.245 158.109 198.9 158.6 190.3C159.419 175.966 146.888 157.205 139.867 157.205Z" fill="#B1002F"/>
<g opacity="0.3">
<path d="M135.304 180.196C135.304 181.722 134.423 182.956 133.336 182.956C132.25 182.956 131.369 181.722 131.369 180.196C131.369 178.677 132.25 177.436 133.336 177.436C134.423 177.436 135.304 178.677 135.304 180.196ZM140.252 185.153C140.252 186.671 139.371 187.912 138.285 187.912C137.199 187.912 136.316 186.671 136.316 185.153C136.316 183.625 137.199 182.392 138.285 182.392C139.371 182.392 140.252 183.625 140.252 185.153ZM130.339 175.231C130.339 176.75 129.449 177.991 128.372 177.991C127.285 177.991 126.404 176.75 126.404 175.231C126.404 173.712 127.285 172.471 128.372 172.471C129.449 172.471 130.339 173.712 130.339 175.231ZM133.785 189.39C133.785 190.909 132.895 192.15 131.818 192.15C130.731 192.15 129.85 190.909 129.85 189.39C129.85 187.863 130.731 186.63 131.818 186.63C132.895 186.63 133.785 187.863 133.785 189.39ZM128.813 184.426C128.813 185.945 127.931 187.177 126.845 187.177C125.767 187.177 124.876 185.945 124.876 184.426C124.876 182.899 125.767 181.665 126.845 181.665C127.931 181.665 128.813 182.899 128.813 184.426ZM145.274 190.166C145.274 191.694 144.393 192.926 143.306 192.926C142.22 192.926 141.339 191.694 141.339 190.166C141.339 188.648 142.22 187.406 143.306 187.406C144.393 187.406 145.274 188.648 145.274 190.166ZM150.223 195.123C150.223 196.641 149.341 197.882 148.255 197.882C147.177 197.882 146.287 196.641 146.287 195.123C146.287 193.604 147.177 192.363 148.255 192.363C149.341 192.363 150.223 193.604 150.223 195.123ZM138.799 194.404C138.799 195.93 137.918 197.163 136.831 197.163C135.745 197.163 134.863 195.93 134.863 194.404C134.863 192.885 135.745 191.644 136.831 191.644C137.918 191.644 138.799 192.885 138.799 194.404ZM143.87 199.475C143.87 200.994 142.98 202.235 141.902 202.235C140.816 202.235 139.934 200.994 139.934 199.475C139.934 197.948 140.816 196.714 141.902 196.714C142.98 196.714 143.87 197.948 143.87 199.475ZM127.187 193.465C127.187 194.992 126.306 196.225 125.22 196.225C124.133 196.225 123.252 194.992 123.252 193.465C123.252 191.946 124.133 190.705 125.22 190.705C126.306 190.705 127.187 191.946 127.187 193.465ZM122.223 188.501C122.223 190.019 121.341 191.26 120.255 191.26C119.169 191.26 118.287 190.019 118.287 188.501C118.287 186.982 119.169 185.74 120.255 185.74C121.341 185.74 122.223 186.982 122.223 188.501ZM132.21 198.487C132.21 200.006 131.327 201.247 130.241 201.247C129.155 201.247 128.273 200.006 128.273 198.487C128.273 196.968 129.155 195.726 130.241 195.726C131.327 195.726 132.21 196.968 132.21 198.487ZM137.272 203.549C137.272 205.076 136.39 206.309 135.304 206.309C134.218 206.309 133.336 205.076 133.336 203.549C133.336 202.03 134.218 200.789 135.304 200.789C136.39 200.789 137.272 202.03 137.272 203.549ZM136.757 170.789C136.757 172.308 135.876 173.55 134.79 173.55C133.704 173.55 132.822 172.308 132.822 170.789C132.822 169.27 133.704 168.029 134.79 168.029C135.876 168.029 136.757 169.27 136.757 170.789ZM141.771 175.811C141.771 177.33 140.89 178.571 139.804 178.571C138.726 178.571 137.835 177.33 137.835 175.811C137.835 174.284 138.726 173.051 139.804 173.051C140.89 173.051 141.771 174.284 141.771 175.811ZM146.727 180.759C146.727 182.278 145.846 183.52 144.76 183.52C143.674 183.52 142.792 182.278 142.792 180.759C142.792 179.24 143.674 177.999 144.76 177.999C145.846 177.999 146.727 179.24 146.727 180.759ZM151.75 185.781C151.75 187.3 150.859 188.541 149.781 188.541C148.695 188.541 147.814 187.3 147.814 185.781C147.814 184.263 148.695 183.022 149.781 183.022C150.859 183.022 151.75 184.263 151.75 185.781ZM156.714 190.746C156.714 192.265 155.832 193.506 154.746 193.506C153.66 193.506 152.778 192.265 152.778 190.746C152.778 189.227 153.66 187.986 154.746 187.986C155.832 187.986 156.714 189.227 156.714 190.746ZM142.685 166.249C142.685 167.768 141.804 169.009 140.726 169.009C139.64 169.009 138.758 167.768 138.758 166.249C138.758 164.73 139.64 163.489 140.726 163.489C141.804 163.489 142.685 164.73 142.685 166.249ZM147.708 171.271C147.708 172.79 146.826 174.031 145.739 174.031C144.653 174.031 143.772 172.79 143.772 171.271C143.772 169.744 144.653 168.511 145.739 168.511C146.826 168.511 147.708 169.744 147.708 171.271ZM152.664 176.219C152.664 177.746 151.783 178.98 150.696 178.98C149.61 178.98 148.729 177.746 148.729 176.219C148.729 174.7 149.61 173.459 150.696 173.459C151.783 173.459 152.664 174.7 152.664 176.219ZM157.702 181.265C157.702 182.784 156.82 184.025 155.734 184.025C154.648 184.025 153.767 182.784 153.767 181.265C153.767 179.738 154.648 178.506 155.734 178.506C156.82 178.506 157.702 179.738 157.702 181.265Z" fill="#DF0045"/>
</g>
<g opacity="0.4">
<path d="M158.6 190.299C158.11 198.897 152.288 207.249 139.051 206.711C126.378 206.197 121.193 197.419 121.193 188.755C121.193 186.094 125.158 179.887 125.158 179.887C123.222 184.876 126.432 195.245 139.903 195.221C153.655 195.196 156.534 185.534 155.192 180.7C157.925 182.363 158.77 187.327 158.6 190.299Z" fill="#690027"/>
</g>
<g opacity="0.24">
<path d="M158.6 190.296C158.592 190.378 158.592 190.46 158.584 190.541C157.661 179.126 146.392 164.91 139.868 164.91C133.948 164.91 122.231 178.955 121.259 190.37C121.21 189.831 121.193 189.293 121.193 188.753C121.202 174.603 133.687 157.202 139.868 157.202C146.891 157.202 159.416 175.966 158.6 190.296Z" fill="#F1F1F1"/>
</g>
<path d="M139.866 157.205C133.684 157.205 120.379 174.601 120.375 188.755C120.372 197.419 126.374 206.195 139.049 206.709C152.287 207.245 158.924 198.9 159.415 190.3C160.234 175.966 146.886 157.205 139.866 157.205Z" stroke="#720027" stroke-width="6.88" stroke-miterlimit="10"/>
</g>
<mask id="mask4_4_1709" style="mask-type:luminance" maskUnits="userSpaceOnUse" x="5" y="-11" width="513" height="513">
<path d="M5.5 -10.9545H517.503V501.044H5.5V-10.9545Z" fill="white"/>
</mask>
<g mask="url(#mask4_4_1709)">
<g opacity="0.3">
<path d="M398.736 205.736C398.73 211.889 388.2 216.867 375.216 216.855C362.232 216.843 351.711 211.845 351.717 205.692C351.723 199.54 362.253 194.561 375.237 194.573C388.221 194.586 398.742 199.584 398.736 205.736Z" fill="#929EB0"/>
</g>
<path d="M374.835 160.026C368.587 160.026 355.97 177.605 355.965 191.907C355.962 200.662 361.202 209.53 374.009 210.05C387.386 210.592 393.268 202.158 393.764 193.468C394.592 178.983 381.928 160.026 374.835 160.026Z" fill="#B1002F"/>
<g opacity="0.3">
<path d="M370.225 183.258C370.225 184.801 369.333 186.047 368.236 186.047C367.138 186.047 366.248 184.801 366.248 183.258C366.248 181.723 367.138 180.469 368.236 180.469C369.333 180.469 370.225 181.723 370.225 183.258ZM375.226 188.266C375.226 189.801 374.334 191.056 373.236 191.056C372.139 191.056 371.248 189.801 371.248 188.266C371.248 186.724 372.139 185.477 373.236 185.477C374.334 185.477 375.226 186.724 375.226 188.266ZM365.208 178.241C365.208 179.776 364.309 181.03 363.22 181.03C362.122 181.03 361.231 179.776 361.231 178.241C361.231 176.706 362.122 175.452 363.22 175.452C364.309 175.452 365.208 176.706 365.208 178.241ZM368.69 192.549C368.69 194.084 367.791 195.338 366.702 195.338C365.604 195.338 364.713 194.084 364.713 192.549C364.713 191.006 365.604 189.76 366.702 189.76C367.791 189.76 368.69 191.006 368.69 192.549ZM363.665 187.532C363.665 189.067 362.773 190.313 361.676 190.313C360.586 190.313 359.688 189.067 359.688 187.532C359.688 185.989 360.586 184.743 361.676 184.743C362.773 184.743 363.665 185.989 363.665 187.532ZM380.3 193.333C380.3 194.876 379.408 196.122 378.311 196.122C377.214 196.122 376.323 194.876 376.323 193.333C376.323 191.798 377.214 190.544 378.311 190.544C379.408 190.544 380.3 191.798 380.3 193.333ZM385.3 198.341C385.3 199.876 384.409 201.13 383.312 201.13C382.222 201.13 381.323 199.876 381.323 198.341C381.323 196.806 382.222 195.553 383.312 195.553C384.409 195.553 385.3 196.806 385.3 198.341ZM373.757 197.616C373.757 199.158 372.865 200.404 371.768 200.404C370.67 200.404 369.779 199.158 369.779 197.616C369.779 196.081 370.67 194.826 371.768 194.826C372.865 194.826 373.757 196.081 373.757 197.616ZM378.88 202.739C378.88 204.274 377.982 205.528 376.892 205.528C375.795 205.528 374.903 204.274 374.903 202.739C374.903 201.196 375.795 199.95 376.892 199.95C377.982 199.95 378.88 201.196 378.88 202.739ZM362.023 196.666C362.023 198.209 361.132 199.455 360.034 199.455C358.937 199.455 358.046 198.209 358.046 196.666C358.046 195.131 358.937 193.877 360.034 193.877C361.132 193.877 362.023 195.131 362.023 196.666ZM357.007 191.649C357.007 193.184 356.115 194.438 355.017 194.438C353.92 194.438 353.029 193.184 353.029 191.649C353.029 190.114 353.92 188.86 355.017 188.86C356.115 188.86 357.007 190.114 357.007 191.649ZM367.098 201.741C367.098 203.276 366.206 204.53 365.109 204.53C364.012 204.53 363.121 203.276 363.121 201.741C363.121 200.206 364.012 198.952 365.109 198.952C366.206 198.952 367.098 200.206 367.098 201.741ZM372.213 206.857C372.213 208.399 371.322 209.645 370.225 209.645C369.128 209.645 368.236 208.399 368.236 206.857C368.236 205.322 369.128 204.068 370.225 204.068C371.322 204.068 372.213 205.322 372.213 206.857ZM371.694 173.753C371.694 175.288 370.802 176.542 369.705 176.542C368.607 176.542 367.716 175.288 367.716 173.753C367.716 172.218 368.607 170.963 369.705 170.963C370.802 170.963 371.694 172.218 371.694 173.753ZM376.76 178.827C376.76 180.362 375.869 181.616 374.771 181.616C373.682 181.616 372.782 180.362 372.782 178.827C372.782 177.284 373.682 176.038 374.771 176.038C375.869 176.038 376.76 177.284 376.76 178.827ZM381.769 183.827C381.769 185.362 380.877 186.616 379.78 186.616C378.683 186.616 377.792 185.362 377.792 183.827C377.792 182.292 378.683 181.038 379.78 181.038C380.877 181.038 381.769 182.292 381.769 183.827ZM386.844 188.902C386.844 190.437 385.944 191.691 384.854 191.691C383.757 191.691 382.866 190.437 382.866 188.902C382.866 187.367 383.757 186.113 384.854 186.113C385.944 186.113 386.844 187.367 386.844 188.902ZM391.86 193.919C391.86 195.454 390.969 196.708 389.871 196.708C388.774 196.708 387.883 195.454 387.883 193.919C387.883 192.384 388.774 191.13 389.871 191.13C390.969 191.13 391.86 192.384 391.86 193.919ZM377.684 169.165C377.684 170.7 376.793 171.954 375.704 171.954C374.606 171.954 373.715 170.7 373.715 169.165C373.715 167.63 374.606 166.375 375.704 166.375C376.793 166.375 377.684 167.63 377.684 169.165ZM382.759 174.24C382.759 175.775 381.868 177.029 380.771 177.029C379.673 177.029 378.781 175.775 378.781 174.24C378.781 172.697 379.673 171.45 380.771 171.45C381.868 171.45 382.759 172.697 382.759 174.24ZM387.767 179.239C387.767 180.782 386.876 182.028 385.779 182.028C384.682 182.028 383.791 180.782 383.791 179.239C383.791 177.704 384.682 176.451 385.779 176.451C386.876 176.451 387.767 177.704 387.767 179.239ZM392.859 184.339C392.859 185.874 391.967 187.128 390.87 187.128C389.773 187.128 388.882 185.874 388.882 184.339C388.882 182.796 389.773 181.55 390.87 181.55C391.967 181.55 392.859 182.796 392.859 184.339Z" fill="#DF0045"/>
</g>
<g opacity="0.4">
<path d="M393.764 193.467C393.269 202.156 387.385 210.596 374.01 210.052C361.204 209.532 355.965 200.662 355.965 191.908C355.965 189.218 359.971 182.946 359.971 182.946C358.014 187.988 361.257 198.466 374.87 198.441C388.767 198.416 391.677 188.651 390.321 183.767C393.082 185.448 393.935 190.463 393.764 193.467Z" fill="#690027"/>
</g>
<g opacity="0.24">
<path d="M393.764 193.465C393.755 193.547 393.755 193.63 393.748 193.712C392.816 182.177 381.429 167.812 374.836 167.812C368.853 167.812 357.013 182.004 356.031 193.54C355.981 192.995 355.965 192.45 355.965 191.906C355.973 177.606 368.589 160.022 374.836 160.022C381.932 160.022 394.589 178.983 393.764 193.465Z" fill="#F1F1F1"/>
</g>
<path d="M374.836 160.026C368.588 160.026 355.145 177.605 355.141 191.907C355.138 200.662 361.203 209.53 374.01 210.05C387.387 210.592 394.095 202.158 394.591 193.468C395.419 178.983 381.93 160.026 374.836 160.026Z" stroke="#720027" stroke-width="7.68" stroke-miterlimit="10"/>
</g>
<path d="M256.235 117.989C239.652 117.989 226.209 125.707 226.209 135.227V225.547C226.209 235.067 239.652 242.785 256.235 242.785C272.818 242.785 286.261 235.067 286.261 225.547V135.227C286.261 125.707 272.818 117.989 256.235 117.989Z" fill="#E4DECE"/>
<path d="M286.261 135.227C286.261 144.747 272.818 152.466 256.235 152.466C239.652 152.466 226.209 144.747 226.209 135.227C226.209 125.707 239.652 117.989 256.235 117.989C272.818 117.989 286.261 125.707 286.261 135.227Z" fill="#FFFBEB"/>
<path d="M256.235 117.989C239.652 117.989 226.209 125.707 226.209 135.227V225.547C226.209 235.067 239.652 241.193 256.235 241.193C272.818 241.193 286.261 235.067 286.261 225.547V135.227C286.261 125.707 272.818 117.989 256.235 117.989Z" stroke="#ADA195" stroke-width="8.4" stroke-miterlimit="10"/>
<path d="M286.038 132.917C284.102 124.457 271.493 117.926 256.228 117.926C240.933 117.926 228.305 124.482 226.406 132.968" stroke="#CEC6BE" stroke-width="8.4" stroke-miterlimit="10"/>
<path d="M289.951 131.121C289.951 131.121 292.814 138.25 281.677 144.796L281.678 136.15C281.678 136.15 281.746 134.439 281.512 133.622L289.951 131.121Z" fill="#CEC6BE"/>
<path d="M222.461 131.492C222.461 131.492 219.438 139.125 230.047 144.918L230.046 136.398C230.046 136.398 230.126 134.124 230.586 133.244L222.461 131.492Z" fill="#CEC6BE"/>
<path d="M256.135 126.973C256.135 126.973 255.194 131.895 256.135 136.247" stroke="#666666" stroke-width="5.6" stroke-linecap="round" stroke-linejoin="round"/>
<path d="M255.641 70.8221C255.641 70.8221 251.684 77.7553 245.985 90.1673C237.068 109.591 241.868 126.331 254.759 126.331C270.63 126.331 270.169 108.303 264.224 94.8965C261.517 88.7908 255.641 75.859 255.641 70.8221Z" fill="#FFF176"/>
<path d="M255.641 70.8221C255.641 70.8221 251.684 77.7553 245.985 90.1673C237.068 109.591 241.868 126.331 254.759 126.331C270.63 126.331 270.169 108.303 264.224 94.8965C261.517 88.7908 255.641 75.859 255.641 70.8221Z" stroke="#E5A600" stroke-width="8.4" stroke-linecap="round" stroke-linejoin="round"/>
<path d="M321.378 87.5214C316 124.289 281.834 149.736 245.067 144.358C208.299 138.98 182.851 104.813 188.229 68.0449C193.607 31.2771 227.774 5.83031 264.542 11.2084C301.31 16.5865 326.757 50.7535 321.378 87.5214Z" fill="url(#paint4_radial_4_1709)"/>
<mask id="mask5_4_1709" style="mask-type:luminance" maskUnits="userSpaceOnUse" x="34" y="-16" width="513" height="513">
<path d="M34 -15.9546H546.003V496.044H34V-15.9546Z" fill="white"/>
</mask>
<g mask="url(#mask5_4_1709)">
<path d="M157.868 118.17C141.316 118.17 127.898 125.875 127.898 135.376L128.184 224.805C128.184 234.309 141.603 242.011 158.155 242.011C174.708 242.011 188.125 234.309 188.125 224.805L187.84 135.376C187.84 125.875 174.421 118.17 157.868 118.17Z" fill="#E5DFCF"/>
<path d="M187.84 135.376C187.84 144.88 174.421 152.582 157.868 152.582C141.316 152.582 127.898 144.878 127.898 135.376C127.898 125.875 141.316 118.17 157.868 118.17C174.421 118.17 187.84 125.873 187.84 135.376Z" fill="#FFFBEB"/>
<path d="M157.868 118.17C141.316 118.17 127.898 125.875 127.898 135.376L128.184 224.805C128.184 234.309 141.603 240.565 158.155 240.565C174.708 240.565 188.125 234.309 188.125 224.805L187.84 135.376C187.84 125.875 174.421 118.17 157.868 118.17Z" stroke="#ADA195" stroke-width="8.4" stroke-miterlimit="10"/>
<path d="M187.587 133.113C185.657 124.68 173.089 118.17 157.873 118.17C142.627 118.17 130.04 124.706 128.148 133.163" stroke="#CEC6BE" stroke-width="8.4" stroke-miterlimit="10"/>
<path d="M124.154 131.625C124.154 131.625 121.499 136.936 132.032 144.299L132.03 136.426C132.03 136.426 132.162 133.603 132.36 132.911L124.154 131.625Z" fill="#CEC6BE"/>
<path d="M191.591 131.06C191.591 131.06 193.5 137.671 183.664 143.808L183.666 135.439C183.666 135.439 183.722 133.992 183.525 133.3L191.591 131.06Z" fill="#CEC6BE"/>
<path d="M157.308 130.168C157.308 130.168 156.51 135.217 157.308 138.909" stroke="#666666" stroke-width="5.6" stroke-linecap="round" stroke-linejoin="round"/>
<path d="M158.093 77.5717C158.093 77.5717 154.436 83.9777 149.17 95.4479C140.929 113.398 145.366 128.867 157.278 128.867C171.945 128.867 171.519 112.207 166.025 99.818C163.523 94.1753 158.093 82.2263 158.093 77.5717Z" fill="#FFF176"/>
<path d="M158.093 77.5717C158.093 77.5717 154.436 83.9777 149.17 95.4479C140.929 113.398 145.366 128.867 157.278 128.867C171.945 128.867 171.519 112.207 166.025 99.818C163.523 94.1753 158.093 82.2263 158.093 77.5717Z" stroke="#E5A600" stroke-width="8.4" stroke-linecap="round" stroke-linejoin="round"/>
<path d="M217.872 94.5448C212.902 128.523 181.328 152.037 147.35 147.068C113.372 142.098 89.8572 110.525 94.8268 76.5468C99.7965 42.5689 131.37 19.0542 165.348 24.0239C199.327 28.9935 222.841 60.5669 217.872 94.5448Z" fill="url(#paint5_radial_4_1709)"/>
</g>
<mask id="mask6_4_1709" style="mask-type:luminance" maskUnits="userSpaceOnUse" x="-34" y="-17" width="513" height="513">
<path d="M-33.5 -16.4544H478.503V495.544H-33.5V-16.4544Z" fill="white"/>
</mask>
<g mask="url(#mask6_4_1709)">
<path d="M353.667 117.821C337.115 117.821 323.697 125.525 323.697 135.027L323.983 224.456C323.983 233.959 337.402 241.662 353.954 241.662C370.507 241.662 383.924 233.959 383.924 224.456L383.639 135.027C383.639 125.525 370.22 117.821 353.667 117.821Z" fill="#E5DFCF"/>
<path d="M383.639 135.027C383.639 144.53 370.22 152.233 353.667 152.233C337.115 152.233 323.697 144.528 323.697 135.027C323.697 125.525 337.115 117.821 353.667 117.821C370.22 117.821 383.639 125.523 383.639 135.027Z" fill="#FFFBEB"/>
<path d="M353.667 117.821C337.115 117.821 323.697 125.525 323.697 135.027L323.983 224.456C323.983 233.959 337.402 240.215 353.954 240.215C370.507 240.215 383.924 233.959 383.924 224.456L383.639 135.027C383.639 125.525 370.22 117.821 353.667 117.821Z" stroke="#ADA195" stroke-width="8.4" stroke-miterlimit="10"/>
<path d="M383.386 132.763C381.455 124.331 368.888 117.821 353.672 117.821C338.426 117.821 325.839 124.356 323.947 132.813" stroke="#CEC6BE" stroke-width="8.4" stroke-miterlimit="10"/>
<path d="M319.825 131.156C319.825 131.156 317.359 136.652 327.887 144.012V135.643C327.887 135.643 327.829 134.196 328.027 133.505L319.825 131.156Z" fill="#CEC6BE"/>
<path d="M387.015 130.388C387.015 130.388 390.055 136.527 379.527 143.887L379.528 135.518C379.528 135.518 379.584 134.07 379.387 133.379L387.015 130.388Z" fill="#CEC6BE"/>
<path d="M353.107 129.819C353.107 129.819 352.309 134.867 353.107 138.559" stroke="#666666" stroke-width="5.6" stroke-linecap="round" stroke-linejoin="round"/>
<path d="M353.892 77.2219C353.892 77.2219 350.235 83.6279 344.969 95.0981C336.728 113.048 341.165 128.517 353.077 128.517C367.744 128.517 367.317 111.857 361.824 99.4682C359.322 93.8255 353.892 81.8765 353.892 77.2219Z" fill="#FFF176"/>
<path d="M353.892 77.2219C353.892 77.2219 350.235 83.6279 344.969 95.0981C336.728 113.048 341.165 128.517 353.077 128.517C367.744 128.517 367.317 111.857 361.824 99.4682C359.322 93.8255 353.892 81.8765 353.892 77.2219Z" stroke="#E5A600" stroke-width="8.4" stroke-linecap="round" stroke-linejoin="round"/>
<path d="M413.671 94.195C408.701 128.173 377.127 151.688 343.149 146.718C309.171 141.748 285.656 110.175 290.626 76.197C295.595 42.2191 327.169 18.7044 361.147 23.6741C395.125 28.6437 418.64 60.2171 413.671 94.195Z" fill="url(#paint6_radial_4_1709)"/>
</g>
<mask id="mask7_4_1709" style="mask-type:luminance" maskUnits="userSpaceOnUse" x="11" y="-15" width="513" height="513">
<path d="M11 -14.9545H523.003V497.044H11V-14.9545Z" fill="white"/>
</mask>
<g mask="url(#mask7_4_1709)">
<g opacity="0.3">
<path d="M405.769 265.088C405.763 271.497 394.794 276.683 381.269 276.67C367.744 276.657 356.785 271.451 356.791 265.042C356.797 258.633 367.766 253.447 381.291 253.46C394.816 253.473 405.775 258.679 405.769 265.088Z" fill="#929EB0"/>
</g>
<path d="M380.873 217.473C374.365 217.473 361.222 235.784 361.217 250.682C361.214 259.802 366.672 269.04 380.013 269.581C393.947 270.146 400.074 261.361 400.591 252.308C401.453 237.22 388.262 217.473 380.873 217.473Z" fill="#BF113A"/>
<g opacity="0.6">
<path d="M376.07 241.673C376.07 243.28 375.141 244.578 373.998 244.578C372.855 244.578 371.927 243.28 371.927 241.673C371.927 240.074 372.855 238.768 373.998 238.768C375.141 238.768 376.07 240.074 376.07 241.673ZM381.279 246.89C381.279 248.489 380.35 249.796 379.207 249.796C378.064 249.796 377.136 248.489 377.136 246.89C377.136 245.283 378.064 243.985 379.207 243.985C380.35 243.985 381.279 245.283 381.279 246.89ZM370.844 236.447C370.844 238.046 369.908 239.352 368.773 239.352C367.63 239.352 366.701 238.046 366.701 236.447C366.701 234.848 367.63 233.542 368.773 233.542C369.908 233.542 370.844 234.848 370.844 236.447ZM374.471 251.351C374.471 252.95 373.535 254.256 372.4 254.256C371.257 254.256 370.328 252.95 370.328 251.351C370.328 249.744 371.257 248.446 372.4 248.446C373.535 248.446 374.471 249.744 374.471 251.351ZM369.237 246.125C369.237 247.724 368.308 249.022 367.165 249.022C366.03 249.022 365.094 247.724 365.094 246.125C365.094 244.518 366.03 243.22 367.165 243.22C368.308 243.22 369.237 244.518 369.237 246.125ZM386.565 252.168C386.565 253.775 385.636 255.073 384.493 255.073C383.35 255.073 382.422 253.775 382.422 252.168C382.422 250.569 383.35 249.263 384.493 249.263C385.636 249.263 386.565 250.569 386.565 252.168ZM391.773 257.385C391.773 258.984 390.845 260.29 389.702 260.29C388.567 260.29 387.63 258.984 387.63 257.385C387.63 255.786 388.567 254.48 389.702 254.48C390.845 254.48 391.773 255.786 391.773 257.385ZM379.749 256.629C379.749 258.236 378.82 259.534 377.677 259.534C376.534 259.534 375.606 258.236 375.606 256.629C375.606 255.03 376.534 253.723 377.677 253.723C378.82 253.723 379.749 255.03 379.749 256.629ZM385.086 261.966C385.086 263.565 384.15 264.871 383.015 264.871C381.872 264.871 380.943 263.565 380.943 261.966C380.943 260.359 381.872 259.061 383.015 259.061C384.15 259.061 385.086 260.359 385.086 261.966ZM367.526 255.64C367.526 257.247 366.598 258.545 365.455 258.545C364.312 258.545 363.384 257.247 363.384 255.64C363.384 254.041 364.312 252.735 365.455 252.735C366.598 252.735 367.526 254.041 367.526 255.64ZM362.301 250.414C362.301 252.013 361.372 253.319 360.229 253.319C359.086 253.319 358.158 252.013 358.158 250.414C358.158 248.815 359.086 247.509 360.229 247.509C361.372 247.509 362.301 248.815 362.301 250.414ZM372.813 260.926C372.813 262.525 371.884 263.831 370.741 263.831C369.598 263.831 368.67 262.525 368.67 260.926C368.67 259.327 369.598 258.021 370.741 258.021C371.884 258.021 372.813 259.327 372.813 260.926ZM378.141 266.255C378.141 267.862 377.213 269.16 376.07 269.16C374.927 269.16 373.998 267.862 373.998 266.255C373.998 264.656 374.927 263.35 376.07 263.35C377.213 263.35 378.141 264.656 378.141 266.255ZM377.6 231.772C377.6 233.371 376.671 234.677 375.528 234.677C374.385 234.677 373.457 233.371 373.457 231.772C373.457 230.173 374.385 228.866 375.528 228.866C376.671 228.866 377.6 230.173 377.6 231.772ZM382.877 237.057C382.877 238.656 381.949 239.963 380.806 239.963C379.671 239.963 378.734 238.656 378.734 237.057C378.734 235.45 379.671 234.152 380.806 234.152C381.949 234.152 382.877 235.45 382.877 237.057ZM388.095 242.266C388.095 243.865 387.166 245.171 386.023 245.171C384.88 245.171 383.952 243.865 383.952 242.266C383.952 240.667 384.88 239.361 386.023 239.361C387.166 239.361 388.095 240.667 388.095 242.266ZM393.381 247.552C393.381 249.151 392.444 250.457 391.309 250.457C390.166 250.457 389.238 249.151 389.238 247.552C389.238 245.953 390.166 244.647 391.309 244.647C392.444 244.647 393.381 245.953 393.381 247.552ZM398.606 252.778C398.606 254.377 397.678 255.683 396.535 255.683C395.392 255.683 394.464 254.377 394.464 252.778C394.464 251.179 395.392 249.873 396.535 249.873C397.678 249.873 398.606 251.179 398.606 252.778ZM383.84 226.993C383.84 228.592 382.912 229.898 381.777 229.898C380.634 229.898 379.706 228.592 379.706 226.993C379.706 225.394 380.634 224.087 381.777 224.087C382.912 224.087 383.84 225.394 383.84 226.993ZM389.126 232.279C389.126 233.878 388.198 235.184 387.055 235.184C385.912 235.184 384.983 233.878 384.983 232.279C384.983 230.672 385.912 229.373 387.055 229.373C388.198 229.373 389.126 230.672 389.126 232.279ZM394.343 237.487C394.343 239.094 393.415 240.392 392.272 240.392C391.129 240.392 390.201 239.094 390.201 237.487C390.201 235.888 391.129 234.582 392.272 234.582C393.415 234.582 394.343 235.888 394.343 237.487ZM399.647 242.799C399.647 244.398 398.718 245.704 397.575 245.704C396.432 245.704 395.504 244.398 395.504 242.799C395.504 241.192 396.432 239.894 397.575 239.894C398.718 239.894 399.647 241.192 399.647 242.799Z" fill="#FF0057"/>
</g>
<g opacity="0.4">
<path d="M400.591 252.307C400.075 261.358 393.946 270.15 380.014 269.584C366.674 269.042 361.217 259.802 361.217 250.683C361.217 247.881 365.39 241.348 365.39 241.348C363.352 246.6 366.73 257.515 380.91 257.489C395.386 257.463 398.417 247.291 397.004 242.203C399.881 243.954 400.769 249.178 400.591 252.307Z" fill="#90002F"/>
</g>
<g opacity="0.4">
<path d="M400.591 252.305C400.582 252.391 400.582 252.477 400.574 252.563C399.603 240.547 387.742 225.583 380.874 225.583C374.642 225.583 362.309 240.367 361.286 252.383C361.234 251.816 361.217 251.248 361.217 250.681C361.226 235.786 374.367 217.469 380.874 217.469C388.266 217.469 401.45 237.22 400.591 252.305Z" fill="#F1F1F1"/>
</g>
<path d="M380.874 217.473C374.365 217.473 360.362 235.784 360.357 250.682C360.354 259.802 366.672 269.04 380.014 269.581C393.948 270.146 400.935 261.361 401.452 252.308C402.314 237.22 388.263 217.473 380.874 217.473Z" stroke="#9A0039" stroke-width="8" stroke-miterlimit="10"/>
</g>
<mask id="mask8_4_1709" style="mask-type:luminance" maskUnits="userSpaceOnUse" x="71" y="7" width="513" height="513">
<path d="M71 7.04541H583.003V519.044H71V7.04541Z" fill="white"/>
</mask>
<g mask="url(#mask8_4_1709)">
<g opacity="0.3">
<path d="M239.3 286.624C239.293 293.704 227.177 299.432 212.235 299.418C197.294 299.404 185.188 293.654 185.195 286.574C185.202 279.494 197.318 273.765 212.259 273.779C227.201 273.793 239.307 279.544 239.3 286.624Z" fill="#929EB0"/>
</g>
<path d="M211.798 234.025C204.609 234.025 190.089 254.253 190.084 270.711C190.081 280.785 196.11 290.99 210.848 291.587C226.241 292.211 233.009 282.507 233.58 272.507C234.532 255.84 219.961 234.025 211.798 234.025Z" fill="#BF113A"/>
<g opacity="0.6">
<path d="M206.494 260.758C206.494 262.533 205.469 263.968 204.206 263.968C202.943 263.968 201.918 262.533 201.918 260.758C201.918 258.992 202.943 257.549 204.206 257.549C205.469 257.549 206.494 258.992 206.494 260.758ZM212.248 266.522C212.248 268.288 211.223 269.731 209.96 269.731C208.697 269.731 207.671 268.288 207.671 266.522C207.671 264.746 208.697 263.312 209.96 263.312C211.223 263.312 212.248 264.746 212.248 266.522ZM200.721 254.985C200.721 256.751 199.686 258.195 198.433 258.195C197.17 258.195 196.145 256.751 196.145 254.985C196.145 253.219 197.17 251.776 198.433 251.776C199.686 251.776 200.721 253.219 200.721 254.985ZM204.728 271.449C204.728 273.215 203.693 274.659 202.44 274.659C201.177 274.659 200.152 273.215 200.152 271.449C200.152 269.673 201.177 268.24 202.44 268.24C203.693 268.24 204.728 269.673 204.728 271.449ZM198.946 265.677C198.946 267.443 197.921 268.876 196.658 268.876C195.405 268.876 194.369 267.443 194.369 265.677C194.369 263.902 195.405 262.467 196.658 262.467C197.921 262.467 198.946 263.902 198.946 265.677ZM218.087 272.352C218.087 274.128 217.062 275.561 215.799 275.561C214.536 275.561 213.511 274.128 213.511 272.352C213.511 270.586 214.536 269.142 215.799 269.142C217.062 269.142 218.087 270.586 218.087 272.352ZM223.841 278.115C223.841 279.881 222.816 281.324 221.553 281.324C220.3 281.324 219.265 279.881 219.265 278.115C219.265 276.349 220.3 274.906 221.553 274.906C222.816 274.906 223.841 276.349 223.841 278.115ZM210.558 277.279C210.558 279.054 209.533 280.488 208.27 280.488C207.007 280.488 205.981 279.054 205.981 277.279C205.981 275.513 207.007 274.07 208.27 274.07C209.533 274.07 210.558 275.513 210.558 277.279ZM216.454 283.176C216.454 284.942 215.419 286.385 214.166 286.385C212.903 286.385 211.878 284.942 211.878 283.176C211.878 281.4 212.903 279.966 214.166 279.966C215.419 279.966 216.454 281.4 216.454 283.176ZM197.056 276.187C197.056 277.963 196.031 279.397 194.768 279.397C193.505 279.397 192.48 277.963 192.48 276.187C192.48 274.421 193.505 272.978 194.768 272.978C196.031 272.978 197.056 274.421 197.056 276.187ZM191.284 270.415C191.284 272.181 190.258 273.624 188.995 273.624C187.732 273.624 186.707 272.181 186.707 270.415C186.707 268.649 187.732 267.205 188.995 267.205C190.258 267.205 191.284 268.649 191.284 270.415ZM202.896 282.027C202.896 283.793 201.87 285.236 200.607 285.236C199.344 285.236 198.319 283.793 198.319 282.027C198.319 280.261 199.344 278.817 200.607 278.817C201.87 278.817 202.896 280.261 202.896 282.027ZM208.782 287.913C208.782 289.689 207.757 291.123 206.494 291.123C205.231 291.123 204.206 289.689 204.206 287.913C204.206 286.147 205.231 284.704 206.494 284.704C207.757 284.704 208.782 286.147 208.782 287.913ZM208.184 249.82C208.184 251.586 207.159 253.03 205.896 253.03C204.633 253.03 203.608 251.586 203.608 249.82C203.608 248.054 204.633 246.611 205.896 246.611C207.159 246.611 208.184 248.054 208.184 249.82ZM214.014 255.66C214.014 257.426 212.989 258.869 211.726 258.869C210.473 258.869 209.437 257.426 209.437 255.66C209.437 253.884 210.473 252.45 211.726 252.45C212.989 252.45 214.014 253.884 214.014 255.66ZM219.777 261.413C219.777 263.179 218.752 264.623 217.489 264.623C216.226 264.623 215.201 263.179 215.201 261.413C215.201 259.647 216.226 258.204 217.489 258.204C218.752 258.204 219.777 259.647 219.777 261.413ZM225.617 267.253C225.617 269.019 224.581 270.462 223.328 270.462C222.065 270.462 221.04 269.019 221.04 267.253C221.04 265.487 222.065 264.044 223.328 264.044C224.581 264.044 225.617 265.487 225.617 267.253ZM231.389 273.026C231.389 274.792 230.364 276.235 229.101 276.235C227.838 276.235 226.813 274.792 226.813 273.026C226.813 271.26 227.838 269.816 229.101 269.816C230.364 269.816 231.389 271.26 231.389 273.026ZM215.077 244.541C215.077 246.307 214.052 247.75 212.799 247.75C211.536 247.75 210.51 246.307 210.51 244.541C210.51 242.775 211.536 241.332 212.799 241.332C214.052 241.332 215.077 242.775 215.077 244.541ZM220.917 250.381C220.917 252.147 219.891 253.59 218.628 253.59C217.365 253.59 216.34 252.147 216.34 250.381C216.34 248.605 217.365 247.171 218.628 247.171C219.891 247.171 220.917 248.605 220.917 250.381ZM226.68 256.134C226.68 257.91 225.655 259.344 224.392 259.344C223.129 259.344 222.104 257.91 222.104 256.134C222.104 254.368 223.129 252.925 224.392 252.925C225.655 252.925 226.68 254.368 226.68 256.134ZM232.538 262.002C232.538 263.768 231.513 265.211 230.25 265.211C228.987 265.211 227.962 263.768 227.962 262.002C227.962 260.226 228.987 258.793 230.25 258.793C231.513 258.793 232.538 260.226 232.538 262.002Z" fill="#FF0057"/>
</g>
<g opacity="0.4">
<path d="M233.58 272.506C233.01 282.504 226.24 292.215 210.849 291.59C196.113 290.992 190.084 280.785 190.084 270.711C190.084 267.616 194.694 260.399 194.694 260.399C192.443 266.2 196.175 278.257 211.839 278.229C227.83 278.2 231.178 266.965 229.617 261.344C232.795 263.278 233.777 269.05 233.58 272.506Z" fill="#90002F"/>
</g>
<g opacity="0.4">
<path d="M233.58 272.503C233.57 272.598 233.57 272.693 233.561 272.788C232.488 259.514 219.385 242.984 211.799 242.984C204.915 242.984 191.29 259.315 190.16 272.589C190.103 271.962 190.084 271.336 190.084 270.709C190.094 254.255 204.611 234.021 211.799 234.021C219.965 234.021 234.529 255.84 233.58 272.503Z" fill="#F1F1F1"/>
</g>
<path d="M211.799 234.025C204.61 234.025 189.14 254.253 189.135 270.711C189.132 280.785 196.111 290.99 210.849 291.587C226.242 292.211 233.959 282.507 234.53 272.507C235.482 255.84 219.962 234.025 211.799 234.025Z" stroke="#9A0039" stroke-width="8" stroke-miterlimit="10"/>
</g>
<g opacity="0.3">
<path d="M326.679 289.414C326.672 296.494 314.555 302.222 299.614 302.208C284.673 302.194 272.567 296.444 272.574 289.364C272.581 282.284 284.697 276.555 299.638 276.569C314.579 276.583 326.686 282.334 326.679 289.414Z" fill="#929EB0"/>
</g>
<path d="M299.177 236.815C291.988 236.815 277.468 257.043 277.463 273.501C277.46 283.575 283.489 293.78 298.227 294.377C313.62 295.001 320.388 285.297 320.959 275.297C321.911 258.63 307.34 236.815 299.177 236.815Z" fill="#BF113A"/>
<g opacity="0.6">
<path d="M293.873 263.548C293.873 265.323 292.848 266.758 291.585 266.758C290.322 266.758 289.297 265.323 289.297 263.548C289.297 261.782 290.322 260.339 291.585 260.339C292.848 260.339 293.873 261.782 293.873 263.548ZM299.627 269.312C299.627 271.078 298.602 272.521 297.339 272.521C296.076 272.521 295.05 271.078 295.05 269.312C295.05 267.536 296.076 266.102 297.339 266.102C298.602 266.102 299.627 267.536 299.627 269.312ZM288.1 257.775C288.1 259.541 287.065 260.985 285.812 260.985C284.549 260.985 283.524 259.541 283.524 257.775C283.524 256.009 284.549 254.566 285.812 254.566C287.065 254.566 288.1 256.009 288.1 257.775ZM292.107 274.239C292.107 276.005 291.072 277.449 289.819 277.449C288.556 277.449 287.531 276.005 287.531 274.239C287.531 272.463 288.556 271.03 289.819 271.03C291.072 271.03 292.107 272.463 292.107 274.239ZM286.325 268.467C286.325 270.233 285.3 271.666 284.037 271.666C282.784 271.666 281.748 270.233 281.748 268.467C281.748 266.692 282.784 265.257 284.037 265.257C285.3 265.257 286.325 266.692 286.325 268.467ZM305.466 275.142C305.466 276.918 304.441 278.351 303.178 278.351C301.915 278.351 300.89 276.918 300.89 275.142C300.89 273.376 301.915 271.932 303.178 271.932C304.441 271.932 305.466 273.376 305.466 275.142ZM311.22 280.905C311.22 282.671 310.195 284.114 308.932 284.114C307.679 284.114 306.644 282.671 306.644 280.905C306.644 279.139 307.679 277.696 308.932 277.696C310.195 277.696 311.22 279.139 311.22 280.905ZM297.937 280.069C297.937 281.844 296.912 283.278 295.649 283.278C294.386 283.278 293.36 281.844 293.36 280.069C293.36 278.303 294.386 276.86 295.649 276.86C296.912 276.86 297.937 278.303 297.937 280.069ZM303.833 285.966C303.833 287.732 302.798 289.175 301.545 289.175C300.282 289.175 299.257 287.732 299.257 285.966C299.257 284.19 300.282 282.756 301.545 282.756C302.798 282.756 303.833 284.19 303.833 285.966ZM284.435 278.977C284.435 280.753 283.41 282.187 282.147 282.187C280.884 282.187 279.859 280.753 279.859 278.977C279.859 277.211 280.884 275.768 282.147 275.768C283.41 275.768 284.435 277.211 284.435 278.977ZM278.663 273.205C278.663 274.971 277.637 276.414 276.374 276.414C275.111 276.414 274.086 274.971 274.086 273.205C274.086 271.439 275.111 269.995 276.374 269.995C277.637 269.995 278.663 271.439 278.663 273.205ZM290.275 284.817C290.275 286.583 289.249 288.026 287.986 288.026C286.723 288.026 285.698 286.583 285.698 284.817C285.698 283.051 286.723 281.607 287.986 281.607C289.249 281.607 290.275 283.051 290.275 284.817ZM296.161 290.703C296.161 292.479 295.136 293.913 293.873 293.913C292.61 293.913 291.585 292.479 291.585 290.703C291.585 288.937 292.61 287.494 293.873 287.494C295.136 287.494 296.161 288.937 296.161 290.703ZM295.563 252.61C295.563 254.376 294.538 255.82 293.275 255.82C292.012 255.82 290.987 254.376 290.987 252.61C290.987 250.844 292.012 249.401 293.275 249.401C294.538 249.401 295.563 250.844 295.563 252.61ZM301.393 258.45C301.393 260.216 300.368 261.659 299.105 261.659C297.852 261.659 296.816 260.216 296.816 258.45C296.816 256.674 297.852 255.24 299.105 255.24C300.368 255.24 301.393 256.674 301.393 258.45ZM307.156 264.203C307.156 265.969 306.131 267.413 304.868 267.413C303.605 267.413 302.58 265.969 302.58 264.203C302.58 262.437 303.605 260.994 304.868 260.994C306.131 260.994 307.156 262.437 307.156 264.203ZM312.996 270.043C312.996 271.809 311.96 273.252 310.707 273.252C309.444 273.252 308.419 271.809 308.419 270.043C308.419 268.277 309.444 266.834 310.707 266.834C311.96 266.834 312.996 268.277 312.996 270.043ZM318.768 275.816C318.768 277.582 317.743 279.025 316.48 279.025C315.217 279.025 314.192 277.582 314.192 275.816C314.192 274.05 315.217 272.606 316.48 272.606C317.743 272.606 318.768 274.05 318.768 275.816ZM302.456 247.331C302.456 249.097 301.431 250.54 300.178 250.54C298.915 250.54 297.889 249.097 297.889 247.331C297.889 245.565 298.915 244.122 300.178 244.122C301.431 244.122 302.456 245.565 302.456 247.331ZM308.296 253.171C308.296 254.937 307.27 256.38 306.007 256.38C304.744 256.38 303.719 254.937 303.719 253.171C303.719 251.395 304.744 249.961 306.007 249.961C307.27 249.961 308.296 251.395 308.296 253.171ZM314.059 258.924C314.059 260.7 313.034 262.134 311.771 262.134C310.508 262.134 309.483 260.7 309.483 258.924C309.483 257.158 310.508 255.715 311.771 255.715C313.034 255.715 314.059 257.158 314.059 258.924ZM319.917 264.792C319.917 266.558 318.892 268.001 317.629 268.001C316.366 268.001 315.341 266.558 315.341 264.792C315.341 263.016 316.366 261.583 317.629 261.583C318.892 261.583 319.917 263.016 319.917 264.792Z" fill="#FF0057"/>
</g>
<g opacity="0.4">
<path d="M320.959 275.296C320.389 285.294 313.619 295.005 298.228 294.38C283.492 293.782 277.463 283.575 277.463 273.501C277.463 270.406 282.073 263.189 282.073 263.189C279.822 268.99 283.554 281.047 299.218 281.019C315.209 280.99 318.557 269.755 316.996 264.134C320.174 266.068 321.156 271.84 320.959 275.296Z" fill="#90002F"/>
</g>
<g opacity="0.4">
<path d="M320.959 275.293C320.949 275.388 320.949 275.483 320.94 275.578C319.867 262.304 306.764 245.774 299.178 245.774C292.294 245.774 278.669 262.105 277.539 275.379C277.482 274.752 277.463 274.126 277.463 273.499C277.473 257.045 291.99 236.811 299.178 236.811C307.344 236.811 321.908 258.63 320.959 275.293Z" fill="#F1F1F1"/>
</g>
<path d="M299.178 236.815C291.989 236.815 276.519 257.043 276.514 273.501C276.511 283.575 283.49 293.78 298.228 294.377C313.621 295.001 321.338 285.297 321.909 275.297C322.861 258.63 307.341 236.815 299.178 236.815Z" stroke="#9A0039" stroke-width="8" stroke-miterlimit="10"/>
<mask id="mask9_4_1709" style="mask-type:luminance" maskUnits="userSpaceOnUse" x="0" y="0" width="513" height="512">
<path d="M0.00195312 0.000610352H512.005V511.999H0.00195312V0.000610352Z" fill="white"/>
</mask>
<g mask="url(#mask9_4_1709)">
<g opacity="0.3">
<path d="M163.218 261.845C163.211 268.895 151.145 274.599 136.268 274.585C121.39 274.571 109.335 268.844 109.342 261.794C109.348 254.744 121.414 249.04 136.292 249.054C151.17 249.068 163.224 254.795 163.218 261.845Z" fill="#929EB0"/>
</g>
<path d="M135.833 209.468C128.674 209.468 114.216 229.61 114.211 245.998C114.208 256.03 120.211 266.192 134.887 266.787C150.214 267.409 156.954 257.745 157.523 247.787C158.471 231.19 143.961 209.468 135.833 209.468Z" fill="#BE103A"/>
<g opacity="0.6">
<path d="M130.549 236.088C130.549 237.856 129.527 239.284 128.27 239.284C127.012 239.284 125.992 237.856 125.992 236.088C125.992 234.329 127.012 232.893 128.27 232.893C129.527 232.893 130.549 234.329 130.549 236.088ZM136.279 241.827C136.279 243.586 135.257 245.024 134 245.024C132.742 245.024 131.722 243.586 131.722 241.827C131.722 240.059 132.742 238.632 134 238.632C135.257 238.632 136.279 240.059 136.279 241.827ZM124.8 230.34C124.8 232.099 123.771 233.535 122.522 233.535C121.265 233.535 120.243 232.099 120.243 230.34C120.243 228.581 121.265 227.144 122.522 227.144C123.771 227.144 124.8 228.581 124.8 230.34ZM128.79 246.734C128.79 248.493 127.76 249.93 126.512 249.93C125.255 249.93 124.233 248.493 124.233 246.734C124.233 244.966 125.255 243.539 126.512 243.539C127.76 243.539 128.79 244.966 128.79 246.734ZM123.033 240.986C123.033 242.744 122.011 244.172 120.753 244.172C119.505 244.172 118.475 242.744 118.475 240.986C118.475 239.218 119.505 237.79 120.753 237.79C122.011 237.79 123.033 239.218 123.033 240.986ZM142.094 247.633C142.094 249.4 141.072 250.828 139.814 250.828C138.557 250.828 137.536 249.4 137.536 247.633C137.536 245.874 138.557 244.437 139.814 244.437C141.072 244.437 142.094 245.874 142.094 247.633ZM147.822 253.371C147.822 255.13 146.802 256.567 145.544 256.567C144.296 256.567 143.265 255.13 143.265 253.371C143.265 251.613 144.296 250.176 145.544 250.176C146.802 250.176 147.822 251.613 147.822 253.371ZM134.596 252.54C134.596 254.308 133.574 255.735 132.317 255.735C131.059 255.735 130.039 254.308 130.039 252.54C130.039 250.781 131.059 249.343 132.317 249.343C133.574 249.343 134.596 250.781 134.596 252.54ZM140.467 258.411C140.467 260.169 139.437 261.606 138.189 261.606C136.931 261.606 135.909 260.169 135.909 258.411C135.909 256.643 136.931 255.215 138.189 255.215C139.437 255.215 140.467 256.643 140.467 258.411ZM121.151 251.452C121.151 253.22 120.13 254.647 118.872 254.647C117.615 254.647 116.594 253.22 116.594 251.452C116.594 249.693 117.615 248.257 118.872 248.257C120.13 248.257 121.151 249.693 121.151 251.452ZM115.403 245.703C115.403 247.462 114.381 248.899 113.124 248.899C111.867 248.899 110.846 247.462 110.846 245.703C110.846 243.945 111.867 242.508 113.124 242.508C114.381 242.508 115.403 243.945 115.403 245.703ZM126.966 257.267C126.966 259.025 125.944 260.462 124.687 260.462C123.43 260.462 122.409 259.025 122.409 257.267C122.409 255.508 123.43 254.071 124.687 254.071C125.944 254.071 126.966 255.508 126.966 257.267ZM132.827 263.128C132.827 264.896 131.806 266.324 130.549 266.324C129.292 266.324 128.27 264.896 128.27 263.128C128.27 261.37 129.292 259.933 130.549 259.933C131.806 259.933 132.827 261.37 132.827 263.128ZM132.232 225.197C132.232 226.956 131.21 228.393 129.953 228.393C128.695 228.393 127.675 226.956 127.675 225.197C127.675 223.438 128.695 222.001 129.953 222.001C131.21 222.001 132.232 223.438 132.232 225.197ZM138.037 231.011C138.037 232.77 137.016 234.207 135.759 234.207C134.51 234.207 133.479 232.77 133.479 231.011C133.479 229.243 134.51 227.815 135.759 227.815C137.016 227.815 138.037 229.243 138.037 231.011ZM143.777 236.741C143.777 238.5 142.755 239.936 141.497 239.936C140.24 239.936 139.219 238.5 139.219 236.741C139.219 234.982 140.24 233.545 141.497 233.545C142.755 233.545 143.777 234.982 143.777 236.741ZM149.591 242.555C149.591 244.314 148.56 245.751 147.312 245.751C146.055 245.751 145.034 244.314 145.034 242.555C145.034 240.796 146.055 239.36 147.312 239.36C148.56 239.36 149.591 240.796 149.591 242.555ZM155.339 248.304C155.339 250.063 154.318 251.499 153.061 251.499C151.803 251.499 150.783 250.063 150.783 248.304C150.783 246.545 151.803 245.108 153.061 245.108C154.318 245.108 155.339 246.545 155.339 248.304ZM139.096 219.94C139.096 221.699 138.075 223.136 136.827 223.136C135.569 223.136 134.549 221.699 134.549 219.94C134.549 218.181 135.569 216.744 136.827 216.744C138.075 216.744 139.096 218.181 139.096 219.94ZM144.911 225.755C144.911 227.514 143.89 228.95 142.633 228.95C141.375 228.95 140.353 227.514 140.353 225.755C140.353 223.987 141.375 222.558 142.633 222.558C143.89 222.558 144.911 223.987 144.911 225.755ZM150.649 231.484C150.649 233.251 149.629 234.679 148.371 234.679C147.114 234.679 146.093 233.251 146.093 231.484C146.093 229.725 147.114 228.288 148.371 228.288C149.629 228.288 150.649 229.725 150.649 231.484ZM156.484 237.327C156.484 239.086 155.462 240.522 154.205 240.522C152.947 240.522 151.927 239.086 151.927 237.327C151.927 235.559 152.947 234.131 154.205 234.131C155.462 234.131 156.484 235.559 156.484 237.327Z" fill="#FF0057"/>
</g>
<g opacity="0.4">
<path d="M157.523 247.786C156.955 257.742 150.213 267.413 134.888 266.79C120.214 266.194 114.211 256.03 114.211 245.999C114.211 242.917 118.801 235.731 118.801 235.731C116.559 241.508 120.275 253.514 135.873 253.486C151.797 253.457 155.131 242.268 153.577 236.671C156.742 238.597 157.718 244.344 157.523 247.786Z" fill="#90002F"/>
</g>
<g opacity="0.4">
<path d="M157.523 247.784C157.513 247.878 157.513 247.973 157.504 248.067C156.436 234.85 143.389 218.389 135.834 218.389C128.979 218.389 115.412 234.652 114.287 247.869C114.23 247.246 114.211 246.621 114.211 245.997C114.221 229.613 128.676 209.464 135.834 209.464C143.965 209.464 158.467 231.19 157.523 247.784Z" fill="#F1F1F1"/>
</g>
<path d="M135.831 209.468C128.673 209.468 113.269 229.61 113.264 245.998C113.26 256.03 120.21 266.192 134.885 266.787C150.213 267.409 157.899 257.745 158.467 247.787C159.416 231.19 143.959 209.468 135.831 209.468Z" stroke="#9A0039" stroke-width="8.8" stroke-miterlimit="10"/>
</g>
</g>
<defs>
<linearGradient id="paint0_linear_4_1709" x1="70.2083" y1="242.195" x2="442.806" y2="243.215" gradientUnits="userSpaceOnUse">
<stop stop-color="#9F9F9C"/>
<stop offset="0.08" stop-color="#C6C3BE"/>
<stop offset="0.34" stop-color="#EDE7DF"/>
<stop offset="0.5" stop-color="#ECE7E0"/>
<stop offset="0.66" stop-color="#ECE7E0"/>
<stop offset="0.92" stop-color="#C6C3BE"/>
<stop offset="1" stop-color="#9F9F9C"/>
</linearGradient>
<radialGradient id="paint1_radial_4_1709" cx="0" cy="0" r="1" gradientUnits="userSpaceOnUse" gradientTransform="translate(257.201 243.237) scale(186.14 98.5446)">
<stop offset="0.87" stop-color="white"/>
<stop offset="0.94" stop-color="white" stop-opacity="0.5"/>
<stop offset="1" stop-color="white" stop-opacity="0"/>
</radialGradient>
<radialGradient id="paint2_radial_4_1709" cx="0" cy="0" r="1" gradientUnits="userSpaceOnUse" gradientTransform="translate(257.201 243.237) scale(186.14 98.5446)">
<stop offset="0.87" stop-color="white"/>
<stop offset="0.97" stop-color="white"/>
<stop offset="1" stop-color="white"/>
</radialGradient>
<radialGradient id="paint3_radial_4_1709" cx="0" cy="0" r="1" gradientUnits="userSpaceOnUse" gradientTransform="translate(253.382 222.381) scale(174.3 77)">
<stop offset="0.7" stop-color="#EEECEA"/>
<stop offset="0.85" stop-color="#EEECEA" stop-opacity="0.5"/>
<stop offset="1" stop-color="#EEECEA" stop-opacity="0"/>
</radialGradient>
<radialGradient id="paint4_radial_4_1709" cx="0" cy="0" r="1" gradientUnits="userSpaceOnUse" gradientTransform="translate(255.273 82.9801) scale(61.2347 61.2347)">
<stop stop-color="#FDEE00" stop-opacity="0.7"/>
<stop offset="0.43" stop-color="#FDEE00" stop-opacity="0.35"/>
<stop offset="1" stop-color="#FDEE00" stop-opacity="0"/>
</radialGradient>
<radialGradient id="paint5_radial_4_1709" cx="0" cy="0" r="1" gradientUnits="userSpaceOnUse" gradientTransform="translate(156.89 88.7636) scale(57.2977 57.2972)">
<stop stop-color="#FDEE00" stop-opacity="0.7"/>
<stop offset="0.43" stop-color="#FDEE00" stop-opacity="0.35"/>
<stop offset="1" stop-color="#FDEE00" stop-opacity="0"/>
</radialGradient>
<radialGradient id="paint6_radial_4_1709" cx="0" cy="0" r="1" gradientUnits="userSpaceOnUse" gradientTransform="translate(352.688 88.4138) scale(57.2977 57.2972)">
<stop stop-color="#FDEE00" stop-opacity="0.7"/>
<stop offset="0.43" stop-color="#FDEE00" stop-opacity="0.35"/>
<stop offset="1" stop-color="#FDEE00" stop-opacity="0"/>
</radialGradient>
<clipPath id="clip0_4_1709">
<rect width="512" height="512" fill="white"/>
</clipPath>
</defs>
</svg>
