<svg width="512" height="512" viewBox="0 0 512 512" fill="none" xmlns="http://www.w3.org/2000/svg">
<g clip-path="url(#clip0_4_11877)">
<mask id="mask0_4_11877" style="mask-type:luminance" maskUnits="userSpaceOnUse" x="0" y="0" width="512" height="512">
<path d="M512 0H0V512H512V0Z" fill="white"/>
</mask>
<g mask="url(#mask0_4_11877)">
<path d="M187.561 43.8713C184.895 40.2113 170.957 47.2876 170.632 53.0621C170.307 58.8365 195.985 55.4388 187.561 43.8713Z" fill="#F7F0E2"/>
<path d="M187.561 43.8713C184.895 40.2113 170.957 47.2876 170.632 53.0621C170.307 58.8365 195.985 55.4388 187.561 43.8713Z" stroke="#CDC2B3" stroke-width="5.3" stroke-linecap="round" stroke-linejoin="round"/>
<g opacity="0.4">
<path d="M170.632 53.0622C170.441 56.4553 179.226 56.6809 184.798 53.9443" stroke="#8F9584" stroke-width="5.3" stroke-linecap="round" stroke-linejoin="round"/>
</g>
<path d="M175.076 75.4737C173.633 66.1899 165.652 67.9379 161.252 76.5298C156.851 85.1217 155.272 102.655 161.142 119.904C167.011 137.154 188.619 161.831 180.493 149.433C161.142 119.904 176.772 86.4004 175.076 75.4737Z" fill="#E5DDCE"/>
<path d="M175.076 75.4737C173.633 66.1899 165.652 67.9379 161.252 76.5298C156.851 85.1216 155.272 102.655 161.142 119.904C167.011 137.154 188.619 161.831 180.493 149.433C161.142 119.904 176.772 86.4004 175.076 75.4737Z" stroke="#C5B9AF" stroke-width="5.3" stroke-linecap="round" stroke-linejoin="round"/>
<g opacity="0.6">
<path d="M169.274 69.2985C166.549 69.6493 163.454 72.2337 161.253 76.53C156.852 85.1219 155.273 102.656 161.143 119.905C164.077 128.53 170.947 139.011 176.067 145.787" stroke="#89A093" stroke-width="5.3" stroke-linecap="round" stroke-linejoin="round"/>
</g>
<path d="M178.159 155.904C178.159 155.904 152.046 156.534 134.071 126.366C115.589 95.3457 89.1253 135.595 112.724 147.713C125.203 154.12 144.982 174.343 146.414 191.335C148.252 213.157 203.49 168.688 178.159 155.904Z" fill="#A2B7A6"/>
<path d="M178.159 155.904C178.159 155.904 152.046 156.534 134.071 126.366C115.589 95.3457 89.1253 135.595 112.724 147.713C125.203 154.12 144.982 174.343 146.414 191.335C148.252 213.157 203.49 168.688 178.159 155.904Z" stroke="#89A093" stroke-width="5.3" stroke-linecap="round" stroke-linejoin="round"/>
<path d="M106.81 179.206C97.9238 176.655 77.3859 176.341 74.1824 191.075C72.6646 198.056 83.8266 202.559 90.9374 193.118C100.938 179.843 108.282 183.298 122.617 185.32L106.81 179.206Z" fill="#A2B7A6"/>
<path d="M106.81 179.206C97.9238 176.655 77.3859 176.341 74.1824 191.075C72.6646 198.056 83.8266 202.559 90.9374 193.118C100.938 179.843 108.282 183.298 122.617 185.32L106.81 179.206Z" stroke="#8F9584" stroke-width="5.3" stroke-linecap="round" stroke-linejoin="round"/>
<path d="M151.265 136.388C147.234 142.572 125.62 168.421 116.177 161.096C106.733 153.771 87.3668 138.951 87.51 132.429C87.6532 125.908 115.992 98.9238 121.099 98.8421C126.205 98.7604 155.295 130.203 151.265 136.388Z" fill="#C5945C"/>
<g opacity="0.3">
<path d="M132.668 114.07C108.322 119.533 134.608 150.828 143.866 138.011C145.238 136.111 123.189 162.392 123.189 162.392C113.407 169.016 87.5085 132.427 87.5085 132.427C78.8888 122.773 113.663 101.08 113.663 101.08C122.329 92.5124 132.668 114.07 132.668 114.07Z" fill="#613D21"/>
</g>
<path d="M151.264 136.388L125.056 162.596C122.19 165.462 117.543 165.462 114.677 162.595L87.5094 132.43C84.6439 129.564 118.232 95.9762 121.098 98.8424L151.264 126.01C154.129 128.875 154.13 133.522 151.264 136.388Z" stroke="#66451F" stroke-width="8.48" stroke-linecap="round" stroke-linejoin="round"/>
<g opacity="0.6">
<path d="M110.963 125.222C105.903 127.246 110.606 129.515 114.32 128.32C118.034 127.124 118.119 122.358 110.963 125.222Z" fill="#6F3C12"/>
<path d="M138.168 133.413C135.532 133.54 131.092 135.571 133.258 138.323C135.424 141.075 143.621 133.151 138.168 133.413Z" fill="#6F3C12"/>
<path d="M125.733 121.052C124.748 122.211 127.1 125.86 129.535 123.348C131.971 120.837 129.39 116.751 125.733 121.052Z" fill="#6F3C12"/>
<path d="M114.868 146.217C111.86 146.896 115.127 150.888 117.681 150.827C120.236 150.765 122.113 144.577 114.868 146.217Z" fill="#6F3C12"/>
</g>
<path d="M108.454 70.3755C94.3693 69.2587 55.2834 97.7941 59.043 119.787C59.7056 123.664 72.6418 142.464 84.7662 137.532C91.102 134.954 123.594 102.338 126.204 96.1002C130.559 85.6937 112.375 70.6865 108.454 70.3755Z" fill="#C5945C"/>
<g opacity="0.5">
<path d="M128.604 93.4733C125.002 100.876 113.576 105.848 114.783 104.012C122.323 92.5589 106.932 80.8272 98.8644 82.0924C89.786 83.5165 64.3019 107.383 62.0383 118.29C62.0383 118.29 52.107 112.242 76.5043 87.8443C96.0447 68.304 103.045 68.0791 108.457 70.3727C112.07 71.9167 130.16 90.2773 128.604 93.4733Z" fill="#FFF4C6"/>
</g>
<g opacity="0.6">
<path d="M84.0589 102.079C81.5674 104.334 76.67 102.384 79.3338 106.824C81.9977 111.264 88.3425 107.459 89.9795 103.219C91.6164 98.9801 87.1747 99.2589 84.0589 102.079Z" fill="#6F3C12"/>
<path d="M100.453 90.8047C97.1048 93.3164 101.045 94.0607 103.561 92.4327C106.076 90.8047 105.189 87.2527 100.453 90.8047Z" fill="#6F3C12"/>
<path d="M69.0665 113.989C66.6493 115.618 69.3686 120.091 71.043 118.965C72.7175 117.839 71.4838 112.36 69.0665 113.989Z" fill="#6F3C12"/>
<path d="M94.2307 112.789C92.4618 115.174 100.483 118.859 101.617 115.38C102.752 111.9 97.9589 107.762 94.2307 112.789Z" fill="#6F3C12"/>
<path d="M80.4466 125.068C78.168 125.552 74.0711 127.927 75.5364 129.978C77.0018 132.03 85.1612 124.067 80.4466 125.068Z" fill="#6F3C12"/>
<path d="M86.5027 87.0881C82.4545 89.303 84.1012 94.2656 87.0941 93.8212C90.087 93.3767 90.7219 84.7803 86.5027 87.0881Z" fill="#6F3C12"/>
<path d="M114.34 91.1706C112.386 92.3541 112.907 96.197 117.509 93.6381C122.112 91.0792 121.593 86.7769 114.34 91.1706Z" fill="#6F3C12"/>
<path d="M102.991 73.2425C99.9835 73.9238 103.25 77.9143 105.804 77.8529C108.359 77.7914 110.236 71.6033 102.991 73.2425Z" fill="#6F3C12"/>
</g>
<g opacity="0.4">
<path d="M98.6224 119.617C99.1298 119.232 88.3538 134.248 84.7635 137.538C82.1402 139.937 66.1481 138.351 59.0396 119.789C56.9371 114.3 60.1429 99.6432 80.2513 90.0927C66.331 99.7586 85.4433 129.613 98.6224 119.617Z" fill="#613D21"/>
</g>
<path d="M108.453 70.3753C103.044 68.072 96.0454 68.3096 76.5111 87.8439C56.9768 107.378 56.7384 114.377 59.0417 119.787C60.582 123.405 68.9401 132.509 75.398 137.797C78.1518 140.051 82.1401 139.936 84.765 137.532C89.8086 132.911 119.576 104.4 126.203 96.1C128.423 93.3192 128.721 89.4884 126.467 86.7353C121.18 80.2766 112.072 71.9163 108.453 70.3753Z" stroke="#8E581F" stroke-width="8.48" stroke-linecap="round" stroke-linejoin="round"/>
<path d="M76.5111 87.8439C56.9768 107.378 56.7384 114.377 59.0417 119.787C60.582 123.405 68.9401 132.509 75.398 137.797C78.1518 140.051 82.1401 139.936 84.765 137.532C89.8086 132.911 115.929 107.882 126.203 96.1" stroke="#66451E" stroke-width="8.48" stroke-linecap="round" stroke-linejoin="round"/>
<path d="M190.696 206.446C169.809 226.513 148.579 211.12 139.147 195.947C129.716 180.774 105.521 186.925 93.2189 172.163C87.1627 164.895 86.7197 158.348 90.7627 155.207C100.918 147.317 118.15 180.491 138.737 176.673C152.514 174.118 137.185 160.72 127.634 154.869C113.057 145.939 87.2264 149.381 87.6574 135.076C87.85 128.68 96.8519 128.737 100.228 128.686C115.031 128.463 154.394 172.34 167.923 162.25C175.034 156.946 166.31 141.365 154.191 128.073C140.663 113.233 140.87 100.695 146.118 98.7593C160.931 93.296 151.645 124.779 186.644 154.19C191.012 157.86 213.771 184.277 190.696 206.446Z" fill="#F7F0E2"/>
<g opacity="0.5">
<path d="M168.66 216.245C159.374 216.226 148.572 211.115 139.149 195.946C129.715 180.778 105.516 186.925 93.2194 172.159C87.1564 164.898 86.4032 155.052 92.1273 155.018C88.6645 165.383 118.259 183.635 138.736 176.675C152.006 172.164 137.188 160.722 127.637 154.871C113.391 146.147 90.5481 149.231 89.7851 136.056L89.7963 136.056C89.7963 136.056 90.9858 132.59 102.759 135.389C116.807 138.729 139.24 153.771 153.163 175.067C169.546 200.123 199.155 188.823 194.439 164.74C213.507 200.412 180.598 216.269 168.66 216.245Z" fill="#A2B7A6"/>
</g>
<path d="M190.696 206.446C181.001 216.492 174.643 216.947 168.662 216.241C159.442 215.15 148.578 211.12 139.146 195.947C129.715 180.774 105.52 186.925 93.218 172.163C87.1618 164.895 86.7518 158.39 90.7618 155.208C98.6394 148.956 109.741 165.651 120.844 172.331C126.188 175.545 133.484 177.757 138.736 176.673C152.459 173.844 137.184 160.72 127.634 154.87C113.056 145.939 86.6454 149.351 87.6565 135.076C88.6706 120.764 113.662 132.545 123.175 139.985C131.519 146.511 159.34 171.553 167.922 162.25C173.937 155.73 166.309 141.365 154.19 128.073C140.662 113.233 141.518 101.943 146.117 98.7595C151.216 95.2299 154.552 101.549 158.93 114.752C164.92 132.814 174.389 140.357 186.644 154.19C190.426 158.46 212.914 183.419 190.696 206.446Z" stroke="#C5B9AF" stroke-width="5.3" stroke-linecap="round" stroke-linejoin="round"/>
<g opacity="0.6">
<path d="M138.736 176.673C152.459 173.844 137.184 160.72 127.634 154.87C113.056 145.939 87.2256 149.381 87.6566 135.076" stroke="#89A093" stroke-width="5.3" stroke-linecap="round" stroke-linejoin="round"/>
</g>
<g opacity="0.6">
<path d="M153.411 161.265C160.301 164.53 165.828 165.394 167.923 162.25C172.845 154.869 166.31 141.365 154.192 128.073C140.664 113.233 141.52 101.944 146.119 98.7597" stroke="#89A093" stroke-width="5.3" stroke-linecap="round" stroke-linejoin="round"/>
</g>
<path d="M190.697 206.446C175.992 225.409 149.956 215.339 139.148 195.947C130.45 180.342 105.521 186.925 93.2194 172.163C88.0559 165.967 86.7907 160.333 89.9657 156.068" stroke="#8F9584" stroke-width="5.3" stroke-linecap="round" stroke-linejoin="round"/>
<g opacity="0.3">
<path d="M171.805 172.376C164.855 171.765 163.653 179.021 172.787 182.909C181.921 186.798 188.69 173.862 171.805 172.376Z" fill="#CBBBAA"/>
</g>
<g opacity="0.3">
<path d="M178.248 164.468C176.042 166.312 178.016 170.553 182.057 169.439C186.099 168.326 182.716 160.731 178.248 164.468Z" fill="#CBBBAA"/>
</g>
<path d="M52.1539 172.825C55.4346 166.715 33.3976 167.816 33.3976 177.142C33.3976 184.45 46.8967 182.615 52.1539 172.825Z" fill="#E0D8CC"/>
<path d="M52.1539 172.825C55.4346 166.715 33.3976 167.816 33.3976 177.142C33.3976 184.45 46.8967 182.615 52.1539 172.825Z" stroke="#C1BBB2" stroke-width="5.3" stroke-linecap="round" stroke-linejoin="round"/>
<path d="M123.347 238.333C122.395 234.427 106.169 250.087 110.99 258.524C115.813 266.962 129.375 263.045 123.347 238.333Z" fill="#E0D8CC"/>
<path d="M123.347 238.333C122.395 234.427 106.169 250.087 110.99 258.524C115.813 266.962 129.375 263.045 123.347 238.333Z" stroke="#C1BBB2" stroke-width="5.3" stroke-linecap="round" stroke-linejoin="round"/>
<g opacity="0.4">
<path d="M111.17 250.137C109.955 253.106 109.612 256.11 110.991 258.524C114.306 264.324 121.751 264.286 124.123 255.667" stroke="#8F9584" stroke-width="5.3" stroke-linecap="round" stroke-linejoin="round"/>
</g>
<path d="M348.856 264.131C317.135 250.009 234.355 332.946 248.477 364.667C262.599 396.388 282.592 414.572 300.48 431.091C320.68 449.745 345.492 473.345 359 475.716C373.385 478.242 462.432 389.038 459.906 374.653C457.534 361.146 433.935 336.332 415.28 316.133C398.761 298.245 380.577 278.253 348.856 264.131Z" fill="#4A8100"/>
<path d="M216.254 281.575C227.947 298.275 236.421 332.1 248.477 364.661C266.223 412.591 345.496 473.343 358.996 475.72C373.387 478.238 395.31 469.011 424.287 440.034C453.257 411.065 462.431 389.044 459.913 374.652C457.529 361.146 400.844 284.637 348.854 264.134C316.554 251.396 282.461 243.597 265.761 231.904L216.254 281.575Z" fill="url(#paint0_linear_4_11877)"/>
<path d="M444.848 349.318C452.808 359.182 459.42 368.125 459.913 374.652C463.384 420.581 387.328 479.146 358.996 475.719C353.435 475.046 342.334 464.157 334.119 457.876C345.797 462.463 448.985 362.87 444.848 349.318Z" fill="#20331F"/>
<g opacity="0.5">
<path d="M430.487 390.438C438.62 395.896 448.075 405.847 443.627 415.045C429.641 438.867 398.76 458.908 398.76 458.908C398.76 458.908 398.805 451.771 385.178 440.754C391.399 435.582 424.776 399.207 430.487 390.438Z" fill="#566570"/>
</g>
<g opacity="0.3">
<path d="M236.358 291.889C246.2 330.048 260.148 372.449 282.964 397.693C301.365 418.058 362.355 476.154 373.276 473.013C376.686 472.032 366.522 477.038 358.997 475.719C345.498 473.343 266.578 407.596 248.478 364.661C234.99 332.666 227.949 298.275 216.256 281.575C204.758 265.145 233.705 281.605 236.358 291.889Z" fill="white"/>
</g>
<g opacity="0.4">
<path d="M276.158 252.088C314.317 261.93 356.718 275.878 381.962 298.694C402.327 317.095 460.424 378.085 457.283 389.006C470.097 363.076 432.648 337.588 415.354 316.211C366.924 256.348 282.544 243.679 265.845 231.986C249.415 220.488 265.875 249.435 276.158 252.088Z" fill="#1D3105"/>
</g>
<path d="M216.256 281.571C227.951 298.273 234.357 332.946 248.479 364.667C262.601 396.388 282.594 414.572 300.481 431.091C320.681 449.745 345.494 473.345 359.002 475.717C373.387 478.243 395.316 469.009 424.288 440.037C453.261 411.064 462.434 389.038 459.908 374.653C457.535 361.146 433.936 336.333 415.282 316.133C398.763 298.245 380.579 278.253 348.858 264.131C317.137 250.009 282.464 243.603 265.762 231.908" stroke="#1D3B1D" stroke-width="8.48" stroke-linecap="round" stroke-linejoin="round"/>
<path d="M182.061 244.215C182.802 244.897 204.759 265.152 216.256 281.571C227.95 298.273 234.356 332.946 248.478 364.667C262.6 396.388 282.593 414.572 300.481 431.091C320.68 449.745 345.493 473.345 359.001 475.716C373.386 478.242 395.315 469.009 424.288 440.036C453.26 411.064 462.433 389.038 459.907 374.653" stroke="#003100" stroke-width="8.48" stroke-linecap="round" stroke-linejoin="round"/>
<path d="M334.869 461.624C344.264 469.097 352.817 474.631 359.001 475.717C373.386 478.243 395.315 469.009 424.288 440.037C453.26 411.064 462.433 389.038 459.907 374.653C458.965 369.286 454.671 362.135 448.667 354.196" stroke="#121D05" stroke-width="8.48" stroke-linecap="round" stroke-linejoin="round"/>
<g opacity="0.4">
<path d="M399.056 309.248C402.887 313.185 441.541 354.159 449.69 365.804C447.219 401.236 395.81 455.295 352.663 462.83C341.039 454.675 300.077 416.035 296.113 412.178C324.587 393.552 371.165 350.886 399.056 309.248Z" fill="#003100"/>
</g>
<path d="M400.554 310.747C404.385 314.684 441.54 354.159 449.689 365.804C449.689 365.804 445.272 390.577 411.353 424.496C377.881 457.967 352.662 462.83 352.662 462.83C341.038 454.675 301.575 417.534 297.611 413.677C297.611 413.677 323.487 402.429 356.534 368.876C391.208 333.669 400.371 311.511 400.554 310.747Z" fill="url(#paint1_linear_4_11877)"/>
<g opacity="0.2">
<path d="M327.971 271.464C310.004 263.383 286.368 261.489 295.244 273.367C304.12 285.246 345.28 304.894 353.803 295.72C362.326 286.546 342.498 277.999 327.971 271.464Z" fill="white"/>
</g>
<g opacity="0.66">
<path d="M321.865 277.327C324.805 278.736 328.224 280.499 332.101 282.691" stroke="white" stroke-width="6.36" stroke-linecap="round" stroke-linejoin="round"/>
</g>
<g opacity="0.4">
<path d="M281.321 300.087C271.642 302.969 240.462 308.947 229.182 307.818L293.768 244.36C293.768 244.36 288.488 281.679 285.278 295.855C284.82 297.88 283.31 299.495 281.321 300.087Z" fill="#003100"/>
</g>
<path d="M277.573 296.34C267.894 299.221 238.963 307.448 227.682 306.319C227.682 306.319 215.397 277.778 200.789 262.943C186.18 248.109 178.79 247.483 189.98 236.295C201.17 225.107 226.348 195.718 231.55 201.053C236.751 206.388 255.243 226.093 265.761 231.907C276.278 237.722 292.269 242.861 292.269 242.861C292.269 242.861 284.74 277.931 281.53 292.108C281.072 294.132 279.562 295.747 277.573 296.34Z" fill="url(#paint2_linear_4_11877)"/>
<g opacity="0.05">
<path d="M239.998 305.466L239.998 305.476C235.09 306.25 230.733 306.632 227.681 306.324C227.681 306.324 215.395 277.778 200.789 262.938C186.765 248.703 179.398 247.557 188.726 237.593C231.068 264.93 239.998 305.466 239.998 305.466Z" fill="white"/>
</g>
<g opacity="0.1">
<path d="M292.266 242.862C292.266 242.862 291.111 248.258 289.501 255.667C288.864 255.434 265.004 246.519 248.553 232.24C239.819 224.662 228.413 213.616 220.537 204.807C225.148 201.172 230.155 199.141 231.55 201.055C255.272 233.58 292.266 242.862 292.266 242.862Z" fill="#A48050"/>
</g>
<g opacity="0.3">
<path d="M179.589 242.376C179.667 243.722 187.412 251.467 190.536 250.167C207.104 243.274 232.18 214.323 234.408 206.295C235.313 203.034 227.963 195.426 226.617 195.348C225.439 195.267 179.508 241.198 179.589 242.376Z" fill="#59442F"/>
</g>
<path d="M228.483 197.797C230.03 199.473 249.727 220.68 265.762 231.908C271.883 236.193 280.419 239.769 290.338 243.275" stroke="#A48050" stroke-width="8.48" stroke-miterlimit="10"/>
<path d="M227.683 306.319C224.157 296.326 220.567 287.728 216.256 281.571C204.76 265.152 182.802 244.897 182.061 244.215" stroke="#59442F" stroke-width="8.48" stroke-miterlimit="10"/>
<path d="M202.548 173.933L158.174 218.307C152.451 223.863 169.81 250.137 182.062 244.219C186.556 242.048 226.066 202.2 228.46 197.821C235.661 184.643 210.398 167.86 202.548 173.933Z" fill="url(#paint3_linear_4_11877)"/>
<g opacity="0.7">
<path d="M209.63 219.319C208.678 220.286 186.288 241.564 182.062 244.219C175.727 248.199 148.167 227.264 158.174 218.307L181.237 196.309C181.237 196.309 174.694 207.214 178.689 210.085C183.198 213.324 191.806 209.156 209.277 190.62L190.742 219.394C190.742 219.394 188.626 228.582 202.824 220.923C206.028 219.194 207.853 218.337 209.63 219.319Z" fill="#004600"/>
</g>
<path d="M213.536 172.974C210.521 171.021 205.673 170.808 202.547 173.933C202.547 173.933 195.802 181.744 180.908 196.637L180.877 196.668C165.984 211.562 158.174 218.307 158.174 218.307C155.048 221.433 155.385 226.204 157.214 229.295C159.959 233.934 165.182 235.179 166.134 235.277C167.378 235.397 168.442 236.341 168.45 237.593C168.442 239.024 169.686 241.873 172.25 243.717C174.858 245.59 178.571 245.734 182.061 244.219C190.696 240.47 222.764 208.866 228.459 197.821C230.202 194.439 229.83 190.618 227.957 188.01C226.113 185.446 223.265 184.202 221.833 184.21C220.581 184.202 219.637 183.138 219.517 181.894C219.419 180.942 217.64 175.633 213.536 172.974Z" stroke="#003100" stroke-width="8.48" stroke-linecap="round" stroke-linejoin="round"/>
<path d="M218.052 185.857C218.052 185.857 199.166 209.486 169.213 234.696" stroke="#003100" stroke-width="8.48" stroke-linecap="round" stroke-linejoin="round"/>
<path d="M232.181 306.362L223.695 307.703L231.393 304.103L232.181 306.362Z" fill="#59442F"/>
<path d="M291.153 248.049L288.905 247.266L291.737 239.268L291.153 248.049Z" fill="#A48050"/>
<g opacity="0.66">
<path d="M193.564 195.997C193.564 195.997 196.468 193.385 199.821 189.357" stroke="white" stroke-width="6.36" stroke-linecap="round" stroke-linejoin="round"/>
<path d="M212.604 203.165L213.218 202.499" stroke="white" stroke-width="6.36" stroke-linecap="round" stroke-linejoin="round"/>
</g>
<path d="M227.957 188.01C226.113 185.446 223.265 184.202 221.833 184.209C220.581 184.202 219.637 183.138 219.517 181.893C219.42 180.941 218.051 175.722 213.536 172.974C210.467 171.107 205.673 170.808 202.548 173.933C202.548 173.933 195.802 181.743 180.909 196.637L180.877 196.668C165.984 211.561 158.174 218.307 158.174 218.307" stroke="#38551E" stroke-width="8.48" stroke-linecap="round" stroke-linejoin="round"/>
</g>
</g>
<defs>
<linearGradient id="paint0_linear_4_11877" x1="286.715" y1="393.918" x2="379.345" y2="304.024" gradientUnits="userSpaceOnUse">
<stop stop-color="#355600"/>
<stop offset="0.11" stop-color="#2A4501"/>
<stop offset="0.28" stop-color="#1E3401"/>
<stop offset="0.55" stop-color="#476116"/>
<stop offset="0.72" stop-color="#718F2C"/>
<stop offset="0.94" stop-color="#648616"/>
<stop offset="1" stop-color="#577E00"/>
</linearGradient>
<linearGradient id="paint1_linear_4_11877" x1="331.997" y1="443.513" x2="431.303" y2="345.955" gradientUnits="userSpaceOnUse">
<stop offset="0.21" stop-color="#79643F"/>
<stop offset="0.41" stop-color="#947848"/>
<stop offset="0.5" stop-color="#AF8B51"/>
<stop offset="0.75" stop-color="#C9AB74"/>
<stop offset="0.79" stop-color="#E4CB96"/>
<stop offset="0.89" stop-color="#ECD39D"/>
<stop offset="1" stop-color="#F4DCA4"/>
</linearGradient>
<linearGradient id="paint2_linear_4_11877" x1="211.965" y1="274.814" x2="260.436" y2="227.328" gradientUnits="userSpaceOnUse">
<stop offset="0.13" stop-color="#79643F"/>
<stop offset="0.23" stop-color="#947848"/>
<stop offset="0.32" stop-color="#AF8B51"/>
<stop offset="0.42" stop-color="#C7A971"/>
<stop offset="0.56" stop-color="#DFC692"/>
<stop offset="0.76" stop-color="#E7CE9A"/>
<stop offset="0.9" stop-color="#EED6A1"/>
</linearGradient>
<linearGradient id="paint3_linear_4_11877" x1="173.542" y1="229.846" x2="216.394" y2="187.775" gradientUnits="userSpaceOnUse">
<stop stop-color="#356B00"/>
<stop offset="0.12" stop-color="#316600"/>
<stop offset="0.31" stop-color="#2E6100"/>
<stop offset="0.52" stop-color="#558504"/>
<stop offset="0.72" stop-color="#7CA807"/>
<stop offset="0.94" stop-color="#6A9304"/>
<stop offset="1" stop-color="#577E00"/>
</linearGradient>
<clipPath id="clip0_4_11877">
<rect width="512" height="512" fill="white"/>
</clipPath>
</defs>
</svg>
