<svg width="512" height="512" viewBox="0 0 512 512" fill="none" xmlns="http://www.w3.org/2000/svg">
<g clip-path="url(#clip0_16_930)">
<mask id="mask0_16_930" style="mask-type:luminance" maskUnits="userSpaceOnUse" x="0" y="0" width="512" height="512">
<path d="M512 0H0V512H512V0Z" fill="white"/>
</mask>
<g mask="url(#mask0_16_930)">
<path d="M259.349 467.956C250.479 467.956 235.467 465.997 235.467 458.656V398.939C235.467 391.598 250.479 389.639 259.349 389.639C268.22 389.639 283.232 391.598 283.232 398.939V458.656C283.232 465.997 268.22 467.956 259.349 467.956Z" fill="#A95A00"/>
<path d="M259.349 467.956C250.479 467.956 235.467 465.997 235.467 458.656V398.939C235.467 391.598 250.479 389.639 259.349 389.639C268.22 389.639 283.232 391.598 283.232 398.939V458.656C283.232 465.997 268.22 467.956 259.349 467.956Z" stroke="#4C2403" stroke-width="6.96" stroke-miterlimit="10"/>
<g opacity="0.4">
<path d="M282.122 393.551V462.657C278.893 461.48 262.663 466.634 258.819 466.004C258.819 435.697 240.543 435.159 236.576 445.795V393.551H282.122Z" fill="#633104"/>
</g>
<g opacity="0.66">
<path d="M282.122 393.771V463.693C278.893 462.516 270.778 465.947 266.935 465.316C266.935 427.519 240.543 423.101 236.576 433.738V393.771H282.122Z" fill="#4C2403"/>
</g>
<path d="M273.805 435.131V454.022" stroke="#7B3D00" stroke-width="6.96" stroke-linecap="round" stroke-linejoin="round"/>
<g opacity="0.5">
<path d="M245.162 442.975V456.922" stroke="#FF9F48" stroke-width="5.22" stroke-linecap="round" stroke-linejoin="round"/>
</g>
<g opacity="0.5">
<path d="M210.964 256.152C211.472 266.395 203.425 275.119 192.989 275.637C182.554 276.155 173.682 268.272 173.173 258.029C172.664 247.786 180.712 239.062 191.147 238.544C201.583 238.026 210.455 245.909 210.964 256.152Z" fill="url(#paint0_linear_16_930)"/>
</g>
<path d="M201.378 245.18C201.886 255.423 193.839 264.146 183.403 264.665C172.968 265.183 164.096 257.299 163.587 247.056C163.078 236.813 171.126 228.09 181.561 227.571C191.997 227.053 200.869 234.937 201.378 245.18Z" fill="#FF0041"/>
<path d="M201.378 245.18C201.886 255.423 193.839 264.146 183.403 264.665C172.968 265.183 164.096 257.299 163.587 247.056C163.078 236.813 171.126 228.09 181.561 227.571C191.997 227.053 200.869 234.937 201.378 245.18Z" stroke="#BF063B" stroke-width="5.22022" stroke-miterlimit="10"/>
<g opacity="0.67">
<path d="M196.083 245.442C196.449 252.814 190.656 259.093 183.145 259.466" stroke="#FFBC00" stroke-width="3.48014" stroke-linecap="round" stroke-linejoin="round"/>
</g>
<path d="M179.72 221.247C178.274 221.319 177.15 222.321 177.208 223.484L177.38 226.949C177.463 228.623 179.116 228.798 179.559 227.61C179.612 227.469 179.829 227.448 179.921 227.572C180.629 228.52 182.582 228.423 183.191 227.409C183.271 227.277 183.489 227.276 183.555 227.411C184.114 228.549 185.741 228.214 185.658 226.538L185.486 223.073C185.428 221.909 184.211 221.024 182.765 221.096L179.72 221.247Z" fill="#FCCB1D"/>
<path d="M179.72 221.247C178.274 221.319 177.15 222.321 177.208 223.484L177.38 226.949C177.463 228.623 179.116 228.798 179.559 227.61C179.612 227.469 179.829 227.448 179.921 227.572C180.629 228.52 182.582 228.423 183.191 227.409C183.271 227.277 183.489 227.276 183.555 227.411C184.114 228.549 185.741 228.214 185.658 226.538L185.486 223.073C185.428 221.909 184.211 221.024 182.765 221.096L179.72 221.247Z" stroke="#CE7500" stroke-width="3.48014" stroke-linecap="round" stroke-linejoin="round"/>
<g opacity="0.6">
<path d="M191.455 243.303C191.773 249.709 186.74 255.164 180.214 255.488C173.689 255.813 168.14 250.882 167.822 244.477C167.504 238.072 172.537 232.616 179.062 232.292C185.588 231.968 191.136 236.898 191.455 243.303Z" fill="#FC638E"/>
</g>
<path d="M177.9 237.547C177.998 239.523 176.446 241.205 174.433 241.305C172.42 241.405 170.709 239.885 170.611 237.909C170.513 235.933 172.065 234.251 174.078 234.151C176.091 234.051 177.802 235.571 177.9 237.547Z" fill="white"/>
<path d="M178.709 222.715L178.911 226.79" stroke="white" stroke-width="2.61011" stroke-linecap="round" stroke-linejoin="round"/>
<path d="M184.113 222.447L184.316 226.523" stroke="#FFFF00" stroke-width="2.61011" stroke-linecap="round" stroke-linejoin="round"/>
<path d="M416.888 386.577C415.734 378.095 405.289 381.627 377.496 370.615C376.504 370.221 376.927 368.722 377.971 368.903C399.503 372.454 399.779 368.086 399.707 362.712C399.639 357.513 394.909 354.523 380.244 350.407C364.875 346.093 340.984 325.048 331.028 310.184L159.776 353.535C146.22 366.208 117.847 381.276 103.329 386.881C90.9036 391.679 102.297 403.586 110.5 399.893C111.578 399.413 112.303 401.026 111.241 401.519C97.6592 407.793 90.3434 413.695 89.4977 419.061C89.0123 422.136 90.5304 425.111 94.4202 428.703C100.901 434.689 124.685 421.183 131.511 412.705C131.982 412.116 132.91 412.349 133.076 413.063C135.472 423.339 152.173 415.112 155.935 409.248C156.353 408.597 157.346 408.752 157.549 409.495C158.154 411.707 159.217 412.996 160.802 413.429C164.538 414.456 170.211 410.634 173.118 407.818C173.929 407.036 175.149 408.18 174.42 409.038C167.572 417.113 165.028 424.41 167.777 428.084C174.603 437.201 204.881 419.734 212.168 406.75C212.436 406.269 213.062 406.148 213.488 406.472C218.477 410.254 224.288 403.989 225.401 402.695C226.113 401.869 227.412 402.814 226.839 403.746C222.418 410.923 220.726 415.963 221.807 418.73C222.553 420.638 224.557 421.201 226.326 421.698C229.711 422.637 242.092 416.415 248.317 404.88C248.756 404.066 249.997 404.381 249.996 405.305C249.968 431.572 256.047 430.575 262.499 429.956C268.679 429.36 272.866 414.096 272.334 404.448C272.278 403.42 273.724 403.141 274.066 404.097C279.561 419.419 285.905 427.495 288.094 411.43C288.211 410.573 289.358 410.368 289.766 411.127C298.001 426.42 315.797 455.759 331.109 447.364C335.942 444.716 328.154 425.566 323.069 418.075C322.462 417.18 323.685 416.18 324.442 416.945C353.932 446.665 364.874 449.768 373.804 445.091C382.69 440.437 374.38 426.596 365.073 418.915C364.231 418.219 365.148 416.913 366.086 417.452C384.63 428.099 391.308 417.752 378.703 406.346C377.964 405.676 378.721 404.485 379.637 404.856C385.145 407.087 383.734 402.853 381.407 400.703C380.703 400.053 381.386 398.903 382.288 399.197C407.297 407.287 418.091 395.396 416.888 386.577Z" stroke="#003D1D" stroke-width="11.31" stroke-miterlimit="10"/>
<path d="M416.888 386.577C415.734 378.095 405.289 381.627 377.496 370.615C376.504 370.221 376.927 368.722 377.971 368.903C399.503 372.454 399.779 368.086 399.707 362.712C399.639 357.513 394.909 354.523 380.244 350.407C364.875 346.093 340.984 325.048 331.028 310.184L159.776 353.535C146.22 366.208 117.847 381.276 103.329 386.881C90.9036 391.679 102.297 403.586 110.5 399.893C111.578 399.413 112.303 401.026 111.241 401.519C97.6592 407.793 90.3434 413.695 89.4977 419.061C89.0123 422.136 90.5304 425.111 94.4202 428.703C100.901 434.689 124.685 421.183 131.511 412.705C131.982 412.116 132.91 412.349 133.076 413.063C135.472 423.339 152.173 415.112 155.935 409.248C156.353 408.597 157.346 408.752 157.549 409.495C158.154 411.707 159.217 412.996 160.802 413.429C164.538 414.456 170.211 410.634 173.118 407.818C173.929 407.036 175.149 408.18 174.42 409.038C167.572 417.113 165.028 424.41 167.777 428.084C174.603 437.201 204.881 419.734 212.168 406.75C212.436 406.269 213.062 406.148 213.488 406.472C218.477 410.254 224.288 403.989 225.401 402.695C226.113 401.869 227.412 402.814 226.839 403.746C222.418 410.923 220.726 415.963 221.807 418.73C222.553 420.638 224.557 421.201 226.326 421.698C229.711 422.637 242.092 416.415 248.317 404.88C248.756 404.066 249.997 404.381 249.996 405.305C249.968 431.572 256.047 430.575 262.499 429.956C268.679 429.36 272.866 414.096 272.334 404.448C272.278 403.42 273.724 403.141 274.066 404.097C279.561 419.419 285.905 427.495 288.094 411.43C288.211 410.573 289.358 410.368 289.766 411.127C298.001 426.42 315.797 455.759 331.109 447.364C335.942 444.716 328.154 425.566 323.069 418.075C322.462 417.18 323.685 416.18 324.442 416.945C353.932 446.665 364.874 449.768 373.804 445.091C382.69 440.437 374.38 426.596 365.073 418.915C364.231 418.219 365.148 416.913 366.086 417.452C384.63 428.099 391.308 417.752 378.703 406.346C377.964 405.676 378.721 404.485 379.638 404.856C385.145 407.087 383.734 402.853 381.407 400.703C380.703 400.053 381.386 398.903 382.288 399.197C407.297 407.287 418.091 395.396 416.888 386.577Z" fill="url(#paint1_linear_16_930)"/>
<path d="M91.1328 419.32C93.467 408.303 125.866 397.287 125.866 397.287" stroke="#69E683" stroke-width="3.48" stroke-linecap="round" stroke-linejoin="round"/>
<path d="M134.768 413.635C132.857 410.617 133.159 405.652 145.547 396.854" stroke="#69E683" stroke-width="3.48" stroke-linecap="round" stroke-linejoin="round"/>
<path d="M158.887 410.727C156.665 408.26 158.464 402.37 166.596 396.201" stroke="#69E683" stroke-width="3.48" stroke-linecap="round" stroke-linejoin="round"/>
<path d="M168.362 424.907C167.997 420.841 170.724 410.955 190.394 391.631" stroke="#69E683" stroke-width="3.48" stroke-linecap="round" stroke-linejoin="round"/>
<path d="M216.936 406.015C215.327 406.015 214.647 405.272 212.145 403.375" stroke="#69E683" stroke-width="3.48" stroke-linecap="round" stroke-linejoin="round"/>
<g opacity="0.5">
<path d="M255.574 427.227C252.959 424.61 251.639 417.235 251.652 405.309" stroke="#69E683" stroke-width="3.48" stroke-linecap="round" stroke-linejoin="round"/>
</g>
<g opacity="0.5">
<path d="M283.897 418.609C283.927 418.595 280.77 417.889 275.625 403.539" stroke="#69E683" stroke-width="3.48" stroke-linecap="round" stroke-linejoin="round"/>
</g>
<g opacity="0.5">
<path d="M325.524 447.173C318.992 447.173 307.852 440.916 291.738 411.291" stroke="#69E683" stroke-width="3.48" stroke-linecap="round" stroke-linejoin="round"/>
</g>
<g opacity="0.5">
<path d="M367.028 445.188C359.953 445.188 349.86 438.841 334.936 424.861" stroke="#69E683" stroke-width="3.48" stroke-linecap="round" stroke-linejoin="round"/>
</g>
<g opacity="0.5">
<path d="M383.305 418.393C382.255 421.114 376.061 421.272 366.912 416.018" stroke="#69E683" stroke-width="3.48" stroke-linecap="round" stroke-linejoin="round"/>
</g>
<g opacity="0.5">
<path d="M412.615 394.643C405.966 402.259 392.824 400.868 382.797 397.623" stroke="#043D21" stroke-width="3.48" stroke-linecap="round" stroke-linejoin="round"/>
</g>
<path d="M100.404 390.557C102.01 388.715 105.719 388.163 117.616 382.316" stroke="#69E683" stroke-width="3.48" stroke-linecap="round" stroke-linejoin="round"/>
<g opacity="0.5">
<path d="M389.982 376.455C406.153 382.455 415.408 383.56 415.38 388.243" stroke="#69E683" stroke-width="3.48" stroke-linecap="round" stroke-linejoin="round"/>
</g>
<path d="M195.396 335.223C180.062 350.114 137.157 365.971 124.817 378.086C112.463 390.213 138.761 389.105 149.571 382.457C146.696 397.324 178.517 395.437 201.43 378.565C190.872 397.71 224.809 395.583 239.64 378.033C239.64 378.033 223.803 399.572 233.355 404.093C242.908 408.613 255.477 400.37 257.74 388.404C261.259 414.197 277.6 408.081 275.337 391.595C289.666 413.665 299.972 409.145 292.431 389.202C320.335 436.532 340.948 421.908 336.926 408.612C336.926 408.612 346.981 417.388 354.271 412.07C361.561 406.751 347.233 395.318 347.233 395.318C366.59 409.942 387.958 401.168 348.239 372.45C374.885 386.808 375.655 372.786 372.136 366.67C380.254 366.177 379.504 357.984 363.975 354.208C350.965 351.045 349.747 346.125 336.675 331.234L195.396 335.223Z" fill="#003D1D" fill-opacity="0.5"/>
<path d="M392.21 335.473C391.643 335.063 391.751 334.188 392.396 333.923C399.611 330.969 396.827 326.773 385.282 327.928C371.24 329.329 349.171 322.157 336.283 307.734L195.767 311.702C180.103 326.588 132.503 342.828 122.719 356.542C113.29 369.754 137.601 366.137 146.809 360.476C147.496 360.05 148.355 360.694 148.137 361.475C143.466 378.275 175.994 375.362 201.793 353.79C202.121 353.515 202.602 353.511 202.933 353.786C203.265 354.059 203.356 354.53 203.148 354.906C193.265 372.828 218.694 369.948 232.851 353.197C233.588 352.324 234.929 353.383 234.253 354.304C229.709 360.484 227.693 375.895 234.673 379.194C243.758 383.497 255.664 375.441 257.799 364.149C257.986 363.155 259.425 363.197 259.561 364.194C262.905 388.697 277.497 382.997 275.388 367.626C275.258 366.685 276.506 366.224 277.022 367.018C290.252 387.393 299.915 384.953 292.531 365.428C292.145 364.407 293.588 363.729 294.136 364.658C320.916 410.081 340.875 397.564 337.007 384.782C336.749 383.928 337.772 383.263 338.449 383.85C347.557 391.704 356.284 388.781 356.381 384.23C356.474 379.957 350.082 373.899 347.612 371.925C346.695 371.195 347.785 369.811 348.707 370.514C367.167 384.461 387.251 376.991 348.651 349.083C347.752 348.433 348.627 347.044 349.598 347.573C371.49 359.37 370.852 355.678 366.496 348.104C366.094 347.408 366.752 346.579 367.518 346.8C392.459 354.02 405.337 344.988 392.21 335.473Z" stroke="#003D1D" stroke-width="11.31" stroke-miterlimit="10"/>
<path d="M392.21 335.473C391.643 335.063 391.751 334.188 392.396 333.923C399.611 330.969 396.827 326.773 385.282 327.928C371.24 329.329 349.171 322.157 336.283 307.734L195.767 311.702C180.103 326.588 132.503 342.828 122.719 356.542C113.29 369.754 137.601 366.137 146.809 360.476C147.496 360.05 148.355 360.694 148.137 361.475C143.466 378.275 175.994 375.362 201.793 353.79C202.121 353.515 202.602 353.511 202.933 353.786C203.265 354.059 203.356 354.53 203.148 354.906C193.265 372.828 218.694 369.948 232.851 353.197C233.588 352.324 234.929 353.383 234.253 354.304C229.709 360.484 227.693 375.895 234.673 379.194C243.758 383.497 255.664 375.441 257.799 364.149C257.986 363.155 259.425 363.197 259.561 364.194C262.905 388.697 277.497 382.997 275.388 367.626C275.258 366.685 276.506 366.224 277.022 367.018C290.252 387.393 299.915 384.953 292.531 365.428C292.145 364.407 293.588 363.729 294.136 364.658C320.916 410.081 340.875 397.564 337.007 384.782C336.749 383.928 337.772 383.263 338.449 383.85C347.557 391.704 356.284 388.781 356.381 384.23C356.474 379.957 350.082 373.899 347.612 371.925C346.695 371.195 347.785 369.811 348.707 370.514C367.167 384.461 387.251 376.991 348.651 349.083C347.752 348.433 348.627 347.044 349.598 347.573C371.49 359.37 370.852 355.678 366.496 348.104C366.094 347.408 366.752 346.579 367.518 346.8C392.459 354.02 405.337 344.988 392.21 335.473Z" fill="url(#paint2_linear_16_930)"/>
<path d="M160.019 370.183C153.192 370.183 148.272 368.805 150.096 362.248" stroke="#69E683" stroke-width="3.48" stroke-linecap="round" stroke-linejoin="round"/>
<path d="M204.34 364.15C201.36 362.703 201.294 359.685 203.663 355.391" stroke="#69E683" stroke-width="3.48" stroke-linecap="round" stroke-linejoin="round"/>
<path d="M232.864 375.059C232.099 370.004 232.243 359.342 235.244 355.262" stroke="#69E683" stroke-width="3.48" stroke-linecap="round" stroke-linejoin="round"/>
<g opacity="0.5">
<path d="M268.268 378.919C265.417 378.919 261.696 374.142 260.266 363.654" stroke="#69E683" stroke-width="3.48" stroke-linecap="round" stroke-linejoin="round"/>
</g>
<g opacity="0.5">
<path d="M291.196 379.305C289.356 379.305 284.395 376.46 277.475 365.801" stroke="#69E683" stroke-width="3.48" stroke-linecap="round" stroke-linejoin="round"/>
</g>
<g opacity="0.5">
<path d="M327.617 394.723C323.233 394.723 311.24 391.681 294.627 363.502" stroke="#69E683" stroke-width="3.48" stroke-linecap="round" stroke-linejoin="round"/>
</g>
<g opacity="0.5">
<path d="M348.899 386.827C342.652 386.827 336.855 380.762 331.918 376.455" stroke="#69E683" stroke-width="3.48" stroke-linecap="round" stroke-linejoin="round"/>
</g>
<g opacity="0.5">
<path d="M364.369 375.329C360.955 375.329 355.063 373.634 348.77 368.879" stroke="#043D21" stroke-width="3.48" stroke-linecap="round" stroke-linejoin="round"/>
</g>
<g opacity="0.5">
<path d="M369.587 353.272C366.726 353.272 361.461 352.511 350 346.336" stroke="#043D21" stroke-width="3.48" stroke-linecap="round" stroke-linejoin="round"/>
</g>
<g opacity="0.5">
<path d="M397.034 344.932C396.633 346.167 394.307 347.61 389.066 347.61C382.007 347.61 374.245 347.311 367.48 345.354" stroke="#043D21" stroke-width="3.48" stroke-linecap="round" stroke-linejoin="round"/>
</g>
<g opacity="0.5">
<path d="M378 330.18C381.942 330.584 387.695 329.915 391.388 330.309" stroke="#69E683" stroke-width="3.48" stroke-linecap="round" stroke-linejoin="round"/>
</g>
<g opacity="0.5">
<path d="M159.76 360.61C151.945 367.398 142.114 368.875 137.801 363.91C133.488 358.945 138.283 352.897 146.098 346.108C153.912 339.32 161.602 335.498 166.099 339.327C171.107 343.592 167.574 353.821 159.76 360.61Z" fill="#043D21" fill-opacity="0.85"/>
</g>
<path d="M333.657 337.658C357.036 347.769 361.812 343.084 354.02 336.426C383.18 342.097 375.014 326.71 368.851 325.575C367.958 325.41 360.196 323.312 352.815 319.365C343.938 315.732 340.7 313.842 335.669 310.779C338.774 311.985 341.63 313.009 344.273 313.881C341.528 311.779 338.96 309.433 336.674 306.828L195.395 310.816C188.652 317.365 175.803 325.038 163.137 331.404C149.009 338.503 175.156 345.922 192.63 328.041C182.221 338.873 183.078 345.55 191.876 341.851C180.388 346.62 185.368 361.783 207.888 346.256C200.172 355.772 209.557 355.251 221.186 349.563C219.031 356.339 246.382 354.921 256.482 330.754C256.732 355.707 271.563 355.411 269.805 339.385C281.123 363.832 289.631 349.932 285.894 340.125C314.286 384.075 344.05 351.967 320.837 341.851C344.216 357.386 352.763 352.948 333.657 337.658Z" fill="#003D1D" fill-opacity="0.5"/>
<path d="M368.538 304.777C346.481 296.511 342.749 294.501 335.203 289.907C334.272 289.339 334.991 287.916 335.991 288.311C364.23 299.286 373.862 295.738 371.963 291.382C370.523 288.078 360.279 283.023 340.644 275.927C323.202 269.623 313.957 262.211 309.274 257.103C305.418 252.898 303.912 249.529 303.379 248.02L206.381 268.758C190.779 283.175 149.721 302.617 133.017 306.779C129.745 307.595 126.415 309.015 128.804 311.376C131.962 314.494 142.688 317.496 151.659 314.918C152.307 314.733 152.914 315.3 152.78 315.955C150.753 325.894 171.277 323.292 192.053 305.723C192.941 304.97 194.097 306.296 193.223 307.073C181.604 317.396 183.014 322.974 191.529 319.392C192.536 318.975 193.261 320.374 192.366 320.96C171.783 334.501 179.096 357.572 216.768 332.297C217.528 331.787 218.474 332.621 218.064 333.439C215.081 339.385 217.227 343.768 222.919 343.367C230.591 342.834 243.773 333.443 255.676 308.731C255.857 308.357 256.27 308.155 256.677 308.247C257.082 308.337 257.371 308.696 257.374 309.111C257.613 338.892 270.609 341.076 268.915 317.814C268.841 316.821 270.221 316.472 270.624 317.392C284.217 348.585 291.396 336.077 285.055 318.797C284.684 317.783 286.11 317.106 286.66 318.031C302.477 344.497 314.45 351.056 321.71 351.898C327.562 352.572 331.038 349.71 332.261 348.447C335.707 344.89 330.865 330.558 320.235 320.875C319.427 320.137 320.413 318.865 321.331 319.471C335.699 329.019 342.342 329.753 343.166 328.628C343.626 327.997 342.765 324.455 333.098 316.721C332.286 316.068 333.067 314.794 334.011 315.204C349.948 322.096 355.677 321.484 356.477 320.196C356.895 319.527 356.122 317.762 353.439 315.47C352.746 314.876 353.288 313.738 354.19 313.913C379.529 318.842 391.408 313.347 368.538 304.777Z" stroke="#003D1D" stroke-width="11.31" stroke-miterlimit="10"/>
<path d="M368.538 304.777C346.481 296.511 342.749 294.501 335.203 289.907C334.272 289.339 334.991 287.916 335.991 288.311C364.23 299.286 373.862 295.738 371.963 291.382C370.523 288.078 360.279 283.023 340.644 275.927C323.202 269.623 313.957 262.211 309.274 257.103C305.418 252.898 303.912 249.529 303.379 248.02L206.381 268.758C190.779 283.175 149.721 302.617 133.017 306.779C129.745 307.595 126.415 309.015 128.804 311.376C131.962 314.494 142.688 317.496 151.659 314.918C152.307 314.733 152.914 315.3 152.78 315.955C150.753 325.894 171.277 323.292 192.053 305.723C192.941 304.97 194.097 306.296 193.223 307.073C181.604 317.396 183.014 322.974 191.529 319.392C192.536 318.975 193.261 320.374 192.366 320.96C171.783 334.501 179.096 357.572 216.768 332.297C217.528 331.787 218.474 332.621 218.064 333.439C215.081 339.385 217.227 343.768 222.919 343.367C230.591 342.834 243.773 333.443 255.676 308.731C255.857 308.357 256.27 308.155 256.677 308.247C257.082 308.337 257.371 308.696 257.374 309.111C257.613 338.892 270.609 341.076 268.915 317.814C268.841 316.821 270.221 316.472 270.624 317.392C284.217 348.585 291.396 336.077 285.055 318.797C284.684 317.783 286.11 317.106 286.66 318.031C302.477 344.497 314.45 351.056 321.71 351.898C327.562 352.572 331.038 349.71 332.261 348.447C335.707 344.89 330.865 330.558 320.235 320.875C319.427 320.137 320.413 318.865 321.331 319.471C335.699 329.019 342.342 329.753 343.166 328.628C343.626 327.997 342.765 324.455 333.098 316.721C332.286 316.068 333.067 314.794 334.011 315.204C349.948 322.096 355.677 321.484 356.477 320.196C356.895 319.527 356.122 317.762 353.439 315.47C352.746 314.876 353.288 313.738 354.19 313.913C379.529 318.842 391.408 313.347 368.538 304.777Z" fill="url(#paint3_linear_16_930)"/>
<path d="M159.082 320.05C152.799 320.05 154.201 317.275 155.241 312.166" stroke="#69E683" stroke-width="3.48" stroke-linecap="round" stroke-linejoin="round"/>
<path d="M186.466 318.688C186.379 317.902 187.398 314.462 194.324 308.309" stroke="#69E683" stroke-width="3.48" stroke-linecap="round" stroke-linejoin="round"/>
<path d="M183.003 338.449C181.87 334.663 185.085 327.733 193.276 322.344" stroke="#69E683" stroke-width="3.48" stroke-linecap="round" stroke-linejoin="round"/>
<path d="M218.521 339.576C217.658 336.918 220.151 332.968 223.882 325.529" stroke="#69E683" stroke-width="3.48" stroke-linecap="round" stroke-linejoin="round"/>
<g opacity="0.5">
<path d="M264.827 331.949C263.793 331.949 260.275 327.625 259.287 315.223" stroke="#69E683" stroke-width="3.48" stroke-linecap="round" stroke-linejoin="round"/>
</g>
<g opacity="0.5">
<path d="M284.789 334.625C284.603 334.893 284.515 334.893 284.487 334.893C283.254 334.893 278.633 331.629 272.141 316.73" stroke="#69E683" stroke-width="3.48" stroke-linecap="round" stroke-linejoin="round"/>
</g>
<g opacity="0.5">
<path d="M323.434 350.343C313.619 350.343 303.574 339.283 297.668 331.523" stroke="#69E683" stroke-width="3.48" stroke-linecap="round" stroke-linejoin="round"/>
</g>
<g opacity="0.5">
<path d="M341.252 327.324C338.354 327.033 331.891 324.501 322.246 318.092" stroke="#69E683" stroke-width="3.48" stroke-linecap="round" stroke-linejoin="round"/>
</g>
<g opacity="0.5">
<path d="M353.637 319.333C351.432 319.333 346.035 318.6 334.668 313.684" stroke="#043D21" stroke-width="3.48" stroke-linecap="round" stroke-linejoin="round"/>
</g>
<g opacity="0.5">
<path d="M379.084 312.723C378.466 313.198 376.159 314.128 370.774 314.128C362.657 314.128 354.291 312.246 345.004 310.439" stroke="#043D21" stroke-width="3.48" stroke-linecap="round" stroke-linejoin="round"/>
</g>
<path d="M133.416 308.385C140.836 306.537 153.021 301.698 165.683 295.617" stroke="#69E683" stroke-width="3.48" stroke-linecap="round" stroke-linejoin="round"/>
<g opacity="0.5">
<path d="M370.276 292.832C370.092 293.095 368.669 293.96 364.938 293.96C363.19 293.96 360.824 293.77 357.686 293.189" stroke="#043D21" stroke-width="3.48" stroke-linecap="round" stroke-linejoin="round"/>
</g>
<path d="M354.984 290.405C353.449 288.769 350.764 286.86 346.728 284.873C354.224 287.03 359.579 286.729 362.79 284.905C357.962 282.444 352.227 279.165 340.946 275.088C307.512 263.004 303.993 246.975 303.993 246.975L205.953 267.936C196.352 276.898 165.584 286.46 170.664 291.518C174.007 293.061 174.888 293.257 182.617 288.84C163.009 303.672 184.333 303.978 206.204 283.867C185.339 303.726 187.099 311.519 213.243 293.671C190.116 316.295 208.215 327.859 231.846 304.229C217.517 326.854 245.672 322.329 251.454 298.196C250.985 314.371 266.579 312.775 267.291 298.196C271.313 325.597 285.642 315.542 284.636 305.989C292.68 326.1 312.289 323.586 306.256 305.486C321.842 317.553 327.372 309.257 311.786 287.136C329.457 305.816 347.124 309.06 350.31 304.261C352.871 300.403 343.812 294.518 336.131 290.257C335.379 289.84 335.898 288.699 336.708 288.987C348.057 293.025 360.977 296.787 354.984 290.405Z" fill="#003D1D" fill-opacity="0.5"/>
<path d="M202.88 263.329C203.176 263.706 203.123 264.251 202.769 264.574C193.413 273.136 191.565 277.743 192.291 278.7C192.901 279.502 197.969 279.526 212.739 269.442C213.633 268.83 214.643 270.06 213.867 270.818C191.454 292.744 208.672 302.648 231.214 280.107C231.535 279.784 232.047 279.755 232.403 280.041C232.759 280.326 232.843 280.831 232.6 281.216C218.972 302.733 245.25 296.769 250.584 274.497C250.833 273.467 252.375 273.66 252.346 274.73C251.871 291.829 265.705 290.393 266.398 274.666C266.445 273.582 268.021 273.522 268.174 274.575C271.996 300.61 284.648 291.141 283.748 282.591C283.692 282.064 284.107 281.605 284.635 281.605C284.994 281.605 285.327 281.821 285.465 282.167C293 301.008 311.127 299.434 305.408 282.277C305.13 281.444 306.103 280.75 306.802 281.289C322.25 293.249 325.222 284.264 311.056 264.159C310.421 263.257 311.681 262.231 312.434 263.03C336.851 288.843 363.47 285.301 342.171 269.387C341.298 268.735 342.148 267.38 343.115 267.879C350.918 271.915 355.804 271.56 355.702 269.861C355.633 268.688 353.58 265.751 346.334 262.183C345.36 261.704 345.937 260.224 346.975 260.524C361.562 264.723 376.638 258.744 353.009 251.679C327.538 244.064 317.155 227.848 311.556 218.812L210.988 224.289C205.033 233.58 183.86 254.275 159.972 261.98C137.624 269.191 159.32 277.016 180.12 265.131C181.082 264.581 181.986 265.949 181.102 266.619C163.096 280.238 183.734 277.598 201.583 263.187C201.981 262.866 202.564 262.927 202.88 263.329Z" stroke="#003D1D" stroke-width="11.31" stroke-miterlimit="10"/>
<path d="M202.88 263.329C203.176 263.706 203.123 264.251 202.769 264.574C193.413 273.136 191.564 277.743 192.291 278.7C192.901 279.502 197.969 279.526 212.739 269.442C213.633 268.83 214.643 270.06 213.867 270.818C191.454 292.744 208.672 302.648 231.214 280.107C231.535 279.784 232.047 279.755 232.403 280.041C232.759 280.326 232.843 280.831 232.6 281.216C218.972 302.733 245.25 296.769 250.584 274.497C250.833 273.467 252.375 273.66 252.346 274.73C251.871 291.829 265.705 290.393 266.398 274.666C266.445 273.582 268.021 273.522 268.174 274.575C271.996 300.61 284.648 291.141 283.748 282.591C283.692 282.064 284.107 281.605 284.635 281.605C284.994 281.605 285.327 281.821 285.465 282.167C293 301.008 311.127 299.434 305.408 282.277C305.13 281.444 306.103 280.75 306.802 281.289C322.25 293.249 325.222 284.264 311.056 264.159C310.421 263.257 311.681 262.231 312.434 263.03C336.851 288.843 363.47 285.301 342.171 269.387C341.298 268.735 342.148 267.38 343.115 267.879C350.918 271.915 355.804 271.56 355.702 269.861C355.633 268.688 353.58 265.751 346.334 262.183C345.36 261.704 345.937 260.224 346.975 260.524C361.562 264.723 376.638 258.744 353.009 251.679C327.538 244.064 317.155 227.848 311.556 218.812L210.988 224.289C205.033 233.58 183.86 254.275 159.972 261.98C137.624 269.191 159.32 277.016 180.12 265.131C181.082 264.581 181.986 265.949 181.102 266.619C163.096 280.238 183.734 277.598 201.583 263.187C201.981 262.866 202.564 262.927 202.88 263.329Z" fill="url(#paint4_linear_16_930)"/>
<path d="M176.693 272.862C177.535 271.805 179.12 270.194 182.1 267.939" stroke="#69E683" stroke-width="3.48" stroke-linecap="round" stroke-linejoin="round"/>
<path d="M194.387 276.885C194.771 276.098 195.575 274.835 197.072 273.027" stroke="#69E683" stroke-width="3.48" stroke-linecap="round" stroke-linejoin="round"/>
<path d="M205.076 287.801C205.148 284.98 207.245 280.491 212.097 275.059" stroke="#69E683" stroke-width="3.48" stroke-linecap="round" stroke-linejoin="round"/>
<path d="M230.615 292.303C229.955 291.103 230.445 287.711 233.998 282.102" stroke="#69E683" stroke-width="3.48" stroke-linecap="round" stroke-linejoin="round"/>
<g opacity="0.5">
<path d="M258.732 285.356C257.924 285.356 257.165 284.996 256.475 284.286C254.783 282.546 253.882 279.08 254.001 274.775" stroke="#69E683" stroke-width="3.48" stroke-linecap="round" stroke-linejoin="round"/>
</g>
<g opacity="0.5">
<path d="M277.489 289.923C275.004 289.923 271.502 285.84 269.812 274.334" stroke="#69E683" stroke-width="3.48" stroke-linecap="round" stroke-linejoin="round"/>
</g>
<g opacity="0.5">
<path d="M300.108 294.047C296.072 294.047 290.455 290.184 287.002 281.551" stroke="#69E683" stroke-width="3.48" stroke-linecap="round" stroke-linejoin="round"/>
</g>
<g opacity="0.5">
<path d="M317.569 284.994C313.628 284.994 306.759 279.162 301.186 274.848" stroke="#69E683" stroke-width="3.48" stroke-linecap="round" stroke-linejoin="round"/>
</g>
<g opacity="0.5">
<path d="M344.975 280.205C339.479 280.205 330.619 276.688 321.254 269.01" stroke="#69E683" stroke-width="3.48" stroke-linecap="round" stroke-linejoin="round"/>
</g>
<g opacity="0.5">
<path d="M353.734 269.374C350.865 269.629 346.437 267.731 343.877 266.406" stroke="#69E683" stroke-width="3.48" stroke-linecap="round" stroke-linejoin="round"/>
</g>
<g opacity="0.5">
<path d="M363.675 258.725C362.167 260.115 355.542 261.265 347.434 258.931" stroke="#043D21" stroke-width="3.48" stroke-linecap="round" stroke-linejoin="round"/>
</g>
<path d="M152.895 267.189C153.938 266.292 156.171 264.945 160.48 263.556C168.334 261.022 175.832 257.185 182.602 252.818" stroke="#69E683" stroke-width="3.48" stroke-linecap="round" stroke-linejoin="round"/>
<g opacity="0.5">
<path d="M342.283 250.035C347.075 251.275 352.939 253.083 356.642 254.286" stroke="#69E683" stroke-width="3.23205" stroke-linecap="round" stroke-linejoin="round"/>
</g>
<path d="M322.282 247.015C335.841 258.096 341.986 248.63 331.187 241.073C323.942 236.003 314.442 227.308 307.081 218.184L210.548 223.298C206.626 229.65 197.511 240.614 184.321 249.457C188.684 249.867 191.073 249.958 198.203 246.833C180.589 258.874 184.596 268.677 210.012 251.117C198.188 260.209 207.475 268.597 219.918 258.641C205.41 273.186 221.964 275.617 229.877 260.33C226.814 275.062 238.2 267.723 246.629 250.98C237.214 272.085 242.037 274.056 244.913 274.632C252.964 276.246 262.265 270.2 264.802 254.617C265.775 276.992 284.141 280.707 281.166 252.799C298.98 275.449 311.422 270.986 300.147 245.328C319.361 264.419 331.064 258.592 322.282 247.015Z" fill="#003D1D" fill-opacity="0.5"/>
<path d="M330.703 222.195C319.286 214.204 303.969 198.61 297.771 186.094L227.279 184.259C221.806 196.791 205.448 212.296 185.366 216.841C179.913 218.076 176.274 220.394 175.633 223.044C174.489 227.764 184.194 232.214 200.13 225.23C201.119 224.798 201.881 226.177 200.992 226.785C190.947 233.652 187.762 239.681 189.234 240.38C190.859 241.154 196.62 239.386 207.512 231.86C208.435 231.224 209.451 232.538 208.604 233.27C198.031 242.406 195.007 249.688 197.028 250.372C199.083 251.065 205.671 248.173 217.476 237.723C218.323 236.972 219.495 238.187 218.714 239.007C212.959 245.047 211.784 249.627 212.399 251.231C213.351 253.717 220.669 250.264 229.616 234.696C230.121 233.816 231.469 234.336 231.264 235.323C228.228 249.924 238.626 245.258 245.745 231.218C246.346 229.868 246.995 228.459 247.695 226.992C248.19 225.949 249.772 226.657 249.324 227.721C248.583 229.488 239.792 246.975 242.533 252.45C243.077 253.537 243.959 253.914 245.117 254.147C252.531 255.635 261.522 242.226 263.959 227.256C264.127 226.216 265.686 226.284 265.734 227.361C266.644 248.264 280.378 252.723 277.531 226.005C277.436 225.122 278.564 224.653 279.12 225.359C295.627 246.347 308.35 246.1 297.217 220.768C296.789 219.797 298.129 219.028 298.753 219.879C318.899 247.217 329.013 236.977 320.694 226.01C320.058 225.17 321.158 224.115 321.971 224.779C334.237 234.804 340.693 229.185 330.703 222.195Z" stroke="#003D1D" stroke-width="11.31" stroke-miterlimit="10"/>
<path d="M330.703 222.195C319.286 214.204 303.969 198.61 297.771 186.094L227.279 184.259C221.806 196.791 205.448 212.296 185.366 216.841C179.913 218.076 176.274 220.394 175.633 223.044C174.489 227.764 184.194 232.214 200.13 225.23C201.119 224.798 201.881 226.177 200.992 226.785C190.947 233.652 187.762 239.681 189.234 240.38C190.859 241.154 196.62 239.386 207.512 231.86C208.435 231.224 209.451 232.538 208.604 233.27C198.031 242.406 195.007 249.688 197.028 250.372C199.083 251.065 205.671 248.173 217.476 237.723C218.323 236.972 219.495 238.187 218.714 239.007C212.959 245.047 211.784 249.627 212.399 251.231C213.351 253.717 220.669 250.264 229.616 234.696C230.121 233.816 231.469 234.336 231.264 235.323C228.228 249.924 238.626 245.258 245.745 231.218C246.346 229.868 246.995 228.459 247.695 226.992C248.19 225.949 249.772 226.657 249.324 227.721C248.583 229.488 239.792 246.975 242.533 252.45C243.077 253.537 243.959 253.914 245.117 254.147C252.531 255.635 261.522 242.226 263.959 227.256C264.127 226.216 265.686 226.284 265.734 227.361C266.644 248.264 280.378 252.723 277.531 226.005C277.436 225.122 278.564 224.653 279.12 225.359C295.627 246.347 308.35 246.1 297.217 220.768C296.789 219.797 298.129 219.028 298.753 219.879C318.899 247.217 329.013 236.977 320.694 226.01C320.058 225.17 321.158 224.115 321.971 224.779C334.237 234.804 340.693 229.185 330.703 222.195Z" fill="url(#paint5_linear_16_930)"/>
<path d="M191.729 237.402C193.239 235.265 196.353 231.962 201.926 228.152" stroke="#69E683" stroke-width="3.48" stroke-linecap="round" stroke-linejoin="round"/>
<path d="M198.2 248.741C198.725 246.743 201.676 241.446 209.687 234.523" stroke="#69E683" stroke-width="3.48" stroke-linecap="round" stroke-linejoin="round"/>
<path d="M214.102 248.964C214.623 247.142 216.191 244.054 219.911 240.149" stroke="#69E683" stroke-width="3.48" stroke-linecap="round" stroke-linejoin="round"/>
<path d="M232.636 241.649C232.382 240.742 232.201 238.946 232.884 235.659" stroke="#69E683" stroke-width="3.48" stroke-linecap="round" stroke-linejoin="round"/>
<path d="M244.023 251.729C243.436 250.592 242.736 246.448 248.919 232.553" stroke="#69E683" stroke-width="3.48" stroke-linecap="round" stroke-linejoin="round"/>
<g opacity="0.5">
<path d="M273.384 242.973C271.871 242.971 267.866 238.301 267.387 227.287" stroke="#69E683" stroke-width="3.48" stroke-linecap="round" stroke-linejoin="round"/>
</g>
<g opacity="0.5">
<path d="M298.043 238.848C295.605 238.845 290.955 236.052 285.232 229.957" stroke="#69E683" stroke-width="3.48" stroke-linecap="round" stroke-linejoin="round"/>
</g>
<g opacity="0.5">
<path d="M319.825 235.703C316.713 235.698 310.929 232.321 303.428 223.199" stroke="#043D21" stroke-width="3.48" stroke-linecap="round" stroke-linejoin="round"/>
</g>
<g opacity="0.5">
<path d="M333.066 228.519C332.149 228.517 328.716 228.152 323.02 223.496" stroke="#043D21" stroke-width="3.48" stroke-linecap="round" stroke-linejoin="round"/>
</g>
<path d="M178.835 221.35C181.288 219.372 185.318 218.575 187.101 218.127" stroke="#69E683" stroke-width="3.48" stroke-linecap="round" stroke-linejoin="round"/>
<path d="M319.409 212.063C310.904 204.005 302.342 193.486 297.92 184.468L227.241 183.287C226.709 183.783 226.165 184.281 225.602 184.787C219.819 197.301 208.051 210.103 188.232 216.368C189.393 219.152 195.36 218.605 203.871 212.888C204.421 218.918 211.465 219.616 223.418 204.942C217.237 218.314 222.555 223.301 228.783 215.961C225.879 230.313 237.206 232.235 244.134 218.103C248.221 226.366 253.443 219.035 254.115 208.471C255.268 227.317 263.293 224.74 261.644 206.905C266.791 221.948 268.55 221.934 270.005 215.135C273.901 226.52 284.328 227.168 280.816 215.301C295.301 235.047 301.262 225.951 291.845 211.192C309.059 226.392 319.34 223.044 308.687 211.06C311.178 213.304 313.99 215.016 316.42 216.12C324.176 219.646 321.942 214.463 319.409 212.063Z" fill="#003D1D" fill-opacity="0.5"/>
<path d="M320.733 185.225C304 171.461 297.163 161.459 290.902 152.466L236.299 150.919C230.389 160.269 207.642 177.771 192.275 186.332C177.114 194.778 191.795 196.393 203.189 188.74C203.752 188.362 204.514 188.725 204.576 189.401C205.151 195.709 212.991 192.696 222.541 180.971C223.2 180.16 224.482 180.963 224.044 181.91C218.757 193.352 221.975 198.98 227.918 191.976C228.516 191.274 229.657 191.831 229.475 192.731C226.754 206.176 236.773 207.308 243.149 194.302C243.298 193.998 243.606 193.805 243.944 193.803C244.287 193.8 244.6 193.993 244.752 194.3C248.655 202.193 252.547 194.718 253.053 186.748C253.122 185.648 254.767 185.634 254.836 186.75C255.381 195.658 257.57 197.872 258.726 197.07C259.893 196.262 261.349 192.002 260.572 183.579C260.474 182.526 262.114 182.185 262.305 183.208C264.646 195.714 267.899 196.439 268.947 191.54C269.13 190.684 270.308 190.579 270.645 191.383C276.76 206.003 286.234 208.897 279.799 192.215C279.426 191.247 280.739 190.53 281.352 191.366C288.982 201.767 293.292 202.945 294.505 202.115C296.034 201.068 295.636 195.672 290.908 188.265C290.353 187.394 291.486 186.436 292.253 187.116C302.677 196.32 309.949 198.19 311.578 196.551C312.536 195.59 311.75 192.649 307.836 188.246C307.092 187.411 308.27 186.242 309.102 186.989C322.176 198.767 337.274 198.83 320.733 185.225Z" stroke="#003D1D" stroke-width="11.31" stroke-miterlimit="10"/>
<path d="M320.733 185.225C304 171.461 297.163 161.459 290.902 152.466L236.299 150.919C230.389 160.269 207.642 177.771 192.275 186.332C177.114 194.778 191.795 196.393 203.189 188.74C203.752 188.362 204.514 188.725 204.576 189.401C205.151 195.709 212.991 192.696 222.541 180.971C223.2 180.16 224.482 180.963 224.044 181.91C218.757 193.352 221.975 198.98 227.918 191.976C228.516 191.274 229.657 191.831 229.475 192.731C226.754 206.176 236.773 207.308 243.149 194.302C243.298 193.998 243.606 193.805 243.944 193.803C244.287 193.8 244.6 193.993 244.752 194.3C248.655 202.193 252.547 194.718 253.053 186.748C253.122 185.648 254.767 185.634 254.836 186.75C255.381 195.658 257.57 197.872 258.726 197.07C259.893 196.262 261.349 192.002 260.572 183.579C260.474 182.526 262.114 182.185 262.305 183.208C264.646 195.714 267.899 196.439 268.947 191.54C269.13 190.684 270.308 190.579 270.645 191.383C276.76 206.003 286.234 208.897 279.799 192.215C279.426 191.247 280.739 190.53 281.352 191.366C288.982 201.767 293.292 202.945 294.505 202.115C296.034 201.068 295.636 195.672 290.908 188.265C290.353 187.394 291.486 186.436 292.253 187.116C302.677 196.32 309.949 198.19 311.578 196.551C312.536 195.59 311.75 192.649 307.836 188.246C307.092 187.411 308.27 186.242 309.102 186.989C322.176 198.767 337.274 198.83 320.733 185.225Z" fill="url(#paint6_linear_16_930)"/>
<path d="M206.226 189.25L205.984 186.604" stroke="#69E683" stroke-width="3.48" stroke-linecap="round" stroke-linejoin="round"/>
<path d="M223.048 191.01C223.159 189.211 223.781 186.426 225.547 182.603" stroke="#69E683" stroke-width="3.48" stroke-linecap="round" stroke-linejoin="round"/>
<path d="M230.957 199.333C230.248 196.542 230.874 190.957 233.809 185.819" stroke="#69E683" stroke-width="3.48" stroke-linecap="round" stroke-linejoin="round"/>
<path d="M247.802 195.691C246.904 195.2 245.075 193.603 244.9 188.926" stroke="#69E683" stroke-width="3.48" stroke-linecap="round" stroke-linejoin="round"/>
<g opacity="0.5">
<path d="M266.448 190.821C265.692 189.206 264.899 186.293 263.48 180.801" stroke="#69E683" stroke-width="3.48" stroke-linecap="round" stroke-linejoin="round"/>
</g>
<g opacity="0.5">
<path d="M280.116 201.865C278.798 201.337 275.336 198.305 272.172 190.742" stroke="#69E683" stroke-width="3.48" stroke-linecap="round" stroke-linejoin="round"/>
</g>
<g opacity="0.5">
<path d="M293.557 200.674C292.189 200.514 288.439 198.228 282.688 190.387" stroke="#69E683" stroke-width="3.48" stroke-linecap="round" stroke-linejoin="round"/>
</g>
<g opacity="0.5">
<path d="M310.289 195.371C306.018 196.111 296.823 188.941 293.348 185.873" stroke="#043D21" stroke-width="3.48" stroke-linecap="round" stroke-linejoin="round"/>
</g>
<g opacity="0.5">
<path d="M325.701 193.933C322.636 193.957 316.481 191.408 310.209 185.758" stroke="#043D21" stroke-width="3.48" stroke-linecap="round" stroke-linejoin="round"/>
</g>
<path d="M188.52 190.851C190.755 188.751 194.848 187.192 204.463 180.726" stroke="#69E683" stroke-width="3.48" stroke-linecap="round" stroke-linejoin="round"/>
<path d="M293.122 173.475C302.075 180.637 307.65 177.445 295.745 165.466C291.94 161.638 287.869 156.62 284.025 150.945L236.642 148.584C232.76 154.858 220.125 166.371 207.08 175.077C203.768 181.901 219.214 181.766 231.345 168.362C222.322 184.832 235.895 185.016 241.548 176.042C241.868 186.096 248.372 188.843 253.968 184.437C253.982 184.297 253.998 184.159 254.011 184.018C254.016 184.146 254.024 184.263 254.03 184.388C257.649 181.502 260.878 175.625 261.787 166.764C273.813 188.297 281.698 181.617 279.09 170.017C292.173 187.793 296.063 179.047 293.122 173.475Z" fill="#003D1D" fill-opacity="0.5"/>
<path d="M299.351 153.347C277.23 139.72 266.524 120.944 266.638 95.9689L248.885 93.2182C249.399 127.535 230.235 144.88 213.415 156.168C200.78 164.649 217.426 167.072 230.895 152.191C231.6 151.41 232.846 152.296 232.341 153.218C223.873 168.677 236.028 167.897 241.006 159.995C241.474 159.252 242.626 159.565 242.654 160.442C243.15 176.055 258.932 172.334 261.112 151.101C261.202 150.23 262.361 150.005 262.78 150.757C273.769 170.434 281.004 166.085 278.431 154.64C278.218 153.695 279.457 153.146 280.022 153.916C291.739 169.835 295.354 163.642 292.545 158.32C292.096 157.469 293.137 156.603 293.893 157.206C301.306 163.135 314.611 162.747 299.351 153.347Z" stroke="#003D1D" stroke-width="11.31" stroke-miterlimit="10"/>
<path d="M299.351 153.347C277.23 139.72 266.524 120.944 266.638 95.9689L248.885 93.2182C249.399 127.535 230.235 144.88 213.415 156.168C200.78 164.649 217.426 167.072 230.895 152.191C231.6 151.41 232.846 152.296 232.341 153.218C223.873 168.677 236.028 167.897 241.006 159.995C241.474 159.252 242.626 159.565 242.654 160.442C243.15 176.055 258.932 172.334 261.112 151.101C261.202 150.23 262.361 150.005 262.78 150.757C273.769 170.434 281.004 166.085 278.431 154.64C278.218 153.695 279.457 153.146 280.022 153.916C291.739 169.835 295.354 163.642 292.545 158.32C292.096 157.469 293.137 156.603 293.893 157.206C301.306 163.135 314.611 162.747 299.351 153.347Z" fill="url(#paint7_linear_16_930)"/>
<path d="M274.497 128.621C269.18 119.169 266.581 108.329 266.638 95.9678L248.885 93.2171C249.042 103.697 247.358 112.586 244.472 120.211C256.062 103.341 263.621 114.759 274.497 128.621Z" fill="#003D1D" fill-opacity="0.5"/>
<path d="M231.38 163.3C230.743 162.209 230.994 159.122 233.793 154.014" stroke="#69E683" stroke-width="3.48" stroke-linecap="round" stroke-linejoin="round"/>
<path d="M248.934 168.358C246.237 168.321 244.465 165.268 244.309 160.389L244.045 152.064" stroke="#69E683" stroke-width="3.48" stroke-linecap="round" stroke-linejoin="round"/>
<g opacity="0.5">
<path d="M275.627 162.726C270.621 162.657 262.877 147.533 260.289 142.898" stroke="#69E683" stroke-width="3.48" stroke-linecap="round" stroke-linejoin="round"/>
</g>
<g opacity="0.5">
<path d="M291.548 162.481C290.958 162.444 287.885 161.805 281.355 152.934" stroke="#043D21" stroke-width="3.48" stroke-linecap="round" stroke-linejoin="round"/>
</g>
<g opacity="0.5">
<path d="M299.826 158.873C298.719 158.487 297.061 157.618 294.928 155.912" stroke="#043D21" stroke-width="3.48" stroke-linecap="round" stroke-linejoin="round"/>
</g>
<path d="M213.742 158.205C221.215 151.426 238.23 139.843 244.712 126.433" stroke="#69E683" stroke-width="3.48" stroke-linecap="round" stroke-linejoin="round"/>
<g opacity="0.5">
<path d="M278.605 139.832C282.945 144.067 287.862 147.47 291.693 150.336" stroke="#69E683" stroke-width="3.48" stroke-linecap="round" stroke-linejoin="round"/>
</g>
<path d="M256.217 40.6523L267.21 60.9503L289.912 65.1333L274.004 81.8608L277.041 104.743L256.217 94.7837L235.392 104.743L238.429 81.8608L222.521 65.1333L245.223 60.9503L256.217 40.6523Z" stroke="#E09A02" stroke-width="10.44" stroke-linecap="round" stroke-linejoin="round"/>
<path d="M256.217 40.6523L267.21 60.9503L289.912 65.1333L274.004 81.8608L277.041 104.743L256.217 94.7837L235.392 104.743L238.429 81.8608L222.521 65.1333L245.223 60.9503L256.217 40.6523Z" fill="#FFD94A"/>
<path d="M235.393 104.743L256.217 74.8223L277.041 104.743L256.217 94.7835L235.393 104.743Z" fill="#FFCA00"/>
<path d="M274.004 81.8606L256.217 74.8223L277.041 104.743L274.004 81.8606Z" fill="#FBFE8F"/>
<path d="M238.43 81.8606L256.217 74.8223L235.393 104.743L238.43 81.8606Z" fill="#FBFE8F"/>
<path d="M289.912 65.1333L256.217 74.8225V40.6523L267.21 60.9503L289.912 65.1333Z" fill="#FBFE8F"/>
<path d="M222.521 65.1333L256.217 74.8225V40.6523L245.223 60.9503L222.521 65.1333Z" fill="white"/>
<path d="M260.297 43.2287C261.64 52.3074 263.163 53.8509 272.276 55.2036C272.944 55.3031 272.943 56.2693 272.274 56.3676C263.196 57.7099 261.652 59.2338 260.3 68.3459C260.2 69.0147 259.234 69.0136 259.136 68.3448C257.793 59.2662 256.269 57.7226 247.157 56.3699C246.488 56.2704 246.49 55.3042 247.158 55.2059C256.237 53.8637 257.781 52.3398 259.133 43.2276C259.233 42.5588 260.199 42.5599 260.297 43.2287Z" fill="white"/>
<path d="M221.01 391.108C221.01 401.459 212.619 409.85 202.268 409.85C191.917 409.85 183.525 401.459 183.525 391.108C183.525 380.756 191.917 372.365 202.268 372.365C212.619 372.365 221.01 380.756 221.01 391.108Z" fill="#40B8E1"/>
<path d="M221.01 391.108C221.01 401.459 212.619 409.85 202.268 409.85C191.917 409.85 183.525 401.459 183.525 391.108C183.525 380.756 191.917 372.365 202.268 372.365C212.619 372.365 221.01 380.756 221.01 391.108Z" stroke="#108DAF" stroke-width="5.22" stroke-miterlimit="10"/>
<g opacity="0.67">
<path d="M215.758 391.107C215.758 398.557 209.717 404.598 202.268 404.598" stroke="#8AE6FF" stroke-width="3.48" stroke-linecap="round" stroke-linejoin="round"/>
</g>
<path d="M200.757 365.898C199.324 365.898 198.162 366.852 198.162 368.028V371.529C198.162 373.221 199.789 373.48 200.286 372.304C200.345 372.165 200.561 372.155 200.646 372.284C201.299 373.275 203.237 373.276 203.889 372.284C203.975 372.155 204.19 372.165 204.249 372.304C204.746 373.48 206.373 373.223 206.373 371.529V368.028C206.373 366.852 205.212 365.898 203.778 365.898H200.757Z" fill="#FCCB1D"/>
<path d="M200.757 365.898C199.324 365.898 198.162 366.852 198.162 368.028V371.529C198.162 373.221 199.789 373.48 200.286 372.304C200.345 372.165 200.561 372.155 200.646 372.284C201.299 373.275 203.237 373.276 203.889 372.284C203.975 372.155 204.19 372.165 204.249 372.304C204.746 373.48 206.373 373.223 206.373 371.529V368.028C206.373 366.852 205.212 365.898 203.778 365.898H200.757Z" stroke="#CE7500" stroke-width="3.48" stroke-linecap="round" stroke-linejoin="round"/>
<g opacity="0.6">
<path d="M211.285 388.719C211.285 395.191 206.037 400.439 199.564 400.439C193.092 400.439 187.844 395.191 187.844 388.719C187.844 382.246 193.092 376.998 199.564 376.998C206.037 376.998 211.285 382.246 211.285 388.719Z" fill="#8AE6FF"/>
</g>
<g opacity="0.75">
<path d="M203.536 385.522C203.536 389.272 200.495 392.313 196.744 392.313C192.994 392.313 189.953 389.272 189.953 385.522C189.953 381.771 192.994 378.73 196.744 378.73C200.495 378.73 203.536 381.771 203.536 385.522Z" fill="white"/>
</g>
<path d="M201.126 383.005C201.126 385.002 199.508 386.62 197.511 386.62C195.515 386.62 193.896 385.002 193.896 383.005C193.896 381.009 195.515 379.391 197.511 379.391C199.508 379.391 201.126 381.009 201.126 383.005Z" fill="white"/>
<path d="M199.686 367.326V371.445" stroke="white" stroke-width="2.61" stroke-linecap="round" stroke-linejoin="round"/>
<path d="M205.045 367.326V371.445" stroke="#FFFF00" stroke-width="2.61" stroke-linecap="round" stroke-linejoin="round"/>
<g opacity="0.5">
<path d="M283.351 327.511C282.49 337.826 273.429 345.489 263.114 344.628C252.798 343.766 245.135 334.706 245.996 324.39C246.858 314.075 255.919 306.411 266.234 307.273C276.549 308.135 284.213 317.195 283.351 327.511Z" fill="#043D21"/>
</g>
<path d="M277.559 313.793C277.559 324.144 269.168 332.536 258.817 332.536C248.465 332.536 240.074 324.144 240.074 313.793C240.074 303.442 248.465 295.051 258.817 295.051C269.168 295.051 277.559 303.442 277.559 313.793Z" fill="#00F56B"/>
<path d="M277.559 313.793C277.559 324.144 269.168 332.536 258.817 332.536C248.465 332.536 240.074 324.144 240.074 313.793C240.074 303.442 248.465 295.051 258.817 295.051C269.168 295.051 277.559 303.442 277.559 313.793Z" stroke="#08B24D" stroke-width="5.22" stroke-miterlimit="10"/>
<g opacity="0.67">
<path d="M272.307 313.791C272.307 321.241 266.266 327.281 258.816 327.281" stroke="white" stroke-width="3.48" stroke-linecap="round" stroke-linejoin="round"/>
</g>
<path d="M257.306 288.584C255.872 288.584 254.711 289.538 254.711 290.714V294.215C254.711 295.907 256.338 296.166 256.835 294.99C256.894 294.851 257.11 294.84 257.195 294.97C257.848 295.961 259.786 295.962 260.438 294.97C260.523 294.84 260.739 294.851 260.798 294.99C261.295 296.165 262.922 295.909 262.922 294.215V290.714C262.922 289.538 261.761 288.584 260.327 288.584H257.306Z" fill="#FCCB1D"/>
<path d="M257.306 288.584C255.872 288.584 254.711 289.538 254.711 290.714V294.215C254.711 295.907 256.338 296.166 256.835 294.99C256.894 294.851 257.11 294.84 257.195 294.97C257.848 295.961 259.786 295.962 260.438 294.97C260.523 294.84 260.739 294.851 260.798 294.99C261.295 296.165 262.922 295.909 262.922 294.215V290.714C262.922 289.538 261.761 288.584 260.327 288.584H257.306Z" stroke="#CE7500" stroke-width="3.48" stroke-linecap="round" stroke-linejoin="round"/>
<g opacity="0.6">
<path d="M267.834 311.404C267.834 317.877 262.586 323.125 256.113 323.125C249.64 323.125 244.393 317.877 244.393 311.404C244.393 304.931 249.64 299.684 256.113 299.684C262.586 299.684 267.834 304.931 267.834 311.404Z" fill="#78FFAF"/>
</g>
<g opacity="0.75">
<path d="M260.084 308.207C260.084 311.958 257.044 314.998 253.293 314.998C249.543 314.998 246.502 311.958 246.502 308.207C246.502 304.457 249.543 301.416 253.293 301.416C257.044 301.416 260.084 304.457 260.084 308.207Z" fill="white"/>
</g>
<path d="M257.675 305.691C257.675 307.688 256.057 309.306 254.06 309.306C252.064 309.306 250.445 307.688 250.445 305.691C250.445 303.694 252.064 302.076 254.06 302.076C256.057 302.076 257.675 303.694 257.675 305.691Z" fill="white"/>
<path d="M256.234 290.012V294.13" stroke="white" stroke-width="2.61" stroke-linecap="round" stroke-linejoin="round"/>
<path d="M261.594 290.012V294.13" stroke="#FFFF00" stroke-width="2.61" stroke-linecap="round" stroke-linejoin="round"/>
<path d="M165.58 350.095C160.478 358.882 148.948 361.712 139.827 356.415C130.706 351.119 127.448 339.702 132.551 330.916C137.653 322.129 149.183 319.299 158.304 324.596C167.425 329.892 170.682 341.308 165.58 350.095Z" fill="#FCEE21"/>
<path d="M165.58 350.095C160.478 358.882 148.948 361.712 139.827 356.415C130.706 351.119 127.448 339.702 132.551 330.916C137.653 322.129 149.183 319.299 158.304 324.596C167.425 329.892 170.682 341.308 165.58 350.095Z" stroke="#F9A723" stroke-width="5.22047" stroke-miterlimit="10"/>
<g opacity="0.67">
<path d="M160.953 347.406C157.281 353.73 148.981 355.767 142.417 351.955" stroke="white" stroke-width="3.48032" stroke-linecap="round" stroke-linejoin="round"/>
</g>
<path d="M160.162 318.334C158.898 317.6 157.405 317.815 156.825 318.814L155.1 321.786C154.265 323.222 155.571 324.274 156.589 323.53C156.709 323.442 156.905 323.544 156.916 323.697C157.003 324.873 158.71 325.865 159.774 325.357C159.913 325.291 160.098 325.41 160.081 325.558C159.94 326.81 161.5 327.425 162.335 325.987L164.06 323.015C164.64 322.017 164.087 320.613 162.823 319.879L160.162 318.334Z" fill="#FCCB1D"/>
<path d="M160.162 318.334C158.898 317.6 157.405 317.815 156.825 318.814L155.1 321.786C154.265 323.222 155.571 324.274 156.589 323.53C156.709 323.442 156.905 323.544 156.916 323.697C157.003 324.873 158.71 325.865 159.774 325.357C159.913 325.291 160.098 325.41 160.081 325.558C159.94 326.81 161.5 327.425 162.335 325.987L164.06 323.015C164.64 322.017 164.087 320.613 162.823 319.879L160.162 318.334Z" stroke="#CE7500" stroke-width="3.48032" stroke-linecap="round" stroke-linejoin="round"/>
<g opacity="0.6">
<path d="M158.188 343.094C154.998 348.588 147.787 350.358 142.083 347.046C136.38 343.734 134.343 336.594 137.533 331.1C140.724 325.605 147.935 323.836 153.638 327.147C159.342 330.459 161.379 337.599 158.188 343.094Z" fill="white"/>
</g>
<g opacity="0.75">
<path d="M152.935 336.414C151.086 339.597 146.908 340.623 143.603 338.704C140.299 336.785 139.118 332.648 140.967 329.464C142.816 326.28 146.994 325.255 150.299 327.174C153.603 329.093 154.784 333.23 152.935 336.414Z" fill="white"/>
</g>
<path d="M152.053 333.045C151.069 334.74 148.846 335.286 147.086 334.264C145.327 333.242 144.699 331.041 145.683 329.346C146.667 327.651 148.891 327.105 150.65 328.127C152.409 329.149 153.038 331.35 152.053 333.045Z" fill="white"/>
<path d="M158.514 318.998L156.484 322.494" stroke="white" stroke-width="2.61024" stroke-linecap="round" stroke-linejoin="round"/>
<path d="M163.234 321.738L161.204 325.234" stroke="#FFFF00" stroke-width="2.61024" stroke-linecap="round" stroke-linejoin="round"/>
<g opacity="0.5">
<path d="M353.685 385.851C354.575 396.164 346.937 405.245 336.624 406.136C326.311 407.026 317.229 399.388 316.339 389.075C315.448 378.762 323.087 369.68 333.399 368.79C343.712 367.9 352.794 375.538 353.685 385.851Z" fill="#043D21"/>
</g>
<path d="M344.944 376.293C344.944 386.644 336.553 395.036 326.201 395.036C315.85 395.036 307.459 386.644 307.459 376.293C307.459 365.942 315.85 357.551 326.201 357.551C336.553 357.551 344.944 365.942 344.944 376.293Z" fill="#FF0041"/>
<path d="M344.944 376.293C344.944 386.644 336.553 395.036 326.201 395.036C315.85 395.036 307.459 386.644 307.459 376.293C307.459 365.942 315.85 357.551 326.201 357.551C336.553 357.551 344.944 365.942 344.944 376.293Z" stroke="#BF063B" stroke-width="5.22" stroke-miterlimit="10"/>
<g opacity="0.67">
<path d="M339.691 376.293C339.691 383.743 333.651 389.783 326.201 389.783" stroke="#FC638E" stroke-width="3.48" stroke-linecap="round" stroke-linejoin="round"/>
</g>
<path d="M324.691 351.086C323.257 351.086 322.096 352.039 322.096 353.216V356.717C322.096 358.409 323.723 358.668 324.219 357.492C324.279 357.353 324.494 357.342 324.58 357.472C325.233 358.463 327.17 358.464 327.823 357.472C327.908 357.342 328.124 357.353 328.183 357.492C328.68 358.667 330.307 358.41 330.307 356.717V353.216C330.307 352.039 329.145 351.086 327.712 351.086H324.691Z" fill="#FCCB1D"/>
<path d="M324.691 351.086C323.257 351.086 322.096 352.039 322.096 353.216V356.717C322.096 358.409 323.723 358.668 324.219 357.492C324.279 357.353 324.494 357.342 324.58 357.472C325.233 358.463 327.17 358.464 327.823 357.472C327.908 357.342 328.124 357.353 328.183 357.492C328.68 358.667 330.307 358.41 330.307 356.717V353.216C330.307 352.039 329.145 351.086 327.712 351.086H324.691Z" stroke="#CE7500" stroke-width="3.48" stroke-linecap="round" stroke-linejoin="round"/>
<g opacity="0.6">
<path d="M335.219 373.906C335.219 380.379 329.971 385.627 323.498 385.627C317.025 385.627 311.777 380.379 311.777 373.906C311.777 367.433 317.025 362.186 323.498 362.186C329.971 362.186 335.219 367.433 335.219 373.906Z" fill="#FC638E"/>
</g>
<g opacity="0.75">
<path d="M327.467 370.709C327.467 374.46 324.427 377.5 320.676 377.5C316.925 377.5 313.885 374.46 313.885 370.709C313.885 366.959 316.925 363.918 320.676 363.918C324.427 363.918 327.467 366.959 327.467 370.709Z" fill="white"/>
</g>
<path d="M325.06 368.193C325.06 370.19 323.442 371.808 321.445 371.808C319.448 371.808 317.83 370.19 317.83 368.193C317.83 366.196 319.448 364.578 321.445 364.578C323.442 364.578 325.06 366.196 325.06 368.193Z" fill="white"/>
<path d="M323.619 352.512V356.63" stroke="white" stroke-width="2.61" stroke-linecap="round" stroke-linejoin="round"/>
<path d="M328.979 352.512V356.63" stroke="#FFFF00" stroke-width="2.61" stroke-linecap="round" stroke-linejoin="round"/>
<path d="M363.581 308.336C363.581 318.687 355.189 327.079 344.838 327.079C334.487 327.079 326.096 318.687 326.096 308.336C326.096 297.985 334.487 289.594 344.838 289.594C355.189 289.594 363.581 297.985 363.581 308.336Z" fill="#FCEE21"/>
<path d="M363.581 308.336C363.581 318.687 355.189 327.079 344.838 327.079C334.487 327.079 326.096 318.687 326.096 308.336C326.096 297.985 334.487 289.594 344.838 289.594C355.189 289.594 363.581 297.985 363.581 308.336Z" stroke="#F9A723" stroke-width="5.22" stroke-miterlimit="10"/>
<g opacity="0.67">
<path d="M358.328 308.336C358.328 315.786 352.288 321.826 344.838 321.826" stroke="white" stroke-width="3.48" stroke-linecap="round" stroke-linejoin="round"/>
</g>
<path d="M343.328 283.129C341.894 283.129 340.732 284.082 340.732 285.259V288.76C340.732 290.452 342.359 290.711 342.856 289.535C342.915 289.396 343.131 289.385 343.216 289.515C343.87 290.506 345.807 290.507 346.46 289.515C346.545 289.385 346.761 289.396 346.82 289.535C347.317 290.71 348.943 290.453 348.943 288.76V285.259C348.943 284.082 347.782 283.129 346.348 283.129H343.328Z" fill="#FCCB1D"/>
<path d="M343.328 283.129C341.894 283.129 340.732 284.082 340.732 285.259V288.76C340.732 290.452 342.359 290.711 342.856 289.535C342.915 289.396 343.131 289.385 343.216 289.515C343.87 290.506 345.807 290.507 346.46 289.515C346.545 289.385 346.761 289.396 346.82 289.535C347.317 290.71 348.943 290.453 348.943 288.76V285.259C348.943 284.082 347.782 283.129 346.348 283.129H343.328Z" stroke="#CE7500" stroke-width="3.48" stroke-linecap="round" stroke-linejoin="round"/>
<g opacity="0.6">
<path d="M353.855 305.949C353.855 312.422 348.608 317.67 342.135 317.67C335.662 317.67 330.414 312.422 330.414 305.949C330.414 299.476 335.662 294.229 342.135 294.229C348.608 294.229 353.855 299.476 353.855 305.949Z" fill="white"/>
</g>
<g opacity="0.75">
<path d="M346.106 302.752C346.106 306.503 343.065 309.543 339.315 309.543C335.564 309.543 332.523 306.503 332.523 302.752C332.523 299.002 335.564 295.961 339.315 295.961C343.065 295.961 346.106 299.002 346.106 302.752Z" fill="white"/>
</g>
<path d="M343.696 300.236C343.696 302.233 342.078 303.851 340.082 303.851C338.085 303.851 336.467 302.233 336.467 300.236C336.467 298.239 338.085 296.621 340.082 296.621C342.078 296.621 343.696 298.239 343.696 300.236Z" fill="white"/>
<path d="M342.256 284.557V288.675" stroke="white" stroke-width="2.61" stroke-linecap="round" stroke-linejoin="round"/>
<path d="M347.615 284.557V288.675" stroke="#FFFF00" stroke-width="2.61" stroke-linecap="round" stroke-linejoin="round"/>
<path d="M341.064 227.99C340.721 238.335 332.055 246.443 321.71 246.099C311.365 245.756 303.257 237.091 303.6 226.745C303.944 216.4 312.609 208.292 322.954 208.636C333.3 208.979 341.408 217.644 341.064 227.99Z" fill="#FF0041"/>
<path d="M341.064 227.99C340.721 238.335 332.055 246.443 321.71 246.099C311.365 245.756 303.257 237.091 303.6 226.745C303.944 216.4 312.609 208.292 322.954 208.636C333.3 208.979 341.408 217.644 341.064 227.99Z" stroke="#BF063B" stroke-width="5.22" stroke-miterlimit="10"/>
<g opacity="0.67">
<path d="M335.815 227.814C335.568 235.261 329.331 241.097 321.885 240.85" stroke="#FC638E" stroke-width="3.48" stroke-linecap="round" stroke-linejoin="round"/>
</g>
<path d="M313.011 203.897C311.65 204.345 310.844 205.614 311.212 206.732L312.307 210.057C312.837 211.665 314.463 211.402 314.567 210.129C314.579 209.977 314.781 209.901 314.903 209.997C315.833 210.734 317.674 210.129 317.983 208.983C318.024 208.832 318.231 208.775 318.331 208.889C319.171 209.85 320.636 209.097 320.106 207.488L319.011 204.164C318.643 203.046 317.24 202.504 315.879 202.952L313.011 203.897Z" fill="#FCCB1D"/>
<path d="M313.011 203.897C311.65 204.345 310.844 205.614 311.212 206.732L312.307 210.057C312.837 211.665 314.463 211.402 314.567 210.129C314.579 209.977 314.781 209.901 314.903 209.997C315.833 210.734 317.674 210.129 317.983 208.983C318.024 208.832 318.231 208.775 318.331 208.889C319.171 209.85 320.636 209.097 320.106 207.488L319.011 204.164C318.643 203.046 317.24 202.504 315.879 202.952L313.011 203.897Z" stroke="#CE7500" stroke-width="3.48" stroke-linecap="round" stroke-linejoin="round"/>
<g opacity="0.6">
<path d="M331.422 225.281C331.207 231.75 325.789 236.821 319.32 236.606C312.85 236.391 307.78 230.973 307.995 224.503C308.21 218.034 313.628 212.964 320.097 213.178C326.567 213.393 331.637 218.812 331.422 225.281Z" fill="#FC638E"/>
</g>
<g opacity="0.75">
<path d="M323.783 221.829C323.658 225.577 320.519 228.514 316.77 228.39C313.022 228.266 310.084 225.127 310.209 221.378C310.333 217.629 313.472 214.692 317.221 214.816C320.97 214.941 323.907 218.08 323.783 221.829Z" fill="white"/>
</g>
<path d="M321.459 219.234C321.393 221.229 319.722 222.793 317.727 222.727C315.732 222.66 314.168 220.989 314.234 218.994C314.301 216.999 315.972 215.436 317.967 215.502C319.962 215.568 321.525 217.239 321.459 219.234Z" fill="white"/>
<path d="M312.439 205.588L313.729 209.501" stroke="white" stroke-width="2.61" stroke-linecap="round" stroke-linejoin="round"/>
<path d="M317.529 203.91L318.819 207.823" stroke="#FFFF00" stroke-width="2.61" stroke-linecap="round" stroke-linejoin="round"/>
<g opacity="0.5">
<path d="M241.265 199.869C239.545 210.076 229.877 216.958 219.669 215.238C209.462 213.519 202.58 203.85 204.3 193.643C206.019 183.435 215.688 176.554 225.895 178.273C236.103 179.993 242.984 189.661 241.265 199.869Z" fill="#043D21"/>
</g>
<path d="M234.934 189.729C235.163 200.078 226.959 208.652 216.61 208.881C206.261 209.11 197.687 200.906 197.458 190.557C197.229 180.209 205.433 171.634 215.782 171.405C226.13 171.176 234.705 179.38 234.934 189.729Z" fill="#FCEE21"/>
<path d="M234.934 189.729C235.163 200.078 226.959 208.652 216.61 208.881C206.261 209.11 197.687 200.906 197.458 190.557C197.229 180.209 205.433 171.634 215.782 171.405C226.13 171.176 234.705 179.38 234.934 189.729Z" stroke="#F9A723" stroke-width="5.22" stroke-miterlimit="10"/>
<g opacity="0.67">
<path d="M229.683 189.844C229.848 197.292 223.942 203.464 216.494 203.628" stroke="white" stroke-width="3.48" stroke-linecap="round" stroke-linejoin="round"/>
</g>
<path d="M226.563 167.114C225.293 166.448 223.82 166.754 223.274 167.796L221.649 170.897C220.863 172.396 222.185 173.381 223.171 172.57C223.287 172.473 223.483 172.564 223.499 172.718C223.617 173.899 225.333 174.8 226.371 174.224C226.507 174.149 226.693 174.258 226.681 174.41C226.575 175.682 228.135 176.209 228.921 174.709L230.546 171.608C231.093 170.566 230.506 169.182 229.237 168.516L226.563 167.114Z" fill="#FCCB1D"/>
<path d="M226.563 167.114C225.293 166.448 223.82 166.754 223.274 167.796L221.649 170.897C220.863 172.396 222.185 173.381 223.171 172.57C223.287 172.473 223.483 172.564 223.499 172.718C223.617 173.899 225.333 174.8 226.371 174.224C226.507 174.149 226.693 174.258 226.681 174.41C226.575 175.682 228.135 176.209 228.921 174.709L230.546 171.608C231.093 170.566 230.506 169.182 229.237 168.516L226.563 167.114Z" stroke="#CE7500" stroke-width="3.48" stroke-linecap="round" stroke-linejoin="round"/>
<g opacity="0.6">
<path d="M225.158 187.557C225.301 194.028 220.17 199.39 213.699 199.533C207.228 199.676 201.866 194.545 201.724 188.074C201.581 181.603 206.711 176.241 213.182 176.099C219.653 175.956 225.015 181.086 225.158 187.557Z" fill="white"/>
</g>
<g opacity="0.75">
<path d="M217.34 184.532C217.423 188.282 214.45 191.389 210.701 191.471C206.951 191.554 203.844 188.581 203.761 184.831C203.679 181.082 206.652 177.975 210.401 177.892C214.151 177.81 217.258 180.782 217.34 184.532Z" fill="white"/>
</g>
<path d="M218.946 182.438C218.019 184.206 215.834 184.888 214.066 183.961C212.298 183.035 211.616 180.849 212.543 179.082C213.469 177.314 215.655 176.632 217.422 177.558C219.19 178.485 219.872 180.67 218.946 182.438Z" fill="white"/>
<path d="M224.949 167.881L223.037 171.53" stroke="white" stroke-width="2.61" stroke-linecap="round" stroke-linejoin="round"/>
<path d="M229.695 170.369L227.783 174.018" stroke="#FFFF00" stroke-width="2.61" stroke-linecap="round" stroke-linejoin="round"/>
<path d="M314.276 212.915C315.661 222.28 317.233 223.873 326.633 225.268C327.323 225.371 327.322 226.368 326.632 226.469C317.266 227.854 315.674 229.426 314.278 238.826C314.176 239.516 313.179 239.515 313.077 238.825C311.693 229.459 310.12 227.867 300.72 226.472C300.03 226.369 300.031 225.372 300.721 225.271C310.087 223.886 311.679 222.314 313.075 212.913C313.178 212.223 314.174 212.225 314.276 212.915Z" fill="white"/>
<path d="M179.585 219.795C181.177 230.568 182.986 232.399 193.798 234.004C194.592 234.122 194.59 235.269 193.797 235.386C183.024 236.978 181.193 238.787 179.588 249.599C179.469 250.393 178.323 250.391 178.206 249.598C176.614 238.825 174.805 236.993 163.993 235.388C163.199 235.27 163.201 234.124 163.994 234.007C174.767 232.414 176.599 230.606 178.204 219.794C178.322 219 179.468 219.002 179.585 219.795Z" fill="white"/>
<path d="M207.159 172.973C208.631 182.929 210.302 184.622 220.295 186.105C221.028 186.214 221.027 187.274 220.294 187.381C210.338 188.853 208.645 190.525 207.161 200.518C207.052 201.251 205.993 201.25 205.885 200.516C204.413 190.56 202.742 188.867 192.749 187.384C192.015 187.275 192.016 186.215 192.75 186.107C202.706 184.635 204.399 182.964 205.882 172.971C205.991 172.238 207.051 172.239 207.159 172.973Z" fill="white"/>
<path d="M186.289 387.227C187.324 394.232 188.5 395.423 195.531 396.467C196.047 396.544 196.046 397.289 195.53 397.365C188.525 398.401 187.334 399.576 186.291 406.607C186.214 407.123 185.468 407.122 185.392 406.606C184.357 399.601 183.181 398.41 176.15 397.367C175.634 397.29 175.635 396.545 176.151 396.469C183.156 395.433 184.347 394.257 185.391 387.226C185.467 386.71 186.213 386.711 186.289 387.227Z" fill="white"/>
<path d="M311.247 347.769C313.663 364.111 316.406 366.889 332.808 369.324C334.012 369.503 334.01 371.242 332.806 371.419C316.465 373.835 313.686 376.578 311.251 392.98C311.072 394.184 309.333 394.182 309.156 392.978C306.74 376.636 303.997 373.858 287.595 371.423C286.391 371.244 286.393 369.505 287.597 369.328C303.939 366.912 306.717 364.169 309.152 347.767C309.331 346.563 311.07 346.565 311.247 347.769Z" fill="white"/>
<g opacity="0.33">
<path d="M237.107 111.987C237.165 111.73 237.531 111.73 237.589 111.987L238.524 116.128C239.59 120.44 240.868 120.969 244.67 118.673L248.26 116.406C248.482 116.266 248.742 116.525 248.601 116.747L246.335 120.337C244.039 124.14 244.568 125.417 248.881 126.483L253.022 127.418C253.278 127.476 253.278 127.841 253.022 127.9L248.881 128.835C244.568 129.901 244.039 131.178 246.335 134.981L248.602 138.571C248.743 138.793 248.484 139.053 248.261 138.912L244.671 136.645C240.868 134.35 239.591 134.879 238.526 139.191L237.591 143.333C237.532 143.589 237.167 143.589 237.109 143.333L236.173 139.192C235.107 134.879 233.83 134.35 230.027 136.646L226.438 138.913C226.215 139.054 225.956 138.794 226.097 138.572L228.363 134.982C230.659 131.179 230.13 129.902 225.817 128.836L221.676 127.901C221.419 127.843 221.419 127.478 221.676 127.419L225.817 126.484C230.129 125.418 230.658 124.141 228.362 120.338L226.096 116.749C225.955 116.526 226.214 116.267 226.437 116.408L230.026 118.674C233.829 120.97 235.106 120.44 236.172 116.128L237.107 111.987Z" fill="#0BFF44"/>
</g>
<g opacity="0.33">
<path d="M246.948 127.792C246.948 132.934 242.78 137.102 237.638 137.102C232.496 137.102 228.328 132.934 228.328 127.792C228.328 122.651 232.496 118.482 237.638 118.482C242.78 118.482 246.948 122.651 246.948 127.792Z" fill="#0BFF44"/>
</g>
<g opacity="0.33">
<path d="M246.948 127.792C246.948 132.934 242.78 137.102 237.638 137.102C232.496 137.102 228.328 132.934 228.328 127.792C228.328 122.651 232.496 118.482 237.638 118.482C242.78 118.482 246.948 122.651 246.948 127.792Z" fill="#0BFF44"/>
</g>
<g opacity="0.33">
<path d="M246.948 127.792C246.948 132.934 242.78 137.102 237.638 137.102C232.496 137.102 228.328 132.934 228.328 127.792C228.328 122.651 232.496 118.482 237.638 118.482C242.78 118.482 246.948 122.651 246.948 127.792Z" fill="#0BFF44"/>
</g>
<path d="M242.879 127.792C242.879 130.685 240.533 133.031 237.64 133.031C234.746 133.031 232.4 130.685 232.4 127.792C232.4 124.898 234.746 122.553 237.64 122.553C240.533 122.553 242.879 124.898 242.879 127.792Z" fill="white"/>
<path d="M242.879 127.792C242.879 130.685 240.533 133.031 237.64 133.031C234.746 133.031 232.4 130.685 232.4 127.792C232.4 124.898 234.746 122.553 237.64 122.553C240.533 122.553 242.879 124.898 242.879 127.792Z" stroke="#0BFF44" stroke-width="3.48" stroke-miterlimit="10"/>
<g opacity="0.33">
<path d="M272.047 151.534C272.047 156.676 267.879 160.844 262.738 160.844C257.596 160.844 253.428 156.676 253.428 151.534C253.428 146.393 257.596 142.225 262.738 142.225C267.879 142.225 272.047 146.393 272.047 151.534Z" fill="#FFBC00"/>
</g>
<g opacity="0.33">
<path d="M272.047 151.534C272.047 156.676 267.879 160.844 262.738 160.844C257.596 160.844 253.428 156.676 253.428 151.534C253.428 146.393 257.596 142.225 262.738 142.225C267.879 142.225 272.047 146.393 272.047 151.534Z" fill="#FFBC00"/>
</g>
<g opacity="0.33">
<path d="M272.047 151.534C272.047 156.676 267.879 160.844 262.738 160.844C257.596 160.844 253.428 156.676 253.428 151.534C253.428 146.393 257.596 142.225 262.738 142.225C267.879 142.225 272.047 146.393 272.047 151.534Z" fill="#FFBC00"/>
</g>
<path d="M267.976 151.534C267.976 154.428 265.631 156.773 262.737 156.773C259.844 156.773 257.498 154.428 257.498 151.534C257.498 148.64 259.844 146.295 262.737 146.295C265.631 146.295 267.976 148.64 267.976 151.534Z" fill="white"/>
<path d="M267.976 151.534C267.976 154.428 265.631 156.773 262.737 156.773C259.844 156.773 257.498 154.428 257.498 151.534C257.498 148.64 259.844 146.295 262.737 146.295C265.631 146.295 267.976 148.64 267.976 151.534Z" stroke="#FFBC00" stroke-width="3.48" stroke-miterlimit="10"/>
<g opacity="0.33">
<path d="M306.414 159.82C306.414 165.015 302.202 169.226 297.008 169.226C291.813 169.226 287.602 165.015 287.602 159.82C287.602 154.625 291.813 150.414 297.008 150.414C302.202 150.414 306.414 154.625 306.414 159.82Z" fill="#00FFFF"/>
</g>
<g opacity="0.33">
<path d="M306.381 159.821C306.381 164.998 302.184 169.195 297.007 169.195C291.83 169.195 287.633 164.998 287.633 159.821C287.633 154.644 291.83 150.447 297.007 150.447C302.184 150.447 306.381 154.644 306.381 159.821Z" fill="#00FFFF"/>
</g>
<g opacity="0.33">
<path d="M306.348 159.82C306.348 164.98 302.165 169.162 297.006 169.162C291.847 169.162 287.664 164.98 287.664 159.82C287.664 154.661 291.847 150.479 297.006 150.479C302.165 150.479 306.348 154.661 306.348 159.82Z" fill="#00FFFF"/>
</g>
<path d="M302.246 159.821C302.246 162.715 299.9 165.06 297.007 165.06C294.113 165.06 291.768 162.715 291.768 159.821C291.768 156.928 294.113 154.582 297.007 154.582C299.9 154.582 302.246 156.928 302.246 159.821Z" fill="white"/>
<path d="M302.246 159.821C302.246 162.715 299.9 165.06 297.007 165.06C294.113 165.06 291.768 162.715 291.768 159.821C291.768 156.928 294.113 154.582 297.007 154.582C299.9 154.582 302.246 156.928 302.246 159.821Z" stroke="#00FFFF" stroke-width="3.48" stroke-miterlimit="10"/>
<g opacity="0.33">
<path d="M194.963 213.413C194.971 219.202 190.465 223.902 184.898 223.91C179.33 223.918 174.811 219.231 174.802 213.442C174.794 207.652 179.3 202.952 184.867 202.944C190.434 202.936 194.954 207.623 194.963 213.413Z" fill="#FA50FF"/>
</g>
<g opacity="0.33">
<path d="M194.637 213.413C194.645 219.014 190.285 223.561 184.899 223.569C179.513 223.576 175.14 219.042 175.132 213.441C175.124 207.84 179.483 203.293 184.87 203.285C190.256 203.277 194.628 207.811 194.637 213.413Z" fill="#FA50FF"/>
</g>
<g opacity="0.33">
<path d="M194.318 213.412C194.326 218.831 190.108 223.23 184.897 223.238C179.686 223.245 175.456 218.858 175.448 213.439C175.44 208.02 179.658 203.621 184.869 203.613C190.08 203.606 194.31 207.993 194.318 213.412Z" fill="#FA50FF"/>
</g>
<path d="M190.02 213.419C190.024 216.37 187.728 218.765 184.891 218.769C182.054 218.773 179.75 216.385 179.746 213.434C179.742 210.483 182.038 208.088 184.875 208.084C187.713 208.08 190.016 210.469 190.02 213.419Z" fill="white"/>
<path d="M190.02 213.419C190.024 216.37 187.728 218.765 184.891 218.769C182.054 218.773 179.75 216.385 179.746 213.434C179.742 210.483 182.038 208.088 184.875 208.084C187.713 208.08 190.016 210.469 190.02 213.419Z" stroke="#FA50FF" stroke-width="3.47966" stroke-miterlimit="10"/>
<g opacity="0.33">
<path d="M218.404 244.904C218.414 251.4 213.357 256.674 207.11 256.683C200.864 256.692 195.792 251.433 195.783 244.936C195.773 238.44 200.83 233.166 207.076 233.157C213.323 233.148 218.395 238.407 218.404 244.904Z" fill="#FFFF00"/>
</g>
<g opacity="0.33">
<path d="M217.624 244.905C217.633 250.954 212.925 255.864 207.109 255.872C201.293 255.88 196.572 250.984 196.563 244.936C196.554 238.888 201.262 233.978 207.078 233.969C212.894 233.961 217.616 238.857 217.624 244.905Z" fill="#FFFF00"/>
</g>
<g opacity="0.33">
<path d="M216.897 244.906C216.905 250.537 212.522 255.109 207.108 255.117C201.693 255.124 197.296 250.566 197.288 244.935C197.28 239.303 201.663 234.732 207.078 234.724C212.493 234.716 216.889 239.275 216.897 244.906Z" fill="#FFFF00"/>
</g>
<path d="M212.229 244.913C212.233 247.864 209.937 250.259 207.1 250.263C204.263 250.267 201.959 247.879 201.955 244.928C201.951 241.978 204.247 239.583 207.084 239.578C209.922 239.574 212.225 241.963 212.229 244.913Z" fill="white"/>
<path d="M212.229 244.913C212.233 247.864 209.937 250.259 207.1 250.263C204.263 250.267 201.959 247.879 201.955 244.928C201.951 241.978 204.247 239.583 207.084 239.578C209.922 239.574 212.225 241.963 212.229 244.913Z" stroke="#FFFF00" stroke-width="3.47966" stroke-miterlimit="10"/>
<g opacity="0.33">
<path d="M248.324 268.549C248.334 275.528 242.903 281.192 236.192 281.202C229.482 281.212 224.034 275.563 224.024 268.585C224.014 261.606 229.446 255.941 236.156 255.932C242.866 255.922 248.314 261.571 248.324 268.549Z" fill="#0BFF44"/>
</g>
<g opacity="0.33">
<path d="M247.219 268.552C247.228 274.896 242.29 280.046 236.19 280.055C230.09 280.064 225.137 274.928 225.128 268.584C225.119 262.24 230.057 257.09 236.157 257.082C242.257 257.073 247.21 262.208 247.219 268.552Z" fill="#0BFF44"/>
</g>
<g opacity="0.33">
<path d="M246.215 268.552C246.223 274.319 241.734 279.001 236.189 279.009C230.643 279.017 226.141 274.348 226.132 268.581C226.124 262.814 230.613 258.132 236.158 258.124C241.704 258.116 246.206 262.785 246.215 268.552Z" fill="#0BFF44"/>
</g>
<path d="M241.311 268.56C241.315 271.51 239.019 273.905 236.182 273.909C233.345 273.914 231.041 271.525 231.037 268.575C231.033 265.624 233.329 263.229 236.166 263.225C239.004 263.221 241.307 265.609 241.311 268.56Z" fill="white"/>
<path d="M241.311 268.56C241.315 271.51 239.019 273.905 236.182 273.909C233.345 273.914 231.041 271.525 231.037 268.575C231.033 265.624 233.329 263.229 236.166 263.225C239.004 263.221 241.307 265.609 241.311 268.56Z" stroke="#0BFF44" stroke-width="3.47966" stroke-miterlimit="10"/>
<g opacity="0.33">
<path d="M275.849 262.952C275.907 262.696 276.273 262.696 276.331 262.952L277.267 267.094C278.333 271.406 279.61 271.935 283.413 269.639L287.002 267.373C287.225 267.232 287.484 267.491 287.343 267.714L285.077 271.303C282.782 275.106 283.311 276.383 287.623 277.449L291.765 278.384C292.021 278.443 292.021 278.808 291.765 278.866L287.624 279.802C283.311 280.867 282.782 282.145 285.079 285.947L287.345 289.537C287.486 289.76 287.227 290.019 287.004 289.878L283.415 287.612C279.612 285.316 278.334 285.845 277.269 290.157L276.334 294.298C276.276 294.555 275.911 294.555 275.852 294.298L274.917 290.157C273.851 285.845 272.573 285.316 268.771 287.612L265.181 289.878C264.959 290.019 264.699 289.76 264.84 289.537L267.106 285.947C269.402 282.144 268.873 280.867 264.56 279.802L260.419 278.866C260.162 278.808 260.162 278.443 260.419 278.384L264.56 277.449C268.872 276.383 269.401 275.106 267.105 271.303L264.838 267.714C264.697 267.491 264.956 267.232 265.179 267.373L268.769 269.639C272.572 271.935 273.849 271.406 274.914 267.094L275.849 262.952Z" fill="#FFBC00"/>
</g>
<g opacity="0.33">
<path d="M288.264 278.609C288.274 285.35 283.027 290.822 276.545 290.831C270.063 290.841 264.801 285.384 264.791 278.643C264.781 271.902 270.028 266.43 276.51 266.42C282.992 266.411 288.254 271.868 288.264 278.609Z" fill="#FFBC00"/>
</g>
<g opacity="0.33">
<path d="M287.32 278.611C287.329 284.81 282.504 289.843 276.543 289.851C270.582 289.86 265.742 284.842 265.733 278.643C265.724 272.443 270.549 267.411 276.51 267.402C282.471 267.394 287.311 272.412 287.32 278.611Z" fill="#FFBC00"/>
</g>
<g opacity="0.33">
<path d="M286.453 278.612C286.461 284.313 282.024 288.941 276.542 288.949C271.06 288.957 266.609 284.342 266.601 278.641C266.593 272.94 271.03 268.312 276.512 268.304C281.994 268.296 286.445 272.911 286.453 278.612Z" fill="#FFBC00"/>
</g>
<path d="M281.665 278.618C281.669 281.569 279.373 283.964 276.535 283.968C273.698 283.972 271.395 281.584 271.391 278.633C271.386 275.683 273.683 273.288 276.52 273.284C279.357 273.279 281.66 275.668 281.665 278.618Z" fill="white"/>
<path d="M281.665 278.618C281.669 281.569 279.373 283.964 276.535 283.968C273.698 283.972 271.395 281.584 271.391 278.633C271.386 275.683 273.683 273.288 276.52 273.284C279.357 273.279 281.66 275.668 281.665 278.618Z" stroke="#FFBC00" stroke-width="3.47966" stroke-miterlimit="10"/>
<g opacity="0.33">
<path d="M327.242 280.037C327.251 286.106 322.527 291.033 316.691 291.042C310.855 291.05 306.117 286.137 306.108 280.068C306.099 273.998 310.823 269.071 316.659 269.063C322.495 269.054 327.233 273.968 327.242 280.037Z" fill="#00FFFF"/>
</g>
<g opacity="0.33">
<path d="M326.739 280.039C326.747 285.819 322.248 290.511 316.69 290.519C311.132 290.527 306.619 285.848 306.611 280.068C306.602 274.287 311.102 269.595 316.66 269.587C322.218 269.579 326.731 274.258 326.739 280.039Z" fill="#00FFFF"/>
</g>
<g opacity="0.33">
<path d="M326.258 280.04C326.266 285.545 321.981 290.014 316.688 290.021C311.394 290.029 307.097 285.572 307.089 280.067C307.081 274.562 311.365 270.093 316.659 270.086C321.953 270.078 326.25 274.535 326.258 280.04Z" fill="#00FFFF"/>
</g>
<path d="M321.811 280.046C321.815 282.997 319.519 285.392 316.682 285.396C313.845 285.4 311.541 283.012 311.537 280.061C311.533 277.11 313.829 274.715 316.666 274.711C319.504 274.707 321.807 277.096 321.811 280.046Z" fill="white"/>
<path d="M321.811 280.046C321.815 282.997 319.519 285.392 316.682 285.396C313.845 285.4 311.541 283.012 311.537 280.061C311.533 277.11 313.829 274.715 316.666 274.711C319.504 274.707 321.807 277.096 321.811 280.046Z" stroke="#00FFFF" stroke-width="3.47966" stroke-miterlimit="10"/>
<g opacity="0.33">
<path d="M364.577 264.294C364.584 269.738 360.347 274.158 355.112 274.165C349.878 274.173 345.628 269.766 345.62 264.322C345.612 258.878 349.849 254.459 355.084 254.451C360.319 254.444 364.569 258.851 364.577 264.294Z" fill="#FA50FF"/>
</g>
<g opacity="0.33">
<path d="M364.457 264.293C364.465 269.669 360.281 274.033 355.111 274.041C349.942 274.048 345.745 269.696 345.737 264.32C345.729 258.944 349.913 254.58 355.083 254.572C360.252 254.565 364.45 258.917 364.457 264.293Z" fill="#FA50FF"/>
</g>
<g opacity="0.33">
<path d="M364.341 264.293C364.349 269.602 360.216 273.912 355.111 273.919C350.006 273.927 345.861 269.629 345.854 264.32C345.846 259.011 349.978 254.701 355.083 254.694C360.189 254.686 364.333 258.984 364.341 264.293Z" fill="#FA50FF"/>
</g>
<path d="M360.235 264.3C360.239 267.251 357.943 269.646 355.106 269.65C352.268 269.654 349.965 267.265 349.961 264.315C349.957 261.364 352.253 258.969 355.09 258.965C357.927 258.961 360.231 261.349 360.235 264.3Z" fill="white"/>
<path d="M360.235 264.3C360.239 267.251 357.943 269.646 355.106 269.65C352.268 269.654 349.965 267.265 349.961 264.315C349.957 261.364 352.253 258.969 355.09 258.965C357.927 258.961 360.231 261.349 360.235 264.3Z" stroke="#FA50FF" stroke-width="3.47966" stroke-miterlimit="10"/>
<g opacity="0.33">
<path d="M168.141 289.942C167.905 295.11 163.554 299.109 158.422 298.875C153.29 298.64 149.321 294.261 149.557 289.093C149.793 283.926 154.145 279.926 159.276 280.161C164.408 280.395 168.377 284.774 168.141 289.942Z" fill="#FFFF00"/>
</g>
<g opacity="0.33">
<path d="M168.133 289.941C167.897 295.104 163.55 299.1 158.422 298.866C153.295 298.631 149.33 294.256 149.565 289.093C149.801 283.93 154.149 279.934 159.276 280.168C164.403 280.402 168.369 284.777 168.133 289.941Z" fill="#FFFF00"/>
</g>
<g opacity="0.33">
<path d="M168.125 289.941C167.889 295.1 163.546 299.092 158.423 298.858C153.3 298.624 149.338 294.253 149.574 289.094C149.809 283.936 154.153 279.944 159.276 280.177C164.398 280.411 168.36 284.783 168.125 289.941Z" fill="#FFFF00"/>
</g>
<path d="M164.064 289.755C163.931 292.656 161.489 294.9 158.609 294.769C155.728 294.637 153.501 292.18 153.633 289.279C153.766 286.378 156.208 284.134 159.088 284.265C161.969 284.397 164.196 286.855 164.064 289.755Z" fill="white"/>
<path d="M164.064 289.755C163.931 292.656 161.489 294.9 158.609 294.769C155.728 294.637 153.501 292.18 153.633 289.279C153.766 286.378 156.208 284.134 159.088 284.265C161.969 284.397 164.196 286.855 164.064 289.755Z" stroke="#FFFF00" stroke-width="3.47982" stroke-miterlimit="10"/>
<g opacity="0.33">
<path d="M174.479 304.493C174.539 304.238 174.906 304.241 174.962 304.497L175.865 308.635C176.898 312.944 178.174 313.483 182.006 311.225L185.625 308.995C185.85 308.857 186.107 309.117 185.964 309.338L183.661 312.899C181.327 316.672 181.847 317.95 186.163 319.049L190.307 320.016C190.564 320.077 190.561 320.441 190.303 320.497L186.143 321.395C181.81 322.421 181.268 323.69 183.539 327.502L185.781 331.1C185.921 331.324 185.659 331.58 185.437 331.438L181.856 329.147C178.062 326.826 176.777 327.343 175.672 331.634L174.7 335.756C174.639 336.011 174.273 336.008 174.216 335.752L173.313 331.614C172.28 327.305 171.004 326.767 167.172 329.024L163.553 331.254C163.329 331.393 163.071 331.132 163.214 330.911L165.517 327.35C167.851 323.578 167.331 322.3 163.015 321.201L158.871 320.233C158.614 320.173 158.617 319.808 158.875 319.752L163.035 318.855C167.369 317.828 167.91 316.559 165.639 312.748L163.397 309.149C163.257 308.926 163.519 308.669 163.742 308.812L167.322 311.102C171.116 313.423 172.401 312.907 173.506 308.615L174.479 304.493Z" fill="#0BFF44"/>
</g>
<g opacity="0.33">
<path d="M184.396 319.841C184.349 325.377 179.798 329.828 174.231 329.781C168.663 329.734 164.188 325.208 164.234 319.671C164.281 314.135 168.832 309.684 174.399 309.731C179.967 309.778 184.442 314.304 184.396 319.841Z" fill="#0BFF44"/>
</g>
<g opacity="0.33">
<path d="M184.14 319.839C184.095 325.236 179.659 329.573 174.232 329.528C168.806 329.482 164.443 325.071 164.488 319.674C164.534 314.277 168.97 309.939 174.396 309.985C179.823 310.03 184.186 314.442 184.14 319.839Z" fill="#0BFF44"/>
</g>
<g opacity="0.33">
<path d="M183.892 319.838C183.848 325.098 179.524 329.326 174.234 329.282C168.945 329.238 164.692 324.937 164.736 319.677C164.781 314.417 169.104 310.188 174.394 310.233C179.684 310.277 183.936 314.577 183.892 319.838Z" fill="#0BFF44"/>
</g>
<path d="M179.569 319.801C179.545 322.687 177.173 325.006 174.271 324.981C171.37 324.957 169.037 322.598 169.062 319.713C169.086 316.827 171.457 314.508 174.359 314.532C177.261 314.557 179.593 316.915 179.569 319.801Z" fill="white"/>
<path d="M179.569 319.801C179.545 322.687 177.173 325.006 174.271 324.981C171.37 324.957 169.037 322.598 169.062 319.713C169.086 316.827 171.457 314.508 174.359 314.532C177.261 314.557 179.593 316.915 179.569 319.801Z" stroke="#0BFF44" stroke-width="3.48006" stroke-miterlimit="10"/>
<g opacity="0.33">
<path d="M205.775 349.251C205.489 355.502 200.226 360.339 194.019 360.055C187.813 359.772 183.012 354.475 183.298 348.225C183.583 341.975 188.846 337.138 195.053 337.421C201.26 337.705 206.06 343.001 205.775 349.251Z" fill="#FFBC00"/>
</g>
<g opacity="0.33">
<path d="M205.075 349.219C204.808 355.08 199.873 359.616 194.052 359.351C188.232 359.085 183.73 354.118 183.998 348.257C184.266 342.396 189.201 337.86 195.021 338.126C200.842 338.391 205.343 343.358 205.075 349.219Z" fill="#FFBC00"/>
</g>
<g opacity="0.33">
<path d="M204.418 349.19C204.167 354.686 199.539 358.94 194.081 358.691C188.623 358.441 184.402 353.784 184.653 348.288C184.904 342.791 189.532 338.538 194.99 338.787C200.448 339.036 204.669 343.694 204.418 349.19Z" fill="#FFBC00"/>
</g>
<path d="M199.751 348.976C199.619 351.876 197.177 354.121 194.296 353.99C191.416 353.858 189.188 351.4 189.321 348.5C189.453 345.599 191.895 343.355 194.776 343.486C197.656 343.618 199.884 346.075 199.751 348.976Z" fill="white"/>
<path d="M199.751 348.976C199.619 351.876 197.177 354.121 194.296 353.99C191.416 353.858 189.188 351.4 189.321 348.5C189.453 345.599 191.895 343.355 194.776 343.486C197.656 343.618 199.884 346.075 199.751 348.976Z" stroke="#FFBC00" stroke-width="3.47982" stroke-miterlimit="10"/>
<g opacity="0.33">
<path d="M246.335 373.042C246.025 379.838 240.302 385.098 233.553 384.79C226.804 384.481 221.585 378.722 221.895 371.926C222.206 365.13 227.928 359.871 234.677 360.179C241.426 360.487 246.645 366.246 246.335 373.042Z" fill="#00FFFF"/>
</g>
<g opacity="0.33">
<path d="M245.259 372.993C244.976 379.191 239.758 383.987 233.603 383.706C227.449 383.425 222.689 378.173 222.972 371.976C223.255 365.778 228.474 360.982 234.628 361.263C240.783 361.544 245.542 366.796 245.259 372.993Z" fill="#00FFFF"/>
</g>
<g opacity="0.33">
<path d="M244.277 372.948C244.019 378.6 239.26 382.974 233.648 382.718C228.035 382.462 223.695 377.672 223.953 372.02C224.211 366.369 228.97 361.995 234.582 362.251C240.195 362.507 244.535 367.297 244.277 372.948Z" fill="#00FFFF"/>
</g>
<path d="M239.331 372.722C239.199 375.623 236.757 377.867 233.876 377.736C230.996 377.604 228.768 375.146 228.901 372.246C229.033 369.345 231.475 367.101 234.356 367.232C237.236 367.364 239.464 369.821 239.331 372.722Z" fill="white"/>
<path d="M239.331 372.722C239.199 375.623 236.757 377.867 233.876 377.736C230.996 377.604 228.768 375.146 228.901 372.246C229.033 369.345 231.475 367.101 234.356 367.232C237.236 367.364 239.464 369.821 239.331 372.722Z" stroke="#00FFFF" stroke-width="3.47982" stroke-miterlimit="10"/>
<g opacity="0.33">
<path d="M281.134 388.85C281.173 395.571 275.781 401.052 269.091 401.091C262.401 401.129 256.946 395.712 256.907 388.991C256.868 382.269 262.259 376.789 268.95 376.75C275.64 376.711 281.095 382.128 281.134 388.85Z" fill="#FA50FF"/>
</g>
<g opacity="0.33">
<path d="M280.106 388.856C280.142 395.008 275.207 400.024 269.084 400.059C262.961 400.095 257.968 395.137 257.932 388.985C257.896 382.833 262.831 377.817 268.954 377.781C275.077 377.746 280.07 382.704 280.106 388.856Z" fill="#FA50FF"/>
</g>
<g opacity="0.33">
<path d="M279.167 388.86C279.199 394.491 274.683 399.082 269.078 399.114C263.474 399.147 258.904 394.609 258.872 388.978C258.839 383.348 263.356 378.757 268.96 378.724C274.564 378.692 279.134 383.23 279.167 388.86Z" fill="#FA50FF"/>
</g>
<path d="M274.245 388.89C274.262 391.79 271.936 394.154 269.049 394.171C266.163 394.188 263.809 391.85 263.792 388.95C263.775 386.05 266.102 383.686 268.988 383.669C271.875 383.652 274.229 385.989 274.245 388.89Z" fill="white"/>
<path d="M274.245 388.89C274.262 391.79 271.936 394.154 269.049 394.171C266.163 394.188 263.809 391.85 263.792 388.95C263.775 386.05 266.102 383.686 268.988 383.669C271.875 383.652 274.229 385.989 274.245 388.89Z" stroke="#FA50FF" stroke-width="3.47983" stroke-miterlimit="10"/>
<g opacity="0.33">
<path d="M322.575 400.172C322.611 406.281 317.711 411.261 311.631 411.296C305.551 411.332 300.594 406.409 300.558 400.3C300.523 394.192 305.423 389.212 311.503 389.176C317.582 389.141 322.54 394.064 322.575 400.172Z" fill="#FFFF00"/>
</g>
<g opacity="0.33">
<path d="M321.97 400.177C322.004 405.949 317.374 410.655 311.629 410.689C305.884 410.722 301.2 406.07 301.166 400.298C301.133 394.527 305.763 389.821 311.508 389.787C317.252 389.754 321.937 394.406 321.97 400.177Z" fill="#FFFF00"/>
</g>
<g opacity="0.33">
<path d="M321.397 400.181C321.429 405.635 317.054 410.081 311.625 410.113C306.197 410.144 301.771 405.749 301.739 400.295C301.707 394.841 306.082 390.394 311.511 390.363C316.939 390.331 321.365 394.727 321.397 400.181Z" fill="#FFFF00"/>
</g>
<path d="M316.794 400.206C316.811 403.106 314.485 405.471 311.598 405.487C308.711 405.504 306.358 403.167 306.341 400.267C306.324 397.366 308.65 395.002 311.537 394.985C314.424 394.968 316.777 397.306 316.794 400.206Z" fill="white"/>
<path d="M316.794 400.206C316.811 403.106 314.485 405.471 311.598 405.487C308.711 405.504 306.358 403.167 306.341 400.267C306.324 397.366 308.65 395.002 311.537 394.985C314.424 394.968 316.777 397.306 316.794 400.206Z" stroke="#FFFF00" stroke-width="3.47983" stroke-miterlimit="10"/>
<g opacity="0.33">
<path d="M367.559 396.8C367.591 402.25 363.218 406.694 357.793 406.726C352.368 406.757 347.945 402.364 347.913 396.914C347.881 391.463 352.253 387.019 357.678 386.988C363.104 386.956 367.527 391.349 367.559 396.8Z" fill="#0BFF44"/>
</g>
<g opacity="0.33">
<path d="M367.378 396.801C367.409 402.15 363.118 406.512 357.793 406.543C352.468 406.574 348.126 402.262 348.095 396.913C348.064 391.563 352.356 387.201 357.68 387.171C363.005 387.14 367.347 391.451 367.378 396.801Z" fill="#0BFF44"/>
</g>
<g opacity="0.33">
<path d="M367.199 396.801C367.23 402.052 363.018 406.333 357.792 406.363C352.566 406.394 348.305 402.162 348.274 396.911C348.243 391.661 352.455 387.38 357.681 387.349C362.908 387.319 367.169 391.551 367.199 396.801Z" fill="#0BFF44"/>
</g>
<path d="M362.962 396.825C362.979 399.725 360.653 402.09 357.766 402.106C354.879 402.123 352.526 399.786 352.509 396.886C352.492 393.986 354.818 391.621 357.705 391.604C360.592 391.588 362.945 393.925 362.962 396.825Z" fill="white"/>
<path d="M362.962 396.825C362.979 399.725 360.653 402.09 357.766 402.106C354.879 402.123 352.526 399.786 352.509 396.886C352.492 393.986 354.818 391.621 357.705 391.604C360.592 391.588 362.945 393.925 362.962 396.825Z" stroke="#0BFF44" stroke-width="3.47983" stroke-miterlimit="10"/>
<g opacity="0.33">
<path d="M396.848 377.602C396.878 382.755 392.744 386.957 387.615 386.987C382.485 387.017 378.303 382.863 378.273 377.71C378.243 372.557 382.377 368.355 387.506 368.325C392.636 368.295 396.818 372.449 396.848 377.602Z" fill="#FFBC00"/>
</g>
<g opacity="0.33">
<path d="M396.848 377.602C396.878 382.755 392.744 386.957 387.615 386.987C382.485 387.017 378.303 382.863 378.273 377.71C378.243 372.557 382.377 368.355 387.506 368.325C392.636 368.295 396.818 372.449 396.848 377.602Z" fill="#FFBC00"/>
</g>
<g opacity="0.33">
<path d="M396.848 377.602C396.878 382.755 392.744 386.957 387.615 386.987C382.485 387.017 378.303 382.863 378.273 377.71C378.243 372.557 382.377 368.355 387.506 368.325C392.636 368.295 396.818 372.449 396.848 377.602Z" fill="#FFBC00"/>
</g>
<path d="M392.786 377.626C392.803 380.526 390.477 382.89 387.59 382.907C384.704 382.924 382.35 380.587 382.333 377.687C382.316 374.786 384.643 372.422 387.529 372.405C390.416 372.388 392.77 374.726 392.786 377.626Z" fill="white"/>
<path d="M392.786 377.626C392.803 380.526 390.477 382.89 387.59 382.907C384.704 382.924 382.35 380.587 382.333 377.687C382.316 374.786 384.643 372.422 387.529 372.405C390.416 372.388 392.77 374.726 392.786 377.626Z" stroke="#FFBC00" stroke-width="3.47983" stroke-miterlimit="10"/>
</g>
</g>
<defs>
<linearGradient id="paint0_linear_16_930" x1="172.781" y1="257.317" x2="210.571" y2="255.441" gradientUnits="userSpaceOnUse">
<stop stop-color="#006331"/>
<stop offset="0.5" stop-color="#025029"/>
<stop offset="1" stop-color="#043D21"/>
</linearGradient>
<linearGradient id="paint1_linear_16_930" x1="79.1943" y1="378.646" x2="427.194" y2="378.646" gradientUnits="userSpaceOnUse">
<stop stop-color="#00C248"/>
<stop offset="0.17" stop-color="#00C248"/>
<stop offset="0.33" stop-color="#00C248"/>
<stop offset="0.5" stop-color="#00B146"/>
<stop offset="0.66" stop-color="#00A144"/>
<stop offset="0.77" stop-color="#00A144"/>
<stop offset="0.89" stop-color="#00A144"/>
<stop offset="0.94" stop-color="#01AB44"/>
<stop offset="0.99" stop-color="#01B444"/>
</linearGradient>
<linearGradient id="paint2_linear_16_930" x1="103.85" y1="352.031" x2="415.31" y2="352.031" gradientUnits="userSpaceOnUse">
<stop stop-color="#00C248"/>
<stop offset="0.17" stop-color="#00C248"/>
<stop offset="0.33" stop-color="#00C248"/>
<stop offset="0.5" stop-color="#00B146"/>
<stop offset="0.66" stop-color="#00A144"/>
<stop offset="0.77" stop-color="#00A144"/>
<stop offset="0.89" stop-color="#00A144"/>
<stop offset="0.94" stop-color="#01AB44"/>
<stop offset="1" stop-color="#01B444"/>
</linearGradient>
<linearGradient id="paint3_linear_16_930" x1="123.862" y1="300.009" x2="384.862" y2="300.009" gradientUnits="userSpaceOnUse">
<stop stop-color="#00C248"/>
<stop offset="0.17" stop-color="#00C248"/>
<stop offset="0.33" stop-color="#00C248"/>
<stop offset="0.5" stop-color="#00B146"/>
<stop offset="0.66" stop-color="#00A144"/>
<stop offset="0.77" stop-color="#00A144"/>
<stop offset="0.89" stop-color="#00A144"/>
<stop offset="0.94" stop-color="#01AB44"/>
<stop offset="1" stop-color="#01B444"/>
</linearGradient>
<linearGradient id="paint4_linear_16_930" x1="148.313" y1="256.848" x2="367.553" y2="256.848" gradientUnits="userSpaceOnUse">
<stop stop-color="#00C248"/>
<stop offset="0.17" stop-color="#00C248"/>
<stop offset="0.33" stop-color="#00C248"/>
<stop offset="0.5" stop-color="#00B146"/>
<stop offset="0.66" stop-color="#00A144"/>
<stop offset="0.77" stop-color="#00A144"/>
<stop offset="0.89" stop-color="#00A144"/>
<stop offset="0.94" stop-color="#01AB44"/>
<stop offset="1" stop-color="#01B444"/>
</linearGradient>
<linearGradient id="paint5_linear_16_930" x1="168.457" y1="306.159" x2="342.585" y2="218.636" gradientUnits="userSpaceOnUse">
<stop stop-color="#00C248"/>
<stop offset="0.17" stop-color="#00C248"/>
<stop offset="0.33" stop-color="#00C248"/>
<stop offset="0.5" stop-color="#00B146"/>
<stop offset="0.66" stop-color="#00A144"/>
<stop offset="0.77" stop-color="#00A144"/>
<stop offset="0.89" stop-color="#00A144"/>
<stop offset="0.94" stop-color="#01AB44"/>
<stop offset="1" stop-color="#01B444"/>
</linearGradient>
<linearGradient id="paint6_linear_16_930" x1="178.473" y1="177.872" x2="335.068" y2="176.642" gradientUnits="userSpaceOnUse">
<stop stop-color="#00C248"/>
<stop offset="0.17" stop-color="#00C248"/>
<stop offset="0.33" stop-color="#00C248"/>
<stop offset="0.49" stop-color="#00B146"/>
<stop offset="0.66" stop-color="#00A144"/>
<stop offset="0.77" stop-color="#00A144"/>
<stop offset="0.89" stop-color="#00A144"/>
<stop offset="0.94" stop-color="#01AB44"/>
<stop offset="1" stop-color="#01B444"/>
</linearGradient>
<linearGradient id="paint7_linear_16_930" x1="210.19" y1="131.093" x2="305.881" y2="132.394" gradientUnits="userSpaceOnUse">
<stop stop-color="#00C248"/>
<stop offset="0.17" stop-color="#00C248"/>
<stop offset="0.33" stop-color="#00C248"/>
<stop offset="0.5" stop-color="#00B146"/>
<stop offset="0.66" stop-color="#00A144"/>
<stop offset="0.76" stop-color="#00A144"/>
<stop offset="0.87" stop-color="#00A144"/>
<stop offset="0.93" stop-color="#01AB44"/>
<stop offset="1" stop-color="#01B444"/>
</linearGradient>
<clipPath id="clip0_16_930">
<rect width="512" height="512" fill="white"/>
</clipPath>
</defs>
</svg>
