<svg xmlns="http://www.w3.org/2000/svg" viewBox="0 0 96 96" fill="none">
  <rect x="14" y="28" width="68" height="52" rx="10" fill="#FF9EB3" stroke="#F2416F" stroke-width="4" />
  <path d="M14 44h68" stroke="#F2416F" stroke-width="4" stroke-linecap="round"/>
  <path d="M48 24v64" stroke="#F2416F" stroke-width="6" stroke-linecap="round"/>
  <rect x="40" y="14" width="16" height="18" rx="6" fill="#FFD166" stroke="#F7A900" stroke-width="4" />
  <path d="M38 22c-6 0-10 5-10 9 0 5 4 7 9 6 3-.6 8-3 11-6-2-5-6-9-10-9z" fill="#F2416F"/>
  <path d="M58 22c6 0 10 5 10 9 0 5-4 7-9 6-3-.6-8-3-11-6 2-5 6-9 10-9z" fill="#F2416F"/>
</svg>
