<svg width="512" height="512" viewBox="0 0 512 512" fill="none" xmlns="http://www.w3.org/2000/svg">
<g clip-path="url(#clip0_19_655)">
<mask id="mask0_19_655" style="mask-type:luminance" maskUnits="userSpaceOnUse" x="0" y="0" width="512" height="512">
<path d="M512 0H0V512H512V0Z" fill="white"/>
</mask>
<g mask="url(#mask0_19_655)">
<path d="M321.998 294.001C336.998 283.001 383.998 324.001 406.998 352.001C428.998 379.001 436.998 407.001 417.998 418.001C401.998 428.001 370.998 409.001 355.998 380.001C344.998 352.001 314.998 299.001 321.998 294.001Z" fill="url(#paint0_linear_19_655)"/>
<path d="M417.998 418.001C427.998 396.001 409.998 368.001 378.998 336.001C344.998 301.001 321.998 294.001 321.998 294.001C336.998 283.001 383.998 324.001 406.998 352.001C428.998 379.001 436.998 407.001 417.998 418.001Z" fill="url(#paint1_linear_19_655)" fill-opacity="0.3"/>
<path d="M417.998 418.002C400.998 427.002 368.998 418.002 339.998 347.002C306.998 288.002 323.998 277.002 357.998 309.002C350.998 309.002 343.998 336.002 371.998 372.002C386.998 391.002 417.998 413.002 428.998 390.002C429.998 389.002 433.998 409.002 417.998 418.002Z" fill="url(#paint2_linear_19_655)" fill-opacity="0.6"/>
<path d="M329.998 294.002C329.998 294.002 335.998 317.002 349.998 343.002C363.998 369.002 386.998 401.002 417.998 418.002" stroke="#55300E" stroke-opacity="0.2" stroke-width="5" stroke-linecap="round" stroke-linejoin="round"/>
<path d="M321.999 294.001C336.999 283.001 383.999 324.001 406.999 352.001C428.999 379.001 436.999 407.001 417.999 418.001C401.999 428.001 370.999 409.001 355.999 380.001C346.999 362.001 338.999 346.001 333.999 333.001C327.999 318.001 314.999 299.001 321.999 294.001Z" stroke="#855321" stroke-width="8" stroke-linecap="round" stroke-linejoin="round"/>
<path d="M417.998 418.001C401.998 428.001 369.998 410.001 355.998 380.001C346.998 360.001 328.998 322.001 322.998 310.001C312.998 291.001 328.998 286.001 354.998 303.001" stroke="#55300E" stroke-width="8" stroke-linecap="round" stroke-linejoin="round"/>
<path d="M315.452 99.6915C315.452 99.6915 333.452 68.6915 368.452 79.6915C409.452 92.6915 412.452 147.691 374.452 164.691C363.452 168.691 319.452 149.691 319.452 149.691C319.452 149.691 308.452 113.691 315.452 99.6915Z" fill="url(#paint3_linear_19_655)"/>
<path d="M397.452 103.692C356.452 58.6923 327.452 114.692 313.452 124.692C303.452 85.6923 367.452 51.6923 397.452 103.692Z" fill="url(#paint4_linear_19_655)"/>
<path d="M315.452 99.6932C315.452 99.6932 333.452 69.6932 368.452 79.6932C403.452 89.6932 408.452 128.693 392.452 150.693C387.452 157.693 380.452 162.693 374.452 164.693C363.452 168.693 319.452 149.693 319.452 149.693C319.452 149.693 308.452 113.693 315.452 99.6932Z" stroke="#855321" stroke-width="8" stroke-linecap="round" stroke-linejoin="round"/>
<path d="M332.452 109.693C332.452 109.693 342.452 92.6927 362.452 98.6927C379.452 103.693 384.452 125.693 376.452 137.693C369.452 147.693 356.452 148.693 356.452 148.693C356.452 148.693 324.452 130.693 332.452 109.693Z" fill="url(#paint5_linear_19_655)"/>
<path d="M332.452 109.693C332.452 109.693 342.452 92.6927 362.452 98.6927C379.452 103.693 384.452 125.693 376.452 137.693C369.452 147.693 356.452 148.693 356.452 148.693C356.452 148.693 324.452 130.693 332.452 109.693Z" stroke="#81571E" stroke-width="8" stroke-linecap="round" stroke-linejoin="round"/>
<path d="M189.57 270.002C182.29 283.002 158.63 330.002 154.08 385.002C149.53 442.002 167.73 472.002 252.36 473.002C336.08 474.002 357.92 444.002 354.28 388.002C350.64 332.002 332.44 293.002 324.25 273.002C309.69 226.002 208.68 219.002 189.57 270.002Z" fill="url(#paint6_radial_19_655)"/>
<path d="M251.999 473.002C166.999 472.002 147.999 442.002 152.999 385.002C154.999 361.002 157.999 348.002 169.999 327.002C152.999 390.002 193.999 389.002 210.999 421.002C224.999 447.002 276.999 459.002 301.999 426.002C316.999 406.002 352.999 404.002 348.999 351.002C350.999 363.002 354.999 376.002 354.999 388.002C357.999 444.002 335.999 474.002 251.999 473.002Z" fill="url(#paint7_linear_19_655)" fill-opacity="0.6"/>
<path d="M169.999 327.002C169.999 327.002 152.999 388.002 174.999 450.002" stroke="#563211" stroke-opacity="0.3" stroke-width="5" stroke-linecap="round" stroke-linejoin="round"/>
<path d="M266.118 304.001C232.998 301.001 204.478 327.001 201.718 375.001C198.958 423.001 227.478 445.001 257.838 446.001C290.038 447.001 315.798 421.001 315.798 377.001C315.798 335.001 293.718 306.001 266.118 304.001Z" fill="url(#paint8_radial_19_655)"/>
<path d="M266.118 304.001C232.998 301.001 204.478 327.001 201.718 375.001C198.958 423.001 227.478 445.001 257.838 446.001C290.038 447.001 315.798 421.001 315.798 377.001C315.798 335.001 293.718 306.001 266.118 304.001Z" stroke="#96682C" stroke-width="7.67333"/>
<path d="M204.998 406.002C212.998 432.002 233.998 445.002 256.998 446.002C277.998 447.002 297.998 435.002 306.998 415.002" stroke="#765222" stroke-width="8" stroke-linecap="round" stroke-linejoin="round"/>
<path d="M252.998 464.002C250.998 469.002 248.998 473.002 246.998 473.002" stroke="#563211" stroke-opacity="0.3" stroke-width="5" stroke-linecap="round" stroke-linejoin="round"/>
<path d="M257.998 445.002C257.998 448.002 256.998 451.002 255.998 454.002" stroke="#563211" stroke-opacity="0.3" stroke-width="5" stroke-linecap="round" stroke-linejoin="round"/>
<path d="M260.998 424.002C260.998 427.002 260.998 431.002 259.998 434.002" stroke="#563211" stroke-opacity="0.3" stroke-width="5" stroke-linecap="round" stroke-linejoin="round"/>
<path d="M264.998 380.002C264.998 383.002 263.998 387.002 263.998 390.002" stroke="#563211" stroke-opacity="0.3" stroke-width="5" stroke-linecap="round" stroke-linejoin="round"/>
<path d="M262.998 403.002C262.998 406.002 261.998 409.002 261.998 412.002" stroke="#563211" stroke-opacity="0.3" stroke-width="5" stroke-linecap="round" stroke-linejoin="round"/>
<path d="M264.998 361.002C264.998 364.002 264.998 367.002 264.998 370.002" stroke="#563211" stroke-opacity="0.3" stroke-width="5" stroke-linecap="round" stroke-linejoin="round"/>
<path d="M264.998 342.002C264.998 345.002 264.998 347.002 264.998 350.002" stroke="#563211" stroke-opacity="0.3" stroke-width="5" stroke-linecap="round" stroke-linejoin="round"/>
<path d="M263.998 323.002C263.998 325.002 264.998 329.002 264.998 331.002" stroke="#563211" stroke-opacity="0.3" stroke-width="5" stroke-linecap="round" stroke-linejoin="round"/>
<path d="M256.998 288.002C258.998 290.002 262.998 311.002 262.998 313.002" stroke="#563211" stroke-opacity="0.3" stroke-width="5" stroke-linecap="round" stroke-linejoin="round"/>
<path d="M190.399 269.002C190.399 272.002 155.599 330.002 152.119 385.002C148.639 442.002 357.439 443.002 353.959 387.002C350.479 331.002 326.119 274.002 324.379 272.002C303.499 222.002 209.539 221.002 190.399 269.002Z" fill="url(#paint9_radial_19_655)" fill-opacity="0.6"/>
<path d="M189 270.002C186 276.002 157 330.002 153 385.002C149 442.002 167 472.002 252 473.002C336 474.002 358 444.002 355 388.002C352 332.002 325 275.002 324 273.002C303 221.002 207 222.002 189 270.002Z" stroke="#55300E" stroke-width="8" stroke-linecap="round" stroke-linejoin="round"/>
<path d="M168 450.002C182 464.002 209 473.002 252 473.002C298 474.002 325 465.002 340 448.002" stroke="#402108" stroke-width="8" stroke-linecap="round" stroke-linejoin="round"/>
<path d="M187.999 278.002C172.999 265.002 116.999 296.002 82.9989 321.002C53.9989 342.002 42.9989 371.002 60.9989 385.002C76.9989 397.002 112.999 386.002 144.999 356.002C159.999 342.002 201.999 290.002 187.999 278.002Z" fill="url(#paint10_linear_19_655)"/>
<path d="M180 311.001C173 323.001 115 408.001 61 385.001C61 385.001 112 369.001 146 334.001C184 295.001 180 269.001 148 283.001C177 268.001 207 268.001 180 311.001Z" fill="url(#paint11_linear_19_655)" fill-opacity="0.6"/>
<path d="M190 288.002C184 268.002 95.9996 323.002 74.9996 343.002C54.9996 363.002 61.9996 386.002 61.9996 386.002C40.9996 367.002 55.9996 345.002 83.9996 322.002C120 293.002 192 254.002 190 288.002Z" fill="url(#paint12_linear_19_655)" fill-opacity="0.3"/>
<path d="M192 284.002C186 299.002 162 326.002 134 348.002C111 366.002 83 383.002 61 385.002" stroke="#55300E" stroke-opacity="0.2" stroke-width="5" stroke-linecap="round" stroke-linejoin="round"/>
<path d="M187.999 278C171.999 265 116.999 296 82.9989 321C53.9989 342 42.9989 371 60.9989 385C76.9989 397 112.999 386 144.999 356C159.999 342 201.999 290 187.999 278Z" stroke="#855321" stroke-width="8" stroke-linecap="round" stroke-linejoin="round"/>
<path d="M65.998 388C82.998 393 106.998 386 128.998 369C149.998 353 171.998 327 186.998 298C196.998 279 184.998 272 169.998 275" stroke="#55300E" stroke-width="8" stroke-linecap="round" stroke-linejoin="round"/>
<path d="M287.999 91.0014C225.999 83.0014 163.999 143.001 157.999 204.001C150.999 267.001 201.999 296.001 260.999 302.001C321.999 309.001 378.999 289.001 385.999 230.001C392.999 171.001 347.999 99.0014 287.999 91.0014Z" fill="url(#paint13_linear_19_655)"/>
<path d="M287.999 91.0014C225.999 83.0014 163.999 143.001 157.999 204.001C150.999 267.001 201.999 296.001 260.999 302.001C321.999 309.001 378.999 289.001 385.999 230.001C392.999 171.001 347.999 99.0014 287.999 91.0014Z" stroke="#855321" stroke-width="8" stroke-linecap="round" stroke-linejoin="round"/>
<path d="M286.999 103.001C233.999 97.0012 180.999 142.001 175.999 187.001C169.999 234.001 212.999 256.001 262.999 261.001C314.999 266.001 363.999 250.001 369.999 206.001C375.999 162.001 337.999 109.001 286.999 103.001Z" fill="url(#paint14_linear_19_655)"/>
<path d="M349.999 158.001C348.999 180.001 313.999 196.001 273.999 194.001C233.999 192.001 203.999 170.001 204.999 148.001C205.999 126.001 241.999 100.001 281.999 102.001C321.999 104.001 350.999 136.001 349.999 158.001Z" fill="url(#paint15_linear_19_655)" fill-opacity="0.4"/>
<g opacity="0.3">
<path d="M318.998 202.002C318.998 206.002 318.998 211.002 318.998 215.002" stroke="#855321" stroke-width="5" stroke-linecap="round" stroke-linejoin="round"/>
<path d="M320.998 180.002C320.998 183.002 318.998 188.002 318.998 191.002" stroke="#855321" stroke-width="5" stroke-linecap="round" stroke-linejoin="round"/>
<path d="M325.998 158.002C324.998 161.002 323.998 166.002 322.998 169.002" stroke="#855321" stroke-width="5" stroke-linecap="round" stroke-linejoin="round"/>
<path d="M333.998 139.002C332.998 141.002 330.998 145.002 329.998 148.002" stroke="#855321" stroke-width="5" stroke-linecap="round" stroke-linejoin="round"/>
<path d="M346.998 120.002C346.998 120.002 342.998 124.002 338.998 130.002" stroke="#855321" stroke-width="5" stroke-linecap="round" stroke-linejoin="round"/>
<path d="M233.998 193.002C233.998 196.002 232.998 201.002 232.998 204.002" stroke="#855321" stroke-width="5" stroke-linecap="round" stroke-linejoin="round"/>
<path d="M234.998 173.002C234.998 176.002 234.998 180.002 234.998 184.002" stroke="#855321" stroke-width="5" stroke-linecap="round" stroke-linejoin="round"/>
<path d="M233.998 148.002C233.998 151.002 234.998 156.002 234.998 160.002" stroke="#855321" stroke-width="5" stroke-linecap="round" stroke-linejoin="round"/>
<path d="M229.998 125.002C230.998 128.002 231.998 133.002 231.998 137.002" stroke="#855321" stroke-width="5" stroke-linecap="round" stroke-linejoin="round"/>
<path d="M219.998 108.002C219.998 108.002 222.998 111.002 225.998 116.002" stroke="#855321" stroke-width="5" stroke-linecap="round" stroke-linejoin="round"/>
</g>
<path d="M159.998 238.002C170.998 278.002 213.998 297.002 260.998 302.002C308.998 307.002 353.998 296.002 373.998 263.002" stroke="#55300E" stroke-width="8" stroke-linecap="round" stroke-linejoin="round"/>
<g opacity="0.6">
<path d="M152.85 282.341C167.7 276.401 173.64 277.391 175.62 279.371C181.56 298.181 166.71 317.981 138 318.971C121.17 319.961 112.26 312.041 111.27 305.111C122.16 297.191 146.91 284.321 152.85 282.341Z" fill="url(#paint16_radial_19_655)"/>
</g>
<path d="M330.213 221.908C330.213 229.908 323.213 236.908 315.213 236.908C307.213 236.908 300.213 229.908 300.213 221.908C300.213 213.908 307.213 206.908 315.213 206.908C323.213 206.908 330.213 213.908 330.213 221.908Z" fill="#10141C"/>
<path d="M315.214 224.908C312.214 224.908 307.214 221.908 306.214 223.908C305.214 225.908 309.214 232.908 315.214 232.908C321.214 232.908 326.214 226.908 324.214 224.908C322.214 222.908 318.214 224.908 315.214 224.908Z" fill="url(#paint17_linear_19_655)"/>
<path d="M317.213 210.908C312.213 210.908 311.213 216.908 316.213 216.908C322.213 217.908 322.213 210.908 317.213 210.908Z" fill="url(#paint18_linear_19_655)"/>
<path d="M247.213 212.908C247.213 220.908 240.213 227.908 232.213 227.908C224.213 227.908 216.213 220.908 216.213 212.908C216.213 204.908 224.213 196.908 232.213 196.908C240.213 196.908 247.213 204.908 247.213 212.908Z" fill="#10141C"/>
<path d="M232.214 214.908C229.214 214.908 224.214 211.908 223.214 213.908C222.214 215.908 226.214 223.908 232.214 223.908C238.214 223.908 243.214 216.908 241.214 214.908C239.214 212.908 235.214 214.908 232.214 214.908Z" fill="url(#paint19_linear_19_655)"/>
<path d="M234.213 200.908C229.213 200.908 228.213 207.908 233.213 207.908C239.213 208.908 239.213 200.908 234.213 200.908Z" fill="url(#paint20_linear_19_655)"/>
<path d="M271.213 218.907C239.213 215.907 206.213 243.907 216.213 269.907C227.213 297.907 303.213 301.907 318.213 282.907C334.213 261.907 312.213 222.907 271.213 218.907Z" fill="url(#paint21_linear_19_655)"/>
<path d="M271.213 218.907C239.213 215.907 206.213 243.907 216.213 269.907C227.213 297.907 303.213 301.907 318.213 282.907C334.213 261.907 312.213 222.907 271.213 218.907Z" stroke="#8D602F" stroke-width="8"/>
<path d="M320.213 249.907C313.213 234.907 294.213 220.907 271.213 218.907C251.213 216.907 230.213 226.907 220.213 240.907" stroke="#BC9452" stroke-opacity="0.5" stroke-width="8" stroke-linecap="round" stroke-linejoin="round"/>
<path d="M238.213 271.906C243.213 279.906 255.213 282.906 262.213 277.906C266.213 274.906 269.213 266.906 269.213 256.906" stroke="#673B16" stroke-width="6" stroke-linecap="round" stroke-linejoin="round"/>
<path d="M297.214 277.906C293.214 283.906 264.214 287.906 268.214 263.906" stroke="#673B16" stroke-width="6" stroke-linecap="round" stroke-linejoin="round"/>
<path d="M271.213 227.906C262.213 227.906 254.213 228.906 254.213 234.906C254.213 240.906 265.213 253.906 269.213 253.906C274.213 254.906 288.213 241.906 288.213 236.906C289.213 231.906 279.213 228.906 271.213 227.906Z" fill="url(#paint22_linear_19_655)"/>
<path d="M271.213 227.906C262.213 227.906 254.213 228.906 254.213 234.906C254.213 240.906 265.213 253.906 269.213 253.906C274.213 254.906 288.213 241.906 288.213 236.906C289.213 231.906 279.213 228.906 271.213 227.906Z" stroke="#10141C" stroke-width="8"/>
<path d="M282.213 239.906C287.213 235.906 279.213 232.906 271.213 231.906C257.213 231.906 257.213 235.906 258.213 237.906C258.213 235.906 264.213 235.906 271.213 235.906C278.213 236.906 282.213 238.906 282.213 239.906Z" fill="url(#paint23_linear_19_655)" fill-opacity="0.6"/>
<path d="M160.999 405C150.999 407 144.999 409 143.999 408C142.999 408 124.999 374 97.9992 374C67.9992 374 38.9992 404 46.9992 436C53.9992 465 85.9992 490 113.999 488C146.999 486 182.999 465 191.999 456C205.999 444 194.999 401 160.999 405Z" fill="url(#paint24_linear_19_655)"/>
<path d="M193 456C184 465 147 486 115 488C90 489 62 470 52 445C126 342 129 444 157 441C183 438 188 427 183 410C197 419 202 447 193 456Z" fill="url(#paint25_linear_19_655)" fill-opacity="0.6"/>
<path d="M161 405C151 407 145 409 144 408C141 404 125 374 98.0004 374C68.0004 374 39.0004 404 47.0004 436C54.0004 465 86.0004 490 114 488C147 486 183 465 192 456C206 442 194 400 161 405Z" stroke="#845221" stroke-width="8" stroke-linecap="round" stroke-linejoin="round"/>
<path d="M50.9997 446C61.9997 470 88.9997 489 114 488C148 486 182 464 192 456C208 444 194 393 149 408" stroke="#5C310A" stroke-opacity="0.7" stroke-width="8" stroke-linecap="round" stroke-linejoin="round"/>
<path d="M51 446C62 470 89 489 114 488C147 486 183 465 192 456" stroke="#55300E" stroke-width="8" stroke-linecap="round" stroke-linejoin="round"/>
<path d="M144 408C144 408 148 413 150 426" stroke="#855321" stroke-opacity="0.6" stroke-width="8" stroke-linecap="round" stroke-linejoin="round"/>
<path d="M135.054 416.693C116.514 384.763 87.6742 388.883 69.1342 401.243C51.6242 413.603 48.5342 441.413 60.8942 458.923C81.4942 488.793 114.454 489.823 129.904 476.433C144.324 463.043 144.324 433.173 135.054 416.693Z" fill="#9A6E3A"/>
<path d="M135.054 416.693C116.514 384.763 87.6742 388.883 69.1342 401.243C51.6242 413.603 48.5342 441.413 60.8942 458.923C81.4942 488.793 114.454 489.823 129.904 476.433C144.324 463.043 144.324 433.173 135.054 416.693Z" stroke="#683F1B" stroke-width="8.24" stroke-linecap="round" stroke-linejoin="round"/>
<path d="M63.9847 454.803C73.2547 457.893 83.5547 449.653 77.3747 440.383C74.2847 434.203 59.8647 430.083 54.7147 438.323C51.6247 444.503 57.8047 452.743 63.9847 454.803Z" fill="#1B1405"/>
<path d="M63.9856 447.593C46.4756 438.323 65.0156 424.933 77.3756 439.353C81.4956 446.563 72.2256 451.713 63.9856 447.593Z" fill="url(#paint26_radial_19_655)"/>
<path d="M87.6744 410.514C80.4644 403.304 67.0744 406.394 68.1044 418.754C68.1044 426.994 79.4344 438.324 88.7044 432.144C94.8844 428.024 92.8244 415.664 87.6744 410.514Z" fill="#1B1405"/>
<path d="M92.8242 421.844C92.8242 433.174 72.2242 430.084 70.1642 415.664C68.1042 402.274 91.7942 404.334 92.8242 421.844Z" fill="url(#paint27_radial_19_655)"/>
<path d="M117.545 408.454C114.455 400.214 101.065 398.154 97.9752 409.484C95.9152 416.694 102.095 428.024 111.365 426.994C118.575 425.964 119.605 414.634 117.545 408.454Z" fill="#1B1405"/>
<path d="M118.574 413.604C118.574 425.964 100.034 424.934 101.064 406.394C101.064 398.154 117.544 400.214 118.574 413.604Z" fill="url(#paint28_radial_19_655)"/>
<path d="M128.875 450.683C128.875 440.383 111.365 432.143 94.885 440.383C77.375 449.653 77.375 473.343 88.705 476.433C96.945 478.493 103.125 472.313 109.305 467.163C115.485 462.013 128.875 460.983 128.875 450.683Z" fill="#1B1405"/>
<path d="M128.247 452.743C126.713 460.983 92.9493 456.863 94.484 446.563C96.0187 437.293 108.296 437.293 111.366 437.293C120.574 438.323 129.782 444.503 128.247 452.743Z" fill="url(#paint29_radial_19_655)"/>
<path d="M349.998 409C359.998 411 366.998 413 367.998 412C368.998 412 383.998 378 410.998 378C440.998 378 469.998 408 461.998 440C454.998 469 422.998 492 394.998 490C366.998 488 330.998 469 321.998 460C307.998 448 315.998 405 349.998 409Z" fill="url(#paint30_linear_19_655)"/>
<path d="M320.999 460.001C329.999 469.001 365.999 488.001 393.999 490.001C418.999 492.001 446.999 474.001 456.999 449.001C382.999 346.001 379.999 450.001 351.999 445.001C330.999 442.001 322.999 431.001 327.999 414.001C313.999 423.001 311.999 451.001 320.999 460.001Z" fill="url(#paint31_linear_19_655)" fill-opacity="0.6"/>
<path d="M349.998 409C359.998 411 366.998 413 367.998 412C368.998 412 383.998 378 410.998 378C440.998 378 469.998 408 461.998 440C454.998 469 422.998 492 394.998 490C366.998 488 330.998 469 321.998 460C307.998 446 316.998 404 349.998 409Z" stroke="#855321" stroke-width="8" stroke-linecap="round" stroke-linejoin="round"/>
<path d="M457.998 449.999C446.998 473.999 419.998 491.999 394.998 489.999C366.998 487.999 331.998 467.999 321.998 459.999C305.998 447.999 318.998 399.999 353.998 409.999" stroke="#5D320B" stroke-opacity="0.7" stroke-width="8" stroke-linecap="round" stroke-linejoin="round"/>
<path d="M457.998 450C446.998 474 419.998 492 394.998 490C366.998 488 330.998 469 321.998 460" stroke="#542F0D" stroke-width="8" stroke-linecap="round" stroke-linejoin="round"/>
<path d="M367.998 412C367.998 412 363.998 417 361.998 430" stroke="#855321" stroke-opacity="0.6" stroke-width="8" stroke-linecap="round" stroke-linejoin="round"/>
<path d="M382.354 420.458C399.354 389.458 427.354 394.458 443.354 405.458C460.354 417.458 463.354 444.458 451.354 461.458C431.354 488.458 401.354 489.458 386.354 476.458C372.354 463.458 375.354 432.458 382.354 420.458Z" fill="#9A6E3A"/>
<path d="M382.354 420.458C399.354 389.458 427.354 394.458 443.354 405.458C460.354 417.458 463.354 444.458 451.354 461.458C431.354 488.458 401.354 489.458 386.354 476.458C372.354 463.458 375.354 432.458 382.354 420.458Z" stroke="#68401B" stroke-width="8" stroke-linecap="round" stroke-linejoin="round"/>
<path d="M448.354 457.459C439.354 460.459 429.354 452.459 435.354 443.459C438.354 437.459 452.354 433.459 457.354 441.459C460.354 447.459 454.354 455.459 448.354 457.459Z" fill="#1B1405"/>
<path d="M448.355 450.459C465.355 441.459 447.355 428.459 435.355 442.459C431.355 449.459 440.355 454.459 448.355 450.459Z" fill="url(#paint32_radial_19_655)"/>
<path d="M425.353 414.459C432.353 407.459 445.353 410.459 444.353 422.459C444.353 430.459 433.353 441.459 424.353 435.459C418.353 431.459 420.353 419.459 425.353 414.459Z" fill="#1B1405"/>
<path d="M420.354 425.46C420.354 436.46 440.354 433.46 442.354 419.46C444.354 406.46 421.354 408.46 420.354 425.46Z" fill="url(#paint33_radial_19_655)"/>
<path d="M396.353 412.458C399.353 404.458 412.353 402.458 415.353 413.458C417.353 420.458 411.353 431.458 402.353 430.458C395.353 429.458 394.353 418.458 396.353 412.458Z" fill="#1B1405"/>
<path d="M395.354 417.459C395.354 429.459 413.354 428.459 412.354 410.459C412.354 402.459 396.354 404.459 395.354 417.459Z" fill="url(#paint34_radial_19_655)"/>
<path d="M385.354 453.459C385.354 443.459 402.354 435.459 418.354 443.459C435.354 452.459 435.354 475.459 424.354 478.459C416.354 480.459 410.354 474.459 404.354 469.459C398.354 464.459 385.354 463.459 385.354 453.459Z" fill="#1B1405"/>
<path d="M385.964 455.459C387.454 463.459 420.234 459.459 418.744 449.459C417.254 440.459 405.334 440.459 402.354 440.459C393.414 441.459 384.474 447.459 385.964 455.459Z" fill="url(#paint35_radial_19_655)"/>
<path d="M285.998 73.4509C285.998 73.4509 228.998 17.0209 159.998 47.7109C105.998 71.4709 110.998 149.681 137.998 173.441C129.998 166.511 302.998 58.6009 285.998 73.4509Z" fill="url(#paint36_linear_19_655)"/>
<g opacity="0.4">
<path d="M234.998 43.3047C261.998 51.2643 280.998 66.5202 286.998 71.8266C289.998 85.0926 247.998 116.268 233.998 120.247C189.998 120.247 145.998 85.0926 158.998 47.9478C165.998 41.9781 197.998 32.0286 234.998 43.3047Z" fill="url(#paint37_radial_19_655)"/>
</g>
<path d="M285.998 73.4509C285.998 73.4509 227.998 16.0309 158.998 46.7209C104.998 70.4809 109.998 148.691 136.998 172.451C128.998 165.521 302.998 58.6009 285.998 73.4509Z" stroke="url(#paint38_linear_19_655)" stroke-width="7.9599" stroke-linecap="round" stroke-linejoin="round"/>
<g opacity="0.25">
<path d="M327 115.031C325 116.021 316 116.021 316 116.021C316 116.021 309 123.941 295 126.911C295 123.941 292 118.991 292 118.991C292 118.991 277 133.841 261 137.801C261 134.831 257 127.901 257 127.901C257 127.901 244 150.671 221 160.571C221 157.601 217 152.651 217 152.651C210 161.561 203 174.431 190 183.341C189 180.371 185 178.391 185 178.391C185 178.391 166 207.101 162 210.071C160 210.071 160 205.121 159 201.161C159 201.161 159 201.161 159 200.171V198.191" stroke="#55300E" stroke-width="9.94987" stroke-linecap="round" stroke-linejoin="round"/>
</g>
<path d="M293 74.4415C293 74.4415 308 72.4615 318 82.3615C307 91.2715 322 99.1915 322 99.1915C322 99.1915 333 108.101 329 112.061C325 114.041 313 113.051 313 113.051C313 113.051 301 118.991 290 120.971C290 117.011 287 113.051 287 113.051C287 113.051 270 126.911 256 130.871C256 127.901 253 121.961 253 121.961C253 121.961 239 143.741 216 153.641C216 150.671 213 144.731 213 144.731C206 153.641 198 168.491 185 177.401C184 174.431 180 171.461 180 171.461C180 171.461 161 199.181 158 201.161C155 201.161 155 198.191 154 192.251C152 193.241 147 199.181 145 203.141C142 193.241 144 183.341 145 182.351C142 184.331 138 188.291 135 192.251C129 178.391 135 169.481 137 162.551C137 162.551 135 163.541 130 163.541C133 154.631 139 148.691 142 146.711C145 144.731 148 143.741 148 143.741C148 143.741 156 121.961 171 114.041C172 119.981 174 122.951 174 122.951C174 122.951 178 103.151 203 89.2915C203 93.2515 207 96.2215 207 96.2215C207 96.2215 220 73.4515 252 69.4915C250 73.4515 249 78.4015 249 78.4015C249 78.4015 269 66.5215 296 66.5215C293 70.4815 293 74.4415 293 74.4415Z" fill="url(#paint39_linear_19_655)"/>
<g opacity="0.25">
<path d="M314.001 92.2617C312.001 105.132 297.001 96.2217 295.001 95.2317C292.001 98.2017 289.001 101.172 283.001 104.142C276.001 101.172 269.001 97.2117 269.001 97.2117C269.001 97.2117 265.001 105.132 247.001 112.062C244.001 110.082 236.001 106.122 236.001 106.122C236.001 106.122 229.001 124.932 213.001 132.852C211.001 129.882 206.001 127.902 206.001 127.902C203.001 137.802 194.001 148.692 181.001 157.602C180.001 154.632 175.001 150.672 175.001 150.672C175.001 150.672 169.001 165.522 162.001 165.522C157.001 165.522 148.001 156.612 152.001 140.772C134.001 146.712 133.001 187.302 135.001 192.252C138.001 188.292 142.001 183.342 145.001 181.362C144.001 182.352 142.001 193.242 145.001 203.142C147.001 199.182 152.001 193.242 154.001 192.252C154.001 197.202 155.001 201.162 158.001 201.162C159.001 201.162 180.001 171.462 180.001 171.462C180.001 171.462 184.001 174.432 185.001 177.402C198.001 168.492 206.001 154.632 213.001 145.722C213.001 145.722 216.001 150.672 216.001 153.642C239.001 143.742 252.001 119.982 252.001 119.982C252.001 119.982 257.001 126.912 256.001 130.872C271.001 126.912 287.001 113.052 287.001 113.052C287.001 113.052 288.001 118.002 287.001 120.972C294.001 119.982 313.001 113.052 313.001 113.052C313.001 113.052 323.001 118.002 329.001 112.062C334.001 104.142 316.001 95.2317 314.001 92.2617Z" fill="url(#paint40_linear_19_655)"/>
</g>
<path d="M293 74.4415C293 74.4415 308 72.4615 318 82.3615C307 91.2715 322 99.1915 322 99.1915C322 99.1915 333 108.101 329 112.061C325 114.041 313 113.051 313 113.051C313 113.051 301 118.991 290 120.971C290 117.011 287 113.051 287 113.051C287 113.051 270 126.911 256 130.871C256 127.901 253 121.961 253 121.961C253 121.961 239 143.741 216 153.641C216 150.671 213 144.731 213 144.731C206 153.641 198 168.491 185 177.401C184 174.431 180 171.461 180 171.461C180 171.461 161 199.181 158 201.161C155 201.161 155 198.191 154 192.251C152 193.241 147 199.181 145 203.141C142 193.241 144 183.341 145 182.351C142 184.331 138 188.291 135 192.251C129 178.391 135 169.481 137 162.551C137 162.551 135 163.541 130 163.541C133 154.631 139 148.691 142 146.711C145 144.731 148 143.741 148 143.741C148 143.741 156 121.961 171 114.041C172 119.981 174 122.951 174 122.951C174 122.951 178 103.151 203 89.2915C203 93.2515 207 96.2215 207 96.2215C207 96.2215 220 73.4515 252 69.4915C250 73.4515 249 78.4015 249 78.4015C249 78.4015 269 66.5215 296 66.5215C293 70.4815 293 74.4415 293 74.4415Z" stroke="url(#paint41_linear_19_655)" stroke-width="7.9599" stroke-linecap="round" stroke-linejoin="round"/>
<path d="M123.999 80.3809C123.999 80.3809 113.999 105.131 109.999 109.091C73.9992 141.761 86.9992 165.521 103.999 199.181C118.999 229.871 114.999 259.571 114.999 259.571C114.999 259.571 155.999 207.101 141.999 159.581C136.999 142.751 137.999 123.941 142.999 105.131" fill="url(#paint42_linear_19_655)"/>
<g opacity="0.35">
<path d="M119 238.781C130 219.971 141 190.271 133 160.571C128 143.741 129 123.941 134 105.131" stroke="url(#paint43_linear_19_655)" stroke-width="8.95489" stroke-linecap="round" stroke-linejoin="round"/>
</g>
<path d="M123.999 79.3906C123.999 79.3906 113.999 105.131 109.999 109.091C73.9992 141.761 87.9992 165.521 104.999 199.181C119.999 229.871 114.999 259.571 114.999 259.571C114.999 259.571 155.999 207.101 141.999 159.581C136.999 142.751 137.999 123.941 142.999 105.131" stroke="url(#paint44_linear_19_655)" stroke-width="7.9599" stroke-linecap="round" stroke-linejoin="round"/>
<path d="M112 123.94C112 123.94 109 101.17 130 70.4805" stroke="#A60000" stroke-width="7.9599" stroke-linecap="round" stroke-linejoin="round"/>
<g opacity="0.3">
<path d="M263 65.5307C237 50.6807 204 37.8107 164 54.6407C135 66.5207 119 110.081 119 121.961" stroke="url(#paint45_linear_19_655)" stroke-width="7.9599" stroke-linecap="round" stroke-linejoin="round"/>
</g>
<path d="M133 222.942C133 222.942 139 219.972 148 233.832C145 232.842 143 233.832 143 233.832C143 233.832 157 241.752 152 256.602C151 253.632 148 251.652 148 251.652C148 251.652 155 263.532 141 272.442C141 270.462 140 269.472 140 269.472C140 269.472 136 283.332 115 281.352C118 280.362 122 275.412 122 275.412C122 275.412 105 282.342 99 273.432C103 273.432 107 271.452 107 271.452C107 271.452 93 272.442 91 256.602C94 258.582 98 262.542 98 262.542C98 262.542 88 256.602 89 246.702C91 248.682 94 250.662 94 250.662C94 250.662 88 239.772 96 229.872C97 234.822 97 236.802 97 236.802C97 236.802 97 225.912 108 221.952C106 225.912 105 228.882 105 228.882C105 228.882 113 217.002 123 217.992C121 219.972 119 223.932 119 223.932C119 223.932 132 216.012 138 220.962C137 220.962 133 222.942 133 222.942Z" fill="#EBEAEA"/>
<g opacity="0.2">
<path d="M87.9999 246.702C88.9999 250.662 102 256.602 102 256.602C103 264.522 113 259.572 113 259.572C117 263.532 124 263.532 128 257.592C133 258.582 138 254.622 135 250.662C135 250.662 143 247.692 138 239.772L144 232.842C180 279.372 82.9999 304.122 87.9999 246.702Z" fill="#90949E"/>
</g>
<path d="M133 222.942C133 222.942 140 219.972 149 233.832C146 232.842 143 233.832 143 233.832C143 233.832 159 241.752 154 256.602C153 253.632 148 251.652 148 251.652C148 251.652 156 262.542 142 271.452C142 269.472 140 269.472 140 269.472C140 269.472 136 282.342 115 280.362C118 279.372 122 275.412 122 275.412C122 275.412 106 282.342 100 273.432C104 273.432 108 271.452 108 271.452C108 271.452 91 275.412 89 259.572C92 261.552 98 262.542 98 262.542C98 262.542 88 256.602 89 246.702C91 248.682 94 250.662 94 250.662C94 250.662 88 239.772 96 229.872C97 234.822 98 236.802 98 236.802C98 236.802 96 223.932 107 219.972C105 223.932 105 228.882 105 228.882C105 228.882 113 215.022 123 216.012C121 217.992 119 222.942 119 222.942C119 222.942 133 216.012 139 220.962C138 220.962 133 222.942 133 222.942Z" stroke="url(#paint46_linear_19_655)" stroke-width="6.96491" stroke-linecap="round" stroke-linejoin="round"/>
</g>
</g>
<defs>
<linearGradient id="paint0_linear_19_655" x1="407.998" y1="349.001" x2="341.998" y2="361.001" gradientUnits="userSpaceOnUse">
<stop stop-color="#C68F3F"/>
<stop offset="0.25" stop-color="#B67E36"/>
<stop offset="0.51" stop-color="#A66E2C"/>
<stop offset="0.63" stop-color="#976127"/>
<stop offset="0.75" stop-color="#885522"/>
<stop offset="0.88" stop-color="#77481C"/>
<stop offset="1" stop-color="#653B15"/>
</linearGradient>
<linearGradient id="paint1_linear_19_655" x1="372.998" y1="407.001" x2="377.998" y2="298.001" gradientUnits="userSpaceOnUse">
<stop stop-color="#FFEDA2"/>
<stop offset="0.5" stop-color="#FFEDA2" stop-opacity="0.5"/>
<stop offset="1" stop-color="#FFEDA2" stop-opacity="0"/>
</linearGradient>
<linearGradient id="paint2_linear_19_655" x1="387.998" y1="345.002" x2="325.998" y2="380.002" gradientUnits="userSpaceOnUse">
<stop stop-color="#653B15" stop-opacity="0"/>
<stop offset="0.5" stop-color="#653B15" stop-opacity="0.5"/>
<stop offset="1" stop-color="#653B15"/>
</linearGradient>
<linearGradient id="paint3_linear_19_655" x1="353.452" y1="69.6915" x2="364.452" y2="213.691" gradientUnits="userSpaceOnUse">
<stop stop-color="#D3A055"/>
<stop offset="0.47" stop-color="#AC7939"/>
<stop offset="1" stop-color="#84521E"/>
</linearGradient>
<linearGradient id="paint4_linear_19_655" x1="345.452" y1="151.692" x2="361.452" y2="80.6923" gradientUnits="userSpaceOnUse">
<stop stop-color="#FFEDA2"/>
<stop offset="0.5" stop-color="#FFEDA2" stop-opacity="0.5"/>
<stop offset="1" stop-color="#FFEDA2" stop-opacity="0"/>
</linearGradient>
<linearGradient id="paint5_linear_19_655" x1="355.452" y1="132.693" x2="359.452" y2="91.6927" gradientUnits="userSpaceOnUse">
<stop offset="0.4" stop-color="#DEB372"/>
<stop offset="0.74" stop-color="#B08548"/>
<stop offset="1" stop-color="#82571F"/>
</linearGradient>
<radialGradient id="paint6_radial_19_655" cx="0" cy="0" r="1" gradientUnits="userSpaceOnUse" gradientTransform="translate(255.09 346.002) scale(109.2 120)">
<stop offset="0.3" stop-color="#BA8028"/>
<stop offset="0.82" stop-color="#92601F"/>
<stop offset="1" stop-color="#6A3F16"/>
</radialGradient>
<linearGradient id="paint7_linear_19_655" x1="254.999" y1="367.002" x2="254.999" y2="468.002" gradientUnits="userSpaceOnUse">
<stop stop-color="#5C3511" stop-opacity="0"/>
<stop offset="0.5" stop-color="#5C3511" stop-opacity="0.5"/>
<stop offset="1" stop-color="#5C3511"/>
</linearGradient>
<radialGradient id="paint8_radial_19_655" cx="0" cy="0" r="1" gradientUnits="userSpaceOnUse" gradientTransform="translate(259.678 360.001) scale(67.16 73)">
<stop offset="0.36" stop-color="#E6B56D"/>
<stop offset="0.8" stop-color="#B78B4E"/>
<stop offset="1" stop-color="#87612E"/>
</radialGradient>
<radialGradient id="paint9_radial_19_655" cx="0" cy="0" r="1" gradientUnits="userSpaceOnUse" gradientTransform="translate(282.619 266.002) scale(130.512 75.0067)">
<stop offset="0.39" stop-color="#502D0D"/>
<stop offset="0.81" stop-color="#502D0D" stop-opacity="0.5"/>
<stop offset="1" stop-color="#502D0D" stop-opacity="0"/>
</radialGradient>
<linearGradient id="paint10_linear_19_655" x1="105.999" y1="303.002" x2="143.999" y2="360.002" gradientUnits="userSpaceOnUse">
<stop stop-color="#C68F3F"/>
<stop offset="0.25" stop-color="#B67E36"/>
<stop offset="0.51" stop-color="#A66E2C"/>
<stop offset="0.63" stop-color="#976127"/>
<stop offset="0.75" stop-color="#885522"/>
<stop offset="0.88" stop-color="#77481C"/>
<stop offset="1" stop-color="#653B15"/>
</linearGradient>
<linearGradient id="paint11_linear_19_655" x1="98" y1="319.001" x2="212" y2="365.001" gradientUnits="userSpaceOnUse">
<stop stop-color="#653B15" stop-opacity="0"/>
<stop offset="0.5" stop-color="#653B15" stop-opacity="0.5"/>
<stop offset="1" stop-color="#653B15"/>
</linearGradient>
<linearGradient id="paint12_linear_19_655" x1="119" y1="394.002" x2="124" y2="286.002" gradientUnits="userSpaceOnUse">
<stop stop-color="#FFEDA2"/>
<stop offset="0.5" stop-color="#FFEDA2" stop-opacity="0.5"/>
<stop offset="1" stop-color="#FFEDA2" stop-opacity="0"/>
</linearGradient>
<linearGradient id="paint13_linear_19_655" x1="283.999" y1="183.001" x2="271.999" y2="296.001" gradientUnits="userSpaceOnUse">
<stop stop-color="#C68F3F"/>
<stop offset="0.25" stop-color="#B67E36"/>
<stop offset="0.51" stop-color="#A66E2C"/>
<stop offset="0.63" stop-color="#976127"/>
<stop offset="0.75" stop-color="#885522"/>
<stop offset="0.88" stop-color="#77481C"/>
<stop offset="1" stop-color="#653B15"/>
</linearGradient>
<linearGradient id="paint14_linear_19_655" x1="275.999" y1="140.001" x2="268.999" y2="263.001" gradientUnits="userSpaceOnUse">
<stop stop-color="#CF9E55"/>
<stop offset="0.5" stop-color="#CF9E55" stop-opacity="0.5"/>
<stop offset="1" stop-color="#CF9E55" stop-opacity="0"/>
</linearGradient>
<linearGradient id="paint15_linear_19_655" x1="280.999" y1="103.001" x2="276.999" y2="191.001" gradientUnits="userSpaceOnUse">
<stop stop-color="#FFEDA2"/>
<stop offset="0.5" stop-color="#FFEDA2" stop-opacity="0.5"/>
<stop offset="1" stop-color="#FFEDA2" stop-opacity="0"/>
</linearGradient>
<radialGradient id="paint16_radial_19_655" cx="0" cy="0" r="1" gradientUnits="userSpaceOnUse" gradientTransform="translate(138 274.421) scale(39.6247 39.6247)">
<stop stop-color="#6B3C11"/>
<stop offset="0.6" stop-color="#6B3C11" stop-opacity="0.5"/>
<stop offset="1" stop-color="#6B3C11" stop-opacity="0"/>
</radialGradient>
<linearGradient id="paint17_linear_19_655" x1="315.214" y1="231.908" x2="316.214" y2="221.908" gradientUnits="userSpaceOnUse">
<stop stop-color="#604828"/>
<stop offset="0.5" stop-color="#604828" stop-opacity="0.5"/>
<stop offset="1" stop-color="#604828" stop-opacity="0"/>
</linearGradient>
<linearGradient id="paint18_linear_19_655" x1="317.213" y1="209.908" x2="316.213" y2="218.908" gradientUnits="userSpaceOnUse">
<stop offset="0.1" stop-color="white"/>
<stop offset="0.45" stop-color="white" stop-opacity="0.5"/>
<stop offset="0.8" stop-color="white" stop-opacity="0"/>
</linearGradient>
<linearGradient id="paint19_linear_19_655" x1="232.214" y1="222.908" x2="232.214" y2="213.908" gradientUnits="userSpaceOnUse">
<stop stop-color="#604828"/>
<stop offset="0.5" stop-color="#604828" stop-opacity="0.5"/>
<stop offset="1" stop-color="#604828" stop-opacity="0"/>
</linearGradient>
<linearGradient id="paint20_linear_19_655" x1="234.213" y1="199.908" x2="233.213" y2="208.908" gradientUnits="userSpaceOnUse">
<stop offset="0.1" stop-color="white"/>
<stop offset="0.45" stop-color="white" stop-opacity="0.5"/>
<stop offset="0.8" stop-color="white" stop-opacity="0"/>
</linearGradient>
<linearGradient id="paint21_linear_19_655" x1="271.213" y1="222.907" x2="267.213" y2="291.907" gradientUnits="userSpaceOnUse">
<stop offset="0.05" stop-color="#E9C890"/>
<stop offset="0.7" stop-color="#CAA66B"/>
<stop offset="1" stop-color="#AC8445"/>
</linearGradient>
<linearGradient id="paint22_linear_19_655" x1="271.213" y1="229.906" x2="270.213" y2="248.906" gradientUnits="userSpaceOnUse">
<stop stop-color="#10141C"/>
<stop offset="0.45" stop-color="#252523"/>
<stop offset="0.9" stop-color="#3B362B"/>
</linearGradient>
<linearGradient id="paint23_linear_19_655" x1="272.213" y1="229.906" x2="271.213" y2="237.906" gradientUnits="userSpaceOnUse">
<stop stop-color="#C6B782"/>
<stop offset="0.5" stop-color="#C6B782" stop-opacity="0.5"/>
<stop offset="1" stop-color="#C6B782" stop-opacity="0"/>
</linearGradient>
<linearGradient id="paint24_linear_19_655" x1="119.999" y1="381" x2="119.999" y2="479" gradientUnits="userSpaceOnUse">
<stop stop-color="#C68F3F"/>
<stop offset="0.22" stop-color="#B67E36"/>
<stop offset="0.53" stop-color="#A66E2C"/>
<stop offset="0.67" stop-color="#976127"/>
<stop offset="0.8" stop-color="#885522"/>
<stop offset="0.9" stop-color="#77481C"/>
<stop offset="1" stop-color="#653B15"/>
</linearGradient>
<linearGradient id="paint25_linear_19_655" x1="121" y1="413" x2="126" y2="484" gradientUnits="userSpaceOnUse">
<stop offset="0.28" stop-color="#653B15" stop-opacity="0"/>
<stop offset="0.64" stop-color="#653B15" stop-opacity="0.5"/>
<stop offset="1" stop-color="#653B15"/>
</linearGradient>
<radialGradient id="paint26_radial_19_655" cx="0" cy="0" r="1" gradientUnits="userSpaceOnUse" gradientTransform="translate(67.0756 440.383) rotate(-180) scale(10.3)">
<stop stop-color="#373228"/>
<stop offset="0.64" stop-color="#373228" stop-opacity="0.5"/>
<stop offset="1" stop-color="#373228" stop-opacity="0"/>
</radialGradient>
<radialGradient id="paint27_radial_19_655" cx="0" cy="0" r="1" gradientUnits="userSpaceOnUse" gradientTransform="translate(81.4942 416.694) rotate(-180) scale(11.33)">
<stop stop-color="#373228"/>
<stop offset="0.64" stop-color="#373228" stop-opacity="0.5"/>
<stop offset="1" stop-color="#373228" stop-opacity="0"/>
</radialGradient>
<radialGradient id="paint28_radial_19_655" cx="0" cy="0" r="1" gradientUnits="userSpaceOnUse" gradientTransform="translate(109.304 411.544) rotate(-180) scale(10.3)">
<stop stop-color="#373228"/>
<stop offset="0.64" stop-color="#373228" stop-opacity="0.5"/>
<stop offset="1" stop-color="#373228" stop-opacity="0"/>
</radialGradient>
<radialGradient id="paint29_radial_19_655" cx="0" cy="0" r="1" gradientUnits="userSpaceOnUse" gradientTransform="translate(111.366 447.593) rotate(-180) scale(16.8817 11.33)">
<stop stop-color="#373228"/>
<stop offset="0.64" stop-color="#373228" stop-opacity="0.5"/>
<stop offset="1" stop-color="#373228" stop-opacity="0"/>
</radialGradient>
<linearGradient id="paint30_linear_19_655" x1="388.998" y1="385" x2="388.998" y2="483" gradientUnits="userSpaceOnUse">
<stop stop-color="#C68F3F"/>
<stop offset="0.22" stop-color="#B67E36"/>
<stop offset="0.53" stop-color="#A66E2C"/>
<stop offset="0.67" stop-color="#976127"/>
<stop offset="0.8" stop-color="#885522"/>
<stop offset="0.9" stop-color="#77481C"/>
<stop offset="1" stop-color="#653B15"/>
</linearGradient>
<linearGradient id="paint31_linear_19_655" x1="387.999" y1="417.001" x2="382.999" y2="488.001" gradientUnits="userSpaceOnUse">
<stop offset="0.28" stop-color="#653B15" stop-opacity="0"/>
<stop offset="0.64" stop-color="#653B15" stop-opacity="0.5"/>
<stop offset="1" stop-color="#653B15"/>
</linearGradient>
<radialGradient id="paint32_radial_19_655" cx="0" cy="0" r="1" gradientUnits="userSpaceOnUse" gradientTransform="translate(445.355 443.459) scale(10)">
<stop stop-color="#373228"/>
<stop offset="0.64" stop-color="#373228" stop-opacity="0.5"/>
<stop offset="1" stop-color="#373228" stop-opacity="0"/>
</radialGradient>
<radialGradient id="paint33_radial_19_655" cx="0" cy="0" r="1" gradientUnits="userSpaceOnUse" gradientTransform="translate(431.354 420.46) scale(11)">
<stop stop-color="#373228"/>
<stop offset="0.64" stop-color="#373228" stop-opacity="0.5"/>
<stop offset="1" stop-color="#373228" stop-opacity="0"/>
</radialGradient>
<radialGradient id="paint34_radial_19_655" cx="0" cy="0" r="1" gradientUnits="userSpaceOnUse" gradientTransform="translate(404.354 415.459) scale(10 10)">
<stop stop-color="#373228"/>
<stop offset="0.64" stop-color="#373228" stop-opacity="0.5"/>
<stop offset="1" stop-color="#373228" stop-opacity="0"/>
</radialGradient>
<radialGradient id="paint35_radial_19_655" cx="0" cy="0" r="1" gradientUnits="userSpaceOnUse" gradientTransform="translate(402.354 450.459) scale(16.39 11)">
<stop stop-color="#373228"/>
<stop offset="0.64" stop-color="#373228" stop-opacity="0.5"/>
<stop offset="1" stop-color="#373228" stop-opacity="0"/>
</radialGradient>
<linearGradient id="paint36_linear_19_655" x1="222.998" y1="119.981" x2="205.315" y2="71.3558" gradientUnits="userSpaceOnUse">
<stop offset="0.35" stop-color="#AE0000"/>
<stop offset="0.67" stop-color="#D61400"/>
<stop offset="0.93" stop-color="#FF2900"/>
</linearGradient>
<radialGradient id="paint37_radial_19_655" cx="0" cy="0" r="1" gradientUnits="userSpaceOnUse" gradientTransform="translate(233.998 66.5202) scale(78 51.7374)">
<stop offset="0.09" stop-color="white"/>
<stop offset="0.7" stop-color="white" stop-opacity="0.55"/>
<stop offset="1" stop-color="white" stop-opacity="0.1"/>
</radialGradient>
<linearGradient id="paint38_linear_19_655" x1="120.998" y1="104.141" x2="270.638" y2="48.7188" gradientUnits="userSpaceOnUse">
<stop stop-color="#A60000"/>
<stop offset="0.09" stop-color="#A60000"/>
<stop offset="0.39" stop-color="#A60000"/>
</linearGradient>
<linearGradient id="paint39_linear_19_655" x1="149" y1="165.521" x2="328.657" y2="107.047" gradientUnits="userSpaceOnUse">
<stop offset="0.05" stop-color="#CECCCB"/>
<stop offset="0.16" stop-color="#E7E5E5"/>
<stop offset="0.49" stop-color="white"/>
<stop offset="0.93" stop-color="#E2E2E1"/>
<stop offset="1" stop-color="#C6C5C3"/>
</linearGradient>
<linearGradient id="paint40_linear_19_655" x1="157.001" y1="176.412" x2="305.443" y2="104.963" gradientUnits="userSpaceOnUse">
<stop stop-color="#7C818D"/>
<stop offset="0.6" stop-color="#868A95" stop-opacity="0.9"/>
<stop offset="1" stop-color="#90949E" stop-opacity="0.8"/>
</linearGradient>
<linearGradient id="paint41_linear_19_655" x1="248" y1="115.031" x2="244.079" y2="77.4033" gradientUnits="userSpaceOnUse">
<stop stop-color="#A8A4A1"/>
<stop offset="0.22" stop-color="#BAB9B6"/>
<stop offset="0.75" stop-color="#CDCDCB"/>
</linearGradient>
<linearGradient id="paint42_linear_19_655" x1="135.999" y1="126.911" x2="91.2528" y2="155.034" gradientUnits="userSpaceOnUse">
<stop offset="0.16" stop-color="#FF2900"/>
<stop offset="0.69" stop-color="#D61400"/>
<stop offset="1" stop-color="#AE0000"/>
</linearGradient>
<linearGradient id="paint43_linear_19_655" x1="123" y1="235.811" x2="136.724" y2="106.092" gradientUnits="userSpaceOnUse">
<stop stop-color="white" stop-opacity="0"/>
<stop offset="0.21" stop-color="white" stop-opacity="0.5"/>
<stop offset="0.71" stop-color="white"/>
<stop offset="0.88" stop-color="white" stop-opacity="0.5"/>
<stop offset="1" stop-color="white" stop-opacity="0"/>
</linearGradient>
<linearGradient id="paint44_linear_19_655" x1="91.9992" y1="156.611" x2="174.305" y2="86.4953" gradientUnits="userSpaceOnUse">
<stop stop-color="#750000"/>
<stop offset="0.11" stop-color="#8E0000"/>
<stop offset="0.47" stop-color="#A60000"/>
</linearGradient>
<linearGradient id="paint45_linear_19_655" x1="116" y1="109.091" x2="259.629" y2="53.6784" gradientUnits="userSpaceOnUse">
<stop stop-color="white" stop-opacity="0"/>
<stop offset="0.15" stop-color="white" stop-opacity="0.5"/>
<stop offset="0.63" stop-color="white"/>
<stop offset="0.93" stop-color="white" stop-opacity="0.5"/>
<stop offset="1" stop-color="white" stop-opacity="0"/>
</linearGradient>
<linearGradient id="paint46_linear_19_655" x1="127" y1="270.462" x2="122.099" y2="217.982" gradientUnits="userSpaceOnUse">
<stop stop-color="#9E9995"/>
<stop offset="0.14" stop-color="#ACA7A3"/>
<stop offset="0.6" stop-color="#B9B4B0"/>
</linearGradient>
<clipPath id="clip0_19_655">
<rect width="512" height="512" fill="white"/>
</clipPath>
</defs>
</svg>
