<svg width="512" height="512" viewBox="0 0 512 512" fill="none" xmlns="http://www.w3.org/2000/svg">
<g clip-path="url(#clip0_4_1071)">
<mask id="mask0_4_1071" style="mask-type:luminance" maskUnits="userSpaceOnUse" x="0" y="0" width="512" height="512">
<path d="M512 0H0V512H512V0Z" fill="white"/>
</mask>
<g mask="url(#mask0_4_1071)">
<mask id="mask1_4_1071" style="mask-type:luminance" maskUnits="userSpaceOnUse" x="-159" y="-210" width="891" height="891">
<path d="M363.992 -209.015L731.297 158.291L209.035 680.553L-158.27 313.247L363.992 -209.015Z" fill="white"/>
</mask>
<g mask="url(#mask1_4_1071)">
<path d="M205.23 255.981C215.725 257.254 278.44 197.641 278.44 197.641L288.636 207.791C288.636 207.791 223.888 274.775 221.881 282.735C220.825 282.482 203.88 298.452 202.495 298.751C201.066 300.423 186.207 315.915 185.239 317.631C180.753 316.794 125.089 361.82 125.089 361.82L115.069 351.424C118.368 345.177 179.524 282.072 182.527 278.773C183.249 277.979 189.96 271.235 190.494 270.69C191.494 269.667 205.23 255.981 205.23 255.981Z" fill="url(#paint0_linear_4_1071)"/>
<path d="M205.23 255.981C215.725 257.254 278.44 197.641 278.44 197.641L288.636 207.791C288.636 207.791 223.888 274.775 221.881 282.735C220.825 282.482 203.88 298.452 202.495 298.751C201.066 300.423 186.207 315.915 185.239 317.631C180.753 316.794 125.089 361.82 125.089 361.82L115.069 351.424C118.368 345.177 179.524 282.072 182.527 278.773C183.249 277.979 189.96 271.235 190.494 270.69C191.494 269.667 205.23 255.981 205.23 255.981Z" stroke="#7F0012" stroke-width="8.11638" stroke-linecap="round" stroke-linejoin="round"/>
<path d="M289.152 208.413C289.152 208.413 225.197 268.405 215.643 266.666C215.643 266.666 131.344 351.824 125.377 362.566C125.377 362.566 179.367 318.509 184.583 319.121C184.583 319.121 204.973 297.268 206.267 295.974L221.948 284.095C221.948 284.095 281.324 218.852 289.152 208.413Z" fill="url(#paint1_linear_4_1071)"/>
<path d="M289.152 208.413C289.152 208.413 225.197 268.405 215.643 266.666C215.643 266.666 131.344 351.824 125.377 362.566C125.377 362.566 179.367 318.509 184.583 319.121C184.583 319.121 204.973 297.268 206.267 295.974L221.948 284.095C221.948 284.095 281.324 218.852 289.152 208.413Z" stroke="#7F0012" stroke-width="8.11638" stroke-linecap="round" stroke-linejoin="round"/>
<path d="M308.07 384.667C301.578 331.182 331.469 298.933 331.469 298.933L331.111 298.575C331.111 298.575 279.878 337.1 239.308 347.327C240.601 352.703 243.29 360.056 241.766 367.12C233.247 374.404 222.665 381.757 213.92 386.69C218.181 409.556 213.471 457.725 213.471 457.725L214.009 456.828C245.846 440.015 272.914 417.862 289.725 402.558C293.77 398.876 297.221 395.59 300.002 392.871C305.213 387.775 308.07 384.667 308.07 384.667Z" stroke="#7F0012" stroke-width="8.11638" stroke-linecap="round" stroke-linejoin="round"/>
<path d="M239.727 366.654C239.727 366.654 240.695 357.292 236.95 343.977C254.505 338.345 291.192 324.744 330.269 299.197C329.171 300.123 319.709 308.896 313.238 326.803C313.238 326.803 313.238 326.803 313.231 326.81C312.836 327.247 298.015 343.618 239.727 366.654ZM212.05 458.121C212.05 458.121 212.652 453.917 213.334 446.995L213.341 446.987C274.09 410.013 298.431 379.789 298.431 379.789C290.984 338.525 308.058 311.579 308.309 311.171C315.914 306.938 323.755 302.239 331.704 297.045C329.752 298.695 301.301 325.181 310.361 383.828C310.361 383.828 273.717 425.136 212.05 458.121ZM308.073 382.472C308.073 382.472 241.319 422.295 215.665 422.209L308.073 382.472ZM330.754 298.216C330.754 298.216 299.967 344.275 310.045 385.565C310.045 385.565 267.324 427.851 212.576 458.263C212.576 458.263 215.673 410.634 212.55 384.056C212.55 384.056 234.726 370.772 241.318 364.18L236.28 345.542C236.28 345.542 277.553 338.109 330.754 298.216Z" fill="url(#paint2_linear_4_1071)"/>
<g opacity="0.4">
<path d="M239.727 366.654C239.727 366.654 240.696 357.292 236.951 343.977C254.506 338.345 291.193 324.744 330.269 299.197C329.172 300.123 319.709 308.896 313.239 326.803C313.239 326.803 313.239 326.803 313.231 326.81C312.837 327.247 298.015 343.618 239.727 366.654Z" fill="#7F0012"/>
</g>
<g opacity="0.4">
<path d="M212.049 458.121C212.049 458.121 212.651 453.917 213.333 446.995L213.34 446.987C274.093 410.014 298.43 379.789 298.43 379.789C290.983 338.525 308.057 311.58 308.309 311.171C315.913 306.938 323.754 302.239 331.703 297.045C329.751 298.695 301.3 325.181 310.36 383.828C310.36 383.828 273.716 425.136 212.049 458.121Z" fill="#FFF89C"/>
</g>
<g opacity="0.1">
<path d="M308.075 382.475C308.075 382.475 241.318 422.291 215.664 422.209" stroke="#7F0012" stroke-width="6.08728" stroke-linecap="round" stroke-linejoin="round"/>
</g>
<path d="M330.754 298.216C330.754 298.216 299.967 344.275 310.045 385.565C310.045 385.565 267.324 427.851 212.576 458.263C212.576 458.263 215.673 410.634 212.55 384.056C212.55 384.056 234.727 370.772 241.318 364.18L236.28 345.542C236.28 345.542 277.553 338.109 330.754 298.216Z" stroke="#7F0012" stroke-width="8.11638" stroke-linecap="round" stroke-linejoin="round"/>
<path d="M212.443 384.449C212.443 384.449 215.941 433.68 212.533 458.609" stroke="#BC001B" stroke-width="8.11638" stroke-linecap="round"/>
<path d="M122.582 205.994C176.067 212.485 222.933 181.429 222.933 181.429L222.933 180.711C222.933 180.711 175.171 240.284 164.944 280.854C159.568 279.561 153.829 279.92 146.765 281.445C139.481 289.964 133.921 298.752 128.989 307.497C106.123 303.236 43.7853 311.354 43.7853 311.354L44.6821 310.816C61.4949 278.979 89.3864 241.15 104.691 224.34C108.373 220.294 111.659 216.843 114.378 214.062C119.475 208.851 122.582 205.994 122.582 205.994Z" stroke="#7F0012" stroke-width="8.11638" stroke-linecap="round" stroke-linejoin="round"/>
<path d="M222.1 181.746C222.1 181.746 215.543 188.518 195.527 196.954C195.527 196.954 164.679 230.399 146.895 278.988C150.92 278.866 163.876 280.1 173.195 282.331C179.831 264.748 187.399 222.831 222.1 181.746ZM231.218 173.646C231.218 173.646 220.493 184.73 192.421 197.55C156.042 214.158 121.335 204.2 121.335 204.2C121.335 204.2 82.6025 236.303 42.6509 313.014C42.6509 313.014 47.7014 311.852 56.4105 310.575C92.2012 244.252 123.228 219.409 123.228 219.409C181.388 227.766 207.96 204.092 214.84 197.5L214.847 197.492C219.739 189.673 225.184 181.688 231.218 173.646ZM127.031 208.964C127.031 208.964 87.2082 275.717 87.2943 301.371L127.031 208.964ZM223.752 180.454C223.752 180.454 170.117 213.35 121.427 204.481C121.427 204.481 73.4019 256.886 42.9895 311.634C42.9895 311.634 101.559 303.695 128.138 306.818C128.138 306.818 141.243 286.255 147.834 279.664L174.902 280.219C174.902 280.219 183.858 233.655 223.752 180.454Z" fill="url(#paint3_linear_4_1071)"/>
<g opacity="0.4">
<path d="M222.094 181.747C222.094 181.747 215.542 188.513 195.53 196.954C195.53 196.954 164.682 230.397 146.898 278.988C150.92 278.864 163.879 280.101 173.192 282.335C179.83 264.753 187.399 222.824 222.094 181.747Z" fill="#7F0012"/>
</g>
<g opacity="0.4">
<path d="M231.219 173.642C231.219 173.642 220.494 184.729 192.422 197.545C156.043 214.153 121.328 204.202 121.328 204.202C121.328 204.202 82.6024 236.298 42.6422 313.014C42.6422 313.014 47.7005 311.846 56.4133 310.572C92.1947 244.251 123.229 219.404 123.229 219.404C181.38 227.768 207.955 204.096 214.838 197.507L214.845 197.5C219.743 189.671 225.183 181.681 231.219 173.642Z" fill="#FFF89C"/>
</g>
<g opacity="0.1">
<path d="M127.027 208.961C127.027 208.961 87.2108 275.718 87.2933 301.371" stroke="#7F0012" stroke-width="6.08728" stroke-linecap="round" stroke-linejoin="round"/>
</g>
<path d="M223.752 180.454C223.752 180.454 170.117 213.35 121.427 204.481C121.427 204.481 73.4018 256.886 42.9893 311.634C42.9893 311.634 101.559 303.695 128.137 306.818C128.137 306.818 141.243 286.255 147.833 279.664L174.901 280.219C174.901 280.219 183.858 233.655 223.752 180.454Z" stroke="#7F0012" stroke-width="8.11638" stroke-linecap="round" stroke-linejoin="round"/>
<path d="M119.543 206.57C110.384 216.827 69.828 263.318 42.9882 311.634C42.9882 311.634 101.558 303.695 128.136 306.818C128.136 306.818 141.242 286.255 147.832 279.664C147.832 279.664 158.099 279.874 165.986 280.036" stroke="#B80023" stroke-width="8.11638" stroke-linecap="round" stroke-linejoin="round"/>
<path d="M152.705 315.652C148.624 315.094 144.833 315.31 141.4 316.131C137.967 316.952 134.893 318.376 132.247 320.234C130.151 321.706 128.323 323.449 126.799 325.38C125.275 327.311 124.054 329.428 123.173 331.647C123.173 331.647 117.702 333.024 112.454 336.369C107.206 339.713 102.182 345.025 103.076 352.895C103.076 352.895 99.8037 354.142 96.7106 356.882C93.6176 359.621 90.7033 363.853 91.42 369.821C91.42 369.821 86.3716 371.713 82.1976 375.98C78.0237 380.247 74.7248 386.888 78.2231 396.388C78.2231 396.388 73.7372 398.63 70.2179 403.068C66.6987 407.506 64.1466 414.14 68.0127 422.924C58.7808 429.937 59.7317 435.156 60.6307 441.186C61.5296 447.216 62.3753 454.057 52.9309 464.317C55.221 462.172 63.5041 452.731 72.7265 450.536C72.7265 450.536 95.3842 457.141 104.832 441.417C104.832 441.417 117.857 442.491 125.079 430.865C125.079 430.865 146.354 435.835 157.304 405.236C157.304 405.236 172.984 409.349 179.763 395.132C179.763 395.132 192.684 394.883 200.724 384.618C203.687 380.834 205.988 375.69 206.733 368.696C209.502 342.728 171.528 318.226 152.705 315.652Z" fill="url(#paint4_radial_4_1071)"/>
<g opacity="0.5">
<path d="M118.106 344.336C111.407 343.164 109.9 355.641 114.619 356.942C119.337 358.244 125.789 345.679 118.106 344.336Z" fill="#FFF276"/>
</g>
<g opacity="0.5">
<path d="M103.701 365.422C97.1735 366.208 92.6025 380.268 100.176 383.924C107.749 387.579 115.287 364.028 103.701 365.422Z" fill="#FFF276"/>
</g>
<g opacity="0.5">
<path d="M107.574 407.072C100.217 408.226 105.503 421.307 118.993 420.528C125.537 420.15 118.062 405.426 107.574 407.072Z" fill="#FFF276"/>
</g>
<g opacity="0.5">
<path d="M97.7357 397.168C97.1348 384.395 83.1624 383.499 81.7516 395.973C80.3408 408.448 98.5701 414.902 97.7357 397.168Z" fill="#FFF276"/>
</g>
<g opacity="0.5">
<path d="M87.6911 411.985C81.956 411.128 83.9576 422.369 90.05 423.74C96.1425 425.111 95.5843 413.164 87.6911 411.985Z" fill="#FFF276"/>
</g>
<g opacity="0.5">
<path d="M111.407 429.418C111.546 421.709 91.2387 421.67 92.5894 429.757C93.9401 437.845 111.268 437.127 111.407 429.418Z" fill="#FFF276"/>
</g>
<g opacity="0.5">
<path d="M73.7852 408.404C66.3267 407.013 65.5196 425.501 75.2892 425.292C85.0595 425.084 80.5901 409.674 73.7852 408.404Z" fill="#FFF276"/>
</g>
<g opacity="0.5">
<path d="M89.7263 431.878C89.4773 426.284 76.4653 425.18 75.2259 430.413C74.3571 434.084 89.9312 436.477 89.7263 431.878Z" fill="#FFF276"/>
</g>
<g opacity="0.5">
<path d="M90.6485 440.719C87.2877 434.631 72.9698 436.335 74.3029 442.641C75.636 448.947 95.1224 448.826 90.6485 440.719Z" fill="#FFF276"/>
</g>
<g opacity="0.5">
<path d="M67.2727 432.748C62.2664 432.504 62.1475 441.048 67.1115 441.653C70.7289 442.093 71.6785 432.962 67.2727 432.748Z" fill="#FFF276"/>
</g>
<path d="M151.493 314.441C150.155 314.252 148.847 314.145 147.573 314.116C146.418 314.089 145.291 314.126 144.192 314.221C143.06 314.319 141.958 314.481 140.891 314.7C139.49 314.988 138.147 315.375 136.865 315.851C134.714 316.65 132.738 317.697 130.956 318.943C126.758 321.881 123.644 325.917 121.894 330.369C121.894 330.369 99.927 335.794 101.803 351.622C101.803 351.622 88.674 356.571 90.1741 368.575C90.1741 368.575 69.9163 376.077 77.0444 395.209C77.0444 395.209 59.055 404.132 66.9155 421.828C48.4283 435.831 70.8468 442.826 51.9664 463.353C54.2571 461.209 62.5344 451.762 71.7923 449.602C71.7923 449.602 94.599 456.355 104.015 440.6C104.015 440.6 117.111 441.744 124.311 430.096C124.311 430.096 145.718 435.199 156.569 404.501C156.569 404.501 172.349 408.714 179.091 394.459C179.091 394.459 192.075 394.273 200.104 383.997C201.157 382.648 202.126 381.126 202.968 379.408C203.519 378.285 204.015 377.078 204.446 375.782C204.733 374.92 204.991 374.019 205.217 373.075C205.593 371.509 205.88 369.829 206.062 368.026C208.714 341.94 170.425 317.124 151.493 314.441Z" stroke="#F75C00" stroke-width="8.11638" stroke-linecap="round" stroke-linejoin="round"/>
<path d="M69.9979 363.136C67.3321 356.028 49.4597 358.889 52.2446 367.6C55.0295 376.311 73.1258 371.473 69.9979 363.136Z" fill="#FFEE4D"/>
<path d="M69.9979 363.136C67.3321 356.028 49.4597 358.889 52.2446 367.6C55.0295 376.311 73.1258 371.473 69.9979 363.136Z" stroke="#F75C00" stroke-width="8.11638" stroke-linecap="round" stroke-linejoin="round"/>
<path d="M128.559 459.463C122.785 456.932 110.877 470.456 117.59 473.876C124.304 477.297 135.331 462.432 128.559 459.463Z" fill="#FFEE4D"/>
<path d="M128.559 459.463C122.785 456.932 110.877 470.456 117.59 473.876C124.304 477.297 135.331 462.432 128.559 459.463Z" stroke="#F75C00" stroke-width="8.11638" stroke-linecap="round" stroke-linejoin="round"/>
<path d="M53.3528 388.731C53.3528 389.497 52.733 390.117 51.9668 390.117C51.2006 390.117 50.5808 389.497 50.5808 388.731C50.5808 387.965 51.2006 387.345 51.9668 387.345C52.733 387.345 53.3528 387.965 53.3528 388.731Z" fill="#FFEE4D"/>
<path d="M53.3528 388.731C53.3528 389.497 52.733 390.117 51.9668 390.117C51.2006 390.117 50.5808 389.497 50.5808 388.731C50.5808 387.965 51.2006 387.345 51.9668 387.345C52.733 387.345 53.3528 387.965 53.3528 388.731Z" stroke="#F75C00" stroke-width="8.11638" stroke-linecap="round" stroke-linejoin="round"/>
<mask id="mask2_4_1071" style="mask-type:luminance" maskUnits="userSpaceOnUse" x="-81" y="-132" width="735" height="736">
<path d="M286.514 -131.536L653.819 235.769L286.514 603.074L-80.7916 235.769L286.514 -131.536Z" fill="white"/>
</mask>
<g mask="url(#mask2_4_1071)">
<path d="M458.498 166.47C456.347 168.621 452.86 168.621 450.709 166.47C448.557 164.318 448.557 160.832 450.709 158.68C452.86 156.529 456.347 156.529 458.498 158.68C460.65 160.832 460.65 164.318 458.498 166.47Z" fill="#101516"/>
<path d="M458.499 163.685C457.117 165.068 454.876 165.068 453.493 163.685C452.111 162.303 452.111 160.062 453.493 158.679C454.876 157.297 457.117 157.297 458.499 158.679C459.881 160.062 459.881 162.303 458.499 163.685Z" fill="#E1EDF0"/>
<g opacity="0.3">
<path d="M362.649 70.5304C360.497 72.6819 357.011 72.6819 354.859 70.5304C352.708 68.379 352.708 64.8924 354.859 62.741C357.011 60.5895 360.497 60.5895 362.649 62.741C364.8 64.8924 364.8 68.379 362.649 70.5304Z" fill="#101516"/>
</g>
<path d="M362.649 67.7462C361.267 69.1286 359.026 69.1286 357.643 67.7462C356.261 66.3638 356.261 64.1226 357.643 62.7402C359.026 61.3578 361.267 61.3578 362.649 62.7402C364.032 64.1226 364.032 66.3638 362.649 67.7462Z" fill="#E1EDF0"/>
</g>
<mask id="mask3_4_1071" style="mask-type:luminance" maskUnits="userSpaceOnUse" x="-329" y="-102" width="951" height="951">
<path d="M146.264 -101.047L621.178 373.867L146.264 848.782L-328.651 373.867L146.264 -101.047Z" fill="white"/>
</mask>
<g mask="url(#mask3_4_1071)">
<path d="M368.633 284.265C365.852 287.047 361.344 287.047 358.562 284.265C355.78 281.483 355.78 276.975 358.562 274.194C361.344 271.412 365.852 271.412 368.633 274.194C371.415 276.975 371.415 281.483 368.633 284.265Z" fill="#101516"/>
<path d="M368.635 280.665C366.847 282.453 363.95 282.453 362.162 280.665C360.375 278.878 360.375 275.98 362.162 274.193C363.95 272.405 366.847 272.405 368.635 274.193C370.422 275.98 370.422 278.878 368.635 280.665Z" fill="#E1EDF0"/>
<g opacity="0.3">
<path d="M244.704 160.219C241.922 163 237.414 163 234.632 160.219C231.85 157.437 231.85 152.929 234.632 150.147C237.414 147.365 241.922 147.365 244.704 150.147C247.486 152.929 247.486 157.437 244.704 160.219Z" fill="#101516"/>
</g>
<path d="M244.703 156.619C242.916 158.406 240.018 158.406 238.231 156.619C236.443 154.831 236.443 151.934 238.231 150.146C240.018 148.359 242.916 148.359 244.703 150.146C246.491 151.934 246.491 154.831 244.703 156.619Z" fill="#E1EDF0"/>
</g>
<path d="M162.843 289.967L147.37 306.454C147.37 306.454 150.948 319.606 174.185 342.844C197.302 365.96 211.911 370.772 211.911 370.772L228.089 356.028L228.215 345.106L173.496 290.387L162.843 289.967Z" fill="#282828"/>
<path d="M179.092 347.748L200.575 326.265L219.574 341.855L198.184 363.245L179.092 347.748Z" fill="#1D4861"/>
<path d="M218.258 343.171L198.183 363.245L193.868 360.123L213.99 340L218.258 343.171Z" fill="#60673A"/>
<path d="M174.859 295.95L153.321 317.489L167.773 336.132L189.222 314.683L174.859 295.95Z" fill="#2A5D77"/>
<path d="M187.493 316.41L167.773 336.13L164.31 332.667L184.029 312.947L187.493 316.41Z" fill="#8E7949"/>
<path d="M174.012 296.799L153.322 317.489L151.494 314.442L172.08 293.856L174.012 296.799Z" fill="#60673A"/>
<path d="M198.961 327.877L179.091 347.748L167.774 336.131L187.494 316.41L198.961 327.877Z" fill="#A0A0A0"/>
<g opacity="0.5">
<path d="M162.843 289.967C162.843 289.967 166.509 304.776 190.481 328.748C214.453 352.719 228.089 356.029 228.089 356.029L228.215 345.106L173.496 290.387L162.843 289.967Z" fill="black"/>
</g>
<path d="M162.843 289.967L147.37 306.454C147.37 306.454 150.948 319.606 174.185 342.843C197.302 365.96 211.911 370.772 211.911 370.772L228.089 356.028L228.215 345.106L173.496 290.387L162.843 289.967Z" stroke="#0F0F0F" stroke-width="8.11638" stroke-linecap="round" stroke-linejoin="round"/>
<path d="M175.507 296.333C173.472 293.03 172.897 289.023 173.916 285.278C180.419 261.358 210.657 168.305 301.558 103.087C322.314 88.1948 348.792 75.5335 368.284 68.7986C413.549 53.158 447.765 56.722 458.036 66.5847C465.648 73.8957 470.639 105.013 452.618 153.706C444.427 175.839 429.49 202.229 408.477 228.697C347.222 305.849 257.805 337.119 233.25 344.543C229.128 345.79 224.67 345.078 221.137 342.618C210.96 335.53 189.373 318.844 175.507 296.333Z" fill="url(#paint5_linear_4_1071)"/>
<g opacity="0.3">
<path d="M233.248 344.547C229.123 345.788 224.668 345.078 221.131 342.618C210.959 335.53 189.372 318.85 175.505 296.331C173.468 293.031 172.901 289.021 173.92 285.276C178.188 269.544 194.882 226.077 230.199 178.134C230.199 178.134 229.814 178.883 229.121 180.261C228.661 181.175 228.063 182.367 227.353 183.8C218.238 202.197 190.396 260.386 191.151 283.296C191.329 288.685 199.645 298.412 203.996 299.908C207.794 301.212 276.576 251.154 286.814 254.276C297.372 257.495 222.292 324.574 227.903 327.093C239.955 332.515 280.886 276.841 315.68 247.574C316.2 247.136 339.684 269.649 340.19 269.214C384.269 231.311 421.137 183.881 441.857 142.242C443.178 139.587 434.525 131.197 436.371 129.011C460.587 100.331 459.527 74.2178 458.036 66.5862C465.648 73.8964 470.641 105.017 452.613 153.706C444.427 175.838 429.491 202.224 408.478 228.703C347.227 305.851 257.804 337.122 233.248 344.547Z" fill="#000C66"/>
</g>
<path d="M354.566 281.582C289.807 227.124 243.104 171.397 237.136 164.18C254.145 143.053 275.322 121.904 301.557 103.087C322.319 88.194 348.791 75.5392 368.282 68.8029C368.282 68.8029 412.632 95.0444 452.612 153.706C444.427 175.837 429.49 202.224 408.478 228.703C391.949 249.521 373.361 267.004 354.566 281.582Z" fill="url(#paint6_linear_4_1071)"/>
<g opacity="0.1">
<path d="M354.566 281.582C340.843 270.039 327.93 258.446 316.05 247.269C368.574 254.766 446.646 168.904 432.066 126.546C438.882 134.681 445.812 143.72 452.613 153.706C444.427 175.838 429.491 202.224 408.479 228.703C391.95 249.521 373.362 267.004 354.566 281.582Z" fill="#101516"/>
</g>
<g opacity="0.5">
<path d="M332.166 251.93C319.379 240.258 307.604 228.876 297.073 218.296" stroke="#FFF88F" stroke-width="8.11638" stroke-linecap="round" stroke-linejoin="round"/>
</g>
<g opacity="0.5">
<path d="M374.203 66.8423C374.203 66.8423 414.494 88.387 454.833 147.472" stroke="#9FC6FF" stroke-width="8.11638" stroke-linecap="round" stroke-linejoin="round"/>
</g>
<g opacity="0.45">
<path d="M464.049 108.535C464.049 108.535 463.834 84.4034 454.544 73.0384C445.253 61.6735 405.439 64.2597 379.141 73.2996C363.783 78.5789 325.163 88.6589 263.653 145.695C242.177 165.607 208.631 205.314 208.631 205.314" stroke="white" stroke-width="8.11638" stroke-linecap="round" stroke-linejoin="round"/>
</g>
<path d="M175.507 296.333C173.472 293.03 172.897 289.023 173.916 285.278C180.419 261.358 210.657 168.305 301.558 103.087C322.314 88.1948 348.792 75.5335 368.284 68.7986C413.549 53.158 447.765 56.722 458.036 66.5847C465.648 73.8957 470.639 105.013 452.618 153.706C444.427 175.839 429.49 202.229 408.477 228.697C347.222 305.849 257.805 337.119 233.25 344.543C229.128 345.79 224.67 345.078 221.137 342.618C210.96 335.53 189.373 318.844 175.507 296.333Z" stroke="#00479B" stroke-width="8.11638" stroke-miterlimit="10"/>
<g opacity="0.5">
<path d="M233.334 168.973C242.672 180.495 255.758 196.631 288.794 229.838C306.196 247.33 336.009 274.352 349.3 285.566" stroke="#9FC6FF" stroke-width="8.11638" stroke-linecap="round" stroke-linejoin="round"/>
</g>
<path d="M462.666 75.4711C466.726 89.3211 466.449 116.337 452.619 153.706C444.427 175.839 429.491 202.229 408.477 228.697C347.223 305.849 257.807 337.119 233.251 344.543C229.129 345.79 224.671 345.078 221.137 342.618C210.961 335.53 189.373 318.844 175.508 296.333C173.472 293.03 172.898 289.023 173.916 285.278C180.42 261.358 210.658 168.305 301.559 103.087" stroke="#001147" stroke-width="8.11638" stroke-linecap="round" stroke-linejoin="round"/>
<path d="M354.566 281.582C289.807 227.124 243.104 171.397 237.136 164.18C254.145 143.053 275.322 121.904 301.557 103.087C322.319 88.194 348.791 75.5392 368.282 68.8029C368.282 68.8029 412.632 95.0444 452.612 153.706C444.427 175.837 429.49 202.224 408.478 228.703C391.949 249.521 373.361 267.004 354.566 281.582Z" stroke="#5C626D" stroke-width="8.11638" stroke-linecap="round" stroke-linejoin="round"/>
<path d="M448.262 147.47L452.614 153.706C444.429 175.838 429.492 202.224 408.479 228.703C391.951 249.522 373.363 267.005 354.567 281.582L351.196 278.647" stroke="#20242D" stroke-width="8.11638" stroke-linecap="round" stroke-linejoin="round"/>
<path d="M253.335 295.165L238.987 316.687L253.335 295.165ZM236.835 331.035L228.943 338.926L236.835 331.035ZM239.022 339.651C259.3 296.041 296.139 263.601 296.139 263.601L286.813 254.276C286.813 254.276 245.085 293.698 211.331 323.295C208.901 328.187 204.125 334.807 197.655 340.473C190.373 346.849 181.149 352.027 178.23 356.022C150.388 394.133 128.82 421.855 128.82 421.855L138.146 431.181C168.873 408.333 200.04 378.06 218.484 360.207C222.922 355.911 226.758 352.117 229.873 348.994C235.712 343.142 239.022 339.651 239.022 339.651Z" fill="url(#paint7_linear_4_1071)"/>
<path d="M253.334 295.165L238.986 316.687L253.334 295.165Z" fill="#505459"/>
<path d="M253.334 295.165L238.986 316.687" stroke="#F8643E" stroke-width="9.13092"/>
<path d="M236.834 331.035L228.943 338.926" stroke="#FCB611" stroke-width="9.13092"/>
<path d="M239.022 339.651C259.3 296.041 296.139 263.601 296.139 263.601L286.813 254.276C286.813 254.276 245.085 293.698 211.331 323.295C208.901 328.187 204.125 334.807 197.655 340.473C190.373 346.849 181.149 352.027 178.23 356.022C150.388 394.133 128.82 421.855 128.82 421.855L138.146 431.181C168.873 408.333 200.04 378.06 218.484 360.207C222.922 355.911 226.758 352.117 229.873 348.994C235.712 343.142 239.022 339.651 239.022 339.651Z" stroke="#BC001B" stroke-width="8.11638" stroke-linecap="round" stroke-linejoin="round"/>
<path d="M204.575 317.512C204.575 317.512 213.972 329.493 210.228 316.178C227.782 310.547 242.496 281.069 281.572 255.522C280.475 256.448 281.759 255.408 282.928 255.601C282.928 255.601 263.559 271.025 263.551 271.032C263.157 271.47 252.783 280.595 204.575 317.512ZM226.699 330.225C226.699 330.225 199.732 351.883 153.934 381.066L226.699 330.225ZM286.814 254.276C286.814 254.276 249.616 286.357 229.338 329.967C229.338 329.967 183.485 379.8 131.511 418.448C131.511 418.448 151.056 387.787 174.349 355.539C174.349 355.539 190.966 341 197.557 334.408L210.454 317.563C210.454 317.563 233.612 294.169 286.814 254.276Z" fill="url(#paint8_linear_4_1071)"/>
<g opacity="0.4">
<path d="M204.575 317.512C204.575 317.512 213.973 329.493 210.228 316.178C227.782 310.547 242.5 281.072 281.576 255.526C280.478 256.452 281.762 255.408 282.928 255.601C282.928 255.601 263.559 271.025 263.552 271.033C263.157 271.47 252.788 280.597 204.575 317.512Z" fill="#7F0012"/>
</g>
<g opacity="0.4">
<path d="M226.698 330.228C226.698 330.228 199.728 351.884 153.93 381.064" stroke="#BC001B" stroke-width="6.08728" stroke-linecap="round" stroke-linejoin="round"/>
</g>
<path d="M286.814 254.276C286.814 254.276 249.616 286.357 229.338 329.967C229.338 329.967 183.485 379.8 131.511 418.448C131.511 418.448 151.056 387.787 174.349 355.539C174.349 355.539 190.966 341 197.557 334.408L210.454 317.563C210.454 317.563 233.612 294.169 286.814 254.276Z" stroke="#510013" stroke-width="8.11638" stroke-linecap="round" stroke-linejoin="round"/>
<path d="M367.07 104.815C352.569 89.1447 326.973 86.9982 299.359 109.18C272.452 130.794 266.248 158.778 284.068 176.599C304.043 196.574 336.371 189.701 357.617 170.045C376.081 152.963 385.055 124.25 367.07 104.815Z" fill="#FF1A1A"/>
<g opacity="0.4">
<path d="M285.82 167.859C278.622 179.096 296.115 192.165 304.698 180.048C313.281 167.932 293.018 156.623 285.82 167.859Z" fill="#FFF89C"/>
</g>
<g opacity="0.4">
<path d="M369.663 136.24C381.745 138.815 367.041 166.72 355.528 158.732C350.188 155.028 351.528 132.375 369.663 136.24Z" fill="#FFF89C"/>
</g>
<path d="M353.599 111.287C341.97 99.6578 320.805 105.142 305.925 117.427C291.045 129.712 282.374 149.742 292.692 162.466C304.376 176.876 327.833 171.078 343.028 158.166C358.365 145.133 365.246 122.934 353.599 111.287Z" fill="url(#paint9_linear_4_1071)"/>
<g opacity="0.2">
<path d="M307.567 115.657C288.667 128.877 285.147 146.281 294.498 164.273C294.498 164.273 286.252 140.756 317.344 121.125C341.098 106.128 358.252 122.807 357.98 132.183C363.276 120.986 345.826 88.8972 307.567 115.657Z" fill="white"/>
</g>
<path d="M353.662 111.35C341.484 99.1724 319.949 104.287 305.008 116.51C290.067 128.734 281.664 149.033 292.525 162.3C304.825 177.326 328.698 171.944 343.947 159.085C359.339 146.107 365.859 123.547 353.662 111.35Z" stroke="black" stroke-width="8.11638" stroke-miterlimit="10"/>
<path d="M367.07 104.815C352.569 89.1447 326.973 86.9982 299.359 109.18C272.452 130.794 266.248 158.778 284.068 176.599C304.043 196.574 336.371 189.701 357.617 170.045C376.081 152.963 385.055 124.25 367.07 104.815Z" stroke="#AF0022" stroke-width="8.11638" stroke-miterlimit="10"/>
<path d="M299.359 109.18C272.453 130.794 266.248 158.778 284.069 176.599C295.044 187.575 309.749 190.444 324.297 187.542" stroke="#7F0012" stroke-width="8.11638" stroke-linecap="round" stroke-linejoin="round"/>
<mask id="mask4_4_1071" style="mask-type:luminance" maskUnits="userSpaceOnUse" x="-81" y="-132" width="735" height="736">
<path d="M286.514 -131.536L653.819 235.769L286.514 603.074L-80.7916 235.769L286.514 -131.536Z" fill="white"/>
</mask>
<g mask="url(#mask4_4_1071)">
<g opacity="0.3">
<path d="M413.481 121.005C411.329 123.156 407.843 123.156 405.691 121.005C403.54 118.853 403.54 115.367 405.691 113.215C407.843 111.064 411.329 111.064 413.481 113.215C415.632 115.367 415.632 118.853 413.481 121.005Z" fill="#101516"/>
</g>
<path d="M413.482 118.221C412.099 119.603 409.858 119.603 408.476 118.221C407.093 116.838 407.093 114.597 408.476 113.215C409.858 111.832 412.099 111.832 413.482 113.215C414.864 114.597 414.864 116.838 413.482 118.221Z" fill="#E1EDF0"/>
<g opacity="0.3">
<path d="M384.24 92.304C382.089 94.4555 378.602 94.4555 376.451 92.304C374.3 90.1525 374.3 86.666 376.451 84.5145C378.602 82.3631 382.089 82.3631 384.24 84.5145C386.392 86.666 386.392 90.1525 384.24 92.304Z" fill="#101516"/>
</g>
<path d="M384.241 89.5198C382.859 90.9022 380.618 90.9022 379.235 89.5198C377.853 88.1374 377.853 85.8963 379.235 84.5138C380.618 83.1314 382.859 83.1314 384.241 84.5138C385.624 85.8963 385.624 88.1374 384.241 89.5198Z" fill="#E1EDF0"/>
<g opacity="0.5">
<path d="M442.852 150.824C440.7 152.975 437.214 152.975 435.062 150.824C432.911 148.672 432.911 145.186 435.062 143.034C437.214 140.883 440.7 140.883 442.852 143.034C445.003 145.186 445.003 148.672 442.852 150.824Z" fill="#101516"/>
</g>
<path d="M442.853 148.04C441.47 149.422 439.229 149.422 437.847 148.04C436.464 146.657 436.464 144.416 437.847 143.034C439.229 141.651 441.47 141.651 442.853 143.034C444.235 144.416 444.235 146.657 442.853 148.04Z" fill="#E1EDF0"/>
<g opacity="0.3">
<path d="M364.082 72.0548C361.931 74.2063 358.444 74.2063 356.293 72.0548C354.141 69.9034 354.141 66.4169 356.293 64.2654C358.444 62.1139 361.931 62.1139 364.082 64.2654C366.234 66.4169 366.234 69.9034 364.082 72.0548Z" fill="#101516"/>
</g>
<path d="M364.083 69.2707C362.701 70.6531 360.46 70.6531 359.077 69.2707C357.695 67.8883 357.695 65.6471 359.077 64.2647C360.46 62.8823 362.701 62.8823 364.083 64.2647C365.465 65.6471 365.465 67.8883 364.083 69.2707Z" fill="#E1EDF0"/>
<path d="M458.496 166.47C456.345 168.621 452.858 168.621 450.707 166.47C448.555 164.318 448.555 160.832 450.707 158.68C452.858 156.529 456.345 156.529 458.496 158.68C460.648 160.832 460.648 164.318 458.496 166.47Z" fill="#101516"/>
<path d="M458.497 163.685C457.115 165.068 454.874 165.068 453.491 163.685C452.109 162.303 452.109 160.062 453.491 158.679C454.874 157.297 457.115 157.297 458.497 158.679C459.88 160.062 459.88 162.303 458.497 163.685Z" fill="#E1EDF0"/>
</g>
<mask id="mask5_4_1071" style="mask-type:luminance" maskUnits="userSpaceOnUse" x="-329" y="-102" width="951" height="951">
<path d="M146.264 -101.047L621.178 373.867L146.264 848.782L-328.651 373.867L146.264 -101.047Z" fill="white"/>
</mask>
<g mask="url(#mask5_4_1071)">
<g opacity="0.3">
<path d="M310.428 225.48C307.647 228.262 303.139 228.262 300.357 225.48C297.575 222.699 297.575 218.191 300.357 215.409C303.139 212.627 307.647 212.627 310.428 215.409C313.21 218.191 313.21 222.699 310.428 225.48Z" fill="#101516"/>
</g>
<path d="M310.428 221.881C308.64 223.668 305.743 223.668 303.955 221.881C302.168 220.093 302.168 217.195 303.955 215.408C305.743 213.621 308.64 213.621 310.428 215.408C312.215 217.195 312.215 220.093 310.428 221.881Z" fill="#E1EDF0"/>
<g opacity="0.3">
<path d="M272.622 188.371C269.84 191.153 265.332 191.153 262.55 188.371C259.768 185.589 259.768 181.081 262.55 178.3C265.332 175.518 269.84 175.518 272.622 178.3C275.403 181.081 275.403 185.589 272.622 188.371Z" fill="#101516"/>
</g>
<path d="M272.623 184.771C270.836 186.559 267.938 186.559 266.15 184.771C264.363 182.984 264.363 180.086 266.15 178.299C267.938 176.511 270.836 176.511 272.623 178.299C274.41 180.086 274.41 182.984 272.623 184.771Z" fill="#E1EDF0"/>
<g opacity="0.5">
<path d="M348.405 264.036C345.623 266.817 341.115 266.817 338.333 264.036C335.552 261.254 335.552 256.746 338.333 253.964C341.115 251.182 345.623 251.182 348.405 253.964C351.187 256.746 351.187 261.254 348.405 264.036Z" fill="#101516"/>
</g>
<path d="M348.404 260.436C346.617 262.223 343.719 262.223 341.932 260.436C340.144 258.648 340.144 255.751 341.932 253.963C343.719 252.176 346.617 252.176 348.404 253.963C350.192 255.751 350.192 258.648 348.404 260.436Z" fill="#E1EDF0"/>
<g opacity="0.3">
<path d="M246.557 162.19C243.775 164.972 239.267 164.972 236.486 162.19C233.704 159.408 233.704 154.9 236.486 152.118C239.267 149.336 243.775 149.336 246.557 152.118C249.339 154.9 249.339 159.408 246.557 162.19Z" fill="#101516"/>
</g>
<path d="M246.559 158.59C244.771 160.377 241.873 160.377 240.086 158.59C238.299 156.802 238.299 153.905 240.086 152.117C241.873 150.33 244.771 150.33 246.559 152.117C248.346 153.905 248.346 156.802 246.559 158.59Z" fill="#E1EDF0"/>
<path d="M368.633 284.265C365.852 287.047 361.344 287.047 358.562 284.265C355.78 281.483 355.78 276.975 358.562 274.194C361.344 271.412 365.852 271.412 368.633 274.194C371.415 276.975 371.415 281.483 368.633 284.265Z" fill="#101516"/>
<path d="M368.635 280.665C366.847 282.453 363.95 282.453 362.162 280.665C360.375 278.878 360.375 275.98 362.162 274.193C363.95 272.405 366.847 272.405 368.635 274.193C370.422 275.98 370.422 278.878 368.635 280.665Z" fill="#E1EDF0"/>
</g>
</g>
</g>
</g>
<defs>
<linearGradient id="paint0_linear_4_1071" x1="119.167" y1="352.643" x2="200.232" y2="266.197" gradientUnits="userSpaceOnUse">
<stop offset="0.41" stop-color="#FFEB16"/>
<stop offset="0.7" stop-color="#FBA30B"/>
<stop offset="1" stop-color="#F75C00"/>
</linearGradient>
<linearGradient id="paint1_linear_4_1071" x1="179.596" y1="336.228" x2="188.734" y2="285.19" gradientUnits="userSpaceOnUse">
<stop offset="0.41" stop-color="#FFF652"/>
<stop offset="0.7" stop-color="#FBA929"/>
<stop offset="1" stop-color="#F75C00"/>
</linearGradient>
<linearGradient id="paint2_linear_4_1071" x1="210.163" y1="390.45" x2="251.054" y2="384.711" gradientUnits="userSpaceOnUse">
<stop offset="0.41" stop-color="#FFEB16"/>
<stop offset="0.7" stop-color="#FBA30B"/>
<stop offset="1" stop-color="#F75C00"/>
</linearGradient>
<linearGradient id="paint3_linear_4_1071" x1="106.892" y1="315.739" x2="116.03" y2="264.701" gradientUnits="userSpaceOnUse">
<stop offset="0.41" stop-color="#FFF652"/>
<stop offset="0.7" stop-color="#FBA929"/>
<stop offset="1" stop-color="#F75C00"/>
</linearGradient>
<radialGradient id="paint4_radial_4_1071" cx="0" cy="0" r="1" gradientUnits="userSpaceOnUse" gradientTransform="translate(148.872 363.417) rotate(45) scale(46.6733 131.775)">
<stop offset="0.41" stop-color="#FFF652"/>
<stop offset="0.7" stop-color="#FBA929"/>
<stop offset="1" stop-color="#F75C00"/>
</radialGradient>
<linearGradient id="paint5_linear_4_1071" x1="258.178" y1="141.433" x2="375.789" y2="263.725" gradientUnits="userSpaceOnUse">
<stop offset="0.25" stop-color="#3A93E8"/>
<stop offset="0.36" stop-color="#60ACE3"/>
<stop offset="0.52" stop-color="#85C5DF"/>
<stop offset="0.73" stop-color="#4387C2"/>
<stop offset="0.93" stop-color="#004AA4"/>
</linearGradient>
<linearGradient id="paint6_linear_4_1071" x1="292.612" y1="105.562" x2="409.866" y2="226.781" gradientUnits="userSpaceOnUse">
<stop offset="0.04" stop-color="#95A9B6"/>
<stop offset="0.26" stop-color="#C0CDD0"/>
<stop offset="0.53" stop-color="#EAF0EA"/>
<stop offset="0.72" stop-color="#919896"/>
<stop offset="0.93" stop-color="#374043"/>
</linearGradient>
<linearGradient id="paint7_linear_4_1071" x1="140.345" y1="418.915" x2="226.791" y2="337.85" gradientUnits="userSpaceOnUse">
<stop offset="0.41" stop-color="#FFF652"/>
<stop offset="0.7" stop-color="#FBA929"/>
<stop offset="1" stop-color="#F75C00"/>
</linearGradient>
<linearGradient id="paint8_linear_4_1071" x1="165.326" y1="367.852" x2="193.304" y2="348.482" gradientUnits="userSpaceOnUse">
<stop offset="0.41" stop-color="#7F0012"/>
<stop offset="0.7" stop-color="#7F0012"/>
<stop offset="1" stop-color="#7F0012"/>
</linearGradient>
<linearGradient id="paint9_linear_4_1071" x1="324.108" y1="108.362" x2="328.708" y2="151.643" gradientUnits="userSpaceOnUse">
<stop stop-color="#525D66"/>
<stop offset="0.45" stop-color="#292E34"/>
<stop offset="0.93" stop-color="#000002"/>
</linearGradient>
<clipPath id="clip0_4_1071">
<rect width="512" height="512" fill="white"/>
</clipPath>
</defs>
</svg>
