<svg xmlns="http://www.w3.org/2000/svg" viewBox="0 0 96 96" fill="none">
  <path d="M52 18c6 0 10 4 10 10 0 6-4 10-10 10" stroke="#E02957" stroke-width="5" stroke-linecap="round" />
  <path d="M44 18c-6 0-10 4-10 10 0 6 4 10 10 10" stroke="#E02957" stroke-width="5" stroke-linecap="round" />
  <path d="M32 28c0 10 7 18 16 18s16-8 16-18c0-5-2-9-6-12-3-2-7-4-10-4s-7 2-10 4c-4 3-6 7-6 12z" fill="#FF5F8D" />
  <path d="M48 46v30" stroke="#4F8B4B" stroke-width="6" stroke-linecap="round" />
  <path d="M60 58c6 2 10 8 12 14-7-1-13-5-16-10" stroke="#4F8B4B" stroke-width="5" stroke-linecap="round" />
  <path d="M36 64c-6 2-10 8-12 14 7-1 13-5 16-10" stroke="#4F8B4B" stroke-width="5" stroke-linecap="round" />
  <path d="M40 54c4 2 8 2 12 0" stroke="#4F8B4B" stroke-width="6" stroke-linecap="round" />
</svg>
