<svg xmlns:xlink="http://www.w3.org/1999/xlink"  xmlns="http://www.w3.org/2000/svg" width="21" height="20" viewBox="0 0 21 20" fill="none"><path d="M5.4654 19.0039L9.96661 16.2461C10.2856 16.0507 10.686 16.0507 11.005 16.2461L15.5426 19.026C15.7677 19.1639 16.0378 19.2061 16.2945 19.1447C16.8281 19.0164 17.1567 18.48 17.0283 17.9464L15.784 12.7795C15.6968 12.4154 15.8213 12.0332 16.1058 11.7909L20.1511 8.34242C20.3522 8.17096 20.4768 7.92669 20.4969 7.66327C20.54 7.1163 20.131 6.63831 19.584 6.5952L14.2791 6.17947C13.9065 6.15073 13.5818 5.91509 13.439 5.56928L11.4035 0.656176C11.3029 0.412868 11.1094 0.219371 10.8661 0.11879C10.3593 -0.0909913 9.77694 0.149444 9.56716 0.656176L7.53257 5.56928C7.38984 5.91509 7.06415 6.15073 6.69152 6.17947L1.41633 6.59233C1.15003 6.6134 0.903847 6.73985 0.732382 6.94484C0.379872 7.36536 0.434472 7.99279 0.854993 8.3453L2.5821 9.79174C3.44613 10.5159 4.58604 10.8234 5.69722 10.6309L11.163 9.68445C11.3661 9.64901 11.5663 9.75246 11.6554 9.9383C11.7656 10.1672 11.6688 10.4422 11.4399 10.5523L6.52964 12.9097C5.60909 13.3523 4.93185 14.1799 4.67992 15.1694L3.98352 17.9119C3.91742 18.1715 3.95957 18.4464 4.09943 18.6754C4.38584 19.1438 4.99698 19.2903 5.4654 19.0039Z" fill="white"/></svg>