<svg width="26" height="26" viewBox="0 0 26 26" fill="none" xmlns="http://www.w3.org/2000/svg">
<path fill-rule="evenodd" clip-rule="evenodd" d="M26 13C26 20.1797 20.1797 26 13 26C5.8203 26 0 20.1797 0 13C0 5.8203 5.8203 0 13 0C20.1797 0 26 5.8203 26 13ZM17 10C17 12.2091 15.2091 14 13 14C10.7909 14 9 12.2091 9 10C9 7.79086 10.7909 6 13 6C15.2091 6 17 7.79086 17 10ZM20.5696 19.9231C20.3936 19.5007 20.1314 19.3274 19.6069 18.9809C17.7121 17.7289 15.4412 17 13.0001 17C10.559 17 8.28806 17.7289 6.39319 18.981C5.86874 19.3276 5.60652 19.5008 5.43056 19.9232C5.30846 20.2163 5.30847 20.7839 5.43057 21.0769C5.60654 21.4993 5.86876 21.6726 6.39321 22.0191C8.28805 23.2711 10.5589 24 13 24C15.4412 24 17.7121 23.2711 19.6069 22.019C20.1314 21.6724 20.3936 21.4992 20.5696 21.0768C20.6917 20.7838 20.6917 20.2161 20.5696 19.9231Z" fill="white"/>
</svg>
