<svg width="26" height="26" viewBox="0 0 26 26" fill="none" xmlns="http://www.w3.org/2000/svg">
<path d="M25.6313 16.1541C25.8723 15.1605 26 14.1224 26 13.0543C26 11.8006 25.824 10.5881 25.4954 9.44047H18.8229C18.9017 10.4042 18.9428 11.4033 18.9428 12.4243C18.9428 13.7114 18.8775 14.9636 18.7537 16.1541H25.6313Z" fill="white"/>
<path d="M24.9752 18.1434H18.483C18.2572 19.4703 17.9535 20.6875 17.5833 21.7495C17.1567 22.9734 16.6117 24.0791 15.9267 24.9104C15.5883 25.3211 15.1738 25.7119 14.6852 26C19.3321 25.396 23.2094 22.3279 24.9752 18.1434Z" fill="white"/>
<path d="M17.135 16.1541C17.2638 14.9767 17.3333 13.7238 17.3333 12.4243C17.3333 11.3958 17.2898 10.3964 17.2077 9.44047H8.79227C8.7102 10.3964 8.66667 11.3958 8.66667 12.4243C8.66667 13.7238 8.73615 14.9767 8.86505 16.1541H17.135Z" fill="white"/>
<path d="M9.15134 18.1434H16.8487C16.1272 22.132 14.6745 24.857 13 24.857C11.3255 24.857 9.87285 22.132 9.15134 18.1434Z" fill="white"/>
<path d="M7.24633 16.1541C7.12247 14.9636 7.05716 13.7114 7.05716 12.4243C7.05716 11.4033 7.09826 10.4042 7.17708 9.44047H0.504569C0.176009 10.5881 0 11.8006 0 13.0543C0 14.1224 0.127736 15.1605 0.368705 16.1541H7.24633Z" fill="white"/>
<path d="M1.02484 18.1434H7.51704C7.7428 19.4703 8.04653 20.6875 8.41669 21.7495C8.84327 22.9734 9.38826 24.0791 10.0733 24.9104C10.4117 25.3211 10.8262 25.7119 11.3148 26C6.66786 25.396 2.79056 22.3279 1.02484 18.1434Z" fill="white"/>
<path d="M16.289 0.421412C20.0298 1.40078 23.1147 4.01134 24.745 7.45124H18.6C18.3671 5.83313 18.0218 4.35728 17.5833 3.09915C17.2348 2.09929 16.8073 1.17833 16.289 0.421412Z" fill="white"/>
<path d="M13.1709 0.00110453C14.8744 0.190622 16.3256 3.20164 16.9728 7.45124H9.02724C9.67439 3.20164 11.1256 0.190622 12.8291 0.00110453C12.886 0.000368925 12.943 0 13 0C13.057 0 13.114 0.000368924 13.1709 0.00110453Z" fill="white"/>
<path d="M8.41669 3.09915C7.97819 4.35728 7.6329 5.83313 7.40004 7.45124H1.255C2.88532 4.01134 5.97016 1.40078 9.71101 0.421412C9.19269 1.17833 8.76518 2.09929 8.41669 3.09915Z" fill="white"/>
</svg>
