<svg width="26" height="26" viewBox="0 0 26 26" fill="none" xmlns="http://www.w3.org/2000/svg">
<path fill-rule="evenodd" clip-rule="evenodd" d="M8.24859 0.0438095C6.60944 0.270888 5.24323 1.52437 4.80875 3.19983C4.5831 4.07012 4.77129 5.29886 5.24532 6.05007C5.35606 6.22552 5.50064 6.46601 5.56666 6.58447L5.68661 6.79986L4.14236 6.79217C3.29299 6.78792 2.70859 6.80361 2.84371 6.82712L3.08939 6.86977L2.70472 6.9198C2.02027 7.00872 1.3484 7.56091 1.16065 8.18879C1.06231 8.51766 1.05599 12.1865 1.15315 12.548C1.23638 12.8577 1.63013 13.3117 1.96302 13.4819C2.08973 13.5467 2.38116 13.6269 2.61069 13.6601C2.85274 13.6952 4.89351 13.7211 7.47121 13.7218L11.9144 13.723L11.8934 10.3383L11.8723 6.95371H13.0224H14.1726L14.1712 10.323L14.1698 13.6922H18.8866H23.6033L23.9244 13.5468C24.2595 13.395 24.691 12.9811 24.8158 12.6917C24.9154 12.4606 24.9577 8.82708 24.8665 8.33083C24.7875 7.90098 24.5673 7.5675 24.1522 7.24922C23.7001 6.90263 23.4427 6.8614 21.7301 6.8614C20.9024 6.8614 20.2944 6.851 20.3788 6.83832C20.503 6.81967 20.5119 6.8078 20.4253 6.77611C20.331 6.74164 20.3448 6.69998 20.5395 6.42995C21.2937 5.3836 21.4891 4.07775 21.0779 2.83121C20.7118 1.72111 19.7528 0.688245 18.7337 0.306211C17.5532 -0.136315 15.9927 -0.0954531 14.9831 0.404489C14.3283 0.728738 13.6173 1.45287 13.2849 2.1341C13.1498 2.41103 13.0215 2.63946 12.9999 2.6418C12.9782 2.64407 12.9143 2.53029 12.8578 2.38887C12.7018 1.99822 12.1641 1.25385 11.8152 0.945601C11.4137 0.590952 10.6374 0.20658 10.0912 0.092056C9.69568 0.00916307 8.68884 -0.0172371 8.24859 0.0438095ZM8.7314 2.33533C8.05327 2.44143 7.38074 2.99362 7.20416 3.58925C6.96174 4.4071 7.15459 5.36693 7.67622 5.93875C8.29477 6.6169 8.98586 6.79266 10.8896 6.75604L11.8109 6.73832L11.7946 5.78447C11.7748 4.63449 11.6986 4.01442 11.5384 3.69971C11.3611 3.35153 10.5508 2.54444 10.4649 2.63054C10.4451 2.65029 10.429 2.63497 10.429 2.59644C10.429 2.4202 9.29947 2.24653 8.7314 2.33533ZM16.2778 2.3394C15.7969 2.40967 15.3451 2.65989 14.9502 3.07472C14.3306 3.72556 14.181 4.26372 14.1774 5.85481C14.1758 6.56478 14.1905 6.70017 14.2727 6.73174C14.3261 6.75229 14.916 6.76909 15.5836 6.76909C16.6293 6.76909 16.8458 6.75241 17.1473 6.64841C17.704 6.45653 18.1001 6.21149 18.3896 5.87985C18.7616 5.45388 18.8729 5.09677 18.8703 4.3383C18.8678 3.61737 18.7578 3.30371 18.3652 2.89835C18.0707 2.59429 17.7212 2.42973 17.1847 2.34253C16.747 2.27133 16.7436 2.27133 16.2778 2.3394ZM10.0117 6.87623C10.2383 6.88798 10.6252 6.88811 10.8715 6.87635C11.118 6.86466 10.9451 6.88512 10.4722 6.88506C9.99929 6.88493 9.78517 6.86441 10.0117 6.87623ZM6.02215 15.1845L2.75158 15.201V19.2283C2.75158 21.9218 2.774 23.3634 2.81921 23.5816C2.99462 24.4269 3.62072 25.2922 4.29621 25.6225C4.88528 25.9106 5.05031 25.9233 8.57104 25.9513L11.903 25.9777L11.9023 20.7888C11.902 17.935 11.8845 15.4961 11.8636 15.3692L11.8255 15.1384L10.5591 15.1532C9.86262 15.1614 7.82099 15.1755 6.02215 15.1845ZM14.1348 16.9073C14.1571 17.8467 14.1753 20.2769 14.1753 22.3077L14.1755 26L17.4767 25.9646C21.2028 25.9246 21.2708 25.917 21.9643 25.4643C22.4299 25.1604 22.7061 24.8366 22.9559 24.3016C23.2399 23.6936 23.2714 23.1216 23.2519 18.923L23.2348 15.2307L18.6646 15.2149L14.0943 15.1991L14.1348 16.9073Z" fill="white"/>
</svg>
